M48
; DRILL file {KiCad 9.0.3} date 2025-09-14T18:43:41+0200
; FORMAT={-:-/ absolute / metric / decimal}
; #@! TF.CreationDate,2025-09-14T18:43:41+02:00
; #@! TF.GenerationSoftware,Kicad,Pcbnew,9.0.3
; #@! TF.FileFunction,Plated,1,2,PTH
FMAT,2
METRIC
; #@! TA.AperFunction,Plated,PTH,ViaDrill
T1C0.300
; #@! TA.AperFunction,Plated,PTH,ComponentDrill
T2C0.500
; #@! TA.AperFunction,Plated,PTH,ComponentDrill
T3C0.650
%
G90
G05
T1
X12.562Y-27.101
X12.562Y-72.099
X12.776Y-16.647
X12.776Y-61.645
X13.07Y-25.069
X13.07Y-70.067
X13.832Y-20.497
X13.832Y-65.495
X14.086Y-19.735
X14.086Y-64.733
X15.543Y-25.187
X15.543Y-70.185
X16.399Y-25.194
X16.399Y-70.193
X17.489Y-25.221
X17.489Y-70.22
X18.505Y-25.17
X18.505Y-70.169
X19.953Y-25.094
X19.953Y-70.093
X20.944Y-22.021
X20.944Y-67.019
X21.248Y-34.924
X21.248Y-79.922
X21.959Y-19.134
X21.959Y-64.132
X21.96Y-22.529
X21.96Y-67.527
X21.991Y-25.038
X21.991Y-70.036
X22.425Y-35.012
X22.425Y-80.01
X22.432Y-18.247
X22.432Y-63.245
X23.179Y-35.28
X23.179Y-80.278
X23.738Y-27.863
X23.738Y-72.861
X23.992Y-35.483
X23.992Y-80.481
X24.754Y-16.687
X24.754Y-21.728
X24.754Y-22.783
X24.754Y-61.685
X24.754Y-66.726
X24.754Y-67.781
X24.957Y-35.534
X24.957Y-80.532
X25.719Y-35.28
X25.719Y-80.278
X26.481Y-35.026
X26.481Y-80.024
X26.786Y-19.135
X26.786Y-64.133
X27.649Y-37.769
X27.649Y-82.767
X29.275Y-28.168
X29.275Y-73.166
X30.85Y-23.913
X30.85Y-68.911
X31.104Y-23.037
X31.104Y-68.035
X33.052Y-15.247
X33.052Y-60.245
X34.422Y-13.564
X34.422Y-58.562
X34.456Y-39.852
X34.456Y-84.85
X34.66Y-27.609
X34.66Y-72.607
X34.728Y-36.481
X34.728Y-81.479
X34.732Y-37.333
X34.732Y-82.331
X35.93Y-19.227
X35.93Y-64.225
X36.439Y-38.029
X36.439Y-83.028
X37.098Y-11.048
X37.098Y-56.046
X37.653Y-43.719
X37.653Y-88.718
X50.55Y-27.101
X50.55Y-72.099
X50.764Y-16.647
X50.764Y-61.645
X51.058Y-25.069
X51.058Y-70.067
X51.82Y-20.497
X51.82Y-65.495
X52.074Y-19.735
X52.074Y-64.733
X53.531Y-25.187
X53.531Y-70.185
X54.387Y-25.194
X54.387Y-70.193
X55.477Y-25.221
X55.477Y-70.22
X56.493Y-25.17
X56.493Y-70.169
X57.941Y-25.094
X57.941Y-70.093
X58.932Y-22.021
X58.932Y-67.019
X59.237Y-34.924
X59.237Y-79.922
X59.947Y-19.134
X59.947Y-64.132
X59.948Y-22.529
X59.948Y-67.527
X59.979Y-25.038
X59.979Y-70.036
X60.413Y-35.012
X60.413Y-80.01
X60.42Y-18.247
X60.42Y-63.245
X61.167Y-35.28
X61.167Y-80.278
X61.726Y-27.863
X61.726Y-72.861
X61.98Y-35.483
X61.98Y-80.481
X62.742Y-16.687
X62.742Y-21.728
X62.742Y-22.783
X62.742Y-61.685
X62.742Y-66.726
X62.742Y-67.781
X62.945Y-35.534
X62.945Y-80.532
X63.707Y-35.28
X63.707Y-80.278
X64.469Y-35.026
X64.469Y-80.024
X64.774Y-19.135
X64.774Y-64.133
X65.637Y-37.769
X65.637Y-82.767
X67.263Y-28.168
X67.263Y-73.166
X68.838Y-23.913
X68.838Y-68.911
X69.092Y-23.037
X69.092Y-68.035
X71.04Y-15.247
X71.04Y-60.245
X72.41Y-13.564
X72.41Y-58.562
X72.445Y-39.852
X72.445Y-84.85
X72.648Y-27.609
X72.648Y-72.607
X72.716Y-36.481
X72.716Y-81.479
X72.72Y-37.333
X72.72Y-82.331
X73.918Y-19.227
X73.918Y-64.225
X74.427Y-38.029
X74.427Y-83.028
X75.086Y-11.048
X75.086Y-56.046
X75.641Y-43.719
X75.641Y-88.718
T3
X10.53Y-26.227
X10.53Y-27.497
X10.53Y-71.225
X10.53Y-72.495
X36.692Y-30.403
X36.692Y-75.401
X37.962Y-30.403
X37.962Y-75.401
X48.518Y-26.227
X48.518Y-27.497
X48.518Y-71.225
X48.518Y-72.495
X74.68Y-30.403
X74.68Y-75.401
X75.95Y-30.403
X75.95Y-75.401
T2
X38.82Y-33.383G85X38.12Y-33.383
G05
X38.82Y-39.983G85X38.12Y-39.983
G05
X38.82Y-78.381G85X38.12Y-78.381
G05
X38.82Y-84.981G85X38.12Y-84.981
G05
X76.808Y-33.383G85X76.108Y-33.383
G05
X76.808Y-39.983G85X76.108Y-39.983
G05
X76.808Y-78.381G85X76.108Y-78.381
G05
X76.808Y-84.981G85X76.108Y-84.981
G05
M30
