G04 #@! TF.GenerationSoftware,KiCad,Pcbnew,9.0.3*
G04 #@! TF.CreationDate,2025-09-14T18:43:41+02:00*
G04 #@! TF.ProjectId,panel,70616e65-6c2e-46b6-9963-61645f706362,rev?*
G04 #@! TF.SameCoordinates,Original*
G04 #@! TF.FileFunction,Profile,NP*
%FSLAX46Y46*%
G04 Gerber Fmt 4.6, Leading zero omitted, Abs format (unit mm)*
G04 Created by KiCad (PCBNEW 9.0.3) date 2025-09-14 18:43:41*
%MOMM*%
%LPD*%
G01*
G04 APERTURE LIST*
G04 #@! TA.AperFunction,Profile*
%ADD10C,0.100000*%
G04 #@! TD*
G04 APERTURE END LIST*
D10*
X7736240Y-24779878D02*
X7714363Y-24790890D01*
X25296521Y-44179373D02*
X25308593Y-44158062D01*
X5182437Y-5113268D02*
X5201746Y-5098199D01*
X78089668Y-69654762D02*
X78074599Y-69635453D01*
X73642065Y-7836107D02*
X73626068Y-7817562D01*
X25240003Y-47548310D02*
X25238201Y-47523884D01*
X73626068Y-51180837D02*
X73642065Y-51162292D01*
X77985988Y-73238849D02*
X77991354Y-73214952D01*
X7714363Y-69789290D02*
X7691972Y-69799215D01*
X73843692Y-5029169D02*
X73866948Y-5021487D01*
X80905406Y-69594737D02*
X80892303Y-69615429D01*
X70013787Y-50998400D02*
X70038284Y-50999001D01*
X78378049Y-69827611D02*
X78354152Y-69822245D01*
X63511450Y-43963509D02*
X63533841Y-43953584D01*
X60112531Y-89096437D02*
X60127600Y-89115746D01*
X78450915Y-69836598D02*
X78426489Y-69834796D01*
X63284721Y-93733026D02*
X63273709Y-93711149D01*
X80954912Y-93642651D02*
X80947230Y-93665907D01*
X39993601Y-69411418D02*
X39990603Y-69387110D01*
X60196630Y-93665907D02*
X60187815Y-93688758D01*
X25401492Y-47869134D02*
X25383753Y-47852246D01*
X62345550Y-58018011D02*
X62321418Y-58022198D01*
X40152092Y-27968065D02*
X40170637Y-27952068D01*
X35810250Y-51046309D02*
X35832641Y-51036384D01*
X25259087Y-47644251D02*
X25252554Y-47620647D01*
X7645869Y-27860287D02*
X7669125Y-27867969D01*
X73610999Y-52796653D02*
X73596896Y-52776629D01*
X31871858Y-90996800D02*
X39982063Y-90996800D01*
X56130048Y-43965213D02*
X56152764Y-43954940D01*
X32074510Y-51000803D02*
X32098818Y-51003801D01*
X35999115Y-5000601D02*
X36023612Y-5000000D01*
X63724812Y-93996800D02*
X63700315Y-93996198D01*
X78074599Y-73038946D02*
X78089668Y-73019637D01*
X59775710Y-47995996D02*
X59751284Y-47997798D01*
X62545453Y-57929400D02*
X62525429Y-57943503D01*
X77976276Y-45997301D02*
X77976399Y-45992288D01*
X45985814Y-73287288D02*
X45987616Y-73311714D01*
X7836120Y-69707934D02*
X7817575Y-69723931D01*
X80690749Y-24790890D02*
X80668358Y-24800815D01*
X45786471Y-27936999D02*
X45805779Y-27952067D01*
X25237600Y-44414612D02*
X25238201Y-44390115D01*
X32360707Y-52869134D02*
X32342162Y-52885131D01*
X25545641Y-47960415D02*
X25523250Y-47950490D01*
X73513401Y-5474515D02*
X73515203Y-5450089D01*
X25639249Y-43925188D02*
X25663381Y-43921001D01*
X18056944Y-44017227D02*
X18077169Y-44002648D01*
X59751284Y-43916201D02*
X59775710Y-43918003D01*
X78262050Y-27886709D02*
X78284441Y-27876784D01*
X80905406Y-24596337D02*
X80892303Y-24617029D01*
X7929019Y-69594736D02*
X7915916Y-69615429D01*
X7901817Y-28040545D02*
X7915920Y-28060570D01*
X5098199Y-73038946D02*
X5113268Y-73019637D01*
X80847134Y-69673307D02*
X80830246Y-69691046D01*
X80976400Y-73336212D02*
X80976400Y-93497787D01*
X85976399Y-6111D02*
X85976276Y-1098D01*
X60079646Y-47852246D02*
X60061907Y-47869134D01*
X80812507Y-72966465D02*
X80830246Y-72983353D01*
X40296241Y-27876784D02*
X40319092Y-27867969D01*
X22237600Y-89413012D02*
X22237600Y-93497787D01*
X63556692Y-43944769D02*
X63579948Y-43937087D01*
X70062710Y-52995996D02*
X70038284Y-52997798D01*
X73776573Y-7941078D02*
X73755262Y-7929006D01*
X7525497Y-69836598D02*
X7501000Y-69837200D01*
X63284721Y-47734626D02*
X63273709Y-47712749D01*
X22228011Y-93595150D02*
X22222645Y-93619047D01*
X35832641Y-52960415D02*
X35810250Y-52950490D01*
X62744796Y-57577510D02*
X62741798Y-57601818D01*
X70038284Y-50999001D02*
X70062710Y-51000803D01*
X5242462Y-27909793D02*
X5263773Y-27897721D01*
X40342348Y-24817312D02*
X40319092Y-24809630D01*
X40086399Y-69635453D02*
X40072296Y-69615429D01*
X80966811Y-24437150D02*
X80961445Y-24461047D01*
X25266769Y-47667507D02*
X25259087Y-47644251D01*
X32282137Y-52927406D02*
X32260826Y-52939478D01*
X56065369Y-89001048D02*
X56086296Y-88987497D01*
X78240173Y-72896121D02*
X78262050Y-72885109D01*
X31861262Y-45993924D02*
X31865384Y-45997969D01*
X40009687Y-73191348D02*
X40017369Y-73168092D01*
X80863131Y-47815962D02*
X80847134Y-47834507D01*
X45959043Y-69506307D02*
X45950228Y-69529158D01*
X63389692Y-44044865D02*
X63408237Y-44028868D01*
X7999416Y-28313314D02*
X8000017Y-28337811D01*
X45987611Y-24364284D02*
X45985809Y-24388709D01*
X45657321Y-24809630D02*
X45634065Y-24817312D01*
X45766446Y-72921296D02*
X45786471Y-72935399D01*
X5014954Y-47620647D02*
X5009588Y-47596750D01*
X35527003Y-5450089D02*
X35530001Y-5425781D01*
X80973996Y-51448489D02*
X80975798Y-51472915D01*
X63700315Y-43916201D02*
X63724812Y-43915600D01*
X5201746Y-69739000D02*
X5182437Y-69723931D01*
X80712626Y-24779878D02*
X80690749Y-24790890D01*
X40251973Y-24779878D02*
X40230662Y-24767806D01*
X78402181Y-69831798D02*
X78378049Y-69827611D01*
X80598647Y-69822245D02*
X80574750Y-69827611D01*
X5014954Y-73214952D02*
X5021487Y-73191348D01*
X60204312Y-93642651D02*
X60196630Y-93665907D01*
X45988200Y-13035336D02*
X45988213Y-24339787D01*
X80892303Y-47776629D02*
X80878200Y-47796653D01*
X5005401Y-5425781D02*
X5009588Y-5401649D01*
X35524600Y-52499387D02*
X35524600Y-51497412D01*
X78284441Y-24800815D02*
X78262050Y-24790890D01*
X63235388Y-44317249D02*
X63240754Y-44293352D01*
X18141848Y-43965213D02*
X18164564Y-43954940D01*
X29993853Y-89065711D02*
X31861244Y-90992306D01*
X78426489Y-69834796D02*
X78402181Y-69831798D01*
X40462715Y-27839401D02*
X40487212Y-27838800D01*
X80812507Y-27968065D02*
X80830246Y-27984953D01*
X63309896Y-93775029D02*
X63296793Y-93754337D01*
X21995137Y-43986593D02*
X22015829Y-43999696D01*
X40413981Y-69831798D02*
X40389849Y-69827611D01*
X32523998Y-7525484D02*
X32522196Y-7549910D01*
X40342348Y-27860287D02*
X40365952Y-27853754D01*
X5000601Y-24364284D02*
X5000000Y-24339787D01*
X21835950Y-88923588D02*
X21859847Y-88928954D01*
X16127354Y-90992321D02*
X18000976Y-89065166D01*
X80961445Y-28216552D02*
X80966811Y-28240449D01*
X62718030Y-57696707D02*
X62709215Y-57719558D01*
X7999411Y-69362684D02*
X7997609Y-69387109D01*
X80947230Y-47667507D02*
X80938415Y-47690358D01*
X60112531Y-93814362D02*
X60096534Y-93832907D01*
X78035321Y-69573426D02*
X78024309Y-69551549D01*
X80970998Y-69411418D02*
X80966811Y-69435550D01*
X80954912Y-5354148D02*
X80961445Y-5377752D01*
X21787510Y-43918003D02*
X21811818Y-43921001D01*
X32342162Y-51111668D02*
X32360707Y-51127665D01*
X25687689Y-43918003D02*
X25712115Y-43916201D01*
X35534188Y-51400049D02*
X35539554Y-51376152D01*
X56025674Y-89031198D02*
X56045144Y-89015627D01*
X5182437Y-24725531D02*
X5163892Y-24709534D01*
X80733937Y-5070993D02*
X80754629Y-5084096D01*
X5098199Y-51200146D02*
X5113268Y-51180837D01*
X22153503Y-47776629D02*
X22139400Y-47796653D01*
X35527003Y-52548310D02*
X35525201Y-52523884D01*
X18077169Y-89001048D02*
X18098096Y-88987497D01*
X40170637Y-24725531D02*
X40152092Y-24709534D01*
X35637868Y-51180837D02*
X35653865Y-51162292D01*
X32395334Y-7836107D02*
X32378446Y-7853846D01*
X16116778Y-90996799D02*
X16122541Y-90996655D01*
X24516537Y-12958206D02*
X24495226Y-12970278D01*
X45538123Y-69834796D02*
X45513697Y-69836598D01*
X73987315Y-50999001D02*
X74011812Y-50998400D01*
X63468262Y-93925806D02*
X63447570Y-93912703D01*
X62617934Y-12865307D02*
X62601046Y-12883046D01*
X7836120Y-24709534D02*
X7817575Y-24725531D01*
X22124331Y-47815962D02*
X22108334Y-47834507D01*
X63231201Y-93571018D02*
X63228203Y-93546710D01*
X70503211Y-7598350D02*
X70497845Y-7622247D01*
X7817575Y-69723931D02*
X7798266Y-69739000D01*
X80975798Y-5474515D02*
X80976400Y-5499012D01*
X67926047Y-44017600D02*
X67945535Y-44033225D01*
X73676692Y-52869134D02*
X73658953Y-52852246D01*
X73776573Y-51057321D02*
X73798450Y-51046309D01*
X73541969Y-7669107D02*
X73534287Y-7645851D01*
X25259087Y-89268148D02*
X25266769Y-89244892D01*
X40059193Y-24596337D02*
X40047121Y-24575026D01*
X7985062Y-28216552D02*
X7990429Y-28240449D01*
X59962026Y-93937878D02*
X59940149Y-93948890D01*
X63408237Y-93883531D02*
X63389692Y-93867534D01*
X70441806Y-5242462D02*
X70453878Y-5263773D01*
X80970998Y-47572618D02*
X80966811Y-47596750D01*
X45988323Y-13030298D02*
X45988200Y-13035311D01*
X22166606Y-93754337D02*
X22153503Y-93775029D01*
X73550784Y-5308041D02*
X73560709Y-5285650D01*
X78074599Y-24637053D02*
X78060496Y-24617029D01*
X45904120Y-28060570D02*
X45917223Y-28081262D01*
X80668358Y-5037984D02*
X80690749Y-5047909D01*
X80622251Y-47976912D02*
X80598647Y-47983445D01*
X77976400Y-69338187D02*
X77976400Y-53004536D01*
X32050084Y-5000601D02*
X32074510Y-5002403D01*
X5037984Y-5308041D02*
X5047909Y-5285650D01*
X24645731Y-57845162D02*
X24629734Y-57863707D01*
X73583793Y-52755937D02*
X73571721Y-52734626D01*
X35902352Y-5014954D02*
X35926249Y-5009588D01*
X5499012Y-5000000D02*
X32025587Y-5000000D01*
X32170451Y-5021487D02*
X32193707Y-5029169D01*
X22108334Y-89077892D02*
X22124331Y-89096437D01*
X7853859Y-69691045D02*
X7836120Y-69707934D01*
X45904116Y-69615429D02*
X45890013Y-69635453D01*
X40462715Y-69836598D02*
X40438289Y-69834796D01*
X45786466Y-69739000D02*
X45766442Y-69753102D01*
X123Y-1098D02*
X0Y-6111D01*
X78047393Y-73079662D02*
X78060496Y-73058970D01*
X7836125Y-72966465D02*
X7853863Y-72983353D01*
X45959043Y-24507907D02*
X45950228Y-24530758D01*
X60043362Y-89027268D02*
X60061907Y-89043265D01*
X80574750Y-27848388D02*
X80598647Y-27853754D01*
X7714367Y-72885109D02*
X7736244Y-72896121D01*
X35832641Y-7962015D02*
X35810250Y-7952090D01*
X69860058Y-90996800D02*
X77970263Y-90996800D01*
X63533841Y-43953584D02*
X63556692Y-43944769D01*
X70038284Y-52997798D02*
X70013787Y-52998400D01*
X5354148Y-72858687D02*
X5377752Y-72852154D01*
X73522388Y-51400049D02*
X73527754Y-51376152D01*
X80550618Y-47992998D02*
X80526310Y-47995996D01*
X80526310Y-5002403D02*
X80550618Y-5005401D01*
X59940149Y-88961909D02*
X59962026Y-88972921D01*
X32025587Y-52998400D02*
X24765136Y-52998400D01*
X80863131Y-5182437D02*
X80878200Y-5201746D01*
X32098818Y-52992998D02*
X32074510Y-52995996D01*
X73776573Y-52939478D02*
X73755262Y-52927406D01*
X80917478Y-47734626D02*
X80905406Y-47755937D01*
X62369447Y-58012645D02*
X62345550Y-58018011D01*
X7525502Y-72837801D02*
X7549928Y-72839603D01*
X5285650Y-5047909D02*
X5308041Y-5037984D01*
X77997887Y-73191348D02*
X78005569Y-73168092D01*
X60154806Y-89156462D02*
X60166878Y-89177773D01*
X35707037Y-5113268D02*
X35726346Y-5098199D01*
X73820841Y-7962015D02*
X73798450Y-7952090D01*
X70181907Y-7970830D02*
X70158651Y-7978512D01*
X39982088Y-90996799D02*
X39987101Y-90996676D01*
X32523998Y-52523884D02*
X32522196Y-52548310D01*
X35546087Y-52644251D02*
X35539554Y-52620647D01*
X78402181Y-24833398D02*
X78378049Y-24829211D01*
X7574231Y-24833398D02*
X7549923Y-24836396D01*
X32098818Y-5005401D02*
X32122950Y-5009588D01*
X7669125Y-27867969D02*
X7691976Y-27876784D01*
X6111Y0D02*
X1098Y-123D01*
X59917758Y-93958815D02*
X59894907Y-93967630D01*
X56152764Y-88953340D02*
X56175965Y-88944214D01*
X56107874Y-43976609D02*
X56130048Y-43965213D01*
X73695237Y-5113268D02*
X73714546Y-5098199D01*
X63675889Y-88916403D02*
X63700315Y-88914601D01*
X80598647Y-24823845D02*
X80574750Y-24829211D01*
X24749411Y-12627550D02*
X24744045Y-12651447D01*
X35553769Y-5330892D02*
X35562584Y-5308041D01*
X60154806Y-93754337D02*
X60141703Y-93775029D01*
X59800018Y-93991398D02*
X59775710Y-93994396D01*
X67795047Y-43945928D02*
X67818286Y-43955088D01*
X45904120Y-73058970D02*
X45917223Y-73079662D01*
X39982088Y-45998399D02*
X39987101Y-45998276D01*
X32170451Y-52976912D02*
X32146847Y-52983445D01*
X70348907Y-52869134D02*
X70330362Y-52885131D01*
X5499012Y-50998400D02*
X32025587Y-50998400D01*
X35688492Y-52869134D02*
X35670753Y-52852246D01*
X78475412Y-72837200D02*
X80477387Y-72837200D01*
X63228203Y-93546710D02*
X63226401Y-93522284D01*
X45858947Y-69673307D02*
X45842059Y-69691045D01*
X85976400Y-98990663D02*
X85976400Y-6136D01*
X7952107Y-73122849D02*
X7962033Y-73145240D01*
X32216558Y-51036384D02*
X32238949Y-51046309D01*
X45987616Y-73311714D02*
X45988217Y-73336211D01*
X78005569Y-73168092D02*
X78014384Y-73145241D01*
X40413981Y-72842601D02*
X40438289Y-72839603D01*
X22091446Y-93850646D02*
X22073707Y-93867534D01*
X7798266Y-24740600D02*
X7778242Y-24754702D01*
X5098199Y-69635453D02*
X5084096Y-69615429D01*
X35608696Y-5221770D02*
X35622799Y-5201746D01*
X40170637Y-69723931D02*
X40152092Y-69707934D01*
X78005569Y-24507907D02*
X77997887Y-24484651D01*
X22166606Y-44158062D02*
X22178678Y-44179373D01*
X31871858Y-45998400D02*
X39982063Y-45998400D01*
X7999416Y-73311714D02*
X8000017Y-73336211D01*
X24428107Y-13000030D02*
X24404851Y-13007712D01*
X25687689Y-47995996D02*
X25663381Y-47992998D01*
X32486615Y-5308041D02*
X32495430Y-5330892D01*
X45657325Y-72866369D02*
X45680176Y-72875184D01*
X25523250Y-43963509D02*
X25545641Y-43953584D01*
X80878200Y-93795053D02*
X80863131Y-93814362D01*
X35539554Y-52620647D02*
X35534188Y-52596750D01*
X24516537Y-57956606D02*
X24495226Y-57968678D01*
X63724812Y-47998400D02*
X63700315Y-47997798D01*
X5242462Y-93925806D02*
X5221770Y-93912703D01*
X73734570Y-7915903D02*
X73714546Y-7901800D01*
X80954912Y-73191348D02*
X80961445Y-73214952D01*
X40365952Y-24823845D02*
X40342348Y-24817312D01*
X18119674Y-43976609D02*
X18141848Y-43965213D01*
X5029169Y-5330892D02*
X5037984Y-5308041D01*
X39988200Y-45992263D02*
X39988200Y-28337812D01*
X7886745Y-69654761D02*
X7870747Y-69673307D01*
X25568492Y-43944769D02*
X25591748Y-43937087D01*
X25420037Y-44028868D02*
X25439346Y-44013799D01*
X67982053Y-89065711D02*
X69849444Y-90992306D01*
X32515011Y-5401649D02*
X32519198Y-5425781D01*
X78024309Y-69551549D02*
X78014384Y-69529158D01*
X70503211Y-52596750D02*
X70497845Y-52620647D01*
X25383753Y-47852246D02*
X25366865Y-47834507D01*
X73798450Y-51046309D02*
X73820841Y-51036384D01*
X80812507Y-51127665D02*
X80830246Y-51144553D01*
X22235196Y-47548310D02*
X22232198Y-47572618D01*
X63447570Y-88998096D02*
X63468262Y-88984993D01*
X5450089Y-93994396D02*
X5425781Y-93991398D01*
X67722994Y-88923971D02*
X67747342Y-88929551D01*
X7886749Y-73019637D02*
X7901817Y-73038945D01*
X5058921Y-5263773D02*
X5070993Y-5242462D01*
X5021487Y-47644251D02*
X5014954Y-47620647D01*
X70013787Y-52998400D02*
X62753336Y-52998400D01*
X78060496Y-24617029D02*
X78047393Y-24596337D01*
X24308910Y-58025196D02*
X24284484Y-58026998D01*
X60166878Y-47734626D02*
X60154806Y-47755937D01*
X67964216Y-44049807D02*
X67982053Y-44067311D01*
X40296241Y-72875184D02*
X40319092Y-72866369D01*
X32360707Y-51127665D02*
X32378446Y-51144553D01*
X32170451Y-51019887D02*
X32193707Y-51027569D01*
X78426489Y-72839603D02*
X78450915Y-72837801D01*
X7798271Y-72935399D02*
X7817579Y-72950467D01*
X63231201Y-44341381D02*
X63235388Y-44317249D01*
X59726787Y-43915600D02*
X59751284Y-43916201D01*
X7994611Y-24413017D02*
X7990424Y-24437149D01*
X60096534Y-47834507D02*
X60079646Y-47852246D01*
X45586567Y-27848388D02*
X45610464Y-27853754D01*
X7817575Y-24725531D02*
X7798266Y-24740600D01*
X5450089Y-27841203D02*
X5474515Y-27839401D01*
X78198170Y-24754703D02*
X78178146Y-24740600D01*
X62416307Y-57998430D02*
X62393051Y-58006112D01*
X73866948Y-52976912D02*
X73843692Y-52969230D01*
X40072296Y-28060570D02*
X40086399Y-28040546D01*
X70399531Y-7817562D02*
X70383534Y-7836107D01*
X32395334Y-52834507D02*
X32378446Y-52852246D01*
X21883451Y-93975312D02*
X21859847Y-93981845D01*
X8006111Y-58027600D02*
X8001098Y-58027723D01*
X80970998Y-24413018D02*
X80966811Y-24437150D01*
X62601046Y-57881446D02*
X62583307Y-57898334D01*
X32282137Y-7929006D02*
X32260826Y-7941078D01*
X35530001Y-5425781D02*
X35534188Y-5401649D01*
X70366646Y-5146153D02*
X70383534Y-5163892D01*
X25615352Y-93981845D02*
X25591748Y-93975312D01*
X8000038Y-90990688D02*
X8000161Y-90995701D01*
X80645507Y-24809630D02*
X80622251Y-24817312D01*
X77977001Y-24364284D02*
X77976400Y-24339787D01*
X25591748Y-88935487D02*
X25615352Y-88928954D01*
X80812507Y-93867534D02*
X80793962Y-93883531D01*
X5058921Y-28102573D02*
X5070993Y-28081262D01*
X59894907Y-47969230D02*
X59871651Y-47976912D01*
X7778242Y-24754702D02*
X7757550Y-24767806D01*
X5182437Y-93883531D02*
X5163892Y-93867534D01*
X8000013Y-69338187D02*
X7999411Y-69362684D01*
X69849462Y-90992324D02*
X69853584Y-90996369D01*
X5499012Y-47998400D02*
X5474515Y-47997798D01*
X40047121Y-24575026D02*
X40036109Y-24553149D01*
X70428703Y-52776629D02*
X70414600Y-52796653D01*
X40009687Y-24484651D02*
X40003154Y-24461047D01*
X63355065Y-93832907D02*
X63339068Y-93814362D01*
X7962028Y-24530758D02*
X7952103Y-24553149D01*
X80733937Y-27909793D02*
X80754629Y-27922896D01*
X70503211Y-51400049D02*
X70507398Y-51424181D01*
X21929558Y-47960415D02*
X21906707Y-47969230D01*
X40389849Y-27848388D02*
X40413981Y-27844201D01*
X5047909Y-5285650D02*
X5058921Y-5263773D01*
X62272684Y-58026998D02*
X62248187Y-58027600D01*
X5377752Y-93981845D02*
X5354148Y-93975312D01*
X56297180Y-43918090D02*
X56322041Y-43916223D01*
X32122950Y-7990411D02*
X32098818Y-7994598D01*
X21787510Y-88916403D02*
X21811818Y-88919401D01*
X70087018Y-5005401D02*
X70111150Y-5009588D01*
X21859847Y-93981845D02*
X21835950Y-93987211D01*
X60225800Y-47499387D02*
X60225198Y-47523884D01*
X70111150Y-51007988D02*
X70135047Y-51013354D01*
X80690749Y-5047909D02*
X80712626Y-5058921D01*
X7941095Y-73100972D02*
X7952107Y-73122849D01*
X8001136Y-45998276D02*
X8006149Y-45998399D01*
X5070993Y-69594737D02*
X5058921Y-69573426D01*
X45610464Y-72852154D02*
X45634069Y-72858687D01*
X5002403Y-51448489D02*
X5005401Y-51424181D01*
X24428107Y-57998430D02*
X24404851Y-58006112D01*
X59983337Y-43986593D02*
X60004029Y-43999696D01*
X63675889Y-43918003D02*
X63700315Y-43916201D01*
X60223396Y-47548310D02*
X60220398Y-47572618D01*
X80774653Y-27936999D02*
X80793962Y-27952068D01*
X22073707Y-44044865D02*
X22091446Y-44061753D01*
X60154806Y-47755937D02*
X60141703Y-47776629D01*
X5425781Y-51003801D02*
X5450089Y-51000803D01*
X63323999Y-44117346D02*
X63339068Y-44098037D01*
X85975301Y-123D02*
X85970288Y0D01*
X5242462Y-51069393D02*
X5263773Y-51057321D01*
X67841037Y-43965399D02*
X67863243Y-43976836D01*
X5285650Y-24790890D02*
X5263773Y-24779878D01*
X80976400Y-24339787D02*
X80975798Y-24364284D01*
X25247188Y-89315649D02*
X25252554Y-89291752D01*
X7978526Y-69483051D02*
X7970843Y-69506307D01*
X7985058Y-24461046D02*
X7978526Y-24484651D01*
X5021487Y-73191348D02*
X5029169Y-73168092D01*
X7714363Y-24790890D02*
X7691972Y-24800815D01*
X63579948Y-88935487D02*
X63603552Y-88928954D01*
X80830246Y-51144553D02*
X80847134Y-51162292D01*
X5000000Y-47499387D02*
X5000000Y-28337812D01*
X25687689Y-88916403D02*
X25712115Y-88914601D01*
X32122950Y-51007988D02*
X32146847Y-51013354D01*
X5285650Y-47950490D02*
X5263773Y-47939478D01*
X35902352Y-7985045D02*
X35878748Y-7978512D01*
X40413981Y-27844201D02*
X40438289Y-27841203D01*
X25523250Y-88961909D02*
X25545641Y-88951984D01*
X29852837Y-43965399D02*
X29875043Y-43976836D01*
X35707037Y-7886731D02*
X35688492Y-7870734D01*
X67747342Y-43931151D02*
X67771380Y-43937942D01*
X25663381Y-43921001D02*
X25687689Y-43918003D01*
X45657325Y-27867969D02*
X45680176Y-27876784D01*
X25285509Y-93711149D02*
X25275584Y-93688758D01*
X62744796Y-12579110D02*
X62741798Y-12603418D01*
X5098199Y-28040546D02*
X5113268Y-28021237D01*
X63339068Y-47815962D02*
X63323999Y-47796653D01*
X80973996Y-69387110D02*
X80970998Y-69411418D01*
X5002403Y-73287289D02*
X5005401Y-73262981D01*
X25335799Y-47796653D02*
X25321696Y-47776629D01*
X80975798Y-47523884D02*
X80973996Y-47548310D01*
X24357350Y-13019611D02*
X24333218Y-13023798D01*
X35950381Y-5005401D02*
X35974689Y-5002403D01*
X35726346Y-7901800D02*
X35707037Y-7886731D01*
X5084096Y-73058970D02*
X5098199Y-73038946D01*
X73596896Y-51220170D02*
X73610999Y-51200146D01*
X39988801Y-24364284D02*
X39988200Y-24339787D01*
X70013787Y-5000000D02*
X70038284Y-5000601D01*
X70181907Y-52969230D02*
X70158651Y-52976912D01*
X7994616Y-73262981D02*
X7997614Y-73287288D01*
X5113268Y-47815962D02*
X5098199Y-47796653D01*
X73515203Y-5450089D02*
X73518201Y-5425781D01*
X45973262Y-28216552D02*
X45978629Y-28240449D01*
X80830246Y-93850646D02*
X80812507Y-93867534D01*
X5285650Y-72885109D02*
X5308041Y-72875184D01*
X63240754Y-47620647D02*
X63235388Y-47596750D01*
X24753598Y-12603418D02*
X24749411Y-12627550D01*
X73755262Y-52927406D02*
X73734570Y-52914303D01*
X35746370Y-52914303D02*
X35726346Y-52900200D01*
X5401649Y-5009588D02*
X5425781Y-5005401D01*
X80973996Y-24388710D02*
X80970998Y-24413018D01*
X56247892Y-43925534D02*
X56272443Y-43921196D01*
X67698398Y-88919617D02*
X67722994Y-88923971D01*
X21951949Y-43963509D02*
X21973826Y-43974521D01*
X78240173Y-27897721D02*
X78262050Y-27886709D01*
X63389692Y-47869134D02*
X63371953Y-47852246D01*
X73938581Y-7994598D02*
X73914449Y-7990411D01*
X80574750Y-69827611D02*
X80550618Y-69831798D01*
X80975798Y-28313315D02*
X80976400Y-28337812D01*
X67818286Y-43955088D02*
X67841037Y-43965399D01*
X32411331Y-52815962D02*
X32395334Y-52834507D01*
X18358777Y-43915600D02*
X21738587Y-43915600D01*
X22091446Y-44061753D02*
X22108334Y-44079492D01*
X8000123Y-13030298D02*
X8000000Y-13035311D01*
X22228011Y-44317249D02*
X22232198Y-44341381D01*
X5201746Y-51096599D02*
X5221770Y-51082496D01*
X5009588Y-69435550D02*
X5005401Y-69411418D01*
X40036109Y-24553149D02*
X40026184Y-24530758D01*
X35974689Y-5002403D02*
X35999115Y-5000601D01*
X70428703Y-7778229D02*
X70414600Y-7798253D01*
X80878200Y-51200146D02*
X80892303Y-51220170D01*
X32486615Y-52690358D02*
X32476690Y-52712749D01*
X22091446Y-89060153D02*
X22108334Y-89077892D01*
X35572509Y-52712749D02*
X35562584Y-52690358D01*
X80973996Y-93546710D02*
X80970998Y-93571018D01*
X45745750Y-69766206D02*
X45724440Y-69778278D01*
X22228011Y-47596750D02*
X22222645Y-47620647D01*
X22153503Y-93775029D02*
X22139400Y-93795053D01*
X5000000Y-69338187D02*
X5000000Y-51497412D01*
X77976399Y-53004511D02*
X77976276Y-52999498D01*
X24765111Y-52998400D02*
X24760098Y-52998523D01*
X32509645Y-51376152D02*
X32515011Y-51400049D01*
X18333841Y-43916223D02*
X18358777Y-43915600D01*
X22108334Y-47834507D02*
X22091446Y-47852246D01*
X25275584Y-89222041D02*
X25285509Y-89199650D01*
X7736244Y-27897721D02*
X7757554Y-27909793D01*
X22189690Y-44201250D02*
X22199615Y-44223641D01*
X35688492Y-51127665D02*
X35707037Y-51111668D01*
X80526310Y-27841203D02*
X80550618Y-27844201D01*
X45680176Y-72875184D02*
X45702567Y-72885109D01*
X35767062Y-7929006D02*
X35746370Y-7915903D01*
X70330362Y-5113268D02*
X70348907Y-5129265D01*
X32238949Y-7952090D02*
X32216558Y-7962015D01*
X25459370Y-47914303D02*
X25439346Y-47900200D01*
X63247287Y-89268148D02*
X63254969Y-89244892D01*
X60004029Y-43999696D02*
X60024053Y-44013799D01*
X35767062Y-52927406D02*
X35746370Y-52914303D01*
X80622251Y-69815712D02*
X80598647Y-69822245D01*
X22222645Y-93619047D02*
X22216112Y-93642651D01*
X80938415Y-69529158D02*
X80928490Y-69551549D01*
X45724440Y-24779878D02*
X45702563Y-24790890D01*
X5098199Y-93795053D02*
X5084096Y-93775029D01*
X45929291Y-24575026D02*
X45917219Y-24596336D01*
X74011812Y-50998400D02*
X80477387Y-50998400D01*
X78284441Y-72875184D02*
X78307292Y-72866369D01*
X40273850Y-72885109D02*
X40296241Y-72875184D01*
X73541969Y-51329292D02*
X73550784Y-51306441D01*
X5263773Y-69778278D02*
X5242462Y-69766206D01*
X62649000Y-57825853D02*
X62633931Y-57845162D01*
X73676692Y-7870734D02*
X73658953Y-7853846D01*
X18000976Y-44066766D02*
X18018805Y-44049322D01*
X1098Y-98996676D02*
X6111Y-98996799D01*
X16123216Y-90996370D02*
X16127336Y-90992339D01*
X5002403Y-28288889D02*
X5005401Y-28264581D01*
X62741798Y-12603418D02*
X62737611Y-12627550D01*
X32522196Y-5450089D02*
X32523998Y-5474515D01*
X35810250Y-52950490D02*
X35788373Y-52939478D01*
X55989176Y-89065166D02*
X56007005Y-89047722D01*
X5201746Y-93898600D02*
X5182437Y-93883531D01*
X60216211Y-44317249D02*
X60220398Y-44341381D01*
X70111150Y-7990411D02*
X70087018Y-7994598D01*
X25275584Y-93688758D02*
X25266769Y-93665907D01*
X60216211Y-93595150D02*
X60210845Y-93619047D01*
X5474515Y-24838198D02*
X5450089Y-24836396D01*
X63309896Y-89135770D02*
X63323999Y-89115746D01*
X32260826Y-52939478D02*
X32238949Y-52950490D01*
X60204312Y-44269748D02*
X60210845Y-44293352D01*
X5146153Y-93850646D02*
X5129265Y-93832907D01*
X21738587Y-47998400D02*
X5499012Y-47998400D01*
X24537229Y-57943503D02*
X24516537Y-57956606D01*
X67863243Y-88975236D02*
X67884850Y-88987770D01*
X7999411Y-24364284D02*
X7997609Y-24388709D01*
X70510396Y-51448489D02*
X70512198Y-51472915D01*
X32426400Y-7798253D02*
X32411331Y-7817562D01*
X35530001Y-52572618D02*
X35527003Y-52548310D01*
X78158837Y-27952068D02*
X78178146Y-27936999D01*
X5401649Y-93987211D02*
X5377752Y-93981845D01*
X7574236Y-72842601D02*
X7598367Y-72846788D01*
X63651581Y-88919401D02*
X63675889Y-88916403D01*
X22124331Y-89096437D02*
X22139400Y-89115746D01*
X56322041Y-88914623D02*
X56346977Y-88914000D01*
X70441806Y-7757537D02*
X70428703Y-7778229D01*
X80976400Y-93497787D02*
X80975798Y-93522284D01*
X63225800Y-47499387D02*
X63225800Y-44414612D01*
X25439346Y-47900200D02*
X25420037Y-47885131D01*
X22232198Y-89339781D02*
X22235196Y-89364089D01*
X40487212Y-24838800D02*
X40462715Y-24838198D01*
X70311053Y-52900200D02*
X70291029Y-52914303D01*
X77991354Y-24461047D02*
X77985988Y-24437150D01*
X80970998Y-73262981D02*
X80973996Y-73287289D01*
X40009687Y-28192948D02*
X40017369Y-28169692D01*
X73962889Y-5002403D02*
X73987315Y-5000601D01*
X39987101Y-52998523D02*
X39982088Y-52998400D01*
X77976400Y-28337812D02*
X77977001Y-28313315D01*
X67623723Y-43915600D02*
X67648707Y-43916225D01*
X59726787Y-88914000D02*
X59751284Y-88914601D01*
X29660507Y-88914625D02*
X29685415Y-88916499D01*
X80477387Y-5000000D02*
X80501884Y-5000601D01*
X80973996Y-47548310D02*
X80970998Y-47572618D01*
X5308041Y-93958815D02*
X5285650Y-93948890D01*
X40059193Y-28081262D02*
X40072296Y-28060570D01*
X5450089Y-72839603D02*
X5474515Y-72837801D01*
X78307292Y-27867969D02*
X78330548Y-27860287D01*
X7915916Y-69615429D02*
X7901813Y-69635453D01*
X63533841Y-47960415D02*
X63511450Y-47950490D01*
X45988213Y-24339787D02*
X45987611Y-24364284D01*
X18211393Y-88936258D02*
X18235389Y-88929493D01*
X5425781Y-69831798D02*
X5401649Y-69827611D01*
X45940307Y-73122849D02*
X45950233Y-73145240D01*
X21906707Y-88943169D02*
X21929558Y-88951984D01*
X73515203Y-52548310D02*
X73513401Y-52523884D01*
X54104978Y-90996799D02*
X54110741Y-90996655D01*
X63235388Y-93595150D02*
X63231201Y-93571018D01*
X70399531Y-5182437D02*
X70414600Y-5201746D01*
X45586567Y-72846788D02*
X45610464Y-72852154D01*
X80917478Y-28102573D02*
X80928490Y-28124450D01*
X35637868Y-7817562D02*
X35622799Y-7798253D01*
X35534188Y-7598350D02*
X35530001Y-7574218D01*
X78178146Y-24740600D02*
X78158837Y-24725531D01*
X78122553Y-72983353D02*
X78140292Y-72966465D01*
X59751284Y-88914601D02*
X59775710Y-88916403D01*
X22236998Y-89388515D02*
X22237600Y-89413012D01*
X32495430Y-7669107D02*
X32486615Y-7691958D01*
X73515203Y-7549910D02*
X73513401Y-7525484D01*
X32465678Y-7736226D02*
X32453606Y-7757537D01*
X56086296Y-88987497D02*
X56107874Y-88975009D01*
X40003154Y-73214952D02*
X40009687Y-73191348D01*
X80878200Y-73038946D02*
X80892303Y-73058970D01*
X40438289Y-24836396D02*
X40413981Y-24833398D01*
X32522196Y-51448489D02*
X32523998Y-51472915D01*
X5000601Y-28313315D02*
X5002403Y-28288889D01*
X77991354Y-28216552D02*
X77997887Y-28192948D01*
X80961445Y-51376152D02*
X80966811Y-51400049D01*
X25366865Y-93832907D02*
X25350868Y-93814362D01*
X59940149Y-43963509D02*
X59962026Y-43974521D01*
X45702563Y-24790890D02*
X45680172Y-24800815D01*
X22232198Y-93571018D02*
X22228011Y-93595150D01*
X78218862Y-72908193D02*
X78240173Y-72896121D01*
X5029169Y-93665907D02*
X5021487Y-93642651D01*
X63263784Y-47690358D02*
X63254969Y-47667507D01*
X21763084Y-47997798D02*
X21738587Y-47998400D01*
X32193707Y-51027569D02*
X32216558Y-51036384D01*
X80526310Y-24836396D02*
X80501884Y-24838198D01*
X35527003Y-7549910D02*
X35525201Y-7525484D01*
X80793962Y-27952068D02*
X80812507Y-27968065D01*
X45950228Y-24530758D02*
X45940303Y-24553149D01*
X7574231Y-69831798D02*
X7549923Y-69834796D01*
X35653865Y-52834507D02*
X35637868Y-52815962D01*
X73534287Y-7645851D02*
X73527754Y-7622247D01*
X7985058Y-69459446D02*
X7978526Y-69483051D01*
X39997788Y-73238849D02*
X40003154Y-73214952D01*
X35546087Y-7645851D02*
X35539554Y-7622247D01*
X77978803Y-28288889D02*
X77981801Y-28264581D01*
X7622260Y-24823845D02*
X7598363Y-24829211D01*
X67841037Y-88963799D02*
X67863243Y-88975236D01*
X24660800Y-57825853D02*
X24645731Y-57845162D01*
X70227149Y-7952090D02*
X70204758Y-7962015D01*
X24721015Y-57719558D02*
X24711090Y-57741949D01*
X39988200Y-28337812D02*
X39988801Y-28313315D01*
X5163892Y-5129265D02*
X5182437Y-5113268D01*
X8000013Y-24339787D02*
X7999411Y-24364284D01*
X22055162Y-89027268D02*
X22073707Y-89043265D01*
X78140292Y-24709534D02*
X78122553Y-24692646D01*
X67648707Y-43916225D02*
X67673615Y-43918099D01*
X62741798Y-57601818D02*
X62737611Y-57625950D01*
X25296521Y-89177773D02*
X25308593Y-89156462D01*
X5354148Y-93975312D02*
X5330892Y-93967630D01*
X63226401Y-44390115D02*
X63228203Y-44365689D01*
X78218862Y-69766206D02*
X78198170Y-69753103D01*
X70227149Y-51046309D02*
X70249026Y-51057321D01*
X25275584Y-44223641D02*
X25285509Y-44201250D01*
X80961445Y-24461047D02*
X80954912Y-24484651D01*
X63355065Y-44079492D02*
X63371953Y-44061753D01*
X5005401Y-47572618D02*
X5002403Y-47548310D01*
X25237600Y-47499387D02*
X25237600Y-44414612D01*
X5129265Y-47834507D02*
X5113268Y-47815962D01*
X60187815Y-47690358D02*
X60177890Y-47712749D01*
X45988323Y-58028698D02*
X45988200Y-58033711D01*
X70291029Y-52914303D02*
X70270337Y-52927406D01*
X5047909Y-69551549D02*
X5037984Y-69529158D01*
X63408237Y-89027268D02*
X63427546Y-89012199D01*
X5000000Y-73336212D02*
X5000601Y-73311715D01*
X73914449Y-5009588D02*
X73938581Y-5005401D01*
X40101468Y-24656362D02*
X40086399Y-24637053D01*
X21951949Y-47950490D02*
X21929558Y-47960415D01*
X73798450Y-7952090D02*
X73776573Y-7941078D01*
X29937847Y-44017600D02*
X29957335Y-44033225D01*
X21929558Y-43953584D02*
X21951949Y-43963509D01*
X39997788Y-28240449D02*
X40003154Y-28216552D01*
X25321696Y-47776629D02*
X25308593Y-47755937D01*
X80668358Y-51036384D02*
X80690749Y-51046309D01*
X32395334Y-5163892D02*
X32411331Y-5182437D01*
X32146847Y-5014954D02*
X32170451Y-5021487D01*
X73518201Y-51424181D02*
X73522388Y-51400049D01*
X5000000Y-24339787D02*
X5000000Y-5499012D01*
X70330362Y-7886731D02*
X70311053Y-7901800D01*
X25401492Y-44044865D02*
X25420037Y-44028868D01*
X21973826Y-47939478D02*
X21951949Y-47950490D01*
X5221770Y-24754703D02*
X5201746Y-24740600D01*
X62461549Y-57979690D02*
X62439158Y-57989615D01*
X56152764Y-43954940D02*
X56175965Y-43945814D01*
X40026184Y-69529158D02*
X40017369Y-69506307D01*
X80812507Y-69707934D02*
X80793962Y-69723931D01*
X45745754Y-72908193D02*
X45766446Y-72921296D01*
X40230662Y-72908193D02*
X40251973Y-72896121D01*
X32193707Y-7970830D02*
X32170451Y-7978512D01*
X21787510Y-93994396D02*
X21763084Y-93996198D01*
X36023612Y-52998400D02*
X35999115Y-52997798D01*
X80970998Y-51424181D02*
X80973996Y-51448489D01*
X70491312Y-5354148D02*
X70497845Y-5377752D01*
X55989176Y-44066766D02*
X56007005Y-44049322D01*
X60127600Y-89115746D02*
X60141703Y-89135770D01*
X70135047Y-7985045D02*
X70111150Y-7990411D01*
X22208430Y-47667507D02*
X22199615Y-47690358D01*
X63579948Y-93975312D02*
X63556692Y-93967630D01*
X70366646Y-51144553D02*
X70383534Y-51162292D01*
X59894907Y-43944769D02*
X59917758Y-43953584D01*
X24629734Y-57863707D02*
X24612846Y-57881446D01*
X24674903Y-12807429D02*
X24660800Y-12827453D01*
X80892303Y-69615429D02*
X80878200Y-69635453D01*
X35832641Y-51036384D02*
X35855492Y-51027569D01*
X35595593Y-52755937D02*
X35583521Y-52734626D01*
X40170637Y-27952068D02*
X40189946Y-27936999D01*
X22208430Y-44246492D02*
X22216112Y-44269748D01*
X80793962Y-72950468D02*
X80812507Y-72966465D01*
X32322853Y-7901800D02*
X32302829Y-7915903D01*
X5330892Y-5029169D02*
X5354148Y-5021487D01*
X45988213Y-69338187D02*
X45987611Y-69362684D01*
X80928490Y-93711149D02*
X80917478Y-93733026D01*
X5201746Y-27936999D02*
X5221770Y-27922896D01*
X60225800Y-89413012D02*
X60225800Y-93497787D01*
X5308041Y-47960415D02*
X5285650Y-47950490D01*
X63579948Y-47976912D02*
X63556692Y-47969230D01*
X60204312Y-47644251D02*
X60196630Y-47667507D01*
X73866948Y-7978512D02*
X73843692Y-7970830D01*
X24473349Y-12981290D02*
X24450958Y-12991215D01*
X25712115Y-93996198D02*
X25687689Y-93994396D01*
X40134353Y-24692646D02*
X40117465Y-24674907D01*
X62525429Y-12945103D02*
X62504737Y-12958206D01*
X40086399Y-73038946D02*
X40101468Y-73019637D01*
X5263773Y-72896121D02*
X5285650Y-72885109D01*
X25350868Y-93814362D02*
X25335799Y-93795053D01*
X80477387Y-69837200D02*
X78475412Y-69837200D01*
X70491312Y-52644251D02*
X70483630Y-52667507D01*
X7901813Y-24637053D02*
X7886745Y-24656361D01*
X70062710Y-5002403D02*
X70087018Y-5005401D01*
X5037984Y-24530758D02*
X5029169Y-24507907D01*
X40134353Y-72983353D02*
X40152092Y-72966465D01*
X60004029Y-47914303D02*
X59983337Y-47927406D01*
X35726346Y-52900200D02*
X35707037Y-52885131D01*
X73642065Y-5163892D02*
X73658953Y-5146153D01*
X63447570Y-47914303D02*
X63427546Y-47900200D01*
X25501373Y-88972921D02*
X25523250Y-88961909D01*
X35595593Y-5242462D02*
X35608696Y-5221770D01*
X40017369Y-28169692D02*
X40026184Y-28146841D01*
X22108334Y-93832907D02*
X22091446Y-93850646D01*
X78122553Y-27984953D02*
X78140292Y-27968065D01*
X60079646Y-89060153D02*
X60096534Y-89077892D01*
X22015829Y-43999696D02*
X22035853Y-44013799D01*
X80733937Y-24767806D02*
X80712626Y-24779878D01*
X35562584Y-51306441D02*
X35572509Y-51284050D01*
X73515203Y-51448489D02*
X73518201Y-51424181D01*
X7598367Y-27848388D02*
X7622264Y-27853754D01*
X70474815Y-52690358D02*
X70464890Y-52712749D01*
X59940149Y-47950490D02*
X59917758Y-47960415D01*
X5009588Y-93595150D02*
X5005401Y-93571018D01*
X70428703Y-5221770D02*
X70441806Y-5242462D01*
X45702563Y-69789290D02*
X45680172Y-69799215D01*
X63339068Y-89096437D02*
X63355065Y-89077892D01*
X5002403Y-5450089D02*
X5005401Y-5425781D01*
X35524600Y-7500987D02*
X35524600Y-5499012D01*
X22166606Y-89156462D02*
X22178678Y-89177773D01*
X5009588Y-28240449D02*
X5014954Y-28216552D01*
X25439346Y-89012199D02*
X25459370Y-88998096D01*
X60127600Y-44117346D02*
X60141703Y-44137370D01*
X73512800Y-7500987D02*
X73512800Y-5499012D01*
X70414600Y-52796653D02*
X70399531Y-52815962D01*
X7941091Y-24575026D02*
X7929019Y-24596336D01*
X24759000Y-53004536D02*
X24759000Y-57528587D01*
X80938415Y-5308041D02*
X80947230Y-5330892D01*
X73596896Y-52776629D02*
X73583793Y-52755937D01*
X78035321Y-24575026D02*
X78024309Y-24553149D01*
X77991354Y-73214952D02*
X77997887Y-73191348D01*
X45513702Y-72837801D02*
X45538128Y-72839603D01*
X5029169Y-47667507D02*
X5021487Y-47644251D01*
X35539554Y-51376152D02*
X35546087Y-51352548D01*
X80526310Y-47995996D02*
X80501884Y-47997798D01*
X24737512Y-57673451D02*
X24729830Y-57696707D01*
X78218862Y-24767806D02*
X78198170Y-24754703D01*
X80793962Y-69723931D02*
X80774653Y-69739000D01*
X35999115Y-7999398D02*
X35974689Y-7997596D01*
X7994616Y-28264581D02*
X7997614Y-28288888D01*
X62272684Y-13028598D02*
X62248187Y-13029200D01*
X5146153Y-5146153D02*
X5163892Y-5129265D01*
X45586563Y-69827611D02*
X45562431Y-69831798D01*
X78284441Y-69799215D02*
X78262050Y-69789290D01*
X78330548Y-24817312D02*
X78307292Y-24809630D01*
X8000000Y-58033736D02*
X8000013Y-69338187D01*
X63371953Y-89060153D02*
X63389692Y-89043265D01*
X73755262Y-51069393D02*
X73776573Y-51057321D01*
X80905406Y-51240862D02*
X80917478Y-51262173D01*
X35525201Y-5474515D02*
X35527003Y-5450089D01*
X21859847Y-88928954D02*
X21883451Y-88935487D01*
X22055162Y-44028868D02*
X22073707Y-44044865D01*
X73695237Y-52885131D02*
X73676692Y-52869134D01*
X5000601Y-47523884D02*
X5000000Y-47499387D01*
X70249026Y-51057321D02*
X70270337Y-51069393D01*
X63231201Y-89339781D02*
X63235388Y-89315649D01*
X35855492Y-52969230D02*
X35832641Y-52960415D01*
X70135047Y-5014954D02*
X70158651Y-5021487D01*
X78307292Y-24809630D02*
X78284441Y-24800815D01*
X73534287Y-5354148D02*
X73541969Y-5330892D01*
X45940303Y-24553149D02*
X45929291Y-24575026D01*
X24700078Y-57763826D02*
X24688006Y-57785137D01*
X63724812Y-43915600D02*
X67623723Y-43915600D01*
X29635523Y-88914000D02*
X29660507Y-88914625D01*
X45982811Y-24413017D02*
X45978624Y-24437149D01*
X18235389Y-88929493D02*
X18259692Y-88923934D01*
X25252554Y-44293352D02*
X25259087Y-44269748D01*
X32522196Y-52548310D02*
X32519198Y-52572618D01*
X59962026Y-88972921D02*
X59983337Y-88984993D01*
X80970998Y-5425781D02*
X80973996Y-5450089D01*
X25266769Y-93665907D02*
X25259087Y-93642651D01*
X18308980Y-88916490D02*
X18333841Y-88914623D01*
X80574750Y-47988811D02*
X80550618Y-47992998D01*
X40273850Y-24790890D02*
X40251973Y-24779878D01*
X32453606Y-51240862D02*
X32465678Y-51262173D01*
X7757554Y-72908193D02*
X7778246Y-72921296D01*
X78014384Y-69529158D02*
X78005569Y-69506307D01*
X35524600Y-51497412D02*
X35525201Y-51472915D01*
X77981801Y-24413018D02*
X77978803Y-24388710D01*
X78284441Y-27876784D02*
X78307292Y-27867969D01*
X40117465Y-28002692D02*
X40134353Y-27984953D01*
X21883451Y-88935487D02*
X21906707Y-88943169D01*
X45724444Y-27897721D02*
X45745754Y-27909793D01*
X24729830Y-57696707D02*
X24721015Y-57719558D01*
X35546087Y-5354148D02*
X35553769Y-5330892D01*
X24744045Y-57649847D02*
X24737512Y-57673451D01*
X25247188Y-47596750D02*
X25243001Y-47572618D01*
X80961445Y-69459447D02*
X80954912Y-69483051D01*
X60220398Y-93571018D02*
X60216211Y-93595150D01*
X22015829Y-47914303D02*
X21995137Y-47927406D01*
X25350868Y-47815962D02*
X25335799Y-47796653D01*
X25247188Y-44317249D02*
X25252554Y-44293352D01*
X63226401Y-47523884D02*
X63225800Y-47499387D01*
X80712626Y-27897721D02*
X80733937Y-27909793D01*
X45489200Y-24838800D02*
X40487212Y-24838800D01*
X60096534Y-44079492D02*
X60112531Y-44098037D01*
X21859847Y-47983445D02*
X21835950Y-47988811D01*
X5201746Y-47900200D02*
X5182437Y-47885131D01*
X7870751Y-73001092D02*
X7886749Y-73019637D01*
X63427546Y-89012199D02*
X63447570Y-88998096D01*
X24737512Y-12675051D02*
X24729830Y-12698307D01*
X77977001Y-73311715D02*
X77978803Y-73287289D01*
X45978629Y-73238849D02*
X45982816Y-73262981D01*
X25383753Y-44061753D02*
X25401492Y-44044865D01*
X80947230Y-69506307D02*
X80938415Y-69529158D01*
X80938415Y-51306441D02*
X80947230Y-51329292D01*
X5021487Y-51352548D02*
X5029169Y-51329292D01*
X45966730Y-28192947D02*
X45973262Y-28216552D01*
X45562431Y-69831798D02*
X45538123Y-69834796D01*
X32440503Y-5221770D02*
X32453606Y-5242462D01*
X25243001Y-89339781D02*
X25247188Y-89315649D01*
X29976016Y-44049807D02*
X29993853Y-44067311D01*
X22153503Y-44137370D02*
X22166606Y-44158062D01*
X60141703Y-89135770D02*
X60154806Y-89156462D01*
X35595593Y-51240862D02*
X35608696Y-51220170D01*
X80847134Y-5163892D02*
X80863131Y-5182437D01*
X18187765Y-43945814D02*
X18211393Y-43937858D01*
X63273709Y-47712749D02*
X63263784Y-47690358D01*
X70135047Y-52983445D02*
X70111150Y-52988811D01*
X24450958Y-12991215D02*
X24428107Y-13000030D01*
X29957335Y-44033225D02*
X29976016Y-44049807D01*
X80550618Y-69831798D02*
X80526310Y-69834796D01*
X45950233Y-73145240D02*
X45959047Y-73168091D01*
X45959047Y-73168091D02*
X45966730Y-73191347D01*
X67945535Y-89031625D02*
X67964216Y-89048207D01*
X35525201Y-52523884D02*
X35524600Y-52499387D01*
X70204758Y-51036384D02*
X70227149Y-51046309D01*
X7941091Y-69573426D02*
X7929019Y-69594736D01*
X5021487Y-24484651D02*
X5014954Y-24461047D01*
X5146153Y-69691046D02*
X5129265Y-69673307D01*
X45824320Y-24709534D02*
X45805775Y-24725531D01*
X40047121Y-28102573D02*
X40059193Y-28081262D01*
X62564762Y-12915931D02*
X62545453Y-12931000D01*
X62545453Y-12931000D02*
X62525429Y-12945103D01*
X5005401Y-24413018D02*
X5002403Y-24388710D01*
X63427546Y-47900200D02*
X63408237Y-47885131D01*
X62633931Y-57845162D02*
X62617934Y-57863707D01*
X60024053Y-47900200D02*
X60004029Y-47914303D01*
X60024053Y-44013799D02*
X60043362Y-44028868D01*
X45982811Y-69411417D02*
X45978624Y-69435549D01*
X25439346Y-93898600D02*
X25420037Y-93883531D01*
X39997788Y-24437150D02*
X39993601Y-24413018D01*
X78005569Y-69506307D02*
X77997887Y-69483051D01*
X69854259Y-45998255D02*
X69860033Y-45998399D01*
X25480062Y-47927406D02*
X25459370Y-47914303D01*
X80477387Y-93996800D02*
X63724812Y-93996800D01*
X7970843Y-24507907D02*
X7962028Y-24530758D01*
X73734570Y-5084096D02*
X73755262Y-5070993D01*
X35527003Y-51448489D02*
X35530001Y-51424181D01*
X29759142Y-43931151D02*
X29783180Y-43937942D01*
X45513697Y-24838198D02*
X45489200Y-24838800D01*
X74011812Y-52998400D02*
X73987315Y-52997798D01*
X56175965Y-43945814D02*
X56199593Y-43937858D01*
X25663381Y-93991398D02*
X25639249Y-93987211D01*
X59751284Y-93996198D02*
X59726787Y-93996800D01*
X7669121Y-69808030D02*
X7645865Y-69815712D01*
X32503112Y-51352548D02*
X32509645Y-51376152D01*
X35653865Y-51162292D02*
X35670753Y-51144553D01*
X5098199Y-47796653D02*
X5084096Y-47776629D01*
X70087018Y-7994598D02*
X70062710Y-7997596D01*
X22199615Y-44223641D02*
X22208430Y-44246492D01*
X5005401Y-93571018D02*
X5002403Y-93546710D01*
X62747323Y-8001098D02*
X62747200Y-8006111D01*
X80526310Y-72839603D02*
X80550618Y-72842601D01*
X78475412Y-24838800D02*
X78450915Y-24838198D01*
X5263773Y-27897721D02*
X5285650Y-27886709D01*
X80966811Y-47596750D02*
X80961445Y-47620647D01*
X73583793Y-51240862D02*
X73596896Y-51220170D01*
X54104978Y-45998399D02*
X54110741Y-45998255D01*
X73714546Y-5098199D02*
X73734570Y-5084096D01*
X62688278Y-57763826D02*
X62676206Y-57785137D01*
X70062710Y-51000803D02*
X70087018Y-51003801D01*
X78378049Y-72846788D02*
X78402181Y-72842601D01*
X80550618Y-5005401D02*
X80574750Y-5009588D01*
X62525429Y-57943503D02*
X62504737Y-57956606D01*
X80947230Y-51329292D02*
X80954912Y-51352548D01*
X8006174Y-90996800D02*
X16116753Y-90996800D01*
X73560709Y-5285650D02*
X73571721Y-5263773D01*
X22178678Y-93733026D02*
X22166606Y-93754337D01*
X5163892Y-93867534D02*
X5146153Y-93850646D01*
X63355065Y-89077892D02*
X63371953Y-89060153D01*
X80793962Y-24725531D02*
X80774653Y-24740600D01*
X32282137Y-51069393D02*
X32302829Y-51082496D01*
X45680172Y-24800815D02*
X45657321Y-24809630D01*
X45562436Y-72842601D02*
X45586567Y-72846788D01*
X24756596Y-57577510D02*
X24753598Y-57601818D01*
X21811818Y-43921001D02*
X21835950Y-43925188D01*
X60112531Y-47815962D02*
X60096534Y-47834507D01*
X25687689Y-93994396D02*
X25663381Y-93991398D01*
X78450915Y-27839401D02*
X78475412Y-27838800D01*
X5005401Y-28264581D02*
X5009588Y-28240449D01*
X24381247Y-13014245D02*
X24357350Y-13019611D01*
X62248187Y-13029200D02*
X45994336Y-13029200D01*
X24612846Y-12883046D02*
X24595107Y-12899934D01*
X77976400Y-24339787D02*
X77976400Y-8006136D01*
X78024309Y-28124450D02*
X78035321Y-28102573D01*
X80793962Y-93883531D02*
X80774653Y-93898600D01*
X62369447Y-13014245D02*
X62345550Y-13019611D01*
X62753311Y-8000000D02*
X62748298Y-8000123D01*
X24711090Y-57741949D02*
X24700078Y-57763826D01*
X85976276Y-98995701D02*
X85976399Y-98990688D01*
X22208430Y-93665907D02*
X22199615Y-93688758D01*
X39990603Y-28288889D02*
X39993601Y-28264581D01*
X22178678Y-44179373D02*
X22189690Y-44201250D01*
X45950233Y-28146840D02*
X45959047Y-28169691D01*
X25237600Y-93497787D02*
X25237600Y-89413012D01*
X73583793Y-7757537D02*
X73571721Y-7736226D01*
X5242462Y-72908193D02*
X5263773Y-72896121D01*
X45973258Y-24461046D02*
X45966726Y-24484651D01*
X70453878Y-5263773D02*
X70464890Y-5285650D01*
X56322041Y-43916223D02*
X56346977Y-43915600D01*
X29896650Y-88987770D02*
X29917602Y-89001369D01*
X5000601Y-5474515D02*
X5002403Y-5450089D01*
X80961445Y-93619047D02*
X80954912Y-93642651D01*
X70204758Y-5037984D02*
X70227149Y-5047909D01*
X73626068Y-5182437D02*
X73642065Y-5163892D01*
X70158651Y-51019887D02*
X70181907Y-51027569D01*
X60141703Y-93775029D02*
X60127600Y-93795053D01*
X32050084Y-50999001D02*
X32074510Y-51000803D01*
X5201746Y-24740600D02*
X5182437Y-24725531D01*
X24595107Y-57898334D02*
X24576562Y-57914331D01*
X35788373Y-51057321D02*
X35810250Y-51046309D01*
X35688492Y-5129265D02*
X35707037Y-5113268D01*
X32486615Y-51306441D02*
X32495430Y-51329292D01*
X80712626Y-5058921D02*
X80733937Y-5070993D01*
X21811818Y-93991398D02*
X21787510Y-93994396D01*
X63247287Y-47644251D02*
X63240754Y-47620647D01*
X45890017Y-28040545D02*
X45904120Y-28060570D01*
X80863131Y-28021237D02*
X80878200Y-28040546D01*
X32486615Y-7691958D02*
X32476690Y-7714349D01*
X80954912Y-28192948D02*
X80961445Y-28216552D01*
X70158651Y-52976912D02*
X70135047Y-52983445D01*
X70383534Y-5163892D02*
X70399531Y-5182437D01*
X80622251Y-24817312D02*
X80598647Y-24823845D01*
X73527754Y-5377752D02*
X73534287Y-5354148D01*
X25420037Y-89027268D02*
X25439346Y-89012199D01*
X45904116Y-24617029D02*
X45890013Y-24637053D01*
X59775710Y-88916403D02*
X59800018Y-88919401D01*
X32098818Y-7994598D02*
X32074510Y-7997596D01*
X25296521Y-93733026D02*
X25285509Y-93711149D01*
X32146847Y-7985045D02*
X32122950Y-7990411D01*
X5285650Y-93948890D02*
X5263773Y-93937878D01*
X80863131Y-69654762D02*
X80847134Y-69673307D01*
X45538123Y-24836396D02*
X45513697Y-24838198D01*
X35524600Y-5499012D02*
X35525201Y-5474515D01*
X63235388Y-89315649D02*
X63240754Y-89291752D01*
X70483630Y-52667507D02*
X70474815Y-52690358D01*
X21738587Y-43915600D02*
X21763084Y-43916201D01*
X40170637Y-72950468D02*
X40189946Y-72935399D01*
X5354148Y-69815712D02*
X5330892Y-69808030D01*
X18187765Y-88944214D02*
X18211393Y-88936258D01*
X29710198Y-88919617D02*
X29734794Y-88923971D01*
X8000038Y-45992288D02*
X8000161Y-45997301D01*
X22035853Y-89012199D02*
X22055162Y-89027268D01*
X62725712Y-12675051D02*
X62718030Y-12698307D01*
X35999115Y-52997798D02*
X35974689Y-52995996D01*
X25238201Y-44390115D02*
X25240003Y-44365689D01*
X29783180Y-88936342D02*
X29806847Y-88944328D01*
X7985062Y-73214952D02*
X7990429Y-73238849D01*
X62732245Y-12651447D02*
X62725712Y-12675051D01*
X32509645Y-7622247D02*
X32503112Y-7645851D01*
X70441806Y-51240862D02*
X70453878Y-51262173D01*
X5146153Y-47852246D02*
X5129265Y-47834507D01*
X67905802Y-89001369D02*
X67926047Y-89016000D01*
X24759000Y-8006136D02*
X24759000Y-12530187D01*
X45842059Y-69691045D02*
X45824320Y-69707934D01*
X24259987Y-13029200D02*
X8006136Y-13029200D01*
X80917478Y-5263773D02*
X80928490Y-5285650D01*
X63603552Y-43930554D02*
X63627449Y-43925188D01*
X5499012Y-27838800D02*
X7501005Y-27838800D01*
X45966730Y-73191347D02*
X45973262Y-73214952D01*
X78378049Y-24829211D02*
X78354152Y-24823845D01*
X25366865Y-44079492D02*
X25383753Y-44061753D01*
X80954912Y-24484651D02*
X80947230Y-24507907D01*
X63389692Y-89043265D02*
X63408237Y-89027268D01*
X5330892Y-93967630D02*
X5308041Y-93958815D01*
X18037474Y-89031198D02*
X18056944Y-89015627D01*
X62746598Y-57553084D02*
X62744796Y-57577510D01*
X70507398Y-52572618D02*
X70503211Y-52596750D01*
X80501884Y-5000601D02*
X80526310Y-5002403D01*
X40487212Y-27838800D02*
X45489205Y-27838800D01*
X63309896Y-47776629D02*
X63296793Y-47755937D01*
X60196630Y-44246492D02*
X60204312Y-44269748D01*
X25285509Y-89199650D02*
X25296521Y-89177773D01*
X78140292Y-69707934D02*
X78122553Y-69691046D01*
X18308980Y-43918090D02*
X18333841Y-43916223D01*
X25591748Y-43937087D02*
X25615352Y-43930554D01*
X25615352Y-47983445D02*
X25591748Y-47976912D01*
X63408237Y-47885131D02*
X63389692Y-47869134D01*
X7525502Y-27839401D02*
X7549928Y-27841203D01*
X56045144Y-89015627D02*
X56065369Y-89001048D01*
X73642065Y-51162292D02*
X73658953Y-51144553D01*
X73914449Y-52988811D02*
X73890552Y-52983445D01*
X5014954Y-69459447D02*
X5009588Y-69435550D01*
X5005401Y-69411418D02*
X5002403Y-69387110D01*
X70507398Y-7574218D02*
X70503211Y-7598350D01*
X78450915Y-24838198D02*
X78426489Y-24836396D01*
X40209970Y-72921296D02*
X40230662Y-72908193D01*
X25736612Y-43915600D02*
X29635523Y-43915600D01*
X45987616Y-28313314D02*
X45988217Y-28337811D01*
X45890013Y-69635453D02*
X45874945Y-69654761D01*
X5014954Y-93619047D02*
X5009588Y-93595150D01*
X5308041Y-27876784D02*
X5330892Y-27867969D01*
X45982816Y-73262981D02*
X45985814Y-73287288D01*
X24495226Y-12970278D02*
X24473349Y-12981290D01*
X5377752Y-24823845D02*
X5354148Y-24817312D01*
X70111150Y-52988811D02*
X70087018Y-52992998D01*
X36023612Y-50998400D02*
X70013787Y-50998400D01*
X80928490Y-24553149D02*
X80917478Y-24575026D01*
X62747200Y-12530187D02*
X62746598Y-12554684D01*
X80690749Y-51046309D02*
X80712626Y-51057321D01*
X73938581Y-5005401D02*
X73962889Y-5002403D01*
X5330892Y-24809630D02*
X5308041Y-24800815D01*
X78240173Y-24779878D02*
X78218862Y-24767806D01*
X32260826Y-51057321D02*
X32282137Y-51069393D01*
X39988801Y-28313315D02*
X39990603Y-28288889D01*
X5070993Y-24596337D02*
X5058921Y-24575026D01*
X70227149Y-5047909D02*
X70249026Y-5058921D01*
X73987315Y-52997798D02*
X73962889Y-52995996D01*
X80754629Y-69753103D02*
X80733937Y-69766206D01*
X45842063Y-27984953D02*
X45858951Y-28002692D01*
X32360707Y-7870734D02*
X32342162Y-7886731D01*
X78475412Y-69837200D02*
X78450915Y-69836598D01*
X80878200Y-47796653D02*
X80863131Y-47815962D01*
X32503112Y-5354148D02*
X32509645Y-5377752D01*
X21929558Y-93958815D02*
X21906707Y-93967630D01*
X29734794Y-43925571D02*
X29759142Y-43931151D01*
X24744045Y-12651447D02*
X24737512Y-12675051D01*
X8006174Y-45998400D02*
X16116753Y-45998400D01*
X80598647Y-47983445D02*
X80574750Y-47988811D01*
X63226401Y-89388515D02*
X63228203Y-89364089D01*
X16127354Y-45993921D02*
X18000976Y-44066766D01*
X35572509Y-51284050D02*
X35583521Y-51262173D01*
X5070993Y-51240862D02*
X5084096Y-51220170D01*
X78198170Y-72921296D02*
X78218862Y-72908193D01*
X80878200Y-28040546D02*
X80892303Y-28060570D01*
X70087018Y-52992998D02*
X70062710Y-52995996D01*
X80863131Y-93814362D02*
X80847134Y-93832907D01*
X24765111Y-8000000D02*
X24760098Y-8000123D01*
X73714546Y-7901800D02*
X73695237Y-7886731D01*
X45680172Y-69799215D02*
X45657321Y-69808030D01*
X35539554Y-5377752D02*
X35546087Y-5354148D01*
X7501000Y-69837200D02*
X5499012Y-69837200D01*
X80928490Y-28124450D02*
X80938415Y-28146841D01*
X21883451Y-47976912D02*
X21859847Y-47983445D01*
X29957335Y-89031625D02*
X29976016Y-89048207D01*
X45610460Y-24823845D02*
X45586563Y-24829211D01*
X29875043Y-43976836D02*
X29896650Y-43989370D01*
X63296793Y-89156462D02*
X63309896Y-89135770D01*
X80501884Y-93996198D02*
X80477387Y-93996800D01*
X62297110Y-58025196D02*
X62272684Y-58026998D01*
X45766442Y-69753102D02*
X45745750Y-69766206D01*
X45489205Y-72837200D02*
X45513702Y-72837801D01*
X73522388Y-5401649D02*
X73527754Y-5377752D01*
X40101468Y-73019637D02*
X40117465Y-73001092D01*
X45890017Y-73038945D02*
X45904120Y-73058970D01*
X18358777Y-88914000D02*
X21738587Y-88914000D01*
X80928490Y-69551549D02*
X80917478Y-69573426D01*
X32122950Y-52988811D02*
X32098818Y-52992998D01*
X67905802Y-44002969D02*
X67926047Y-44017600D01*
X45766446Y-27922896D02*
X45786471Y-27936999D01*
X80954912Y-47644251D02*
X80947230Y-47667507D01*
X22199615Y-93688758D02*
X22189690Y-93711149D01*
X32342162Y-5113268D02*
X32360707Y-5129265D01*
X70204758Y-7962015D02*
X70181907Y-7970830D01*
X78024309Y-73122850D02*
X78035321Y-73100973D01*
X70474815Y-7691958D02*
X70464890Y-7714349D01*
X63355065Y-47834507D02*
X63339068Y-47815962D01*
X5474515Y-93996198D02*
X5450089Y-93994396D01*
X77976399Y-8006111D02*
X77976276Y-8001098D01*
X18259692Y-88923934D02*
X18284243Y-88919596D01*
X18077169Y-44002648D02*
X18098096Y-43989097D01*
X77977001Y-69362684D02*
X77976400Y-69338187D01*
X7622264Y-27853754D02*
X7645869Y-27860287D01*
X78307292Y-69808030D02*
X78284441Y-69799215D01*
X5242462Y-24767806D02*
X5221770Y-24754703D01*
X70249026Y-52939478D02*
X70227149Y-52950490D01*
X60061907Y-89043265D02*
X60079646Y-89060153D01*
X5058921Y-73100973D02*
X5070993Y-73079662D01*
X73560709Y-51284050D02*
X73571721Y-51262173D01*
X67722994Y-43925571D02*
X67747342Y-43931151D01*
X22228011Y-89315649D02*
X22232198Y-89339781D01*
X5474515Y-72837801D02*
X5499012Y-72837200D01*
X78354152Y-24823845D02*
X78330548Y-24817312D01*
X39982063Y-8000000D02*
X36023612Y-8000000D01*
X24557253Y-12931000D02*
X24537229Y-12945103D01*
X5163892Y-69707934D02*
X5146153Y-69691046D01*
X59800018Y-47992998D02*
X59775710Y-47995996D01*
X5263773Y-47939478D02*
X5242462Y-47927406D01*
X22235196Y-44365689D02*
X22236998Y-44390115D01*
X70291029Y-7915903D02*
X70270337Y-7929006D01*
X5037984Y-47690358D02*
X5029169Y-47667507D01*
X70414600Y-5201746D02*
X70428703Y-5221770D01*
X59726787Y-47998400D02*
X25736612Y-47998400D01*
X35855492Y-51027569D02*
X35878748Y-51019887D01*
X24721015Y-12721158D02*
X24711090Y-12743549D01*
X7691972Y-24800815D02*
X7669121Y-24809630D01*
X63254969Y-44246492D02*
X63263784Y-44223641D01*
X70512800Y-5499012D02*
X70512800Y-7500987D01*
X78105665Y-73001092D02*
X78122553Y-72983353D01*
X40026184Y-28146841D02*
X40036109Y-28124450D01*
X40462715Y-72837801D02*
X40487212Y-72837200D01*
X32378446Y-5146153D02*
X32395334Y-5163892D01*
X85970288Y-98996799D02*
X85975301Y-98996676D01*
X35539554Y-7622247D02*
X35534188Y-7598350D01*
X21763084Y-43916201D02*
X21787510Y-43918003D01*
X32426400Y-51200146D02*
X32440503Y-51220170D01*
X7817579Y-27952067D02*
X7836125Y-27968065D01*
X73541969Y-5330892D02*
X73550784Y-5308041D01*
X73560709Y-52712749D02*
X73550784Y-52690358D01*
X31866059Y-45998255D02*
X31871833Y-45998399D01*
X40438289Y-27841203D02*
X40462715Y-27839401D01*
X24473349Y-57979690D02*
X24450958Y-57989615D01*
X63468262Y-47927406D02*
X63447570Y-47914303D01*
X70348907Y-51127665D02*
X70366646Y-51144553D01*
X25243001Y-93571018D02*
X25240003Y-93546710D01*
X29896650Y-43989370D02*
X29917602Y-44002969D01*
X59824150Y-43925188D02*
X59848047Y-43930554D01*
X25252554Y-93619047D02*
X25247188Y-93595150D01*
X40342348Y-69815712D02*
X40319092Y-69808030D01*
X59848047Y-88928954D02*
X59871651Y-88935487D01*
X45824325Y-72966465D02*
X45842063Y-72983353D01*
X35788373Y-52939478D02*
X35767062Y-52927406D01*
X35950381Y-52992998D02*
X35926249Y-52988811D01*
X25439346Y-44013799D02*
X25459370Y-43999696D01*
X5047909Y-47712749D02*
X5037984Y-47690358D01*
X40273850Y-69789290D02*
X40251973Y-69778278D01*
X22139400Y-44117346D02*
X22153503Y-44137370D01*
X25401492Y-93867534D02*
X25383753Y-93850646D01*
X32524600Y-5499012D02*
X32524600Y-7500987D01*
X35878748Y-7978512D02*
X35855492Y-7970830D01*
X25335799Y-44117346D02*
X25350868Y-44098037D01*
X45940307Y-28124449D02*
X45950233Y-28146840D01*
X5113268Y-24656362D02*
X5098199Y-24637053D01*
X70483630Y-7669107D02*
X70474815Y-7691958D01*
X40086399Y-24637053D02*
X40072296Y-24617029D01*
X22208430Y-89244892D02*
X22216112Y-89268148D01*
X25736612Y-47998400D02*
X25712115Y-47997798D01*
X80947230Y-73168092D02*
X80954912Y-73191348D01*
X80774653Y-24740600D02*
X80754629Y-24754703D01*
X80966811Y-28240449D02*
X80970998Y-28264581D01*
X73843692Y-52969230D02*
X73820841Y-52960415D01*
X73658953Y-52852246D02*
X73642065Y-52834507D01*
X32282137Y-5070993D02*
X32302829Y-5084096D01*
X31866059Y-90996655D02*
X31871833Y-90996799D01*
X25568492Y-93967630D02*
X25545641Y-93958815D01*
X67698398Y-43921217D02*
X67722994Y-43925571D01*
X35950381Y-7994598D02*
X35926249Y-7990411D01*
X60127600Y-93795053D02*
X60112531Y-93814362D01*
X45824320Y-69707934D02*
X45805775Y-69723931D01*
X62649000Y-12827453D02*
X62633931Y-12846762D01*
X77985988Y-24437150D02*
X77981801Y-24413018D01*
X45989336Y-45998276D02*
X45994349Y-45998399D01*
X63651581Y-93991398D02*
X63627449Y-93987211D01*
X40438289Y-69834796D02*
X40413981Y-69831798D01*
X5163892Y-47869134D02*
X5146153Y-47852246D01*
X5425781Y-47992998D02*
X5401649Y-47988811D01*
X70270337Y-5070993D02*
X70291029Y-5084096D01*
X21995137Y-47927406D02*
X21973826Y-47939478D01*
X80847134Y-51162292D02*
X80863131Y-51180837D01*
X70311053Y-7901800D02*
X70291029Y-7915903D01*
X62699290Y-57741949D02*
X62688278Y-57763826D01*
X5009588Y-47596750D02*
X5005401Y-47572618D01*
X39987101Y-8000123D02*
X39982088Y-8000000D01*
X62393051Y-13007712D02*
X62369447Y-13014245D01*
X5474515Y-27839401D02*
X5499012Y-27838800D01*
X45858947Y-24674907D02*
X45842059Y-24692645D01*
X5047909Y-28124450D02*
X5058921Y-28102573D01*
X40487212Y-72837200D02*
X45489205Y-72837200D01*
X18037474Y-44032798D02*
X18056944Y-44017227D01*
X5201746Y-72935399D02*
X5221770Y-72921296D01*
X62747323Y-52999498D02*
X62747200Y-53004511D01*
X80966811Y-93595150D02*
X80961445Y-93619047D01*
X5221770Y-69753103D02*
X5201746Y-69739000D01*
X80892303Y-28060570D02*
X80905406Y-28081262D01*
X59983337Y-88984993D02*
X60004029Y-88998096D01*
X7645865Y-69815712D02*
X7622260Y-69822245D01*
X80754629Y-5084096D02*
X80774653Y-5098199D01*
X40059193Y-73079662D02*
X40072296Y-73058970D01*
X63468262Y-88984993D02*
X63489573Y-88972921D01*
X54115554Y-45993921D02*
X55989176Y-44066766D01*
X25285509Y-47712749D02*
X25275584Y-47690358D01*
X80928490Y-51284050D02*
X80938415Y-51306441D01*
X22108334Y-44079492D02*
X22124331Y-44098037D01*
X35637868Y-5182437D02*
X35653865Y-5163892D01*
X7978530Y-28192947D02*
X7985062Y-28216552D01*
X70311053Y-51096599D02*
X70330362Y-51111668D01*
X63263784Y-89222041D02*
X63273709Y-89199650D01*
X29635523Y-43915600D02*
X29660507Y-43916225D01*
X25712115Y-88914601D02*
X25736612Y-88914000D01*
X67884850Y-88987770D02*
X67905802Y-89001369D01*
X40003154Y-24461047D02*
X39997788Y-24437150D01*
X25308593Y-44158062D02*
X25321696Y-44137370D01*
X60061907Y-47869134D02*
X60043362Y-47885131D01*
X80774653Y-93898600D02*
X80754629Y-93912703D01*
X45786471Y-72935399D02*
X45805779Y-72950467D01*
X39993601Y-24413018D02*
X39990603Y-24388710D01*
X5401649Y-51007988D02*
X5425781Y-51003801D01*
X5221770Y-5084096D02*
X5242462Y-5070993D01*
X70366646Y-7853846D02*
X70348907Y-7870734D01*
X22073707Y-89043265D02*
X22091446Y-89060153D01*
X78475412Y-27838800D02*
X80477387Y-27838800D01*
X70383534Y-7836107D02*
X70366646Y-7853846D01*
X40101468Y-69654762D02*
X40086399Y-69635453D01*
X24645731Y-12846762D02*
X24629734Y-12865307D01*
X45610460Y-69822245D02*
X45586563Y-69827611D01*
X73695237Y-51111668D02*
X73714546Y-51096599D01*
X77970263Y-8000000D02*
X74011812Y-8000000D01*
X60225198Y-44390115D02*
X60225800Y-44414612D01*
X5070993Y-28081262D02*
X5084096Y-28060570D01*
X40017369Y-24507907D02*
X40009687Y-24484651D01*
X7501005Y-72837200D02*
X7525502Y-72837801D01*
X35562584Y-5308041D02*
X35572509Y-5285650D01*
X5047909Y-93711149D02*
X5037984Y-93688758D01*
X77978803Y-73287289D02*
X77981801Y-73262981D01*
X63447570Y-93912703D02*
X63427546Y-93898600D01*
X22153503Y-89135770D02*
X22166606Y-89156462D01*
X40152092Y-69707934D02*
X40134353Y-69691046D01*
X7549928Y-27841203D02*
X7574236Y-27844201D01*
X70497845Y-7622247D02*
X70491312Y-7645851D01*
X7952107Y-28124449D02*
X7962033Y-28146840D01*
X77981801Y-28264581D02*
X77985988Y-28240449D01*
X59848047Y-47983445D02*
X59824150Y-47988811D01*
X60177890Y-89199650D02*
X60187815Y-89222041D01*
X35926249Y-52988811D02*
X35902352Y-52983445D01*
X60096534Y-89077892D02*
X60112531Y-89096437D01*
X80622251Y-5021487D02*
X80645507Y-5029169D01*
X35832641Y-5037984D02*
X35855492Y-5029169D01*
X40413981Y-24833398D02*
X40389849Y-24829211D01*
X5014954Y-28216552D02*
X5021487Y-28192948D01*
X70135047Y-51013354D02*
X70158651Y-51019887D01*
X70510396Y-7549910D02*
X70507398Y-7574218D01*
X22124331Y-44098037D02*
X22139400Y-44117346D01*
X62709215Y-57719558D02*
X62699290Y-57741949D01*
X25568492Y-88943169D02*
X25591748Y-88935487D01*
X32522196Y-7549910D02*
X32519198Y-7574218D01*
X62688278Y-12765426D02*
X62676206Y-12786737D01*
X80668358Y-47960415D02*
X80645507Y-47969230D01*
X5377752Y-27853754D02*
X5401649Y-27848388D01*
X63228203Y-44365689D02*
X63231201Y-44341381D01*
X70111150Y-5009588D02*
X70135047Y-5014954D01*
X73512800Y-52499387D02*
X73512800Y-51497412D01*
X40134353Y-69691046D02*
X40117465Y-69673307D01*
X73843692Y-7970830D02*
X73820841Y-7962015D01*
X63700315Y-47997798D02*
X63675889Y-47995996D01*
X5425781Y-72842601D02*
X5450089Y-72839603D01*
X67863243Y-43976836D02*
X67884850Y-43989370D01*
X35583521Y-51262173D02*
X35595593Y-51240862D01*
X80690749Y-27886709D02*
X80712626Y-27897721D01*
X7853863Y-27984953D02*
X7870751Y-28002692D01*
X40189946Y-24740600D02*
X40170637Y-24725531D01*
X45874949Y-73019637D02*
X45890017Y-73038945D01*
X59894907Y-88943169D02*
X59917758Y-88951984D01*
X80863131Y-24656362D02*
X80847134Y-24674907D01*
X80690749Y-69789290D02*
X80668358Y-69799215D01*
X80938415Y-28146841D02*
X80947230Y-28169692D01*
X5425781Y-27844201D02*
X5450089Y-27841203D01*
X73522388Y-52596750D02*
X73518201Y-52572618D01*
X22237600Y-47499387D02*
X22236998Y-47523884D01*
X39988199Y-8006111D02*
X39988076Y-8001098D01*
X40189946Y-69739000D02*
X40170637Y-69723931D01*
X45858951Y-28002692D02*
X45874949Y-28021237D01*
X59848047Y-43930554D02*
X59871651Y-43937087D01*
X29710198Y-43921217D02*
X29734794Y-43925571D01*
X5113268Y-51180837D02*
X5129265Y-51162292D01*
X40230662Y-27909793D02*
X40251973Y-27897721D01*
X40072296Y-69615429D02*
X40059193Y-69594737D01*
X62663103Y-12807429D02*
X62649000Y-12827453D01*
X78035321Y-28102573D02*
X78047393Y-28081262D01*
X70414600Y-51200146D02*
X70428703Y-51220170D01*
X60223396Y-44365689D02*
X60225198Y-44390115D01*
X32503112Y-7645851D02*
X32495430Y-7669107D01*
X70038284Y-5000601D02*
X70062710Y-5002403D01*
X5450089Y-5002403D02*
X5474515Y-5000601D01*
X5029169Y-73168092D02*
X5037984Y-73145241D01*
X5450089Y-69834796D02*
X5425781Y-69831798D01*
X56272443Y-43921196D02*
X56297180Y-43918090D01*
X5009588Y-24437150D02*
X5005401Y-24413018D01*
X80938415Y-24530758D02*
X80928490Y-24553149D01*
X73513401Y-52523884D02*
X73512800Y-52499387D01*
X80754629Y-47914303D02*
X80733937Y-47927406D01*
X80645507Y-47969230D02*
X80622251Y-47976912D01*
X73890552Y-52983445D02*
X73866948Y-52976912D01*
X80668358Y-24800815D02*
X80645507Y-24809630D01*
X63228203Y-47548310D02*
X63226401Y-47523884D01*
X7669121Y-24809630D02*
X7645865Y-24817312D01*
X5058921Y-69573426D02*
X5047909Y-69551549D01*
X78140292Y-72966465D02*
X78158837Y-72950468D01*
X78240173Y-69778278D02*
X78218862Y-69766206D01*
X63323999Y-89115746D02*
X63339068Y-89096437D01*
X7549928Y-72839603D02*
X7574236Y-72842601D01*
X25321696Y-89135770D02*
X25335799Y-89115746D01*
X70428703Y-51220170D02*
X70441806Y-51240862D01*
X78450915Y-72837801D02*
X78475412Y-72837200D01*
X18098096Y-43989097D02*
X18119674Y-43976609D01*
X45890013Y-24637053D02*
X45874945Y-24656361D01*
X5084096Y-51220170D02*
X5098199Y-51200146D01*
X80812507Y-5129265D02*
X80830246Y-5146153D01*
X5021487Y-28192948D02*
X5029169Y-28169692D01*
X45985809Y-24388709D02*
X45982811Y-24413017D01*
X24729830Y-12698307D02*
X24721015Y-12721158D01*
X22222645Y-44293352D02*
X22228011Y-44317249D01*
X80892303Y-5221770D02*
X80905406Y-5242462D01*
X60187815Y-93688758D02*
X60177890Y-93711149D01*
X70291029Y-5084096D02*
X70311053Y-5098199D01*
X45959047Y-28169691D02*
X45966730Y-28192947D01*
X35902352Y-52983445D02*
X35878748Y-52976912D01*
X80645507Y-5029169D02*
X80668358Y-5037984D01*
X24688006Y-57785137D02*
X24674903Y-57805829D01*
X80501884Y-72837801D02*
X80526310Y-72839603D01*
X54111416Y-90996370D02*
X54115536Y-90992339D01*
X5014954Y-51376152D02*
X5021487Y-51352548D01*
X21883451Y-43937087D02*
X21906707Y-43944769D01*
X5002403Y-69387110D02*
X5000601Y-69362684D01*
X35974689Y-52995996D02*
X35950381Y-52992998D01*
X5474515Y-50999001D02*
X5499012Y-50998400D01*
X22015829Y-88998096D02*
X22035853Y-89012199D01*
X78178146Y-69739000D02*
X78158837Y-69723931D01*
X5499012Y-93996800D02*
X5474515Y-93996198D01*
X35583521Y-7736226D02*
X35572509Y-7714349D01*
X35562584Y-52690358D02*
X35553769Y-52667507D01*
X73658953Y-5146153D02*
X73676692Y-5129265D01*
X59917758Y-88951984D02*
X59940149Y-88961909D01*
X5354148Y-51019887D02*
X5377752Y-51013354D01*
X78307292Y-72866369D02*
X78330548Y-72858687D01*
X0Y-6136D02*
X0Y-98990663D01*
X45917219Y-24596336D02*
X45904116Y-24617029D01*
X5330892Y-47969230D02*
X5308041Y-47960415D01*
X32524600Y-7500987D02*
X32523998Y-7525484D01*
X80961445Y-5377752D02*
X80966811Y-5401649D01*
X59800018Y-43921001D02*
X59824150Y-43925188D01*
X73512800Y-51497412D02*
X73513401Y-51472915D01*
X24756596Y-12579110D02*
X24753598Y-12603418D01*
X80917478Y-51262173D02*
X80928490Y-51284050D01*
X25238201Y-93522284D02*
X25237600Y-93497787D01*
X5058921Y-47734626D02*
X5047909Y-47712749D01*
X80954912Y-69483051D02*
X80947230Y-69506307D01*
X77985988Y-28240449D02*
X77991354Y-28216552D01*
X63700315Y-88914601D02*
X63724812Y-88914000D01*
X8000000Y-13035336D02*
X8000013Y-24339787D01*
X78354152Y-72852154D02*
X78378049Y-72846788D01*
X32050084Y-7999398D02*
X32025587Y-8000000D01*
X80598647Y-93981845D02*
X80574750Y-93987211D01*
X35688492Y-7870734D02*
X35670753Y-7853846D01*
X39990603Y-69387110D02*
X39988801Y-69362684D01*
X40117465Y-73001092D02*
X40134353Y-72983353D01*
X35622799Y-51200146D02*
X35637868Y-51180837D01*
X45702567Y-72885109D02*
X45724444Y-72896121D01*
X80812507Y-24709534D02*
X80793962Y-24725531D01*
X35746370Y-5084096D02*
X35767062Y-5070993D01*
X40059193Y-69594737D02*
X40047121Y-69573426D01*
X60223396Y-93546710D02*
X60220398Y-93571018D01*
X7691976Y-72875184D02*
X7714367Y-72885109D01*
X21906707Y-43944769D02*
X21929558Y-43953584D01*
X80550618Y-51003801D02*
X80574750Y-51007988D01*
X80690749Y-93948890D02*
X80668358Y-93958815D01*
X40230662Y-69766206D02*
X40209970Y-69753103D01*
X32074510Y-7997596D02*
X32050084Y-7999398D01*
X78014384Y-24530758D02*
X78005569Y-24507907D01*
X24753598Y-57601818D02*
X24749411Y-57625950D01*
X63323999Y-93795053D02*
X63309896Y-93775029D01*
X62483426Y-57968678D02*
X62461549Y-57979690D01*
X59800018Y-88919401D02*
X59824150Y-88923588D01*
X35878748Y-52976912D02*
X35855492Y-52969230D01*
X21973826Y-43974521D02*
X21995137Y-43986593D01*
X7997614Y-73287288D02*
X7999416Y-73311714D01*
X56025674Y-44032798D02*
X56045144Y-44017227D01*
X5499012Y-72837200D02*
X7501005Y-72837200D01*
X40189946Y-72935399D02*
X40209970Y-72921296D01*
X18056944Y-89015627D02*
X18077169Y-89001048D01*
X5242462Y-5070993D02*
X5263773Y-5058921D01*
X45988238Y-90990688D02*
X45988361Y-90995701D01*
X5263773Y-24779878D02*
X5242462Y-24767806D01*
X59983337Y-93925806D02*
X59962026Y-93937878D01*
X22035853Y-44013799D02*
X22055162Y-44028868D01*
X7736240Y-69778278D02*
X7714363Y-69789290D01*
X29685415Y-43918099D02*
X29710198Y-43921217D01*
X80892303Y-73058970D02*
X80905406Y-73079662D01*
X32302829Y-51082496D02*
X32322853Y-51096599D01*
X80622251Y-72858687D02*
X80645507Y-72866369D01*
X7901817Y-73038945D02*
X7915920Y-73058970D01*
X25545641Y-43953584D02*
X25568492Y-43944769D01*
X80550618Y-24833398D02*
X80526310Y-24836396D01*
X32360707Y-5129265D02*
X32378446Y-5146153D01*
X63240754Y-44293352D02*
X63247287Y-44269748D01*
X25321696Y-93775029D02*
X25308593Y-93754337D01*
X7997614Y-28288888D02*
X7999416Y-28313314D01*
X5354148Y-27860287D02*
X5377752Y-27853754D01*
X32378446Y-51144553D02*
X32395334Y-51162292D01*
X80550618Y-27844201D02*
X80574750Y-27848388D01*
X32523998Y-51472915D02*
X32524600Y-51497412D01*
X60079646Y-44061753D02*
X60096534Y-44079492D01*
X35653865Y-5163892D02*
X35670753Y-5146153D01*
X5000000Y-5499012D02*
X5000601Y-5474515D01*
X78014384Y-28146841D02*
X78024309Y-28124450D01*
X85970263Y0D02*
X6136Y0D01*
X22199615Y-89222041D02*
X22208430Y-89244892D01*
X60210845Y-89291752D02*
X60216211Y-89315649D01*
X40003154Y-28216552D02*
X40009687Y-28192948D01*
X59824150Y-93987211D02*
X59800018Y-93991398D01*
X32503112Y-52644251D02*
X32495430Y-52667507D01*
X32440503Y-52776629D02*
X32426400Y-52796653D01*
X78089668Y-24656362D02*
X78074599Y-24637053D01*
X62439158Y-12991215D02*
X62416307Y-13000030D01*
X21859847Y-43930554D02*
X21883451Y-43937087D01*
X35767062Y-5070993D02*
X35788373Y-5058921D01*
X80733937Y-51069393D02*
X80754629Y-51082496D01*
X63533841Y-88951984D02*
X63556692Y-88943169D01*
X7952103Y-69551549D02*
X7941091Y-69573426D01*
X70087018Y-51003801D02*
X70111150Y-51007988D01*
X5000601Y-93522284D02*
X5000000Y-93497787D01*
X24700078Y-12765426D02*
X24688006Y-12786737D01*
X32476690Y-52712749D02*
X32465678Y-52734626D01*
X21763084Y-88914601D02*
X21787510Y-88916403D01*
X25285509Y-44201250D02*
X25296521Y-44179373D01*
X80501884Y-24838198D02*
X80477387Y-24838800D01*
X5182437Y-72950468D02*
X5201746Y-72935399D01*
X5263773Y-51057321D02*
X5285650Y-51046309D01*
X59824150Y-47988811D02*
X59800018Y-47992998D01*
X5129265Y-51162292D02*
X5146153Y-51144553D01*
X73534287Y-52644251D02*
X73527754Y-52620647D01*
X45917223Y-28081262D02*
X45929295Y-28102572D01*
X32509645Y-5377752D02*
X32515011Y-5401649D01*
X62321418Y-13023798D02*
X62297110Y-13026796D01*
X80928490Y-73122850D02*
X80938415Y-73145241D01*
X63339068Y-44098037D02*
X63355065Y-44079492D01*
X80733937Y-72908193D02*
X80754629Y-72921296D01*
X5450089Y-51000803D02*
X5474515Y-50999001D01*
X25615352Y-88928954D02*
X25639249Y-88923588D01*
X7853859Y-24692645D02*
X7836120Y-24709534D01*
X5182437Y-51111668D02*
X5201746Y-51096599D01*
X7691976Y-27876784D02*
X7714367Y-27886709D01*
X70512800Y-51497412D02*
X70512800Y-52499387D01*
X70510396Y-5450089D02*
X70512198Y-5474515D01*
X60210845Y-93619047D02*
X60204312Y-93642651D01*
X70512800Y-52499387D02*
X70512198Y-52523884D01*
X18018805Y-89047722D02*
X18037474Y-89031198D01*
X24404851Y-13007712D02*
X24381247Y-13014245D01*
X45586563Y-24829211D02*
X45562431Y-24833398D01*
X63284721Y-89177773D02*
X63296793Y-89156462D01*
X5029169Y-24507907D02*
X5021487Y-24484651D01*
X22232198Y-44341381D02*
X22235196Y-44365689D01*
X29917602Y-89001369D02*
X29937847Y-89016000D01*
X40319092Y-24809630D02*
X40296241Y-24800815D01*
X45978624Y-24437149D02*
X45973258Y-24461046D01*
X5014954Y-5377752D02*
X5021487Y-5354148D01*
X78122553Y-69691046D02*
X78105665Y-69673307D01*
X21973826Y-93937878D02*
X21951949Y-93948890D01*
X80645507Y-51027569D02*
X80668358Y-51036384D01*
X63296793Y-93754337D02*
X63284721Y-93733026D01*
X63263784Y-44223641D02*
X63273709Y-44201250D01*
X73755262Y-7929006D02*
X73734570Y-7915903D01*
X5163892Y-51127665D02*
X5182437Y-51111668D01*
X22189690Y-89199650D02*
X22199615Y-89222041D01*
X78426489Y-27841203D02*
X78450915Y-27839401D01*
X80975798Y-69362684D02*
X80973996Y-69387110D01*
X32122950Y-5009588D02*
X32146847Y-5014954D01*
X39988076Y-45997301D02*
X39988199Y-45992288D01*
X45874949Y-28021237D02*
X45890017Y-28040545D01*
X78047393Y-24596337D02*
X78035321Y-24575026D01*
X32519198Y-5425781D02*
X32522196Y-5450089D01*
X35525201Y-51472915D02*
X35527003Y-51448489D01*
X73755262Y-5070993D02*
X73776573Y-5058921D01*
X78198170Y-69753103D02*
X78178146Y-69739000D01*
X45489200Y-69837200D02*
X40487212Y-69837200D01*
X22216112Y-89268148D02*
X22222645Y-89291752D01*
X5401649Y-27848388D02*
X5425781Y-27844201D01*
X32025587Y-50998400D02*
X32050084Y-50999001D01*
X70383534Y-51162292D02*
X70399531Y-51180837D01*
X35653865Y-7836107D02*
X35637868Y-7817562D01*
X78402181Y-27844201D02*
X78426489Y-27841203D01*
X45917223Y-73079662D02*
X45929295Y-73100972D01*
X62725712Y-57673451D02*
X62718030Y-57696707D01*
X70348907Y-7870734D02*
X70330362Y-7886731D01*
X16116778Y-45998399D02*
X16122541Y-45998255D01*
X56199593Y-88936258D02*
X56223589Y-88929493D01*
X70270337Y-7929006D02*
X70249026Y-7941078D01*
X24612846Y-57881446D02*
X24595107Y-57898334D01*
X5330892Y-51027569D02*
X5354148Y-51019887D01*
X70249026Y-7941078D02*
X70227149Y-7952090D01*
X62248187Y-58027600D02*
X45994336Y-58027600D01*
X22222645Y-47620647D02*
X22216112Y-47644251D01*
X77978803Y-69387110D02*
X77977001Y-69362684D01*
X70330362Y-52885131D02*
X70311053Y-52900200D01*
X80830246Y-24692646D02*
X80812507Y-24709534D01*
X32238949Y-51046309D02*
X32260826Y-51057321D01*
X80754629Y-27922896D02*
X80774653Y-27936999D01*
X29806847Y-43945928D02*
X29830086Y-43955088D01*
X25321696Y-44137370D02*
X25335799Y-44117346D01*
X63296793Y-44158062D02*
X63309896Y-44137370D01*
X7994611Y-69411417D02*
X7990424Y-69435549D01*
X24660800Y-12827453D02*
X24645731Y-12846762D01*
X25308593Y-47755937D02*
X25296521Y-47734626D01*
X8001136Y-90996676D02*
X8006149Y-90996799D01*
X32322853Y-51096599D02*
X32342162Y-51111668D01*
X24404851Y-58006112D02*
X24381247Y-58012645D01*
X5009588Y-73238849D02*
X5014954Y-73214952D01*
X80892303Y-93775029D02*
X80878200Y-93795053D01*
X40009687Y-69483051D02*
X40003154Y-69459447D01*
X56199593Y-43937858D02*
X56223589Y-43931093D01*
X80668358Y-72875184D02*
X80690749Y-72885109D01*
X32322853Y-5098199D02*
X32342162Y-5113268D01*
X24759123Y-52999498D02*
X24759000Y-53004511D01*
X18141848Y-88963613D02*
X18164564Y-88953340D01*
X73914449Y-51007988D02*
X73938581Y-51003801D01*
X25243001Y-47572618D02*
X25240003Y-47548310D01*
X56223589Y-43931093D02*
X56247892Y-43925534D01*
X80550618Y-72842601D02*
X80574750Y-72846788D01*
X21738587Y-88914000D02*
X21763084Y-88914601D01*
X5058921Y-24575026D02*
X5047909Y-24553149D01*
X5377752Y-51013354D02*
X5401649Y-51007988D01*
X24674903Y-57805829D02*
X24660800Y-57825853D01*
X45634065Y-69815712D02*
X45610460Y-69822245D01*
X35788373Y-5058921D02*
X35810250Y-5047909D01*
X32098818Y-51003801D02*
X32122950Y-51007988D01*
X70414600Y-7798253D02*
X70399531Y-7817562D01*
X80668358Y-93958815D02*
X80645507Y-93967630D01*
X60223396Y-89364089D02*
X60225198Y-89388515D01*
X77970263Y-52998400D02*
X74011812Y-52998400D01*
X70291029Y-51082496D02*
X70311053Y-51096599D01*
X56045144Y-44017227D02*
X56065369Y-44002648D01*
X60141703Y-47776629D02*
X60127600Y-47796653D01*
X67964216Y-89048207D02*
X67982053Y-89065711D01*
X7622260Y-69822245D02*
X7598363Y-69827611D01*
X73658953Y-7853846D02*
X73642065Y-7836107D01*
X40117465Y-69673307D02*
X40101468Y-69654762D01*
X5070993Y-5242462D02*
X5084096Y-5221770D01*
X5084096Y-93775029D02*
X5070993Y-93754337D01*
X35595593Y-7757537D02*
X35583521Y-7736226D01*
X62583307Y-57898334D02*
X62564762Y-57914331D01*
X78074599Y-69635453D02*
X78060496Y-69615429D01*
X73962889Y-7997596D02*
X73938581Y-7994598D01*
X5129265Y-28002692D02*
X5146153Y-27984953D01*
X80712626Y-72896121D02*
X80733937Y-72908193D01*
X45657321Y-69808030D02*
X45634065Y-69815712D01*
X63225800Y-44414612D02*
X63226401Y-44390115D01*
X59871651Y-43937087D02*
X59894907Y-43944769D01*
X70507398Y-51424181D02*
X70510396Y-51448489D01*
X40365952Y-27853754D02*
X40389849Y-27848388D01*
X5201746Y-5098199D02*
X5221770Y-5084096D01*
X60187815Y-89222041D02*
X60196630Y-89244892D01*
X73522388Y-7598350D02*
X73518201Y-7574218D01*
X5182437Y-27952068D02*
X5201746Y-27936999D01*
X22189690Y-93711149D02*
X22178678Y-93733026D01*
X60225800Y-93497787D02*
X60225198Y-93522284D01*
X32411331Y-5182437D02*
X32426400Y-5201746D01*
X80938415Y-93688758D02*
X80928490Y-93711149D01*
X24537229Y-12945103D02*
X24516537Y-12958206D01*
X70453878Y-51262173D02*
X70464890Y-51284050D01*
X39988200Y-73336212D02*
X39988801Y-73311715D01*
X67926047Y-89016000D02*
X67945535Y-89031625D01*
X22178678Y-47734626D02*
X22166606Y-47755937D01*
X5425781Y-24833398D02*
X5401649Y-24829211D01*
X7962033Y-28146840D02*
X7970847Y-28169691D01*
X62737611Y-57625950D02*
X62732245Y-57649847D01*
X70038284Y-7999398D02*
X70013787Y-8000000D01*
X63427546Y-44013799D02*
X63447570Y-43999696D01*
X22035853Y-93898600D02*
X22015829Y-93912703D01*
X45842059Y-24692645D02*
X45824320Y-24709534D01*
X78330548Y-72858687D02*
X78354152Y-72852154D01*
X35608696Y-51220170D02*
X35622799Y-51200146D01*
X5047909Y-73122850D02*
X5058921Y-73100973D01*
X24333218Y-58022198D02*
X24308910Y-58025196D01*
X80754629Y-51082496D02*
X80774653Y-51096599D01*
X80690749Y-72885109D02*
X80712626Y-72896121D01*
X78178146Y-72935399D02*
X78198170Y-72921296D01*
X80598647Y-27853754D02*
X80622251Y-27860287D01*
X5047909Y-24553149D02*
X5037984Y-24530758D01*
X35553769Y-52667507D02*
X35546087Y-52644251D01*
X29759142Y-88929551D02*
X29783180Y-88936342D01*
X62564762Y-57914331D02*
X62545453Y-57929400D01*
X73560709Y-7714349D02*
X73550784Y-7691958D01*
X73596896Y-5221770D02*
X73610999Y-5201746D01*
X73571721Y-7736226D02*
X73560709Y-7714349D01*
X35583521Y-52734626D02*
X35572509Y-52712749D01*
X7990429Y-28240449D02*
X7994616Y-28264581D01*
X45994311Y-13029200D02*
X45989298Y-13029323D01*
X62321418Y-58022198D02*
X62297110Y-58025196D01*
X62633931Y-12846762D02*
X62617934Y-12865307D01*
X56247892Y-88923934D02*
X56272443Y-88919596D01*
X25266769Y-44246492D02*
X25275584Y-44223641D01*
X63323999Y-47796653D02*
X63309896Y-47776629D01*
X63724812Y-88914000D02*
X67623723Y-88914000D01*
X35926249Y-5009588D02*
X35950381Y-5005401D01*
X73987315Y-5000601D02*
X74011812Y-5000000D01*
X5401649Y-72846788D02*
X5425781Y-72842601D01*
X7501005Y-27838800D02*
X7525502Y-27839401D01*
X70512800Y-7500987D02*
X70512198Y-7525484D01*
X77991354Y-69459447D02*
X77985988Y-69435550D01*
X40487212Y-69837200D02*
X40462715Y-69836598D01*
X32453606Y-7757537D02*
X32440503Y-7778229D01*
X40036109Y-73122850D02*
X40047121Y-73100973D01*
X73843692Y-51027569D02*
X73866948Y-51019887D01*
X80905406Y-5242462D02*
X80917478Y-5263773D01*
X80574750Y-24829211D02*
X80550618Y-24833398D01*
X21973826Y-88972921D02*
X21995137Y-88984993D01*
X70270337Y-52927406D02*
X70249026Y-52939478D01*
X5450089Y-47995996D02*
X5425781Y-47992998D01*
X32453606Y-5242462D02*
X32465678Y-5263773D01*
X40152092Y-72966465D02*
X40170637Y-72950468D01*
X40230662Y-24767806D02*
X40209970Y-24754703D01*
X78402181Y-72842601D02*
X78426489Y-72839603D01*
X25663381Y-88919401D02*
X25687689Y-88916403D01*
X7598367Y-72846788D02*
X7622264Y-72852154D01*
X63408237Y-44028868D02*
X63427546Y-44013799D01*
X25480062Y-93925806D02*
X25459370Y-93912703D01*
X62663103Y-57805829D02*
X62649000Y-57825853D01*
X45994374Y-45998400D02*
X54104953Y-45998400D01*
X5221770Y-72921296D02*
X5242462Y-72908193D01*
X35810250Y-5047909D02*
X35832641Y-5037984D01*
X73890552Y-51013354D02*
X73914449Y-51007988D01*
X80830246Y-5146153D02*
X80847134Y-5163892D01*
X5354148Y-47976912D02*
X5330892Y-47969230D01*
X7978530Y-73191347D02*
X7985062Y-73214952D01*
X80938415Y-73145241D02*
X80947230Y-73168092D01*
X80712626Y-51057321D02*
X80733937Y-51069393D01*
X80947230Y-93665907D02*
X80938415Y-93688758D01*
X67818286Y-88953488D02*
X67841037Y-88963799D01*
X73513401Y-7525484D02*
X73512800Y-7500987D01*
X35878748Y-5021487D02*
X35902352Y-5014954D01*
X40134353Y-27984953D02*
X40152092Y-27968065D01*
X32260826Y-7941078D02*
X32238949Y-7952090D01*
X67747342Y-88929551D02*
X67771380Y-88936342D01*
X80892303Y-24617029D02*
X80878200Y-24637053D01*
X5058921Y-93733026D02*
X5047909Y-93711149D01*
X77976400Y-73336212D02*
X77977001Y-73311715D01*
X5377752Y-47983445D02*
X5354148Y-47976912D01*
X80830246Y-27984953D02*
X80847134Y-28002692D01*
X73798450Y-5047909D02*
X73820841Y-5037984D01*
X25501373Y-43974521D02*
X25523250Y-43963509D01*
X73938581Y-52992998D02*
X73914449Y-52988811D01*
X25252554Y-89291752D02*
X25259087Y-89268148D01*
X70181907Y-5029169D02*
X70204758Y-5037984D01*
X73512800Y-5499012D02*
X73513401Y-5474515D01*
X80863131Y-73019637D02*
X80878200Y-73038946D01*
X40462715Y-24838198D02*
X40438289Y-24836396D01*
X36023612Y-8000000D02*
X35999115Y-7999398D01*
X7929023Y-28081262D02*
X7941095Y-28102572D01*
X35746370Y-7915903D02*
X35726346Y-7901800D01*
X80976400Y-51497412D02*
X80976400Y-69338187D01*
X5474515Y-47997798D02*
X5450089Y-47995996D01*
X7915916Y-24617029D02*
X7901813Y-24637053D01*
X40251973Y-69778278D02*
X40230662Y-69766206D01*
X40389849Y-72846788D02*
X40413981Y-72842601D01*
X77970288Y-90996799D02*
X77975301Y-90996676D01*
X56107874Y-88975009D02*
X56130048Y-88963613D01*
X78178146Y-27936999D02*
X78198170Y-27922896D01*
X5163892Y-27968065D02*
X5182437Y-27952068D01*
X29993853Y-44067311D02*
X31861244Y-45993906D01*
X35950381Y-51003801D02*
X35974689Y-51000803D01*
X62676206Y-12786737D02*
X62663103Y-12807429D01*
X45940303Y-69551549D02*
X45929291Y-69573426D01*
X29830086Y-88953488D02*
X29852837Y-88963799D01*
X67673615Y-88916499D02*
X67698398Y-88919617D01*
X35622799Y-5201746D02*
X35637868Y-5182437D01*
X5377752Y-69822245D02*
X5354148Y-69815712D01*
X59871651Y-93975312D02*
X59848047Y-93981845D01*
X78330548Y-69815712D02*
X78307292Y-69808030D01*
X7501000Y-24838800D02*
X5499012Y-24838800D01*
X5002403Y-93546710D02*
X5000601Y-93522284D01*
X62699290Y-12743549D02*
X62688278Y-12765426D01*
X7990429Y-73238849D02*
X7994616Y-73262981D01*
X73550784Y-52690358D02*
X73541969Y-52667507D01*
X73676692Y-51127665D02*
X73695237Y-51111668D01*
X80712626Y-47939478D02*
X80690749Y-47950490D01*
X25480062Y-43986593D02*
X25501373Y-43974521D01*
X67623723Y-88914000D02*
X67648707Y-88914625D01*
X22216112Y-93642651D02*
X22208430Y-93665907D01*
X80501884Y-69836598D02*
X80477387Y-69837200D01*
X25252554Y-47620647D02*
X25247188Y-47596750D01*
X32465678Y-52734626D02*
X32453606Y-52755937D01*
X59962026Y-43974521D02*
X59983337Y-43986593D01*
X73571721Y-5263773D02*
X73583793Y-5242462D01*
X80954912Y-51352548D02*
X80961445Y-51376152D01*
X5002403Y-47548310D02*
X5000601Y-47523884D01*
X5221770Y-51082496D02*
X5242462Y-51069393D01*
X59751284Y-47997798D02*
X59726787Y-47998400D01*
X35707037Y-51111668D02*
X35726346Y-51096599D01*
X25523250Y-93948890D02*
X25501373Y-93937878D01*
X73890552Y-7985045D02*
X73866948Y-7978512D01*
X5163892Y-72966465D02*
X5182437Y-72950468D01*
X32322853Y-52900200D02*
X32302829Y-52914303D01*
X73534287Y-51352548D02*
X73541969Y-51329292D01*
X70158651Y-5021487D02*
X70181907Y-5029169D01*
X73626068Y-7817562D02*
X73610999Y-7798253D01*
X60043362Y-47885131D02*
X60024053Y-47900200D01*
X80668358Y-69799215D02*
X80645507Y-69808030D01*
X63511450Y-88961909D02*
X63533841Y-88951984D01*
X80928490Y-5285650D02*
X80938415Y-5308041D01*
X5000601Y-73311715D02*
X5002403Y-73287289D01*
X70491312Y-7645851D02*
X70483630Y-7669107D01*
X7886745Y-24656361D02*
X7870747Y-24674907D01*
X45562431Y-24833398D02*
X45538123Y-24836396D01*
X80526310Y-93994396D02*
X80501884Y-93996198D01*
X80975798Y-93522284D02*
X80973996Y-93546710D01*
X77981801Y-73262981D02*
X77985988Y-73238849D01*
X25240003Y-44365689D02*
X25243001Y-44341381D01*
X80645507Y-72866369D02*
X80668358Y-72875184D01*
X5129265Y-93832907D02*
X5113268Y-93814362D01*
X18284243Y-88919596D02*
X18308980Y-88916490D01*
X73776573Y-5058921D02*
X73798450Y-5047909D01*
X56130048Y-88963613D02*
X56152764Y-88953340D01*
X7997609Y-24388709D02*
X7994611Y-24413017D01*
X70483630Y-5330892D02*
X70491312Y-5354148D01*
X45513697Y-69836598D02*
X45489200Y-69837200D01*
X59871651Y-88935487D02*
X59894907Y-88943169D01*
X7929023Y-73079662D02*
X7941095Y-73100972D01*
X29830086Y-43955088D02*
X29852837Y-43965399D01*
X63651581Y-43921001D02*
X63675889Y-43918003D01*
X5182437Y-69723931D02*
X5163892Y-69707934D01*
X7997609Y-69387109D02*
X7994611Y-69411417D01*
X77970288Y-45998399D02*
X77975301Y-45998276D01*
X80863131Y-51180837D02*
X80878200Y-51200146D01*
X80847134Y-47834507D02*
X80830246Y-47852246D01*
X60177890Y-47712749D02*
X60166878Y-47734626D01*
X35637868Y-52815962D02*
X35622799Y-52796653D01*
X69849462Y-45993924D02*
X69853584Y-45997969D01*
X78005569Y-28169692D02*
X78014384Y-28146841D01*
X67982053Y-44067311D02*
X69849444Y-45993906D01*
X60043362Y-93883531D02*
X60024053Y-93898600D01*
X45973262Y-73214952D02*
X45978629Y-73238849D01*
X60196630Y-89244892D02*
X60204312Y-89268148D01*
X25420037Y-47885131D02*
X25401492Y-47869134D01*
X5308041Y-24800815D02*
X5285650Y-24790890D01*
X21835950Y-93987211D02*
X21811818Y-93991398D01*
X63247287Y-93642651D02*
X63240754Y-93619047D01*
X70366646Y-52852246D02*
X70348907Y-52869134D01*
X7962033Y-73145240D02*
X7970847Y-73168091D01*
X80947230Y-24507907D02*
X80938415Y-24530758D01*
X73734570Y-51082496D02*
X73755262Y-51069393D01*
X80938415Y-47690358D02*
X80928490Y-47712749D01*
X63511450Y-93948890D02*
X63489573Y-93937878D01*
X5401649Y-47988811D02*
X5377752Y-47983445D01*
X70348907Y-5129265D02*
X70366646Y-5146153D01*
X40296241Y-69799215D02*
X40273850Y-69789290D01*
X40026184Y-24530758D02*
X40017369Y-24507907D01*
X80905406Y-28081262D02*
X80917478Y-28102573D01*
X25712115Y-47997798D02*
X25687689Y-47995996D01*
X77975301Y-52998523D02*
X77970288Y-52998400D01*
X32509645Y-52620647D02*
X32503112Y-52644251D01*
X39988801Y-73311715D02*
X39990603Y-73287289D01*
X25545641Y-88951984D02*
X25568492Y-88943169D01*
X73962889Y-51000803D02*
X73987315Y-50999001D01*
X62746598Y-12554684D02*
X62744796Y-12579110D01*
X5058921Y-51262173D02*
X5070993Y-51240862D01*
X73626068Y-52815962D02*
X73610999Y-52796653D01*
X67771380Y-88936342D02*
X67795047Y-88944328D01*
X78024309Y-24553149D02*
X78014384Y-24530758D01*
X80966811Y-73238849D02*
X80970998Y-73262981D01*
X45985814Y-28288888D02*
X45987616Y-28313314D01*
X21951949Y-88961909D02*
X21973826Y-88972921D01*
X21906707Y-47969230D02*
X21883451Y-47976912D01*
X21995137Y-93925806D02*
X21973826Y-93937878D01*
X80917478Y-69573426D02*
X80905406Y-69594737D01*
X22237600Y-93497787D02*
X22236998Y-93522284D01*
X80754629Y-72921296D02*
X80774653Y-72935399D01*
X63235388Y-47596750D02*
X63231201Y-47572618D01*
X45724440Y-69778278D02*
X45702563Y-69789290D01*
X70464890Y-7714349D02*
X70453878Y-7736226D01*
X70512198Y-7525484D02*
X70510396Y-7549910D01*
X29976016Y-89048207D02*
X29993853Y-89065711D01*
X45929291Y-69573426D02*
X45917219Y-69594736D01*
X40047121Y-73100973D02*
X40059193Y-73079662D01*
X24557253Y-57929400D02*
X24537229Y-57943503D01*
X60061907Y-44044865D02*
X60079646Y-44061753D01*
X80733937Y-69766206D02*
X80712626Y-69778278D01*
X7549923Y-24836396D02*
X7525497Y-24838198D01*
X40152092Y-24709534D02*
X40134353Y-24692646D01*
X7970843Y-69506307D02*
X7962028Y-69529158D01*
X70311053Y-5098199D02*
X70330362Y-5113268D01*
X22035853Y-47900200D02*
X22015829Y-47914303D01*
X60216211Y-47596750D02*
X60210845Y-47620647D01*
X5070993Y-47755937D02*
X5058921Y-47734626D01*
X60127600Y-47796653D02*
X60112531Y-47815962D01*
X5029169Y-28169692D02*
X5037984Y-28146841D01*
X63556692Y-93967630D02*
X63533841Y-93958815D01*
X80847134Y-28002692D02*
X80863131Y-28021237D01*
X25736612Y-88914000D02*
X29635523Y-88914000D01*
X63489573Y-47939478D02*
X63468262Y-47927406D01*
X73866948Y-51019887D02*
X73890552Y-51013354D01*
X5163892Y-24709534D02*
X5146153Y-24692646D01*
X80774653Y-69739000D02*
X80754629Y-69753103D01*
X7574236Y-27844201D02*
X7598367Y-27848388D01*
X78158837Y-69723931D02*
X78140292Y-69707934D01*
X35583521Y-5263773D02*
X35595593Y-5242462D01*
X35622799Y-7798253D02*
X35608696Y-7778229D01*
X73541969Y-52667507D02*
X73534287Y-52644251D01*
X45766442Y-24754702D02*
X45745750Y-24767806D01*
X32302829Y-5084096D02*
X32322853Y-5098199D01*
X73714546Y-52900200D02*
X73695237Y-52885131D01*
X24357350Y-58018011D02*
X24333218Y-58022198D01*
X80754629Y-93912703D02*
X80733937Y-93925806D01*
X5308041Y-5037984D02*
X5330892Y-5029169D01*
X29806847Y-88944328D02*
X29830086Y-88953488D01*
X45538128Y-72839603D02*
X45562436Y-72842601D01*
X5377752Y-72852154D02*
X5401649Y-72846788D01*
X60166878Y-44179373D02*
X60177890Y-44201250D01*
X73550784Y-7691958D02*
X73541969Y-7669107D01*
X5005401Y-73262981D02*
X5009588Y-73238849D01*
X24759000Y-57528587D02*
X24758398Y-57553084D01*
X40017369Y-73168092D02*
X40026184Y-73145241D01*
X78330548Y-27860287D02*
X78354152Y-27853754D01*
X45745754Y-27909793D02*
X45766446Y-27922896D01*
X62504737Y-12958206D02*
X62483426Y-12970278D01*
X73610999Y-51200146D02*
X73626068Y-51180837D01*
X63225800Y-93497787D02*
X63225800Y-89413012D01*
X7757554Y-27909793D02*
X7778246Y-27922896D01*
X80501884Y-47997798D02*
X80477387Y-47998400D01*
X78074599Y-28040546D02*
X78089668Y-28021237D01*
X63627449Y-43925188D02*
X63651581Y-43921001D01*
X62747200Y-8006136D02*
X62747200Y-12530187D01*
X78158837Y-24725531D02*
X78140292Y-24709534D01*
X5113268Y-93814362D02*
X5098199Y-93795053D01*
X77976400Y-45992263D02*
X77976400Y-28337812D01*
X35855492Y-5029169D02*
X35878748Y-5021487D01*
X32476690Y-51284050D02*
X32486615Y-51306441D01*
X25568492Y-47969230D02*
X25545641Y-47960415D01*
X22055162Y-93883531D02*
X22035853Y-93898600D01*
X5084096Y-24617029D02*
X5070993Y-24596337D01*
X25615352Y-43930554D02*
X25639249Y-43925188D01*
X80793962Y-51111668D02*
X80812507Y-51127665D01*
X25366865Y-89077892D02*
X25383753Y-89060153D01*
X35534188Y-52596750D02*
X35530001Y-52572618D01*
X70181907Y-51027569D02*
X70204758Y-51036384D01*
X35926249Y-7990411D02*
X35902352Y-7985045D01*
X73610999Y-5201746D02*
X73626068Y-5182437D01*
X40273850Y-27886709D02*
X40296241Y-27876784D01*
X80966811Y-5401649D02*
X80970998Y-5425781D01*
X7941095Y-28102572D02*
X7952107Y-28124449D01*
X56086296Y-43989097D02*
X56107874Y-43976609D01*
X5000000Y-51497412D02*
X5000601Y-51472915D01*
X63371953Y-44061753D02*
X63389692Y-44044865D01*
X25350868Y-89096437D02*
X25366865Y-89077892D01*
X32495430Y-5330892D02*
X32503112Y-5354148D01*
X5037984Y-93688758D02*
X5029169Y-93665907D01*
X45929295Y-73100972D02*
X45940307Y-73122849D01*
X39993601Y-73262981D02*
X39997788Y-73238849D01*
X60187815Y-44223641D02*
X60196630Y-44246492D01*
X5401649Y-69827611D02*
X5377752Y-69822245D01*
X18164564Y-43954940D02*
X18187765Y-43945814D01*
X7886749Y-28021237D02*
X7901817Y-28040545D01*
X7669125Y-72866369D02*
X7691976Y-72875184D01*
X60166878Y-93733026D02*
X60154806Y-93754337D01*
X5330892Y-69808030D02*
X5308041Y-69799215D01*
X78105665Y-28002692D02*
X78122553Y-27984953D01*
X80668358Y-27876784D02*
X80690749Y-27886709D01*
X35553769Y-51329292D02*
X35562584Y-51306441D01*
X25501373Y-47939478D02*
X25480062Y-47927406D01*
X60177890Y-93711149D02*
X60166878Y-93733026D01*
X63284721Y-44179373D02*
X63296793Y-44158062D01*
X70227149Y-52950490D02*
X70204758Y-52960415D01*
X45917219Y-69594736D02*
X45904116Y-69615429D01*
X80975798Y-24364284D02*
X80973996Y-24388710D01*
X73820841Y-51036384D02*
X73843692Y-51027569D01*
X80477387Y-72837200D02*
X80501884Y-72837801D01*
X29937847Y-89016000D02*
X29957335Y-89031625D01*
X45973258Y-69459446D02*
X45966726Y-69483051D01*
X63603552Y-47983445D02*
X63579948Y-47976912D01*
X5129265Y-69673307D02*
X5113268Y-69654762D01*
X80928490Y-47712749D02*
X80917478Y-47734626D01*
X39988076Y-90995701D02*
X39988199Y-90990688D01*
X80917478Y-93733026D02*
X80905406Y-93754337D01*
X45724444Y-72896121D02*
X45745754Y-72908193D01*
X59917758Y-47960415D02*
X59894907Y-47969230D01*
X22073707Y-47869134D02*
X22055162Y-47885131D01*
X80712626Y-69778278D02*
X80690749Y-69789290D01*
X63296793Y-47755937D02*
X63284721Y-47734626D01*
X5005401Y-51424181D02*
X5009588Y-51400049D01*
X5129265Y-24674907D02*
X5113268Y-24656362D01*
X63371953Y-93850646D02*
X63355065Y-93832907D01*
X18000976Y-89065166D02*
X18018805Y-89047722D01*
X80645507Y-93967630D02*
X80622251Y-93975312D01*
X70497845Y-51376152D02*
X70503211Y-51400049D01*
X35878748Y-51019887D02*
X35902352Y-51013354D01*
X59983337Y-47927406D02*
X59962026Y-47939478D01*
X40342348Y-72858687D02*
X40365952Y-72852154D01*
X78060496Y-28060570D02*
X78074599Y-28040546D01*
X32342162Y-52885131D02*
X32322853Y-52900200D01*
X32050084Y-52997798D02*
X32025587Y-52998400D01*
X7778246Y-72921296D02*
X7798271Y-72935399D01*
X32515011Y-52596750D02*
X32509645Y-52620647D01*
X5377752Y-5014954D02*
X5401649Y-5009588D01*
X45929295Y-28102572D02*
X45940307Y-28124449D01*
X60079646Y-93850646D02*
X60061907Y-93867534D01*
X73527754Y-52620647D02*
X73522388Y-52596750D01*
X32523998Y-5474515D02*
X32524600Y-5499012D01*
X35530001Y-7574218D02*
X35527003Y-7549910D01*
X63489573Y-88972921D02*
X63511450Y-88961909D01*
X70510396Y-52548310D02*
X70507398Y-52572618D01*
X80622251Y-93975312D02*
X80598647Y-93981845D01*
X35999115Y-50999001D02*
X36023612Y-50998400D01*
X32453606Y-52755937D02*
X32440503Y-52776629D01*
X5037984Y-51306441D02*
X5047909Y-51284050D01*
X77978803Y-24388710D02*
X77977001Y-24364284D01*
X18018805Y-44049322D02*
X18037474Y-44032798D01*
X63247287Y-44269748D02*
X63254969Y-44246492D01*
X56297180Y-88916490D02*
X56322041Y-88914623D01*
X62416307Y-13000030D02*
X62393051Y-13007712D01*
X36023612Y-5000000D02*
X70013787Y-5000000D01*
X5129265Y-73001092D02*
X5146153Y-72983353D01*
X78354152Y-27853754D02*
X78378049Y-27848388D01*
X5037984Y-28146841D02*
X5047909Y-28124450D01*
X70330362Y-51111668D02*
X70348907Y-51127665D01*
X5308041Y-72875184D02*
X5330892Y-72866369D01*
X73518201Y-5425781D02*
X73522388Y-5401649D01*
X5308041Y-69799215D02*
X5285650Y-69789290D01*
X78158837Y-72950468D02*
X78178146Y-72935399D01*
X70507398Y-5425781D02*
X70510396Y-5450089D01*
X60225198Y-47523884D02*
X60223396Y-47548310D01*
X40209970Y-24754703D02*
X40189946Y-24740600D01*
X73642065Y-52834507D02*
X73626068Y-52815962D01*
X22236998Y-93522284D02*
X22235196Y-93546710D01*
X7525497Y-24838198D02*
X7501000Y-24838800D01*
X5425781Y-93991398D02*
X5401649Y-93987211D01*
X63273709Y-44201250D02*
X63284721Y-44179373D01*
X18235389Y-43931093D02*
X18259692Y-43925534D01*
X45702567Y-27886709D02*
X45724444Y-27897721D01*
X7549923Y-69834796D02*
X7525497Y-69836598D01*
X80947230Y-28169692D02*
X80954912Y-28192948D01*
X40036109Y-69551549D02*
X40026184Y-69529158D01*
X80961445Y-73214952D02*
X80966811Y-73238849D01*
X62393051Y-58006112D02*
X62369447Y-58012645D01*
X18098096Y-88987497D02*
X18119674Y-88975009D01*
X35572509Y-7714349D02*
X35562584Y-7691958D01*
X59940149Y-93948890D02*
X59917758Y-93958815D01*
X5221770Y-27922896D02*
X5242462Y-27909793D01*
X40017369Y-69506307D02*
X40009687Y-69483051D01*
X0Y-98990688D02*
X123Y-98995701D01*
X45805775Y-69723931D02*
X45786466Y-69739000D01*
X40296241Y-24800815D02*
X40273850Y-24790890D01*
X80917478Y-24575026D02*
X80905406Y-24596337D01*
X78089668Y-28021237D02*
X78105665Y-28002692D01*
X70399531Y-52815962D02*
X70383534Y-52834507D01*
X39988200Y-69338187D02*
X39988200Y-53004536D01*
X45978629Y-28240449D02*
X45982816Y-28264581D01*
X32465678Y-5263773D02*
X32476690Y-5285650D01*
X35670753Y-5146153D02*
X35688492Y-5129265D01*
X7970847Y-28169691D02*
X7978530Y-28192947D01*
X63489573Y-93937878D02*
X63468262Y-93925806D01*
X67771380Y-43937942D02*
X67795047Y-43945928D01*
X78035321Y-73100973D02*
X78047393Y-73079662D01*
X77997887Y-69483051D02*
X77991354Y-69459447D01*
X63675889Y-93994396D02*
X63651581Y-93991398D01*
X63254969Y-89244892D02*
X63263784Y-89222041D01*
X32378446Y-7853846D02*
X32360707Y-7870734D01*
X69854259Y-90996655D02*
X69860033Y-90996799D01*
X63389692Y-93867534D02*
X63371953Y-93850646D01*
X45966726Y-24484651D02*
X45959043Y-24507907D01*
X80966811Y-51400049D02*
X80970998Y-51424181D01*
X80574750Y-5009588D02*
X80598647Y-5014954D01*
X80847134Y-93832907D02*
X80830246Y-93850646D01*
X45858951Y-73001092D02*
X45874949Y-73019637D01*
X45987611Y-69362684D02*
X45985809Y-69387109D01*
X80598647Y-72852154D02*
X80622251Y-72858687D01*
X22237600Y-44414612D02*
X22237600Y-47499387D01*
X5263773Y-5058921D02*
X5285650Y-5047909D01*
X7836125Y-27968065D02*
X7853863Y-27984953D01*
X24308910Y-13026796D02*
X24284484Y-13028598D01*
X5146153Y-27984953D02*
X5163892Y-27968065D01*
X70464890Y-52712749D02*
X70453878Y-52734626D01*
X78105665Y-69673307D02*
X78089668Y-69654762D01*
X24495226Y-57968678D02*
X24473349Y-57979690D01*
X24759000Y-12530187D02*
X24758398Y-12554684D01*
X24758398Y-12554684D02*
X24756596Y-12579110D01*
X7915920Y-73058970D02*
X7929023Y-73079662D01*
X78122553Y-24692646D02*
X78105665Y-24674907D01*
X63533841Y-93958815D02*
X63511450Y-93948890D01*
X35902352Y-51013354D02*
X35926249Y-51007988D01*
X35622799Y-52796653D02*
X35608696Y-52776629D01*
X5113268Y-73019637D02*
X5129265Y-73001092D01*
X25480062Y-88984993D02*
X25501373Y-88972921D01*
X22139400Y-47796653D02*
X22124331Y-47815962D01*
X70512198Y-51472915D02*
X70512800Y-51497412D01*
X80574750Y-51007988D02*
X80598647Y-51013354D01*
X67795047Y-88944328D02*
X67818286Y-88953488D01*
X80947230Y-5330892D02*
X80954912Y-5354148D01*
X5029169Y-51329292D02*
X5037984Y-51306441D01*
X7714367Y-27886709D02*
X7736244Y-27897721D01*
X80645507Y-69808030D02*
X80622251Y-69815712D01*
X25238201Y-89388515D02*
X25240003Y-89364089D01*
X63273709Y-89199650D02*
X63284721Y-89177773D01*
X32193707Y-52969230D02*
X32170451Y-52976912D01*
X62737611Y-12627550D02*
X62732245Y-12651447D01*
X63309896Y-44137370D02*
X63323999Y-44117346D01*
X35670753Y-51144553D02*
X35688492Y-51127665D01*
X7990424Y-69435549D02*
X7985058Y-69459446D01*
X40003154Y-69459447D02*
X39997788Y-69435550D01*
X5084096Y-5221770D02*
X5098199Y-5201746D01*
X25366865Y-47834507D02*
X25350868Y-47815962D01*
X56007005Y-44049322D02*
X56025674Y-44032798D01*
X18259692Y-43925534D02*
X18284243Y-43921196D01*
X59775710Y-43918003D02*
X59800018Y-43921001D01*
X45988200Y-58033736D02*
X45988213Y-69338187D01*
X32411331Y-7817562D02*
X32395334Y-7836107D01*
X80812507Y-47869134D02*
X80793962Y-47885131D01*
X45874945Y-24656361D02*
X45858947Y-24674907D01*
X62709215Y-12721158D02*
X62699290Y-12743549D01*
X80622251Y-27860287D02*
X80645507Y-27867969D01*
X25523250Y-47950490D02*
X25501373Y-47939478D01*
X63263784Y-93688758D02*
X63254969Y-93665907D01*
X78060496Y-73058970D02*
X78074599Y-73038946D01*
X7598363Y-24829211D02*
X7574231Y-24833398D01*
X45842063Y-72983353D02*
X45858951Y-73001092D01*
X73820841Y-5037984D02*
X73843692Y-5029169D01*
X32193707Y-5029169D02*
X32216558Y-5037984D01*
X5098199Y-24637053D02*
X5084096Y-24617029D01*
X63427546Y-93898600D02*
X63408237Y-93883531D01*
X5285650Y-69789290D02*
X5263773Y-69778278D01*
X80526310Y-69834796D02*
X80501884Y-69836598D01*
X80477387Y-24838800D02*
X78475412Y-24838800D01*
X5084096Y-69615429D02*
X5070993Y-69594737D01*
X40365952Y-72852154D02*
X40389849Y-72846788D01*
X7757550Y-69766206D02*
X7736240Y-69778278D01*
X63226401Y-93522284D02*
X63225800Y-93497787D01*
X18119674Y-88975009D02*
X18141848Y-88963613D01*
X59824150Y-88923588D02*
X59848047Y-88928954D01*
X70453878Y-7736226D02*
X70441806Y-7757537D01*
X22216112Y-47644251D02*
X22208430Y-47667507D01*
X21835950Y-43925188D02*
X21859847Y-43930554D01*
X60216211Y-89315649D02*
X60220398Y-89339781D01*
X35810250Y-7952090D02*
X35788373Y-7941078D01*
X73583793Y-5242462D02*
X73596896Y-5221770D01*
X80847134Y-73001092D02*
X80863131Y-73019637D01*
X32342162Y-7886731D02*
X32322853Y-7901800D01*
X25308593Y-93754337D02*
X25296521Y-93733026D01*
X32495430Y-51329292D02*
X32503112Y-51352548D01*
X45950228Y-69529158D02*
X45940303Y-69551549D01*
X80712626Y-93937878D02*
X80690749Y-93948890D01*
X78262050Y-72885109D02*
X78284441Y-72875184D01*
X80878200Y-69635453D02*
X80863131Y-69654762D01*
X45805779Y-27952067D02*
X45824325Y-27968065D01*
X70483630Y-51329292D02*
X70491312Y-51352548D01*
X32440503Y-51220170D02*
X32453606Y-51240862D01*
X5354148Y-24817312D02*
X5330892Y-24809630D01*
X70503211Y-5401649D02*
X70507398Y-5425781D01*
X7798266Y-69739000D02*
X7778242Y-69753102D01*
X63700315Y-93996198D02*
X63675889Y-93994396D01*
X35534188Y-5401649D02*
X35539554Y-5377752D01*
X70464890Y-51284050D02*
X70474815Y-51306441D01*
X70464890Y-5285650D02*
X70474815Y-5308041D01*
X25247188Y-93595150D02*
X25243001Y-93571018D01*
X22124331Y-93814362D02*
X22108334Y-93832907D01*
X78354152Y-69822245D02*
X78330548Y-69815712D01*
X80793962Y-47885131D02*
X80774653Y-47900200D01*
X39990603Y-24388710D02*
X39988801Y-24364284D01*
X5009588Y-5401649D02*
X5014954Y-5377752D01*
X25350868Y-44098037D02*
X25366865Y-44079492D01*
X59775710Y-93994396D02*
X59751284Y-93996198D01*
X40117465Y-24674907D02*
X40101468Y-24656362D01*
X73914449Y-7990411D02*
X73890552Y-7985045D01*
X5070993Y-73079662D02*
X5084096Y-73058970D01*
X70497845Y-52620647D02*
X70491312Y-52644251D01*
X25308593Y-89156462D02*
X25321696Y-89135770D01*
X40209970Y-27922896D02*
X40230662Y-27909793D01*
X7757550Y-24767806D02*
X7736240Y-24779878D01*
X22015829Y-93912703D02*
X21995137Y-93925806D01*
X6136Y-98996800D02*
X85970263Y-98996800D01*
X63627449Y-88923588D02*
X63651581Y-88919401D01*
X77997887Y-28192948D02*
X78005569Y-28169692D01*
X25335799Y-89115746D02*
X25350868Y-89096437D01*
X32519198Y-7574218D02*
X32515011Y-7598350D01*
X32378446Y-52852246D02*
X32360707Y-52869134D01*
X7798271Y-27936999D02*
X7817579Y-27952067D01*
X40365952Y-69822245D02*
X40342348Y-69815712D01*
X24381247Y-58012645D02*
X24357350Y-58018011D01*
X35707037Y-52885131D02*
X35688492Y-52869134D01*
X7853863Y-72983353D02*
X7870751Y-73001092D01*
X25237600Y-89413012D02*
X25238201Y-89388515D01*
X29660507Y-43916225D02*
X29685415Y-43918099D01*
X25383753Y-89060153D02*
X25401492Y-89043265D01*
X5330892Y-27867969D02*
X5354148Y-27860287D01*
X80477387Y-27838800D02*
X80501884Y-27839401D01*
X29852837Y-88963799D02*
X29875043Y-88975236D01*
X29875043Y-88975236D02*
X29896650Y-88987770D01*
X7736244Y-72896121D02*
X7757554Y-72908193D01*
X78262050Y-69789290D02*
X78240173Y-69778278D01*
X7870747Y-69673307D02*
X7853859Y-69691045D01*
X25420037Y-93883531D02*
X25401492Y-93867534D01*
X40251973Y-27897721D02*
X40273850Y-27886709D01*
X35767062Y-51069393D02*
X35788373Y-51057321D01*
X45680176Y-27876784D02*
X45702567Y-27886709D01*
X63627449Y-47988811D02*
X63603552Y-47983445D01*
X78047393Y-69594737D02*
X78035321Y-69573426D01*
X63225800Y-89413012D02*
X63226401Y-89388515D01*
X80690749Y-47950490D02*
X80668358Y-47960415D01*
X67673615Y-43918099D02*
X67698398Y-43921217D01*
X25266769Y-89244892D02*
X25275584Y-89222041D01*
X5285650Y-27886709D02*
X5308041Y-27876784D01*
X62747200Y-53004536D02*
X62747200Y-57528587D01*
X60225800Y-44414612D02*
X60225800Y-47499387D01*
X40438289Y-72839603D02*
X40462715Y-72837801D01*
X56272443Y-88919596D02*
X56297180Y-88916490D01*
X40072296Y-24617029D02*
X40059193Y-24596337D01*
X39988199Y-53004511D02*
X39988076Y-52999498D01*
X45489205Y-27838800D02*
X45513702Y-27839401D01*
X59871651Y-47976912D02*
X59848047Y-47983445D01*
X5425781Y-5005401D02*
X5450089Y-5002403D01*
X22235196Y-89364089D02*
X22236998Y-89388515D01*
X5021487Y-69483051D02*
X5014954Y-69459447D01*
X80774653Y-47900200D02*
X80754629Y-47914303D01*
X32426400Y-52796653D02*
X32411331Y-52815962D01*
X35553769Y-7669107D02*
X35546087Y-7645851D01*
X54115554Y-90992321D02*
X55989176Y-89065166D01*
X5000601Y-51472915D02*
X5002403Y-51448489D01*
X80878200Y-24637053D02*
X80863131Y-24656362D01*
X35525201Y-7525484D02*
X35524600Y-7500987D01*
X45634065Y-24817312D02*
X45610460Y-24823845D01*
X25401492Y-89043265D02*
X25420037Y-89027268D01*
X29734794Y-88923971D02*
X29759142Y-88929551D01*
X24333218Y-13023798D02*
X24308910Y-13026796D01*
X25712115Y-43916201D02*
X25736612Y-43915600D01*
X73890552Y-5014954D02*
X73914449Y-5009588D01*
X63603552Y-88928954D02*
X63627449Y-88923588D01*
X70013787Y-8000000D02*
X62753336Y-8000000D01*
X22222645Y-89291752D02*
X22228011Y-89315649D01*
X80477387Y-47998400D02*
X63724812Y-47998400D01*
X40026184Y-73145241D02*
X40036109Y-73122850D01*
X62747200Y-57528587D02*
X62746598Y-57553084D01*
X60043362Y-44028868D02*
X60061907Y-44044865D01*
X35670753Y-7853846D02*
X35653865Y-7836107D01*
X25591748Y-47976912D02*
X25568492Y-47969230D01*
X32519198Y-51424181D02*
X32522196Y-51448489D01*
X18284243Y-43921196D02*
X18308980Y-43918090D01*
X73734570Y-52914303D02*
X73714546Y-52900200D01*
X63511450Y-47950490D02*
X63489573Y-47939478D01*
X7870747Y-24674907D02*
X7853859Y-24692645D01*
X18211393Y-43937858D02*
X18235389Y-43931093D01*
X60196630Y-47667507D02*
X60187815Y-47690358D01*
X39990603Y-73287289D02*
X39993601Y-73262981D01*
X80892303Y-51220170D02*
X80905406Y-51240862D01*
X5354148Y-5021487D02*
X5377752Y-5014954D01*
X40319092Y-27867969D02*
X40342348Y-27860287D01*
X80501884Y-27839401D02*
X80526310Y-27841203D01*
X80774653Y-5098199D02*
X80793962Y-5113268D01*
X73527754Y-7622247D02*
X73522388Y-7598350D01*
X5146153Y-24692646D02*
X5129265Y-24674907D01*
X22236998Y-44390115D02*
X22237600Y-44414612D01*
X45985809Y-69387109D02*
X45982811Y-69411417D01*
X5037984Y-69529158D02*
X5029169Y-69506307D01*
X70497845Y-5377752D02*
X70503211Y-5401649D01*
X80598647Y-51013354D02*
X80622251Y-51019887D01*
X32476690Y-5285650D02*
X32486615Y-5308041D01*
X21951949Y-93948890D02*
X21929558Y-93958815D01*
X25240003Y-93546710D02*
X25238201Y-93522284D01*
X32524600Y-52499387D02*
X32523998Y-52523884D01*
X63231201Y-47572618D02*
X63228203Y-47548310D01*
X7990424Y-24437149D02*
X7985058Y-24461046D01*
X80976400Y-69338187D02*
X80975798Y-69362684D01*
X73820841Y-52960415D02*
X73798450Y-52950490D01*
X21995137Y-88984993D02*
X22015829Y-88998096D01*
X35670753Y-52852246D02*
X35653865Y-52834507D01*
X70383534Y-52834507D02*
X70366646Y-52852246D01*
X67945535Y-44033225D02*
X67964216Y-44049807D01*
X78426489Y-24836396D02*
X78402181Y-24833398D01*
X22236998Y-47523884D02*
X22235196Y-47548310D01*
X39993601Y-28264581D02*
X39997788Y-28240449D01*
X63556692Y-88943169D02*
X63579948Y-88935487D01*
X7645869Y-72858687D02*
X7669125Y-72866369D01*
X5401649Y-24829211D02*
X5377752Y-24823845D01*
X63447570Y-43999696D02*
X63468262Y-43986593D01*
X35726346Y-5098199D02*
X35746370Y-5084096D01*
X32146847Y-52983445D02*
X32122950Y-52988811D01*
X60004029Y-93912703D02*
X59983337Y-93925806D01*
X62732245Y-57649847D02*
X62725712Y-57673451D01*
X24758398Y-57553084D02*
X24756596Y-57577510D01*
X25275584Y-47690358D02*
X25266769Y-47667507D01*
X45988217Y-28337811D02*
X45988237Y-45992263D01*
X40072296Y-73058970D02*
X40086399Y-73038946D01*
X32074510Y-5002403D02*
X32098818Y-5005401D01*
X22073707Y-93867534D02*
X22055162Y-93883531D01*
X32216558Y-5037984D02*
X32238949Y-5047909D01*
X45989336Y-90996676D02*
X45994349Y-90996799D01*
X7870751Y-28002692D02*
X7886749Y-28021237D01*
X45634069Y-27860287D02*
X45657325Y-27867969D01*
X70474815Y-5308041D02*
X70483630Y-5330892D01*
X35572509Y-5285650D02*
X35583521Y-5263773D01*
X78378049Y-27848388D02*
X78402181Y-27844201D01*
X80847134Y-24674907D02*
X80830246Y-24692646D01*
X73513401Y-51472915D02*
X73515203Y-51448489D01*
X21811818Y-88919401D02*
X21835950Y-88923588D01*
X62345550Y-13019611D02*
X62321418Y-13023798D01*
X63603552Y-93981845D02*
X63579948Y-93975312D01*
X7645865Y-24817312D02*
X7622260Y-24823845D01*
X32519198Y-52572618D02*
X32515011Y-52596750D01*
X40086399Y-28040546D02*
X40101468Y-28021237D01*
X69860058Y-45998400D02*
X77970263Y-45998400D01*
X8000017Y-28337811D02*
X8000037Y-45992263D01*
X25639249Y-47988811D02*
X25615352Y-47983445D01*
X40319092Y-72866369D02*
X40342348Y-72858687D01*
X62583307Y-12899934D02*
X62564762Y-12915931D01*
X45978624Y-69435549D02*
X45973258Y-69459446D01*
X7978526Y-24484651D02*
X7970843Y-24507907D01*
X62461549Y-12981290D02*
X62439158Y-12991215D01*
X21835950Y-47988811D02*
X21811818Y-47992998D01*
X70399531Y-51180837D02*
X70414600Y-51200146D01*
X24450958Y-57989615D02*
X24428107Y-57998430D01*
X35926249Y-51007988D02*
X35950381Y-51003801D01*
X32515011Y-7598350D02*
X32509645Y-7622247D01*
X62504737Y-57956606D02*
X62483426Y-57968678D01*
X80550618Y-93991398D02*
X80526310Y-93994396D01*
X80830246Y-72983353D02*
X80847134Y-73001092D01*
X78060496Y-69615429D02*
X78047393Y-69594737D01*
X60096534Y-93832907D02*
X60079646Y-93850646D01*
X24576562Y-12915931D02*
X24557253Y-12931000D01*
X22139400Y-93795053D02*
X22124331Y-93814362D01*
X39988200Y-90990663D02*
X39988200Y-73336212D01*
X22166606Y-47755937D02*
X22153503Y-47776629D01*
X40209970Y-69753103D02*
X40189946Y-69739000D01*
X32260826Y-5058921D02*
X32282137Y-5070993D01*
X77976276Y-90995701D02*
X77976399Y-90990688D01*
X5242462Y-47927406D02*
X5221770Y-47914303D01*
X59848047Y-93981845D02*
X59824150Y-93987211D01*
X80973996Y-73287289D02*
X80975798Y-73311715D01*
X24284484Y-13028598D02*
X24259987Y-13029200D01*
X60220398Y-47572618D02*
X60216211Y-47596750D01*
X78014384Y-73145241D02*
X78024309Y-73122850D01*
X7962028Y-69529158D02*
X7952103Y-69551549D01*
X56175965Y-88944214D02*
X56199593Y-88936258D01*
X32025587Y-8000000D02*
X24765136Y-8000000D01*
X32216558Y-52960415D02*
X32193707Y-52969230D01*
X5499012Y-69837200D02*
X5474515Y-69836598D01*
X63371953Y-47852246D02*
X63355065Y-47834507D01*
X5146153Y-72983353D02*
X5163892Y-72966465D01*
X5129265Y-5163892D02*
X5146153Y-5146153D01*
X73987315Y-7999398D02*
X73962889Y-7997596D01*
X24711090Y-12743549D02*
X24700078Y-12765426D01*
X35608696Y-52776629D02*
X35595593Y-52755937D01*
X78089668Y-73019637D02*
X78105665Y-73001092D01*
X32411331Y-51180837D02*
X32426400Y-51200146D01*
X25259087Y-93642651D02*
X25252554Y-93619047D01*
X25501373Y-93937878D02*
X25480062Y-93925806D01*
X35974689Y-7997596D02*
X35950381Y-7994598D01*
X60061907Y-93867534D02*
X60043362Y-93883531D01*
X63240754Y-89291752D02*
X63247287Y-89268148D01*
X73938581Y-51003801D02*
X73962889Y-51000803D01*
X7778242Y-69753102D02*
X7757550Y-69766206D01*
X25459370Y-43999696D02*
X25480062Y-43986593D01*
X22199615Y-47690358D02*
X22189690Y-47712749D01*
X62617934Y-57863707D02*
X62601046Y-57881446D01*
X80477387Y-50998400D02*
X80501884Y-50999001D01*
X32465678Y-51262173D02*
X32476690Y-51284050D01*
X60154806Y-44158062D02*
X60166878Y-44179373D01*
X80961445Y-47620647D02*
X80954912Y-47644251D01*
X24576562Y-57914331D02*
X24557253Y-57929400D01*
X80975798Y-73311715D02*
X80976400Y-73336212D01*
X45988238Y-45992288D02*
X45988361Y-45997301D01*
X80917478Y-73100973D02*
X80928490Y-73122850D01*
X70158651Y-7978512D02*
X70135047Y-7985045D01*
X80598647Y-5014954D02*
X80622251Y-5021487D01*
X60210845Y-44293352D02*
X60216211Y-44317249D01*
X45874945Y-69654761D02*
X45858947Y-69673307D01*
X63556692Y-47969230D02*
X63533841Y-47960415D01*
X73518201Y-7574218D02*
X73515203Y-7549910D01*
X80830246Y-47852246D02*
X80812507Y-47869134D01*
X35788373Y-7941078D02*
X35767062Y-7929006D01*
X73571721Y-52734626D02*
X73560709Y-52712749D01*
X32216558Y-7962015D02*
X32193707Y-7970830D01*
X7952103Y-24553149D02*
X7941091Y-24575026D01*
X5000601Y-69362684D02*
X5000000Y-69338187D01*
X32025587Y-5000000D02*
X32050084Y-5000601D01*
X32302829Y-52914303D02*
X32282137Y-52927406D01*
X80966811Y-69435550D02*
X80961445Y-69459447D01*
X60166878Y-89177773D02*
X60177890Y-89199650D01*
X63675889Y-47995996D02*
X63651581Y-47992998D01*
X5285650Y-51046309D02*
X5308041Y-51036384D01*
X7970847Y-73168091D02*
X7978530Y-73191347D01*
X32074510Y-52995996D02*
X32050084Y-52997798D01*
X24688006Y-12786737D02*
X24674903Y-12807429D01*
X70453878Y-52734626D02*
X70441806Y-52755937D01*
X60177890Y-44201250D02*
X60187815Y-44223641D01*
X5000000Y-28337812D02*
X5000601Y-28313315D01*
X73610999Y-7798253D02*
X73596896Y-7778229D01*
X21738587Y-93996800D02*
X5499012Y-93996800D01*
X78140292Y-27968065D02*
X78158837Y-27952068D01*
X29783180Y-43937942D02*
X29806847Y-43945928D01*
X80878200Y-5201746D02*
X80892303Y-5221770D01*
X5221770Y-47914303D02*
X5201746Y-47900200D01*
X39997788Y-69435550D02*
X39993601Y-69411418D01*
X80526310Y-51000803D02*
X80550618Y-51003801D01*
X45562436Y-27844201D02*
X45586567Y-27848388D01*
X7778246Y-27922896D02*
X7798271Y-27936999D01*
X40319092Y-69808030D02*
X40296241Y-69799215D01*
X31861262Y-90992324D02*
X31865384Y-90996369D01*
X24595107Y-12899934D02*
X24576562Y-12915931D01*
X5029169Y-69506307D02*
X5021487Y-69483051D01*
X63651581Y-47992998D02*
X63627449Y-47988811D01*
X40101468Y-28021237D02*
X40117465Y-28002692D01*
X18333841Y-88914623D02*
X18358777Y-88914000D01*
X24259987Y-58027600D02*
X8006136Y-58027600D01*
X5450089Y-24836396D02*
X5425781Y-24833398D01*
X74011812Y-8000000D02*
X73987315Y-7999398D01*
X70512198Y-5474515D02*
X70512800Y-5499012D01*
X63254969Y-47667507D02*
X63247287Y-47644251D01*
X35546087Y-51352548D02*
X35553769Y-51329292D01*
X21906707Y-93967630D02*
X21883451Y-93975312D01*
X32426400Y-5201746D02*
X32440503Y-5221770D01*
X25736612Y-93996800D02*
X25712115Y-93996198D01*
X60024053Y-93898600D02*
X60004029Y-93912703D01*
X21787510Y-47995996D02*
X21763084Y-47997798D01*
X45805779Y-72950467D02*
X45824325Y-72966465D01*
X62439158Y-57989615D02*
X62416307Y-57998430D01*
X8000017Y-73336211D02*
X8000037Y-90990663D01*
X45634069Y-72858687D02*
X45657325Y-72866369D01*
X5221770Y-93912703D02*
X5201746Y-93898600D01*
X70474815Y-51306441D02*
X70483630Y-51329292D01*
X35530001Y-51424181D02*
X35534188Y-51400049D01*
X45994374Y-90996800D02*
X54104953Y-90996800D01*
X63489573Y-43974521D02*
X63511450Y-43963509D01*
X45966726Y-69483051D02*
X45959043Y-69506307D01*
X29917602Y-44002969D02*
X29937847Y-44017600D01*
X45982816Y-28264581D02*
X45985814Y-28288888D01*
X24284484Y-58026998D02*
X24259987Y-58027600D01*
X80733937Y-47927406D02*
X80712626Y-47939478D01*
X73527754Y-51376152D02*
X73534287Y-51352548D01*
X35746370Y-51082496D02*
X35767062Y-51069393D01*
X5113268Y-28021237D02*
X5129265Y-28002692D01*
X80501884Y-50999001D02*
X80526310Y-51000803D01*
X80905406Y-93754337D02*
X80892303Y-93775029D01*
X70204758Y-52960415D02*
X70181907Y-52969230D01*
X5474515Y-5000601D02*
X5499012Y-5000000D01*
X25663381Y-47992998D02*
X25639249Y-47988811D01*
X70249026Y-5058921D02*
X70270337Y-5070993D01*
X5002403Y-24388710D02*
X5000601Y-24364284D01*
X5000000Y-93497787D02*
X5000000Y-73336212D01*
X73798450Y-52950490D02*
X73776573Y-52939478D01*
X32395334Y-51162292D02*
X32411331Y-51180837D01*
X62718030Y-12698307D02*
X62709215Y-12721158D01*
X70512198Y-52523884D02*
X70510396Y-52548310D01*
X5009588Y-51400049D02*
X5014954Y-51376152D01*
X80970998Y-28264581D02*
X80973996Y-28288889D01*
X5037984Y-73145241D02*
X5047909Y-73122850D01*
X62601046Y-12883046D02*
X62583307Y-12899934D01*
X5098199Y-5201746D02*
X5113268Y-5182437D01*
X7915920Y-28060570D02*
X7929023Y-28081262D01*
X25545641Y-93958815D02*
X25523250Y-93948890D01*
X40389849Y-69827611D02*
X40365952Y-69822245D01*
X25459370Y-88998096D02*
X25480062Y-88984993D01*
X78105665Y-24674907D02*
X78089668Y-24656362D01*
X45988217Y-73336211D02*
X45988237Y-90990663D01*
X5182437Y-47885131D02*
X5163892Y-47869134D01*
X40389849Y-24829211D02*
X40365952Y-24823845D01*
X80905406Y-73079662D02*
X80917478Y-73100973D01*
X45805775Y-24725531D02*
X45786466Y-24740600D01*
X32238949Y-52950490D02*
X32216558Y-52960415D01*
X32476690Y-7714349D02*
X32465678Y-7736226D01*
X77985988Y-69435550D02*
X77981801Y-69411418D01*
X80645507Y-27867969D02*
X80668358Y-27876784D01*
X40036109Y-28124450D02*
X40047121Y-28102573D01*
X22139400Y-89115746D02*
X22153503Y-89135770D01*
X78262050Y-24790890D02*
X78240173Y-24779878D01*
X73714546Y-51096599D02*
X73734570Y-51082496D01*
X5070993Y-93754337D02*
X5058921Y-93733026D01*
X35726346Y-51096599D02*
X35746370Y-51082496D01*
X45786466Y-24740600D02*
X45766442Y-24754702D01*
X67648707Y-88914625D02*
X67673615Y-88916499D01*
X16123216Y-45997970D02*
X16127336Y-45993939D01*
X63627449Y-93987211D02*
X63603552Y-93981845D01*
X54111416Y-45997970D02*
X54115536Y-45993939D01*
X39982063Y-52998400D02*
X36023612Y-52998400D01*
X70491312Y-51352548D02*
X70497845Y-51376152D01*
X5021487Y-93642651D02*
X5014954Y-93619047D01*
X40189946Y-27936999D02*
X40209970Y-27922896D01*
X45824325Y-27968065D02*
X45842063Y-27984953D01*
X63240754Y-93619047D02*
X63235388Y-93595150D01*
X25459370Y-93912703D02*
X25439346Y-93898600D01*
X73550784Y-51306441D02*
X73560709Y-51284050D01*
X78047393Y-28081262D02*
X78060496Y-28060570D01*
X62753311Y-52998400D02*
X62748298Y-52998523D01*
X62676206Y-57785137D02*
X62663103Y-57805829D01*
X56223589Y-88929493D02*
X56247892Y-88923934D01*
X25259087Y-44269748D02*
X25266769Y-44246492D01*
X60210845Y-47620647D02*
X60204312Y-47644251D01*
X35562584Y-7691958D02*
X35553769Y-7669107D01*
X25240003Y-89364089D02*
X25243001Y-89339781D01*
X5330892Y-72866369D02*
X5354148Y-72858687D01*
X25243001Y-44341381D02*
X25247188Y-44317249D01*
X35855492Y-7970830D02*
X35832641Y-7962015D01*
X60024053Y-89012199D02*
X60043362Y-89027268D01*
X60004029Y-88998096D02*
X60024053Y-89012199D01*
X7622264Y-72852154D02*
X7645869Y-72858687D01*
X22189690Y-47712749D02*
X22178678Y-47734626D01*
X25238201Y-47523884D02*
X25237600Y-47499387D01*
X32515011Y-51400049D02*
X32519198Y-51424181D01*
X60141703Y-44137370D02*
X60154806Y-44158062D01*
X5308041Y-51036384D02*
X5330892Y-51027569D01*
X45513702Y-27839401D02*
X45538128Y-27841203D01*
X62483426Y-12970278D02*
X62461549Y-12981290D01*
X80905406Y-47755937D02*
X80892303Y-47776629D01*
X63228203Y-89364089D02*
X63231201Y-89339781D01*
X24629734Y-12865307D02*
X24612846Y-12883046D01*
X80973996Y-5450089D02*
X80975798Y-5474515D01*
X60225198Y-89388515D02*
X60225800Y-89413012D01*
X60220398Y-89339781D02*
X60223396Y-89364089D01*
X40047121Y-69573426D02*
X40036109Y-69551549D01*
X80774653Y-72935399D02*
X80793962Y-72950468D01*
X5113268Y-5182437D02*
X5129265Y-5163892D01*
X59726787Y-93996800D02*
X25736612Y-93996800D01*
X8006111Y-13029200D02*
X8001098Y-13029323D01*
X70441806Y-52755937D02*
X70428703Y-52776629D01*
X5242462Y-69766206D02*
X5221770Y-69753103D01*
X77976400Y-90990663D02*
X77976400Y-73336212D01*
X73658953Y-51144553D02*
X73676692Y-51127665D01*
X39988200Y-24339787D02*
X39988200Y-8006136D01*
X73571721Y-51262173D02*
X73583793Y-51240862D01*
X59894907Y-93967630D02*
X59871651Y-93975312D01*
X77975301Y-8000123D02*
X77970288Y-8000000D01*
X56346977Y-43915600D02*
X59726787Y-43915600D01*
X60225198Y-93522284D02*
X60223396Y-93546710D01*
X5263773Y-93937878D02*
X5242462Y-93925806D01*
X80975798Y-51472915D02*
X80976400Y-51497412D01*
X25383753Y-93850646D02*
X25366865Y-93832907D01*
X5047909Y-51284050D02*
X5058921Y-51262173D01*
X56007005Y-89047722D02*
X56025674Y-89031198D01*
X24759123Y-8001098D02*
X24759000Y-8006111D01*
X70270337Y-51069393D02*
X70291029Y-51082496D01*
X25591748Y-93975312D02*
X25568492Y-93967630D01*
X45745750Y-24767806D02*
X45724440Y-24779878D01*
X32495430Y-52667507D02*
X32486615Y-52690358D01*
X5014954Y-24461047D02*
X5009588Y-24437150D01*
X56346977Y-88914000D02*
X59726787Y-88914000D01*
X80970998Y-93571018D02*
X80966811Y-93595150D01*
X80574750Y-72846788D02*
X80598647Y-72852154D01*
X5474515Y-69836598D02*
X5450089Y-69834796D01*
X32440503Y-7778229D02*
X32426400Y-7798253D01*
X70062710Y-7997596D02*
X70038284Y-7999398D01*
X63468262Y-43986593D02*
X63489573Y-43974521D01*
X32238949Y-5047909D02*
X32260826Y-5058921D01*
X80574750Y-93987211D02*
X80550618Y-93991398D01*
X62297110Y-13026796D02*
X62272684Y-13028598D01*
X78218862Y-27909793D02*
X78240173Y-27897721D01*
X22091446Y-47852246D02*
X22073707Y-47869134D01*
X45610464Y-27853754D02*
X45634069Y-27860287D01*
X7929019Y-24596336D02*
X7915916Y-24617029D01*
X80754629Y-24754703D02*
X80733937Y-24767806D01*
X5499012Y-24838800D02*
X5474515Y-24838198D01*
X25639249Y-93987211D02*
X25615352Y-93981845D01*
X22235196Y-93546710D02*
X22232198Y-93571018D01*
X5113268Y-69654762D02*
X5098199Y-69635453D01*
X32170451Y-7978512D02*
X32146847Y-7985045D01*
X56065369Y-44002648D02*
X56086296Y-43989097D01*
X29685415Y-88916499D02*
X29710198Y-88919617D01*
X22055162Y-47885131D02*
X22035853Y-47900200D01*
X22216112Y-44269748D02*
X22222645Y-44293352D01*
X73866948Y-5021487D02*
X73890552Y-5014954D01*
X35974689Y-51000803D02*
X35999115Y-50999001D01*
X77977001Y-28313315D02*
X77978803Y-28288889D01*
X77997887Y-24484651D02*
X77991354Y-24461047D01*
X7817579Y-72950467D02*
X7836125Y-72966465D01*
X22178678Y-89177773D02*
X22189690Y-89199650D01*
X24749411Y-57625950D02*
X24744045Y-57649847D01*
X67884850Y-43989370D02*
X67905802Y-44002969D01*
X73518201Y-52572618D02*
X73515203Y-52548310D01*
X60220398Y-44341381D02*
X60223396Y-44365689D01*
X45538128Y-27841203D02*
X45562436Y-27844201D01*
X73695237Y-7886731D02*
X73676692Y-7870734D01*
X80774653Y-51096599D02*
X80793962Y-51111668D01*
X5084096Y-47776629D02*
X5070993Y-47755937D01*
X60112531Y-44098037D02*
X60127600Y-44117346D01*
X21811818Y-47992998D02*
X21787510Y-47995996D01*
X5084096Y-28060570D02*
X5098199Y-28040546D01*
X77981801Y-69411418D02*
X77978803Y-69387110D01*
X60204312Y-89268148D02*
X60210845Y-89291752D01*
X80622251Y-51019887D02*
X80645507Y-51027569D01*
X78198170Y-27922896D02*
X78218862Y-27909793D01*
X22232198Y-47572618D02*
X22228011Y-47596750D01*
X5146153Y-51144553D02*
X5163892Y-51127665D01*
X63579948Y-43937087D02*
X63603552Y-43930554D01*
X7691972Y-69799215D02*
X7669121Y-69808030D01*
X25296521Y-47734626D02*
X25285509Y-47712749D01*
X32146847Y-51013354D02*
X32170451Y-51019887D01*
X80733937Y-93925806D02*
X80712626Y-93937878D01*
X35608696Y-7778229D02*
X35595593Y-7757537D01*
X63273709Y-93711149D02*
X63263784Y-93688758D01*
X80976400Y-5499012D02*
X80976400Y-24339787D01*
X80793962Y-5113268D02*
X80812507Y-5129265D01*
X8000123Y-58028698D02*
X8000000Y-58033711D01*
X40251973Y-72896121D02*
X40273850Y-72885109D01*
X25335799Y-93795053D02*
X25321696Y-93775029D01*
X21929558Y-88951984D02*
X21951949Y-88961909D01*
X63254969Y-93665907D02*
X63247287Y-93642651D01*
X7598363Y-69827611D02*
X7574231Y-69831798D01*
X21763084Y-93996198D02*
X21738587Y-93996800D01*
X80976400Y-28337812D02*
X80976400Y-47499387D01*
X7901813Y-69635453D02*
X7886745Y-69654761D01*
X32524600Y-51497412D02*
X32524600Y-52499387D01*
X73962889Y-52995996D02*
X73938581Y-52992998D01*
X74011812Y-5000000D02*
X80477387Y-5000000D01*
X5021487Y-5354148D02*
X5029169Y-5330892D01*
X80976400Y-47499387D02*
X80975798Y-47523884D01*
X59917758Y-43953584D02*
X59940149Y-43963509D01*
X39988801Y-69362684D02*
X39988200Y-69338187D01*
X73676692Y-5129265D02*
X73695237Y-5113268D01*
X18164564Y-88953340D02*
X18187765Y-88944214D01*
X80973996Y-28288889D02*
X80975798Y-28313315D01*
X59962026Y-47939478D02*
X59940149Y-47950490D01*
X73596896Y-7778229D02*
X73583793Y-7757537D01*
X45994311Y-58027600D02*
X45989298Y-58027723D01*
X25639249Y-88923588D02*
X25663381Y-88919401D01*
X80830246Y-69691046D02*
X80812507Y-69707934D01*
X32302829Y-7915903D02*
X32282137Y-7929006D01*
X63339068Y-93814362D02*
X63323999Y-93795053D01*
M02*
