%TF.GenerationSoftware,KiCad,Pcbnew,9.0.3*%
%TF.CreationDate,2025-09-14T18:43:41+02:00*%
%TF.ProjectId,panel,70616e65-6c2e-46b6-9963-61645f706362,rev?*%
%TF.SameCoordinates,Original*%
%TF.FileFunction,Drillmap*%
%TF.FilePolarity,Positive*%
%FSLAX45Y45*%
G04 Gerber Fmt 4.5, Leading zero omitted, Abs format (unit mm)*
G04 Created by KiCad (PCBNEW 9.0.3) date 2025-09-14 18:43:41*
%MOMM*%
%LPD*%
G01*
G04 APERTURE LIST*
%ADD10C,0.100000*%
%ADD11C,0.200000*%
G04 APERTURE END LIST*
D10*
X773624Y-2477988D02*
X771436Y-2479089D01*
X2529652Y-4417937D02*
X2530859Y-4415806D01*
X518244Y-511327D02*
X520175Y-509820D01*
X7808967Y-6965476D02*
X7807460Y-6963545D01*
X7364206Y-783611D02*
X7362607Y-781756D01*
X2524000Y-4754831D02*
X2523820Y-4752388D01*
X7362607Y-5118084D02*
X7364206Y-5116229D01*
X7798599Y-7323885D02*
X7799135Y-7321495D01*
X771436Y-6978929D02*
X769197Y-6979921D01*
X7384369Y-502917D02*
X7386695Y-502149D01*
X8090541Y-6959474D02*
X8089230Y-6961543D01*
X7001379Y-5099840D02*
X7003828Y-5099900D01*
X7837805Y-6982761D02*
X7835415Y-6982224D01*
X6351145Y-4396351D02*
X6353384Y-4395358D01*
X6011253Y-8909644D02*
X6012760Y-8911575D01*
X7845091Y-6983660D02*
X7842649Y-6983480D01*
X6328472Y-9373303D02*
X6327371Y-9371115D01*
X8095491Y-9364265D02*
X8094723Y-9366591D01*
X3999360Y-6941142D02*
X3999060Y-6938711D01*
X6019663Y-9366591D02*
X6018781Y-9368876D01*
X2540149Y-4786913D02*
X2538375Y-4785225D01*
X6234555Y-5801801D02*
X6232142Y-5802220D01*
X4015209Y-2796806D02*
X4017064Y-2795207D01*
X3581025Y-5104631D02*
X3583264Y-5103638D01*
X2525909Y-4764425D02*
X2525255Y-4762065D01*
X764587Y-2786029D02*
X766912Y-2786797D01*
X7361100Y-5279665D02*
X7359690Y-5277663D01*
X3187186Y-9099680D02*
X3998206Y-9099680D01*
X5613005Y-4396521D02*
X5615276Y-4395494D01*
X3207451Y-5100080D02*
X3209882Y-5100380D01*
X3599911Y-500060D02*
X3602361Y-500000D01*
X6372481Y-9399680D02*
X6370031Y-9399620D01*
X7807460Y-7303895D02*
X7808967Y-7301964D01*
X5977571Y-4799600D02*
X5975128Y-4799780D01*
X6254545Y-5792940D02*
X6252543Y-5794350D01*
X7797628Y-4599730D02*
X7797640Y-4599229D01*
X4598581Y-7328729D02*
X4598762Y-7331171D01*
X783612Y-6970793D02*
X781757Y-6972393D01*
X8069075Y-2479089D02*
X8066836Y-2480082D01*
X4578647Y-2793700D02*
X4580578Y-2795207D01*
X2523760Y-4441461D02*
X2523820Y-4439012D01*
X3236071Y-5286913D02*
X3234216Y-5288513D01*
X2554564Y-4796042D02*
X2552325Y-4795049D01*
X7351340Y-547452D02*
X7351520Y-545009D01*
X2563925Y-4392519D02*
X2566338Y-4392100D01*
X1805694Y-4401723D02*
X1807717Y-4400265D01*
X5975128Y-4391620D02*
X5977571Y-4391800D01*
X7826205Y-2788671D02*
X7828444Y-2787678D01*
X8090541Y-2459634D02*
X8089230Y-2461703D01*
X792902Y-6959474D02*
X791592Y-6961543D01*
X790182Y-2804054D02*
X791592Y-2806057D01*
X509820Y-7303895D02*
X511327Y-7301964D01*
X8084713Y-6967331D02*
X8083025Y-6969105D01*
X8097640Y-7333621D02*
X8097640Y-9349779D01*
X8597640Y-611D02*
X8597628Y-110D01*
X6007965Y-4785225D02*
X6006191Y-4786913D01*
X8081251Y-7296646D02*
X8083025Y-7298335D01*
X4029624Y-2787678D02*
X4031909Y-2786797D01*
X2223760Y-8941301D02*
X2223760Y-9349779D01*
X6355669Y-4394477D02*
X6357995Y-4393709D01*
X7006271Y-5299600D02*
X7003828Y-5299780D01*
X7377657Y-794108D02*
X7375526Y-792901D01*
X752550Y-6983660D02*
X750100Y-6983720D01*
X6328472Y-4773463D02*
X6327371Y-4771275D01*
X2222801Y-9359515D02*
X2222265Y-9361905D01*
X3583264Y-5296042D02*
X3581025Y-5295049D01*
X6274480Y-5757751D02*
X6274180Y-5760182D01*
X7003828Y-5099900D02*
X7006271Y-5100080D01*
X524246Y-2790979D02*
X526377Y-2789772D01*
X4034235Y-2481731D02*
X4031909Y-2480963D01*
X4008640Y-6963545D02*
X4007230Y-6961543D01*
X8096681Y-2443715D02*
X8096144Y-2446105D01*
X2526677Y-4766751D02*
X2525909Y-4764425D01*
X3228214Y-5292741D02*
X3226083Y-5293948D01*
X5606537Y-8900105D02*
X5608630Y-8898750D01*
X7824017Y-7289612D02*
X7826205Y-7288511D01*
X3186126Y-4599392D02*
X3186538Y-4599797D01*
X4000969Y-7319135D02*
X4001737Y-7316809D01*
X8086313Y-4781596D02*
X8084713Y-4783451D01*
X4595904Y-6950631D02*
X4595023Y-6952916D01*
X6338969Y-4404487D02*
X6340824Y-4402887D01*
X799942Y-2831331D02*
X800002Y-2833781D01*
X4598761Y-2436428D02*
X4598581Y-2438871D01*
X4565732Y-2480963D02*
X4563407Y-2481731D01*
X4576645Y-7292130D02*
X4578647Y-7293540D01*
X501495Y-4762065D02*
X500959Y-4759675D01*
X3552700Y-545009D02*
X3553000Y-542578D01*
X8097400Y-5144849D02*
X8097580Y-5147292D01*
X6370031Y-4391620D02*
X6372481Y-4391560D01*
X520175Y-6973900D02*
X518244Y-6972393D01*
X8071263Y-2477988D02*
X8069075Y-2479089D01*
X4025197Y-2477988D02*
X4023066Y-2476781D01*
X7840218Y-6983180D02*
X7837805Y-6982761D01*
X8059865Y-6982224D02*
X8057475Y-6982761D01*
X501495Y-7321495D02*
X502149Y-7319135D01*
X6020431Y-9364265D02*
X6019663Y-9366591D01*
X4598820Y-1303534D02*
X4598821Y-2433979D01*
X8089230Y-4777663D02*
X8087820Y-4779665D01*
X500540Y-542578D02*
X500959Y-540165D01*
X3552460Y-5249939D02*
X3552460Y-5149741D01*
X7828444Y-2480082D02*
X7826205Y-2479089D01*
X6323539Y-4431725D02*
X6324075Y-4429335D01*
X1814185Y-4396521D02*
X1816456Y-4395494D01*
X2999385Y-8906571D02*
X3186124Y-9099231D01*
X7842649Y-6983480D02*
X7840218Y-6983180D01*
X4046271Y-2783940D02*
X4048721Y-2783880D01*
X8081251Y-2796806D02*
X8083025Y-2798495D01*
X6330990Y-9377503D02*
X6329679Y-9375434D01*
X2199514Y-4398659D02*
X2201583Y-4399970D01*
X4041398Y-6983180D02*
X4038985Y-6982761D01*
X3252400Y-752548D02*
X3252220Y-754991D01*
X4034235Y-2786029D02*
X4036595Y-2785375D01*
X500060Y-2436428D02*
X500000Y-2433979D01*
X2183595Y-8892359D02*
X2185985Y-8892895D01*
X1612735Y-9099232D02*
X1800098Y-8906517D01*
X8096144Y-2821655D02*
X8096681Y-2824045D01*
X6271803Y-5769671D02*
X6270921Y-5771956D01*
X799941Y-6936268D02*
X799761Y-6938711D01*
X8094723Y-4766751D02*
X8093841Y-4769036D01*
X6011253Y-9381436D02*
X6009653Y-9383291D01*
X7803532Y-6957343D02*
X7802431Y-6955155D01*
X8097100Y-6941142D02*
X8096681Y-6943555D01*
X8095491Y-535415D02*
X8096144Y-537775D01*
X2178751Y-4391800D02*
X2181182Y-4392100D01*
X3234216Y-5111167D02*
X3236071Y-5112767D01*
X2568769Y-4391800D02*
X2571212Y-4391620D01*
X3553419Y-5140005D02*
X3553955Y-5137615D01*
X5602567Y-8903120D02*
X5604514Y-8901563D01*
X518244Y-2472553D02*
X516389Y-2470953D01*
X8073394Y-507099D02*
X8075463Y-508410D01*
X509820Y-5120015D02*
X511327Y-5118084D01*
X2215350Y-4777663D02*
X2213940Y-4779665D01*
X3552700Y-5254831D02*
X3552520Y-5252388D01*
X1807717Y-8900105D02*
X1809810Y-8898750D01*
X4017064Y-2472553D02*
X4015209Y-2470953D01*
X3563787Y-5118084D02*
X3565386Y-5116229D01*
X3239533Y-783611D02*
X3237845Y-785385D01*
X1611678Y-9099680D02*
X1612254Y-9099666D01*
X2451654Y-1295821D02*
X2449523Y-1297028D01*
X4553812Y-6983480D02*
X4551370Y-6983660D01*
X7398731Y-5099900D02*
X7401181Y-5099840D01*
X6346826Y-9392581D02*
X6344757Y-9391270D01*
X6261793Y-1286531D02*
X6260105Y-1288305D01*
X783612Y-2470953D02*
X781757Y-2472553D01*
X2212433Y-4781596D02*
X2210833Y-4783451D01*
X6323120Y-9357102D02*
X6322820Y-9354671D01*
X7050321Y-759835D02*
X7049784Y-762225D01*
X781757Y-6972393D02*
X779827Y-6973900D01*
X8097580Y-547452D02*
X8097640Y-549901D01*
X6792605Y-4401760D02*
X6794553Y-4403323D01*
X7367669Y-5286913D02*
X7365895Y-5285225D01*
X7377657Y-5105732D02*
X7379845Y-5104631D01*
X7354197Y-766911D02*
X7353429Y-764585D01*
X2525909Y-8926815D02*
X2526677Y-8924489D01*
X4005919Y-2459634D02*
X4004712Y-2457503D01*
X798506Y-2821655D02*
X799043Y-2824045D01*
X5996203Y-9393788D02*
X5994015Y-9394889D01*
X6340824Y-9388353D02*
X6338969Y-9386753D01*
X7044181Y-524246D02*
X7045388Y-526377D01*
X8097100Y-4757262D02*
X8096681Y-4759675D01*
X4598832Y-1303030D02*
X4598820Y-1303531D01*
X2216661Y-9375434D02*
X2215350Y-9377503D01*
X7355078Y-530804D02*
X7356071Y-528565D01*
X7807460Y-2463705D02*
X7806050Y-2461703D01*
X4590412Y-2806057D02*
X4591722Y-2808126D01*
X8066836Y-503798D02*
X8069075Y-504791D01*
X8062225Y-4797691D02*
X8059865Y-4798345D01*
X7797640Y-6933819D02*
X7797640Y-5300454D01*
X3205008Y-500060D02*
X3207451Y-500240D01*
X503798Y-530804D02*
X504791Y-528565D01*
X2464573Y-5784516D02*
X2462973Y-5786371D01*
X7358379Y-5275594D02*
X7357172Y-5273463D01*
X3590235Y-501495D02*
X3592625Y-500959D01*
X549901Y-500000D02*
X3202559Y-500000D01*
X3217045Y-502149D02*
X3219371Y-502917D01*
X2210833Y-8907789D02*
X2212433Y-8909644D01*
X785386Y-6969104D02*
X783612Y-6970793D01*
X4590412Y-6961543D02*
X4589001Y-6963545D01*
X4046271Y-6983660D02*
X4043829Y-6983480D01*
X4578647Y-6973900D02*
X4576644Y-6975310D01*
X12Y-110D02*
X0Y-611D01*
X7804739Y-7307966D02*
X7806050Y-7305897D01*
X783612Y-7296646D02*
X785386Y-7298335D01*
X4595904Y-2450791D02*
X4595023Y-2453076D01*
X6004336Y-8902727D02*
X6006191Y-8904327D01*
X8057475Y-2784839D02*
X8059865Y-2785375D01*
X771437Y-7288511D02*
X773624Y-7289612D01*
X3583264Y-796201D02*
X3581025Y-795209D01*
X6986006Y-9099680D02*
X7797026Y-9099680D01*
X6353384Y-4395358D02*
X6355669Y-4394477D01*
X7003828Y-5299780D02*
X7001379Y-5299840D01*
X535415Y-7285869D02*
X537775Y-7285215D01*
X7352239Y-5140005D02*
X7352775Y-5137615D01*
X8055062Y-4799300D02*
X8052631Y-4799600D01*
X8052631Y-500240D02*
X8055062Y-500540D01*
X5994015Y-8896191D02*
X5996203Y-8897292D01*
X3202559Y-5299840D02*
X2476514Y-5299840D01*
X8086313Y-518244D02*
X8087820Y-520175D01*
X3209882Y-5299300D02*
X3207451Y-5299600D01*
X7377657Y-5293948D02*
X7375526Y-5292741D01*
X8091748Y-4773463D02*
X8090541Y-4775594D01*
X6236945Y-5801264D02*
X6234555Y-5801801D01*
X752550Y-7283780D02*
X754993Y-7283960D01*
X528565Y-504791D02*
X530804Y-503798D01*
X7799789Y-7319135D02*
X7800557Y-7316809D01*
X6015481Y-8915646D02*
X6016688Y-8917777D01*
X3570704Y-511327D02*
X3572635Y-509820D01*
X7382084Y-796201D02*
X7379845Y-795209D01*
X7018191Y-797083D02*
X7015865Y-797851D01*
X3998209Y-9099680D02*
X3998710Y-9099668D01*
X3252400Y-5252388D02*
X3252220Y-5254831D01*
X3554609Y-5264425D02*
X3553955Y-5262065D01*
X7840218Y-2483340D02*
X7837805Y-2482921D01*
X757423Y-2483340D02*
X754992Y-2483640D01*
X3209882Y-500540D02*
X3212295Y-500959D01*
X766912Y-2786797D02*
X769198Y-2787678D01*
X611Y0D02*
X110Y-12D01*
X5991776Y-9395882D02*
X5989491Y-9396763D01*
X5615276Y-8895334D02*
X5617596Y-8894421D01*
X5610787Y-4397661D02*
X5613005Y-4396521D01*
X7369524Y-511327D02*
X7371455Y-509820D01*
X6367589Y-8891640D02*
X6370031Y-8891460D01*
X8059865Y-2482385D02*
X8057475Y-2482921D01*
X2474941Y-1262755D02*
X2474405Y-1265145D01*
X3555377Y-533089D02*
X3556258Y-530804D01*
X6015481Y-9375434D02*
X6014170Y-9377503D01*
X5980002Y-9399140D02*
X5977571Y-9399440D01*
X6779505Y-4394593D02*
X6781829Y-4395509D01*
X4590412Y-7305897D02*
X4591722Y-7307966D01*
X3998209Y-4599840D02*
X3998710Y-4599828D01*
X3217045Y-5297691D02*
X3214685Y-5298345D01*
X7034891Y-5286913D02*
X7033036Y-5288513D01*
X549901Y-5099840D02*
X3202559Y-5099840D01*
X3568849Y-5286913D02*
X3567075Y-5285225D01*
X7847541Y-7283720D02*
X8047739Y-7283720D01*
X6322820Y-9354671D02*
X6322640Y-9352228D01*
X4585895Y-6967331D02*
X4584206Y-6969104D01*
X8597640Y-9899066D02*
X8597640Y-614D01*
X795211Y-7312285D02*
X796203Y-7314524D01*
X3221656Y-5103638D02*
X3223895Y-5104631D01*
X4598762Y-7331171D02*
X4598822Y-7333621D01*
X7800557Y-7316809D02*
X7801438Y-7314524D01*
X4041398Y-7284260D02*
X4043829Y-7283960D01*
X2209145Y-9385065D02*
X2207371Y-9386753D01*
X779827Y-2474060D02*
X777824Y-2475470D01*
X509820Y-6963545D02*
X508410Y-6961543D01*
X3560870Y-522177D02*
X3562280Y-520175D01*
X4017064Y-6972393D02*
X4015209Y-6970793D01*
X7800557Y-2450791D02*
X7799789Y-2448465D01*
X2216661Y-4415806D02*
X2217868Y-4417937D01*
X3187186Y-4599840D02*
X3998206Y-4599840D01*
X799942Y-7331171D02*
X800002Y-7333621D01*
X2442811Y-1300003D02*
X2440485Y-1300771D01*
X2568769Y-4799600D02*
X2566338Y-4799300D01*
X3248661Y-530804D02*
X3249543Y-533089D01*
X4565733Y-7286637D02*
X4568018Y-7287518D01*
X2552325Y-4396351D02*
X2554564Y-4395358D01*
X8087820Y-9379505D02*
X8086313Y-9381436D01*
X3553955Y-5262065D02*
X3553419Y-5259675D01*
X2451654Y-5795661D02*
X2449523Y-5796868D01*
X6372481Y-4799840D02*
X6370031Y-4799780D01*
X524246Y-9392581D02*
X522177Y-9391270D01*
X7373457Y-791590D02*
X7371455Y-790180D01*
X8095491Y-7319135D02*
X8096144Y-7321495D01*
X4036595Y-2482385D02*
X4034235Y-2481731D01*
X1811967Y-4397661D02*
X1814185Y-4396521D01*
X502917Y-533089D02*
X503798Y-530804D01*
X3998820Y-4599226D02*
X3998820Y-2833781D01*
X788674Y-6965476D02*
X787075Y-6967331D01*
X2556849Y-4394477D02*
X2559175Y-4393709D01*
X2542004Y-4402887D02*
X2543935Y-4401380D01*
X6798205Y-8906571D02*
X6984944Y-9099231D01*
X3251501Y-540165D02*
X3251920Y-542578D01*
X7802431Y-6955155D02*
X7801438Y-6952916D01*
X7050321Y-5259675D02*
X7049784Y-5262065D01*
X2538375Y-4785225D02*
X2536687Y-4783451D01*
X7379845Y-5104631D02*
X7382084Y-5103638D01*
X8081251Y-5112767D02*
X8083025Y-5114455D01*
X2223520Y-4754831D02*
X2223220Y-4757262D01*
X6344757Y-8899810D02*
X6346826Y-8898499D01*
X545009Y-9399440D02*
X542578Y-9399140D01*
X6772299Y-8892397D02*
X6774734Y-8892955D01*
X788675Y-7301964D02*
X790182Y-7303894D01*
X505892Y-526377D02*
X507099Y-524246D01*
X502149Y-4764425D02*
X501495Y-4762065D01*
X7001379Y-5299840D02*
X6275334Y-5299840D01*
X7806050Y-2461703D02*
X7804739Y-2459634D01*
X2430891Y-5802520D02*
X2428448Y-5802700D01*
X6016688Y-4773463D02*
X6015481Y-4775594D01*
X6796422Y-4404981D02*
X6798205Y-4406731D01*
X4029624Y-7287518D02*
X4031909Y-7286637D01*
X3236071Y-5112767D02*
X3237845Y-5114455D01*
X3217045Y-5101989D02*
X3219371Y-5102757D01*
X7842649Y-7283960D02*
X7845091Y-7283780D01*
X779827Y-7293540D02*
X781758Y-7295047D01*
X6323120Y-4434138D02*
X6323539Y-4431725D01*
X5972679Y-4391560D02*
X5975128Y-4391620D01*
X799461Y-2441302D02*
X799042Y-2443715D01*
X6009653Y-4783451D02*
X6007965Y-4785225D01*
X4558657Y-2784839D02*
X4561046Y-2785375D01*
X781757Y-2472553D02*
X779827Y-2474060D01*
X545009Y-2784120D02*
X547452Y-2783940D01*
X7819817Y-2475470D02*
X7817815Y-2474060D01*
X6241631Y-5799843D02*
X6239305Y-5800611D01*
X7386695Y-5297691D02*
X7384369Y-5296923D01*
X4007230Y-2806057D02*
X4008640Y-2804055D01*
X7039953Y-781756D02*
X7038353Y-783611D01*
X3239533Y-5283451D02*
X3237845Y-5285225D01*
X2188345Y-9397531D02*
X2185985Y-9398185D01*
X800611Y-5802760D02*
X800110Y-5802772D01*
X8097100Y-2441302D02*
X8096681Y-2443715D01*
X6260105Y-5788145D02*
X6258331Y-5789833D01*
X3228214Y-792901D02*
X3226083Y-794108D01*
X3553000Y-542578D02*
X3553419Y-540165D01*
X7036665Y-514615D02*
X7038353Y-516389D01*
X2561535Y-9398185D02*
X2559175Y-9397531D01*
X800004Y-9099069D02*
X800016Y-9099570D01*
X8064551Y-2480963D02*
X8062225Y-2481731D01*
X7797700Y-2436428D02*
X7797640Y-2433979D01*
X2559175Y-8893549D02*
X2561535Y-8892895D01*
X8081251Y-9386753D02*
X8079396Y-9388353D01*
X505892Y-2810257D02*
X507099Y-2808126D01*
X5989491Y-4796923D02*
X5987165Y-4797691D01*
X777824Y-2475470D02*
X775755Y-2476781D01*
X518244Y-9388353D02*
X516389Y-9386753D01*
X800001Y-6933819D02*
X799941Y-6936268D01*
X6984946Y-9099232D02*
X6985358Y-9099637D01*
X549901Y-4799840D02*
X547452Y-4799780D01*
X4004712Y-2457503D02*
X4003611Y-2455315D01*
X7042870Y-5277663D02*
X7041460Y-5279665D01*
X4000969Y-2448465D02*
X4000315Y-2446105D01*
X6335506Y-9383291D02*
X6333907Y-9381436D01*
X796203Y-2453076D02*
X795210Y-2455315D01*
X8073394Y-2790979D02*
X8075463Y-2792290D01*
X7050321Y-5140005D02*
X7050740Y-5142418D01*
X2192956Y-4796042D02*
X2190671Y-4796923D01*
X4038985Y-2784839D02*
X4041398Y-2784420D01*
X504791Y-528565D02*
X505892Y-526377D01*
X6227268Y-5802700D02*
X6224819Y-5802760D01*
X537775Y-9398185D02*
X535415Y-9397531D01*
X5629718Y-4391809D02*
X5632204Y-4391622D01*
X3212295Y-799041D02*
X3209882Y-799460D01*
X2178751Y-8891640D02*
X2181182Y-8891940D01*
X7008702Y-500540D02*
X7011115Y-500959D01*
X2185985Y-9398185D02*
X2183595Y-9398721D01*
X6022580Y-4749939D02*
X6022520Y-4752388D01*
X7011115Y-5100799D02*
X7013505Y-5101335D01*
X8069075Y-504791D02*
X8071263Y-505892D01*
X794109Y-7310097D02*
X795211Y-7312285D01*
X800114Y-4599828D02*
X800615Y-4599840D01*
X507099Y-6959474D02*
X505892Y-6957343D01*
X4561046Y-7285215D02*
X4563407Y-7285869D01*
X500240Y-5144849D02*
X500540Y-5142418D01*
X2442811Y-5799843D02*
X2440485Y-5800611D01*
X5998334Y-4398659D02*
X6000403Y-4399970D01*
X6367589Y-4391800D02*
X6370031Y-4391620D01*
X6022340Y-4754831D02*
X6022040Y-4757262D01*
X8077465Y-2793700D02*
X8079396Y-2795207D01*
X2207371Y-4404487D02*
X2209145Y-4406175D01*
X6015481Y-4775594D02*
X6014170Y-4777663D01*
X542578Y-5100380D02*
X545009Y-5100080D01*
X6332400Y-4411735D02*
X6333907Y-4409804D01*
X8597530Y-12D02*
X8597029Y0D01*
X524246Y-5106939D02*
X526377Y-5105732D01*
X6784104Y-4396540D02*
X6786324Y-4397684D01*
X528565Y-2479089D02*
X526377Y-2477988D01*
X8097640Y-2433979D02*
X8097580Y-2436428D01*
X2524719Y-8931565D02*
X2525255Y-8929175D01*
X797853Y-6948305D02*
X797084Y-6950631D01*
X798506Y-2446105D02*
X797853Y-2448465D01*
X502149Y-7319135D02*
X502917Y-7316809D01*
X771436Y-2479089D02*
X769197Y-2480082D01*
X6357995Y-8893549D02*
X6360355Y-8892895D01*
X8083025Y-5114455D02*
X8084713Y-5116229D01*
X500000Y-4749939D02*
X500000Y-2833781D01*
X2568769Y-8891640D02*
X2571212Y-8891460D01*
X3212295Y-5100799D02*
X3214685Y-5101335D01*
X528565Y-4795049D02*
X526377Y-4793948D01*
X3590235Y-798504D02*
X3587875Y-797851D01*
X4041398Y-2784420D02*
X4043829Y-2784120D01*
X2552325Y-8896191D02*
X2554564Y-8895198D01*
X2985284Y-4396540D02*
X2987504Y-4397684D01*
X3570704Y-788673D02*
X3568849Y-787073D01*
X6774734Y-4393115D02*
X6777138Y-4393794D01*
X2566338Y-4392100D02*
X2568769Y-4391800D01*
X4565733Y-2786797D02*
X4568018Y-2787678D01*
X2528551Y-9371115D02*
X2527558Y-9368876D01*
X6274480Y-1257911D02*
X6274180Y-1260342D01*
X509820Y-2804055D02*
X511327Y-2802124D01*
X6333907Y-4781596D02*
X6332400Y-4779665D01*
X8097400Y-6938711D02*
X8097100Y-6941142D01*
X500240Y-7328729D02*
X500540Y-7326298D01*
X2533580Y-4779665D02*
X2532170Y-4777663D01*
X8097580Y-4752388D02*
X8097400Y-4754831D01*
X2435735Y-1301961D02*
X2433322Y-1302380D01*
X3595038Y-500540D02*
X3597469Y-500240D01*
X3572635Y-790180D02*
X3570704Y-788673D01*
X508410Y-7305897D02*
X509820Y-7303895D01*
X7359690Y-5122017D02*
X7361100Y-5120015D01*
X3998880Y-2436428D02*
X3998820Y-2433979D01*
X7001379Y-500000D02*
X7003828Y-500060D01*
X7018191Y-5296923D02*
X7015865Y-5297691D01*
X799462Y-7326298D02*
X799761Y-7328729D01*
X511327Y-4781596D02*
X509820Y-4779665D01*
X7351520Y-545009D02*
X7351820Y-542578D01*
X4597326Y-2821655D02*
X4597863Y-2824045D01*
X8083025Y-9385065D02*
X8081251Y-9386753D01*
X528565Y-7288511D02*
X530804Y-7287518D01*
X6324075Y-4762065D02*
X6323539Y-4759675D01*
X2475360Y-1260342D02*
X2474941Y-1262755D01*
X7375526Y-5292741D02*
X7373457Y-5291430D01*
X3574637Y-5291430D02*
X3572635Y-5290020D01*
X540165Y-500959D02*
X542578Y-500540D01*
X8097400Y-2438871D02*
X8097100Y-2441302D01*
X5624789Y-4392553D02*
X5627244Y-4392120D01*
X6769840Y-8891962D02*
X6772299Y-8892397D01*
X2195195Y-4396351D02*
X2197383Y-4397452D01*
X7824017Y-2789772D02*
X7826205Y-2788671D01*
X6338969Y-4786913D02*
X6337195Y-4785225D01*
X7393858Y-799460D02*
X7391445Y-799041D01*
X8057475Y-6982761D02*
X8055062Y-6983180D01*
X8097580Y-2831331D02*
X8097640Y-2833781D01*
X6781829Y-4395509D02*
X6784104Y-4396540D01*
X3241133Y-5281596D02*
X3239533Y-5283451D01*
X1835878Y-4391560D02*
X2173859Y-4391560D01*
X2209145Y-4406175D02*
X2210833Y-4407949D01*
X800012Y-1303030D02*
X800000Y-1303531D01*
X2222801Y-4431725D02*
X2223220Y-4434138D01*
X520175Y-5109660D02*
X522177Y-5108250D01*
X500959Y-6943555D02*
X500540Y-6941142D01*
X4003611Y-2455315D02*
X4002618Y-2453076D01*
X3597469Y-500240D02*
X3599911Y-500060D01*
X7042870Y-777823D02*
X7041460Y-779825D01*
X8087820Y-5120015D02*
X8089230Y-5122017D01*
X3248661Y-5269036D02*
X3247669Y-5271275D01*
X2209145Y-8906015D02*
X2210833Y-8907789D01*
X3557251Y-5271275D02*
X3556258Y-5269036D01*
X8097400Y-9354671D02*
X8097100Y-9357102D01*
X4574575Y-6976621D02*
X4572444Y-6977828D01*
X2222801Y-4759675D02*
X2222265Y-4762065D01*
X2215350Y-9377503D02*
X2213940Y-9379505D01*
X500000Y-6933819D02*
X500000Y-5149741D01*
X7797640Y-5300451D02*
X7797628Y-5299950D01*
X2476511Y-5299840D02*
X2476010Y-5299852D01*
X3250964Y-5137615D02*
X3251501Y-5140005D01*
X1833384Y-4391622D02*
X1835878Y-4391560D01*
X2210833Y-4783451D02*
X2209145Y-4785225D01*
X2527558Y-8922204D02*
X2528551Y-8919965D01*
X773624Y-2789772D02*
X775755Y-2790979D01*
X2218969Y-4420125D02*
X2219962Y-4422364D01*
X3568849Y-5112767D02*
X3570704Y-5111167D01*
X8052631Y-2784120D02*
X8055062Y-2784420D01*
X4568018Y-7287518D02*
X4570257Y-7288511D01*
X3576706Y-792901D02*
X3574637Y-791590D01*
X7033036Y-511327D02*
X7034891Y-512926D01*
X3223895Y-795209D02*
X3221656Y-796201D01*
X2545937Y-4791430D02*
X2543935Y-4790020D01*
X6324729Y-8926815D02*
X6325497Y-8924489D01*
X6000403Y-4399970D02*
X6002405Y-4401380D01*
X3576706Y-5292741D02*
X3574637Y-5291430D01*
X8062225Y-6981571D02*
X8059865Y-6982224D01*
X2222265Y-9361905D02*
X2221611Y-9364265D01*
X8093841Y-6952916D02*
X8092849Y-6955155D01*
X4572444Y-2477988D02*
X4570256Y-2479089D01*
X509820Y-9379505D02*
X508410Y-9377503D01*
X4592929Y-2457503D02*
X4591722Y-2459634D01*
X7401181Y-5099840D02*
X8047739Y-5099840D01*
X7828444Y-7287518D02*
X7830729Y-7286637D01*
X4027385Y-7288511D02*
X4029624Y-7287518D01*
X7354197Y-5132929D02*
X7355078Y-5130644D01*
X526377Y-6977828D02*
X524246Y-6976621D01*
X6264900Y-5782585D02*
X6263393Y-5784516D01*
X7367669Y-787073D02*
X7365895Y-785385D01*
X1800098Y-4406677D02*
X1801880Y-4404932D01*
X110Y-9899668D02*
X611Y-9899680D01*
X1612322Y-9099637D02*
X1612734Y-9099234D01*
X500240Y-2828889D02*
X500540Y-2826458D01*
X6274180Y-1260342D02*
X6273761Y-1262755D01*
X3252220Y-545009D02*
X3252400Y-547452D01*
X3581025Y-5295049D02*
X3578837Y-5293948D01*
X5598918Y-8906517D02*
X5600700Y-8904772D01*
X520175Y-9389860D02*
X518244Y-9388353D01*
X6021621Y-4431725D02*
X6022040Y-4434138D01*
X7011115Y-799041D02*
X7008702Y-799460D01*
X2527558Y-9368876D02*
X2526677Y-9366591D01*
X6021621Y-9359515D02*
X6021084Y-9361905D01*
X547452Y-2483820D02*
X545009Y-2483640D01*
X6330990Y-8913577D02*
X6332400Y-8911575D01*
X3226083Y-5293948D02*
X3223895Y-5295049D01*
X6020431Y-4426975D02*
X6021084Y-4429335D01*
X514615Y-9385065D02*
X512926Y-9383291D01*
X2173859Y-4799840D02*
X549901Y-4799840D01*
X2453723Y-5794350D02*
X2451654Y-5795661D01*
X6786324Y-8897524D02*
X6788485Y-8898777D01*
X799941Y-2436428D02*
X799761Y-2438871D01*
X7051040Y-5144849D02*
X7051220Y-5147292D01*
X3242640Y-779825D02*
X3241133Y-781756D01*
X3553000Y-5257262D02*
X3552700Y-5254831D01*
X7815884Y-2795207D02*
X7817815Y-2793700D01*
X540165Y-9398721D02*
X537775Y-9398185D01*
X757424Y-7284260D02*
X759837Y-7284679D01*
X6365158Y-8891940D02*
X6367589Y-8891640D01*
X2212433Y-8909644D02*
X2213940Y-8911575D01*
X5632204Y-8891462D02*
X5634698Y-8891400D01*
X7044181Y-775754D02*
X7042870Y-777823D01*
X8097640Y-9349779D02*
X8097580Y-9352228D01*
X6322580Y-4749939D02*
X6322580Y-4441461D01*
X2543935Y-4790020D02*
X2542004Y-4788513D01*
X2223220Y-8933978D02*
X2223520Y-8936409D01*
X4048721Y-2483880D02*
X4046271Y-2483820D01*
X7031105Y-5290020D02*
X7029103Y-5291430D01*
X7799135Y-2446105D02*
X7798599Y-2443715D01*
X8097100Y-7326298D02*
X8097400Y-7328729D01*
X4000969Y-2819295D02*
X4001737Y-2816969D01*
X7396289Y-500240D02*
X7398731Y-500060D01*
X3998710Y-5299852D02*
X3998209Y-5299840D01*
X7797640Y-2833781D02*
X7797700Y-2831331D01*
X6762372Y-4391560D02*
X6764871Y-4391623D01*
X5972679Y-8891400D02*
X5975128Y-8891460D01*
X2966051Y-8891463D02*
X2968541Y-8891650D01*
X8047739Y-500000D02*
X8050188Y-500060D01*
X8097400Y-4754831D02*
X8097100Y-4757262D01*
X530804Y-9395882D02*
X528565Y-9394889D01*
X4005919Y-2808126D02*
X4007230Y-2806057D01*
X545009Y-7283960D02*
X547452Y-7283780D01*
X7830729Y-2786797D02*
X7833055Y-2786029D01*
X791592Y-6961543D02*
X790181Y-6963545D01*
X6353384Y-4796042D02*
X6351145Y-4795049D01*
X4598821Y-2433979D02*
X4598761Y-2436428D01*
X1821139Y-8893626D02*
X1823539Y-8892949D01*
X542578Y-6983180D02*
X540165Y-6982761D01*
X4594031Y-7312285D02*
X4595023Y-7314524D01*
X2190671Y-8894317D02*
X2192956Y-8895198D01*
X7351520Y-5254831D02*
X7351340Y-5252388D01*
X5410498Y-9099680D02*
X5411074Y-9099666D01*
X6323539Y-9359515D02*
X6323120Y-9357102D01*
X7039953Y-518244D02*
X7041460Y-520175D01*
X4558657Y-7284679D02*
X4561046Y-7285215D01*
X8091748Y-2810257D02*
X8092849Y-2812445D01*
X3563787Y-781756D02*
X3562280Y-779825D01*
X3553419Y-759835D02*
X3553000Y-757422D01*
X7817815Y-2474060D02*
X7815884Y-2472553D01*
X7812255Y-7298335D02*
X7814029Y-7296646D01*
X5975128Y-8891460D02*
X5977571Y-8891640D01*
X2223700Y-8938852D02*
X2223760Y-8941301D01*
X3249543Y-766911D02*
X3248661Y-769196D01*
X7351520Y-754991D02*
X7351340Y-752548D01*
X3246568Y-773623D02*
X3245361Y-775754D01*
X5608630Y-8898750D02*
X5610787Y-8897501D01*
X4000315Y-7321495D02*
X4000969Y-7319135D01*
X8087820Y-7303895D02*
X8089230Y-7305897D01*
X4043829Y-2483640D02*
X4041398Y-2483340D01*
X3252220Y-5144849D02*
X3252400Y-5147292D01*
X500060Y-2831331D02*
X500240Y-2828889D01*
X7799135Y-2821655D02*
X7799789Y-2819295D01*
X8096144Y-5137615D02*
X8096681Y-5140005D01*
X2536687Y-9383291D02*
X2535087Y-9381436D01*
X5994015Y-4396351D02*
X5996203Y-4397452D01*
X4570256Y-2479089D02*
X4568017Y-2480082D01*
X2223220Y-9357102D02*
X2222801Y-9359515D01*
X7821886Y-7290819D02*
X7824017Y-7289612D01*
X502917Y-9366591D02*
X502149Y-9364265D01*
X6326378Y-4769036D02*
X6325497Y-4766751D01*
X2176308Y-4799780D02*
X2173859Y-4799840D01*
X3219371Y-5102757D02*
X3221656Y-5103638D01*
X8052631Y-2483640D02*
X8050188Y-2483820D01*
X3552700Y-754991D02*
X3552520Y-752548D01*
X8079396Y-2795207D02*
X8081251Y-2796806D01*
X4595023Y-2453076D02*
X4594030Y-2455315D01*
X757423Y-6983180D02*
X754992Y-6983480D01*
X3565386Y-5283451D02*
X3563787Y-5281596D01*
X7353429Y-764585D02*
X7352775Y-762225D01*
X798506Y-6945945D02*
X797853Y-6948305D01*
X3999779Y-7323885D02*
X4000315Y-7321495D01*
X3554609Y-764585D02*
X3553955Y-762225D01*
X7797880Y-2828889D02*
X7798180Y-2826458D01*
X762226Y-2482385D02*
X759836Y-2482921D01*
X6784104Y-8896380D02*
X6786324Y-8897524D01*
X2466080Y-5782585D02*
X2464573Y-5784516D01*
X7022715Y-795209D02*
X7020476Y-796201D01*
X2472102Y-5771956D02*
X2471109Y-5774195D01*
X3998820Y-2833781D02*
X3998880Y-2831331D01*
X516389Y-512926D02*
X518244Y-511327D01*
X800001Y-2433979D02*
X799941Y-2436428D01*
X2205516Y-8902727D02*
X2207371Y-8904327D01*
X7814029Y-2470953D02*
X7812255Y-2469265D01*
X6764871Y-4391623D02*
X6767361Y-4391810D01*
X6274180Y-5760182D02*
X6273761Y-5762595D01*
X2529652Y-8917777D02*
X2530859Y-8915646D01*
X535415Y-9397531D02*
X533089Y-9396763D01*
X6322640Y-4439012D02*
X6322820Y-4436569D01*
X7821886Y-6976621D02*
X7819817Y-6975310D01*
X7022715Y-5104631D02*
X7024903Y-5105732D01*
X2527558Y-4422364D02*
X2528551Y-4420125D01*
X8096144Y-2446105D02*
X8095491Y-2448465D01*
X6335506Y-4407949D02*
X6337195Y-4406175D01*
X500540Y-4757262D02*
X500240Y-4754831D01*
X2523760Y-4749939D02*
X2523760Y-4441461D01*
X512926Y-4783451D02*
X511327Y-4781596D01*
X6018781Y-4769036D02*
X6017789Y-4771275D01*
X4598832Y-5802870D02*
X4598820Y-5803371D01*
X7029103Y-5291430D02*
X7027034Y-5292741D01*
X504791Y-6955155D02*
X503798Y-6952916D01*
X6340824Y-8902727D02*
X6342755Y-8901220D01*
X500000Y-7333621D02*
X500060Y-7331171D01*
X7391445Y-500959D02*
X7393858Y-500540D01*
X4010147Y-2465636D02*
X4008640Y-2463705D01*
X2195195Y-4795049D02*
X2192956Y-4796042D01*
X7379845Y-795209D02*
X7377657Y-794108D01*
X2993785Y-4401760D02*
X2995733Y-4403323D01*
X2192956Y-4395358D02*
X2195195Y-4396351D01*
X3999779Y-2824045D02*
X4000315Y-2821655D01*
X2532170Y-4777663D02*
X2530859Y-4775594D01*
X8066836Y-5103638D02*
X8069075Y-5104631D01*
X3239533Y-516389D02*
X3241133Y-518244D01*
X3214685Y-501495D02*
X3217045Y-502149D01*
X7351820Y-5142418D02*
X7352239Y-5140005D01*
X500000Y-2433979D02*
X500000Y-549901D01*
X7033036Y-788673D02*
X7031105Y-790180D01*
X2540149Y-4404487D02*
X2542004Y-4402887D01*
X2197383Y-4793948D02*
X2195195Y-4795049D01*
X522177Y-2475470D02*
X520175Y-2474060D01*
X6246155Y-5797969D02*
X6243916Y-5798961D01*
X5615276Y-4395494D02*
X5617596Y-4394581D01*
X4002618Y-6952916D02*
X4001737Y-6950631D01*
X8081251Y-6970793D02*
X8079396Y-6972393D01*
X4574575Y-7290819D02*
X4576645Y-7292130D01*
X4023066Y-7290819D02*
X4025197Y-7289612D01*
X3219371Y-797083D02*
X3217045Y-797851D01*
X2178751Y-9399440D02*
X2176308Y-9399620D01*
X3602361Y-5299840D02*
X3599911Y-5299780D01*
X8097100Y-5142418D02*
X8097400Y-5144849D01*
X7049131Y-535415D02*
X7049784Y-537775D01*
X5598918Y-4406677D02*
X5600700Y-4404932D01*
X6012760Y-8911575D02*
X6014170Y-8913577D01*
X7013505Y-798504D02*
X7011115Y-799041D01*
X2220843Y-4766751D02*
X2219962Y-4769036D01*
X6357995Y-9397531D02*
X6355669Y-9396763D01*
X7036665Y-5114455D02*
X7038353Y-5116229D01*
X5989491Y-4394477D02*
X5991776Y-4395358D01*
X2462973Y-5786371D02*
X2461285Y-5788145D01*
X2467490Y-1280743D02*
X2466080Y-1282745D01*
X8089230Y-6961543D02*
X8087820Y-6963545D01*
X3583264Y-5103638D02*
X3585549Y-5102757D01*
X3559559Y-5275594D02*
X3558352Y-5273463D01*
X4017064Y-2795207D02*
X4018995Y-2793700D01*
X2220843Y-4424649D02*
X2221611Y-4426975D01*
X8079396Y-7295047D02*
X8081251Y-7296646D01*
X3232285Y-790180D02*
X3230283Y-791590D01*
X533089Y-502917D02*
X535415Y-502149D01*
X4598821Y-6933819D02*
X4598761Y-6936268D01*
X8092849Y-9371115D02*
X8091748Y-9373303D01*
X520175Y-2793700D02*
X522177Y-2792290D01*
X6022580Y-8941301D02*
X6022580Y-9349779D01*
X530804Y-4796042D02*
X528565Y-4795049D01*
X6357995Y-4797691D02*
X6355669Y-4796923D01*
X6020431Y-4764425D02*
X6019663Y-4766751D01*
X7386695Y-797851D02*
X7384369Y-797083D01*
X2447335Y-1298129D02*
X2445096Y-1299122D01*
X2571212Y-9399620D02*
X2568769Y-9399440D01*
X4013435Y-2469265D02*
X4011746Y-2467491D01*
X6252543Y-1294510D02*
X6250474Y-1295821D01*
X4008640Y-7303895D02*
X4010147Y-7301964D01*
X526377Y-7289612D02*
X528565Y-7288511D01*
X2535087Y-9381436D02*
X2533580Y-9379505D01*
X8047739Y-6983720D02*
X7847541Y-6983720D01*
X7049131Y-5264425D02*
X7048363Y-5266751D01*
X790181Y-2463705D02*
X788674Y-2465636D01*
X7006271Y-500240D02*
X7008702Y-500540D01*
X503798Y-2453076D02*
X502917Y-2450791D01*
X4013435Y-7298335D02*
X4015209Y-7296646D01*
X6000403Y-4791430D02*
X5998334Y-4792741D01*
X3572635Y-5290020D02*
X3570704Y-5288513D01*
X7364206Y-516389D02*
X7365895Y-514615D01*
X6344757Y-4791430D02*
X6342755Y-4790020D01*
X2550137Y-8897292D02*
X2552325Y-8896191D01*
X3559559Y-524246D02*
X3560870Y-522177D01*
X4001737Y-2816969D02*
X4002618Y-2814684D01*
X2210833Y-9383291D02*
X2209145Y-9385065D01*
X7812255Y-2798495D02*
X7814029Y-2796806D01*
X6007965Y-8906015D02*
X6009653Y-8907789D01*
X2201583Y-4399970D02*
X2203585Y-4401380D01*
X8073394Y-2476781D02*
X8071263Y-2477988D01*
X3556258Y-5130644D02*
X3557251Y-5128405D01*
X7351520Y-5144849D02*
X7351820Y-5142418D01*
X759837Y-2784839D02*
X762226Y-2785375D01*
X7047481Y-5269036D02*
X7046489Y-5271275D01*
X5994015Y-4795049D02*
X5991776Y-4796042D01*
X500959Y-9359515D02*
X500540Y-9357102D01*
X7042870Y-522177D02*
X7044181Y-524246D01*
X4570256Y-6978929D02*
X4568017Y-6979921D01*
X6333907Y-8909644D02*
X6335506Y-8907789D01*
X500240Y-545009D02*
X500540Y-542578D01*
X3552460Y-750099D02*
X3552460Y-549901D01*
X2216661Y-8915646D02*
X2217868Y-8917777D01*
X500959Y-2824045D02*
X501495Y-2821655D01*
X2543935Y-8901220D02*
X2545937Y-8899810D01*
X6012760Y-4411735D02*
X6014170Y-4413737D01*
X7351280Y-750099D02*
X7351280Y-549901D01*
X7041460Y-5279665D02*
X7039953Y-5281596D01*
X794109Y-2457503D02*
X792902Y-2459634D01*
X2475900Y-5300454D02*
X2475900Y-5752859D01*
X8093841Y-530804D02*
X8094723Y-533089D01*
X7359690Y-5277663D02*
X7358379Y-5275594D01*
X7803532Y-2457503D02*
X7802431Y-2455315D01*
X7799135Y-7321495D02*
X7799789Y-7319135D01*
X4551370Y-7283780D02*
X4553813Y-7283960D01*
X502917Y-4766751D02*
X502149Y-4764425D01*
X3553955Y-5137615D02*
X3554609Y-5135255D01*
X8052631Y-4799600D02*
X8050188Y-4799780D01*
X2473751Y-5767345D02*
X2472983Y-5769671D01*
X7821886Y-2476781D02*
X7819817Y-2475470D01*
X8079396Y-6972393D02*
X8077465Y-6973900D01*
X3599911Y-799940D02*
X3597469Y-799760D01*
X799462Y-2826458D02*
X799761Y-2828889D01*
X6227268Y-1302860D02*
X6224819Y-1302920D01*
X514615Y-514615D02*
X516389Y-512926D01*
X4558656Y-6982761D02*
X4556243Y-6983180D01*
X7828444Y-6979921D02*
X7826205Y-6978929D01*
X7833055Y-2481731D02*
X7830729Y-2480963D01*
X800000Y-5803374D02*
X800001Y-6933819D01*
X6337195Y-8906015D02*
X6338969Y-8904327D01*
X7375526Y-5106939D02*
X7377657Y-5105732D01*
X8090541Y-5124086D02*
X8091748Y-5126217D01*
X3552520Y-547452D02*
X3552700Y-545009D01*
X2185985Y-8892895D02*
X2188345Y-8893549D01*
X2205516Y-4402887D02*
X2207371Y-4404487D01*
X7369524Y-5288513D02*
X7367669Y-5286913D01*
X500060Y-4752388D02*
X500000Y-4749939D01*
X7024903Y-5105732D02*
X7027034Y-5106939D01*
X6323120Y-8933978D02*
X6323539Y-8931565D01*
X3585549Y-5296923D02*
X3583264Y-5296042D01*
X7013505Y-501495D02*
X7015865Y-502149D01*
X7830729Y-2480963D02*
X7828444Y-2480082D01*
X7353429Y-535415D02*
X7354197Y-533089D01*
X4594030Y-2455315D02*
X4592929Y-2457503D01*
X2470008Y-5776383D02*
X2468801Y-5778514D01*
X6372481Y-4391560D02*
X6762372Y-4391560D01*
X2963552Y-8891400D02*
X2966051Y-8891463D01*
X4598281Y-2441302D02*
X4597862Y-2443715D01*
X1823539Y-8892949D02*
X1825969Y-8892393D01*
X2525255Y-4429335D02*
X2525909Y-4426975D01*
X3252220Y-5254831D02*
X3251920Y-5257262D01*
X5996203Y-8897292D02*
X5998334Y-8898499D01*
X8097100Y-542578D02*
X8097400Y-545009D01*
X2526677Y-9366591D02*
X2525909Y-9364265D01*
X1830898Y-8891649D02*
X1833384Y-8891462D01*
X8057475Y-4798881D02*
X8055062Y-4799300D01*
X4027385Y-2479089D02*
X4025197Y-2477988D01*
X3245361Y-5124086D02*
X3246568Y-5126217D01*
X775755Y-7290819D02*
X777825Y-7292130D01*
X7801438Y-6952916D02*
X7800557Y-6950631D01*
X3552460Y-5149741D02*
X3552520Y-5147292D01*
X7798180Y-2441302D02*
X7797880Y-2438871D01*
X7828444Y-2787678D02*
X7830729Y-2786797D01*
X4011746Y-2800269D02*
X4013435Y-2798495D01*
X2188345Y-8893549D02*
X2190671Y-8894317D01*
X4572444Y-2789772D02*
X4574575Y-2790979D01*
X2472983Y-5769671D02*
X2472102Y-5771956D01*
X3554609Y-535415D02*
X3555377Y-533089D01*
X2474405Y-5764985D02*
X2473751Y-5767345D01*
X2524719Y-4759675D02*
X2524300Y-4757262D01*
X8096144Y-6945945D02*
X8095491Y-6948305D01*
X6022040Y-9357102D02*
X6021621Y-9359515D01*
X2201583Y-4791430D02*
X2199514Y-4792741D01*
X2535087Y-4781596D02*
X2533580Y-4779665D01*
X2524719Y-4431725D02*
X2525255Y-4429335D01*
X6322640Y-4752388D02*
X6322580Y-4749939D01*
X8071263Y-2789772D02*
X8073394Y-2790979D01*
X4548920Y-2483880D02*
X4048721Y-2483880D01*
X6009653Y-4407949D02*
X6011253Y-4409804D01*
X2185985Y-4798345D02*
X2183595Y-4798881D01*
X520175Y-4790020D02*
X518244Y-4788513D01*
X787075Y-7300109D02*
X788675Y-7301964D01*
X6342755Y-8901220D02*
X6344757Y-8899810D01*
X2473751Y-1267505D02*
X2472983Y-1269831D01*
X7797700Y-7331171D02*
X7797880Y-7328729D01*
X4597863Y-7323885D02*
X4598282Y-7326298D01*
X2538375Y-4406175D02*
X2540149Y-4404487D01*
X8094723Y-6950631D02*
X8093841Y-6952916D01*
X8093841Y-5130644D02*
X8094723Y-5132929D01*
X502149Y-5135255D02*
X502917Y-5132929D01*
X4596673Y-2819295D02*
X4597326Y-2821655D01*
X4556243Y-6983180D02*
X4553812Y-6983480D01*
X3244050Y-522177D02*
X3245361Y-524246D01*
X2524300Y-8933978D02*
X2524719Y-8931565D01*
X2997602Y-4404981D02*
X2999385Y-4406731D01*
X2215350Y-4413737D02*
X2216661Y-4415806D01*
X6014170Y-8913577D02*
X6015481Y-8915646D01*
X3559559Y-5124086D02*
X3560870Y-5122017D01*
X8084713Y-516389D02*
X8086313Y-518244D01*
X1818776Y-4394581D02*
X1821139Y-4393786D01*
X6327371Y-4771275D02*
X6326378Y-4769036D01*
X7013505Y-5298345D02*
X7011115Y-5298881D01*
X2445096Y-1299122D02*
X2442811Y-1300003D01*
X2995733Y-4403323D02*
X2997602Y-4404981D01*
X8055062Y-6983180D02*
X8052631Y-6983480D01*
X4595023Y-7314524D02*
X4595905Y-7316809D01*
X4595905Y-7316809D02*
X4596673Y-7319135D01*
X6794553Y-8903163D02*
X6796422Y-8904821D01*
X3552520Y-5252388D02*
X3552460Y-5249939D01*
X7020476Y-5103638D02*
X7022715Y-5104631D01*
X794109Y-6957343D02*
X792902Y-6959474D01*
X502149Y-2448465D02*
X501495Y-2446105D01*
X514615Y-6969105D02*
X512926Y-6967331D01*
X4582432Y-2470953D02*
X4580578Y-2472553D01*
X4004712Y-2810257D02*
X4005919Y-2808126D01*
X6256476Y-1291593D02*
X6254545Y-1293100D01*
X6254545Y-1293100D02*
X6252543Y-1294510D01*
X500540Y-2441302D02*
X500240Y-2438871D01*
X6342755Y-4790020D02*
X6340824Y-4788513D01*
X6263393Y-5784516D02*
X6261793Y-5786371D01*
X6002405Y-4790020D02*
X6000403Y-4791430D01*
X6002405Y-4401380D02*
X6004336Y-4402887D01*
X4598281Y-6941142D02*
X4597862Y-6943555D01*
X2543935Y-9389860D02*
X2542004Y-9388353D01*
X3999779Y-2443715D02*
X3999360Y-2441302D01*
X7800557Y-6950631D02*
X7799789Y-6948305D01*
X6985426Y-4599826D02*
X6986003Y-4599840D01*
X2548006Y-4792741D02*
X2545937Y-4791430D01*
X8047739Y-9399680D02*
X6372481Y-9399680D01*
X797084Y-2450791D02*
X796203Y-2453076D01*
X7373457Y-508410D02*
X7375526Y-507099D01*
X3552700Y-5144849D02*
X3553000Y-5142418D01*
X2975914Y-4393115D02*
X2978318Y-4393794D01*
X4551370Y-2483820D02*
X4548920Y-2483880D01*
X7401181Y-5299840D02*
X7398731Y-5299780D01*
X5617596Y-4394581D02*
X5619959Y-4393786D01*
X2566338Y-9399140D02*
X2563925Y-9398721D01*
X5975128Y-9399620D02*
X5972679Y-9399680D01*
X766912Y-6980803D02*
X764586Y-6981571D01*
X3250311Y-5135255D02*
X3250964Y-5137615D01*
X3565386Y-5116229D02*
X3567075Y-5114455D01*
X509820Y-4779665D02*
X508410Y-4777663D01*
X7008702Y-799460D02*
X7006271Y-799760D01*
X2219962Y-4422364D02*
X2220843Y-4424649D01*
X500540Y-9357102D02*
X500240Y-9354671D01*
X6274732Y-800110D02*
X6274720Y-800611D01*
X8052631Y-7283960D02*
X8055062Y-7284260D01*
X7847541Y-2483880D02*
X7845091Y-2483820D01*
X526377Y-2789772D02*
X528565Y-2788671D01*
X8096681Y-4759675D02*
X8096144Y-4762065D01*
X7358379Y-5124086D02*
X7359690Y-5122017D01*
X5410498Y-4599840D02*
X5411074Y-4599826D01*
X7371455Y-509820D02*
X7373457Y-508410D01*
X6268828Y-5776383D02*
X6267621Y-5778514D01*
X7006271Y-5100080D02*
X7008702Y-5100380D01*
X7837805Y-7284679D02*
X7840218Y-7284260D01*
X8055062Y-500540D02*
X8057475Y-500959D01*
X6252543Y-5794350D02*
X6250474Y-5795661D01*
X8094723Y-5132929D02*
X8095491Y-5135255D01*
X800617Y-9099680D02*
X1611675Y-9099680D01*
X7356071Y-528565D02*
X7357172Y-526377D01*
X2217868Y-9373303D02*
X2216661Y-9375434D01*
X516389Y-9386753D02*
X514615Y-9385065D01*
X6335506Y-8907789D02*
X6337195Y-8906015D01*
X8079396Y-2472553D02*
X8077465Y-2474060D01*
X3228214Y-5106939D02*
X3230283Y-5108250D01*
X4568017Y-2480082D02*
X4565732Y-2480963D01*
X4556244Y-7284260D02*
X4558657Y-7284679D01*
X2475660Y-5757751D02*
X2475360Y-5760182D01*
X2181182Y-4392100D02*
X2183595Y-4392519D01*
X6011253Y-4781596D02*
X6009653Y-4783451D01*
X2568769Y-9399440D02*
X2566338Y-9399140D01*
X7845091Y-2783940D02*
X7847541Y-2783880D01*
X500540Y-2826458D02*
X500959Y-2824045D01*
X2438125Y-1301425D02*
X2435735Y-1301961D01*
X6224819Y-1302920D02*
X4599434Y-1302920D01*
X2461285Y-1288305D02*
X2459511Y-1289993D01*
X7797640Y-2433979D02*
X7797640Y-800614D01*
X7802431Y-2812445D02*
X7803532Y-2810257D01*
X8079396Y-9388353D02*
X8077465Y-9389860D01*
X6236945Y-1301425D02*
X6234555Y-1301961D01*
X6275331Y-800000D02*
X6274830Y-800012D01*
X2471109Y-5774195D02*
X2470008Y-5776383D01*
X8597628Y-9899570D02*
X8597640Y-9899069D01*
X2220843Y-9366591D02*
X2219962Y-9368876D01*
X3999060Y-2828889D02*
X3999360Y-2826458D01*
X2217868Y-4417937D02*
X2218969Y-4420125D01*
X4595023Y-2814684D02*
X4595905Y-2816969D01*
X2523760Y-9349779D02*
X2523760Y-8941301D01*
X7358379Y-775754D02*
X7357172Y-773623D01*
X524246Y-7290819D02*
X526377Y-7289612D01*
X4597326Y-2446105D02*
X4596673Y-2448465D01*
X7045388Y-526377D02*
X7046489Y-528565D01*
X5632204Y-4391622D02*
X5634698Y-4391560D01*
X2989665Y-8898777D02*
X2991760Y-8900137D01*
X500060Y-547452D02*
X500240Y-545009D01*
X8096144Y-9361905D02*
X8095491Y-9364265D01*
X7020476Y-503798D02*
X7022715Y-504791D01*
X7362607Y-518244D02*
X7364206Y-516389D01*
X7015865Y-5101989D02*
X7018191Y-5102757D01*
X6014170Y-9377503D02*
X6012760Y-9379505D01*
X3205008Y-5099900D02*
X3207451Y-5100080D01*
X520175Y-2474060D02*
X518244Y-2472553D01*
X2459511Y-5789833D02*
X2457656Y-5791433D01*
X3578837Y-5105732D02*
X3581025Y-5104631D01*
X3568849Y-512926D02*
X3570704Y-511327D01*
X3248661Y-5130644D02*
X3249543Y-5132929D01*
X8071263Y-505892D02*
X8073394Y-507099D01*
X2181182Y-9399140D02*
X2178751Y-9399440D01*
X6324729Y-4764425D02*
X6324075Y-4762065D01*
X4589002Y-2804054D02*
X4590412Y-2806057D01*
X8086313Y-2802124D02*
X8087820Y-2804055D01*
X3248661Y-769196D02*
X3247669Y-771435D01*
X8095491Y-2819295D02*
X8096144Y-2821655D01*
X7015865Y-5297691D02*
X7013505Y-5298345D01*
X7038353Y-516389D02*
X7039953Y-518244D01*
X8062225Y-2481731D02*
X8059865Y-2482385D01*
X7352775Y-537775D02*
X7353429Y-535415D01*
X2542004Y-8902727D02*
X2543935Y-8901220D01*
X4590412Y-2461703D02*
X4589001Y-2463705D01*
X5977571Y-8891640D02*
X5980002Y-8891940D01*
X3209882Y-799460D02*
X3207451Y-799760D01*
X2529652Y-9373303D02*
X2528551Y-9371115D01*
X3214685Y-798504D02*
X3212295Y-799041D01*
X528565Y-9394889D02*
X526377Y-9393788D01*
X8086313Y-6965476D02*
X8084713Y-6967331D01*
X4553812Y-2483640D02*
X4551370Y-2483820D01*
X3552460Y-549901D02*
X3552520Y-547452D01*
X6323539Y-8931565D02*
X6324075Y-8929175D01*
X7048363Y-5266751D02*
X7047481Y-5269036D01*
X2173859Y-4391560D02*
X2176308Y-4391620D01*
X4017064Y-7295047D02*
X4018995Y-7293540D01*
X535415Y-6981571D02*
X533089Y-6980803D01*
X1818776Y-8894421D02*
X1821139Y-8893626D01*
X2971020Y-8891962D02*
X2973479Y-8892397D01*
X800004Y-4599229D02*
X800016Y-4599730D01*
X2203585Y-8901220D02*
X2205516Y-8902727D01*
X6272571Y-1267505D02*
X6271803Y-1269831D01*
X3599911Y-5299780D02*
X3597469Y-5299600D01*
X2523820Y-4439012D02*
X2524000Y-4436569D01*
X2978318Y-8893634D02*
X2980685Y-8894433D01*
X798506Y-7321495D02*
X799043Y-7323885D01*
X6273224Y-1265145D02*
X6272571Y-1267505D01*
X3250964Y-762225D02*
X3250311Y-764585D01*
X7044181Y-5124086D02*
X7045388Y-5126217D01*
X514615Y-4785225D02*
X512926Y-4783451D01*
X6790580Y-8900137D02*
X6792605Y-8901600D01*
X2475900Y-800614D02*
X2475900Y-1253019D01*
X4584206Y-6969104D02*
X4582432Y-6970793D01*
X2425999Y-1302920D02*
X800614Y-1302920D01*
X8091748Y-526377D02*
X8092849Y-528565D01*
X6360355Y-4393055D02*
X6362745Y-4392519D01*
X549901Y-2783880D02*
X750100Y-2783880D01*
X4596673Y-7319135D02*
X4597326Y-7321495D01*
X7837805Y-2482921D02*
X7835415Y-2482385D01*
X2536687Y-4407949D02*
X2538375Y-4406175D01*
X8095491Y-2448465D02*
X8094723Y-2450791D01*
X6338969Y-8904327D02*
X6340824Y-8902727D01*
X533089Y-9396763D02*
X530804Y-9395882D01*
X1803747Y-8903120D02*
X1805694Y-8901563D01*
X6274660Y-5755308D02*
X6274480Y-5757751D01*
X7050740Y-5257262D02*
X7050321Y-5259675D01*
X8050188Y-500060D02*
X8052631Y-500240D01*
X4048721Y-2783880D02*
X4548921Y-2783880D01*
X6330990Y-4777663D02*
X6329679Y-4775594D01*
X6019663Y-4424649D02*
X6020431Y-4426975D01*
X2528551Y-8919965D02*
X2529652Y-8917777D01*
X7814029Y-6970793D02*
X7812255Y-6969105D01*
X1830898Y-4391809D02*
X1833384Y-4391622D01*
X2559175Y-4393709D02*
X2561535Y-4393055D01*
X2561535Y-4798345D02*
X2559175Y-4797691D01*
X6340824Y-4788513D02*
X6338969Y-4786913D01*
X752550Y-2783940D02*
X754993Y-2784120D01*
X5604514Y-8901563D02*
X5606537Y-8900105D01*
X7364206Y-5116229D02*
X7365895Y-5114455D01*
X7391445Y-5298881D02*
X7389055Y-5298345D01*
X501495Y-6945945D02*
X500959Y-6943555D01*
X500540Y-6941142D02*
X500240Y-6938711D01*
X7050740Y-757422D02*
X7050321Y-759835D01*
X7845091Y-2483820D02*
X7842649Y-2483640D01*
X4020997Y-7292130D02*
X4023066Y-7290819D01*
X2573661Y-4391560D02*
X2963552Y-4391560D01*
X4598762Y-2831331D02*
X4598822Y-2833781D01*
X4589001Y-6963545D02*
X4587495Y-6965476D01*
X501495Y-9361905D02*
X500959Y-9359515D01*
X530804Y-2787678D02*
X533089Y-2786797D01*
X4598282Y-7326298D02*
X4598581Y-7328729D01*
X2449523Y-1297028D02*
X2447335Y-1298129D01*
X537775Y-2482385D02*
X535415Y-2481731D01*
X7011115Y-5298881D02*
X7008702Y-5299300D01*
X3602361Y-5099840D02*
X7001379Y-5099840D01*
X8092849Y-2455315D02*
X8091748Y-2457503D01*
X6274720Y-1253019D02*
X6274660Y-1255468D01*
X8069075Y-5104631D02*
X8071263Y-5105732D01*
X7393858Y-500540D02*
X7396289Y-500240D01*
X533089Y-2480963D02*
X530804Y-2480082D01*
X7824017Y-2477988D02*
X7821886Y-2476781D01*
X3226083Y-5105732D02*
X3228214Y-5106939D01*
X3998880Y-2831331D02*
X3999060Y-2828889D01*
X507099Y-2459634D02*
X505892Y-2457503D01*
X7022715Y-504791D02*
X7024903Y-505892D01*
X7398731Y-5299780D02*
X7396289Y-5299600D01*
X8075463Y-6975310D02*
X8073394Y-6976621D01*
X4584206Y-2798495D02*
X4585895Y-2800269D01*
X3236071Y-787073D02*
X3234216Y-788673D01*
X7847541Y-6983720D02*
X7845091Y-6983660D01*
X8087820Y-4779665D02*
X8086313Y-4781596D01*
X3250311Y-535415D02*
X3250964Y-537775D01*
X2192956Y-9395882D02*
X2190671Y-9396763D01*
X2973479Y-4392557D02*
X2975914Y-4393115D01*
X2474405Y-1265145D02*
X2473751Y-1267505D01*
X800617Y-4599840D02*
X1611675Y-4599840D01*
X8059865Y-4798345D02*
X8057475Y-4798881D01*
X6322640Y-8938852D02*
X6322820Y-8936409D01*
X1612735Y-4599392D02*
X1800098Y-4406677D01*
X3557251Y-5128405D02*
X3558352Y-5126217D01*
X507099Y-5124086D02*
X508410Y-5122017D01*
X7819817Y-7292130D02*
X7821886Y-7290819D01*
X8087820Y-2804055D02*
X8089230Y-2806057D01*
X7008702Y-5299300D02*
X7006271Y-5299600D01*
X8086313Y-9381436D02*
X8084713Y-9383291D01*
X2476511Y-800000D02*
X2476010Y-800012D01*
X7371455Y-790180D02*
X7369524Y-788673D01*
X4568017Y-6979921D02*
X4565732Y-6980803D01*
X3553955Y-537775D02*
X3554609Y-535415D01*
X750100Y-6983720D02*
X549901Y-6983720D01*
X8092849Y-2812445D02*
X8093841Y-2814684D01*
X2188345Y-4797691D02*
X2185985Y-4798345D01*
X2995733Y-8903163D02*
X2997602Y-8904821D01*
X4561046Y-2482385D02*
X4558656Y-2482921D01*
X2987504Y-4397684D02*
X2989665Y-4398937D01*
X6329679Y-8915646D02*
X6330990Y-8913577D01*
X8050188Y-9399620D02*
X8047739Y-9399680D01*
X6229711Y-5802520D02*
X6227268Y-5802700D01*
X4576644Y-6975310D02*
X4574575Y-6976621D01*
X4548921Y-7283720D02*
X4551370Y-7283780D01*
X7352239Y-540165D02*
X7352775Y-537775D01*
X4010147Y-7301964D02*
X4011746Y-7300109D01*
X4589002Y-7303894D02*
X4590412Y-7305897D01*
X1835878Y-8891400D02*
X2173859Y-8891400D01*
X8092849Y-6955155D02*
X8091748Y-6957343D01*
X3212295Y-5298881D02*
X3209882Y-5299300D01*
X6790580Y-4400297D02*
X6792605Y-4401760D01*
X4576645Y-2792290D02*
X4578647Y-2793700D01*
X8095491Y-4764425D02*
X8094723Y-4766751D01*
X2219962Y-9368876D02*
X2218969Y-9371115D01*
X3234216Y-511327D02*
X3236071Y-512926D01*
X7020476Y-796201D02*
X7018191Y-797083D01*
X7802431Y-7312285D02*
X7803532Y-7310097D01*
X7047481Y-769196D02*
X7046489Y-771435D01*
X6335506Y-4783451D02*
X6333907Y-4781596D01*
X547452Y-9399620D02*
X545009Y-9399440D01*
X7797640Y-800611D02*
X7797628Y-800110D01*
X1825969Y-8892393D02*
X1828424Y-8891960D01*
X1807717Y-4400265D02*
X1809810Y-4398910D01*
X7797700Y-6936268D02*
X7797640Y-6933819D01*
X762226Y-2785375D02*
X764587Y-2786029D01*
X7830729Y-6980803D02*
X7828444Y-6979921D01*
X524246Y-2476781D02*
X522177Y-2475470D01*
X7024903Y-5293948D02*
X7022715Y-5295049D01*
X6006191Y-8904327D02*
X6007965Y-8906015D01*
X505892Y-7310097D02*
X507099Y-7307966D01*
X7356071Y-5128405D02*
X7357172Y-5126217D01*
X6772299Y-4392557D02*
X6774734Y-4393115D01*
X2222801Y-8931565D02*
X2223220Y-8933978D01*
X547452Y-7283780D02*
X549901Y-7283720D01*
X7835415Y-2482385D02*
X7833055Y-2481731D01*
X3998206Y-800000D02*
X3602361Y-800000D01*
X2455725Y-1293100D02*
X2453723Y-1294510D01*
X516389Y-6970793D02*
X514615Y-6969105D01*
X5980002Y-4799300D02*
X5977571Y-4799600D01*
X526377Y-4793948D02*
X524246Y-4792741D01*
X2223520Y-4436569D02*
X2223700Y-4439012D01*
X7029103Y-791590D02*
X7027034Y-792901D01*
X503798Y-4769036D02*
X502917Y-4766751D01*
X7041460Y-520175D02*
X7042870Y-522177D01*
X5972679Y-4799840D02*
X2573661Y-4799840D01*
X3585549Y-5102757D02*
X3587875Y-5101989D01*
X2472102Y-1272116D02*
X2471109Y-1274355D01*
X769197Y-2480082D02*
X766912Y-2480963D01*
X6325497Y-4424649D02*
X6326378Y-4422364D01*
X7051280Y-549901D02*
X7051280Y-750099D01*
X7810566Y-7300109D02*
X7812255Y-7298335D01*
X4002618Y-2814684D02*
X4003611Y-2812445D01*
X4046271Y-7283780D02*
X4048721Y-7283720D01*
X3237845Y-514615D02*
X3239533Y-516389D01*
X8597029Y-9899680D02*
X8597530Y-9899668D01*
X3553955Y-762225D02*
X3553419Y-759835D01*
X2176308Y-4391620D02*
X2178751Y-4391800D01*
X3242640Y-5120015D02*
X3244050Y-5122017D01*
X781758Y-2795207D02*
X783612Y-2796806D01*
X7354197Y-533089D02*
X7355078Y-530804D01*
X7356071Y-5271275D02*
X7355078Y-5269036D01*
X3186606Y-4599826D02*
X3187183Y-4599840D01*
X4043829Y-2784120D02*
X4046271Y-2783940D01*
X2447335Y-5797969D02*
X2445096Y-5798961D01*
X6346826Y-4792741D02*
X6344757Y-4791430D01*
X7034891Y-5112767D02*
X7036665Y-5114455D01*
X2524300Y-9357102D02*
X2524000Y-9354671D01*
X2989665Y-4398937D02*
X2991760Y-4400297D01*
X5982415Y-4392519D02*
X5984805Y-4393055D01*
X2525255Y-9361905D02*
X2524719Y-9359515D01*
X4034235Y-6981571D02*
X4031909Y-6980803D01*
X5984805Y-8892895D02*
X5987165Y-8893549D01*
X4582433Y-7296646D02*
X4584206Y-7298335D01*
X3578837Y-5293948D02*
X3576706Y-5292741D01*
X3595038Y-5299300D02*
X3592625Y-5298881D01*
X2543935Y-4401380D02*
X2545937Y-4399970D01*
X504791Y-4771275D02*
X503798Y-4769036D01*
X4027385Y-6978929D02*
X4025197Y-6977828D01*
X2213940Y-4411735D02*
X2215350Y-4413737D01*
X2540149Y-9386753D02*
X2538375Y-9385065D01*
X3252460Y-549901D02*
X3252460Y-750099D01*
X3587875Y-797851D02*
X3585549Y-797083D01*
X2533580Y-4411735D02*
X2535087Y-4409804D01*
X4594031Y-2812445D02*
X4595023Y-2814684D01*
X511327Y-2465636D02*
X509820Y-2463705D01*
X7048363Y-766911D02*
X7047481Y-769196D01*
X4008640Y-2463705D02*
X4007230Y-2461703D01*
X2220843Y-8924489D02*
X2221611Y-8926815D01*
X2573661Y-4799840D02*
X2571212Y-4799780D01*
X8094723Y-7316809D02*
X8095491Y-7319135D01*
X8077465Y-2474060D02*
X8075463Y-2475470D01*
X8096681Y-2824045D02*
X8097100Y-2826458D01*
X7384369Y-5296923D02*
X7382084Y-5296042D01*
X7365895Y-5285225D02*
X7364206Y-5283451D01*
X3228214Y-507099D02*
X3230283Y-508410D01*
X3186606Y-9099666D02*
X3187183Y-9099680D01*
X2556849Y-9396763D02*
X2554564Y-9395882D01*
X6769840Y-4392122D02*
X6772299Y-4392557D01*
X3595038Y-799460D02*
X3592625Y-799041D01*
X6012760Y-9379505D02*
X6011253Y-9381436D01*
X4582432Y-6970793D02*
X4580578Y-6972393D01*
X6264900Y-1282745D02*
X6263393Y-1284676D01*
X7798599Y-2443715D02*
X7798180Y-2441302D01*
X4598934Y-4599828D02*
X4599435Y-4599840D01*
X6365158Y-9399140D02*
X6362745Y-9398721D01*
X4043829Y-6983480D02*
X4041398Y-6983180D01*
X516389Y-4786913D02*
X514615Y-4785225D01*
X542578Y-4799300D02*
X540165Y-4798881D01*
X7027034Y-507099D02*
X7029103Y-508410D01*
X2199514Y-4792741D02*
X2197383Y-4793948D01*
X8084713Y-5116229D02*
X8086313Y-5118084D01*
X7031105Y-790180D02*
X7029103Y-791590D01*
X6269929Y-5774195D02*
X6268828Y-5776383D01*
X500959Y-4759675D02*
X500540Y-4757262D01*
X3998710Y-800012D02*
X3998209Y-800000D01*
X6239305Y-1300771D02*
X6236945Y-1301425D01*
X547452Y-2783940D02*
X549901Y-2783880D01*
X4585895Y-2467491D02*
X4584206Y-2469265D01*
X504791Y-2812445D02*
X505892Y-2810257D01*
X4048721Y-7283720D02*
X4548921Y-7283720D01*
X1803747Y-4403280D02*
X1805694Y-4401723D01*
X520175Y-7293540D02*
X522177Y-7292130D01*
X6274732Y-5299950D02*
X6274720Y-5300451D01*
X8096681Y-9359515D02*
X8096144Y-9361905D01*
X522177Y-6975310D02*
X520175Y-6973900D01*
X8089230Y-2806057D02*
X8090541Y-2808126D01*
X5998334Y-8898499D02*
X6000403Y-8899810D01*
X764586Y-6981571D02*
X762226Y-6982224D01*
X8075463Y-508410D02*
X8077465Y-509820D01*
X4005919Y-7307966D02*
X4007230Y-7305897D01*
X6346826Y-8898499D02*
X6348957Y-8897292D01*
X5411555Y-4599392D02*
X5598918Y-4406677D01*
X2528551Y-4771275D02*
X2527558Y-4769036D01*
X8092849Y-5128405D02*
X8093841Y-5130644D01*
X2210833Y-4407949D02*
X2212433Y-4409804D01*
X3563787Y-518244D02*
X3565386Y-516389D01*
X797853Y-2819295D02*
X798506Y-2821655D01*
X7031105Y-5109660D02*
X7033036Y-5111167D01*
X6326378Y-8922204D02*
X6327371Y-8919965D01*
X2963552Y-4391560D02*
X2966051Y-4391623D01*
X2571212Y-8891460D02*
X2573661Y-8891400D01*
X6788485Y-8898777D02*
X6790580Y-8900137D01*
X4000315Y-2446105D02*
X3999779Y-2443715D01*
X2530859Y-4415806D02*
X2532170Y-4413737D01*
X6006191Y-4786913D02*
X6004336Y-4788513D01*
X8077465Y-9389860D02*
X8075463Y-9391270D01*
X4578647Y-7293540D02*
X4580578Y-7295047D01*
X3999360Y-2441302D02*
X3999060Y-2438871D01*
X540165Y-5100799D02*
X542578Y-5100380D01*
X522177Y-508410D02*
X524246Y-507099D01*
X7036665Y-785385D02*
X7034891Y-787073D01*
X2207371Y-8904327D02*
X2209145Y-8906015D01*
X7847541Y-2783880D02*
X8047739Y-2783880D01*
X7038353Y-783611D02*
X7036665Y-785385D01*
X4010147Y-6965476D02*
X4008640Y-6963545D01*
X2464573Y-1284676D02*
X2462973Y-1286531D01*
X4561046Y-6982224D02*
X4558656Y-6982761D01*
X7369524Y-5111167D02*
X7371455Y-5109660D01*
X7797026Y-800000D02*
X7401181Y-800000D01*
X6022520Y-4439012D02*
X6022580Y-4441461D01*
X507099Y-2808126D02*
X508410Y-2806057D01*
X4001737Y-2450791D02*
X4000969Y-2448465D01*
X750100Y-7283720D02*
X752550Y-7283780D01*
X3556258Y-530804D02*
X3557251Y-528565D01*
X504791Y-9371115D02*
X503798Y-9368876D01*
X7797880Y-7328729D02*
X7798180Y-7326298D01*
X6344757Y-9391270D02*
X6342755Y-9389860D01*
X2215350Y-8913577D02*
X2216661Y-8915646D01*
X4015209Y-6970793D02*
X4013435Y-6969105D01*
X754993Y-2784120D02*
X757424Y-2784420D01*
X7049784Y-762225D02*
X7049131Y-764585D01*
X795211Y-2812445D02*
X796203Y-2814684D01*
X7798180Y-2826458D02*
X7798599Y-2824045D01*
X5984805Y-4798345D02*
X5982415Y-4798881D01*
X6017789Y-8919965D02*
X6018781Y-8922204D01*
X3592625Y-5298881D02*
X3590235Y-5298345D01*
X6009653Y-8907789D02*
X6011253Y-8909644D01*
X8062225Y-502149D02*
X8064551Y-502917D01*
X3583264Y-503798D02*
X3585549Y-502917D01*
X4041398Y-2483340D02*
X4038985Y-2482921D01*
X501495Y-2821655D02*
X502149Y-2819295D01*
X7013505Y-5101335D02*
X7015865Y-5101989D01*
X7051040Y-754991D02*
X7050740Y-757422D01*
X2212433Y-4409804D02*
X2213940Y-4411735D01*
X6270921Y-5771956D02*
X6269929Y-5774195D01*
X2556849Y-8894317D02*
X2559175Y-8893549D01*
X3252220Y-754991D02*
X3251920Y-757422D01*
X6268828Y-1276543D02*
X6267621Y-1278674D01*
X8066836Y-4796042D02*
X8064551Y-4796923D01*
X537775Y-2785375D02*
X540165Y-2784839D01*
X6322820Y-4436569D02*
X6323120Y-4434138D01*
X7011115Y-500959D02*
X7013505Y-501495D01*
X7351280Y-5249939D02*
X7351280Y-5149741D01*
X4013435Y-6969105D02*
X4011746Y-6967331D01*
X7384369Y-797083D02*
X7382084Y-796201D01*
X6370031Y-4799780D02*
X6367589Y-4799600D01*
X542578Y-7284260D02*
X545009Y-7283960D01*
X6786324Y-4397684D02*
X6788485Y-4398937D01*
X3558352Y-5126217D02*
X3559559Y-5124086D01*
X8069075Y-2788671D02*
X8071263Y-2789772D01*
X785386Y-2798495D02*
X787075Y-2800269D01*
X4018995Y-2474060D02*
X4017064Y-2472553D01*
X4587495Y-7301964D02*
X4589002Y-7303894D01*
X5989491Y-8894317D02*
X5991776Y-8895198D01*
X8086313Y-2465636D02*
X8084713Y-2467491D01*
X8069075Y-6978929D02*
X8066836Y-6979921D01*
X8093841Y-2814684D02*
X8094723Y-2816969D01*
X542578Y-2784420D02*
X545009Y-2784120D01*
X7352239Y-5259675D02*
X7351820Y-5257262D01*
X2223760Y-4749939D02*
X2223700Y-4752388D01*
X3998820Y-800611D02*
X3998808Y-800110D01*
X4018995Y-6973900D02*
X4017064Y-6972393D01*
X4585895Y-2800269D02*
X4587495Y-2802124D01*
X5984805Y-4393055D02*
X5987165Y-4393709D01*
X2971020Y-4392122D02*
X2973479Y-4392557D01*
X511327Y-5118084D02*
X512926Y-5116229D01*
X4023066Y-2790979D02*
X4025197Y-2789772D01*
X4007230Y-6961543D02*
X4005919Y-6959474D01*
X6266310Y-1280743D02*
X6264900Y-1282745D01*
X7803532Y-2810257D02*
X7804739Y-2808126D01*
X7041460Y-5120015D02*
X7042870Y-5122017D01*
X6022340Y-4436569D02*
X6022520Y-4439012D01*
X3250311Y-764585D02*
X3249543Y-766911D01*
X7003828Y-500060D02*
X7006271Y-500240D01*
X545009Y-500240D02*
X547452Y-500060D01*
X502917Y-7316809D02*
X503798Y-7314524D01*
X545009Y-6983480D02*
X542578Y-6983180D01*
X5627244Y-4392120D02*
X5629718Y-4391809D01*
X500959Y-2443715D02*
X500540Y-2441302D01*
X8093841Y-2453076D02*
X8092849Y-2455315D01*
X7351340Y-5252388D02*
X7351280Y-5249939D01*
X8075463Y-4791430D02*
X8073394Y-4792741D01*
X8064551Y-4796923D02*
X8062225Y-4797691D01*
X7389055Y-5298345D02*
X7386695Y-5297691D01*
X8066836Y-2480082D02*
X8064551Y-2480963D01*
X6322820Y-4754831D02*
X6322640Y-4752388D01*
X766912Y-2480963D02*
X764586Y-2481731D01*
X505892Y-6957343D02*
X504791Y-6955155D01*
X7814029Y-7296646D02*
X7815884Y-7295047D01*
X7824017Y-6977828D02*
X7821886Y-6976621D01*
X6332400Y-8911575D02*
X6333907Y-8909644D01*
X754993Y-7283960D02*
X757424Y-7284260D01*
X2532170Y-8913577D02*
X2533580Y-8911575D01*
X7042870Y-5122017D02*
X7044181Y-5124086D01*
X7845091Y-7283780D02*
X7847541Y-7283720D01*
X1809810Y-4398910D02*
X1811967Y-4397661D01*
X4589001Y-2463705D02*
X4587495Y-2465636D01*
X508410Y-5122017D02*
X509820Y-5120015D01*
X8081251Y-512926D02*
X8083025Y-514615D01*
X502149Y-2819295D02*
X502917Y-2816969D01*
X4598581Y-2438871D02*
X4598281Y-2441302D01*
X2472983Y-1269831D02*
X2472102Y-1272116D01*
X2222265Y-4429335D02*
X2222801Y-4431725D01*
X8089230Y-522177D02*
X8090541Y-524246D01*
X6018781Y-9368876D02*
X6017789Y-9371115D01*
X7029103Y-508410D02*
X7031105Y-509820D01*
X4595905Y-2816969D02*
X4596673Y-2819295D01*
X3590235Y-5298345D02*
X3587875Y-5297691D01*
X8064551Y-502917D02*
X8066836Y-503798D01*
X2468801Y-5778514D02*
X2467490Y-5780583D01*
X8050188Y-7283780D02*
X8052631Y-7283960D01*
X5411142Y-9099637D02*
X5411554Y-9099234D01*
X501495Y-5137615D02*
X502149Y-5135255D01*
X2188345Y-4393709D02*
X2190671Y-4394477D01*
X500240Y-6938711D02*
X500060Y-6936268D01*
X3597469Y-5299600D02*
X3595038Y-5299300D01*
X547452Y-5099900D02*
X549901Y-5099840D01*
X2201583Y-8899810D02*
X2203585Y-8901220D01*
X7817815Y-6973900D02*
X7815884Y-6972393D01*
X549901Y-9399680D02*
X547452Y-9399620D01*
X3558352Y-773623D02*
X3557251Y-771435D01*
X3556258Y-5269036D02*
X3555377Y-5266751D01*
X7365895Y-514615D02*
X7367669Y-512926D01*
X5991776Y-8895198D02*
X5994015Y-8896191D01*
X535415Y-5101989D02*
X537775Y-5101335D01*
X7830729Y-7286637D02*
X7833055Y-7285869D01*
X0Y-614D02*
X0Y-9899066D01*
X4591722Y-2459634D02*
X4590412Y-2461703D01*
X533089Y-4796923D02*
X530804Y-4796042D01*
X3252460Y-750099D02*
X3252400Y-752548D01*
X8096144Y-537775D02*
X8096681Y-540165D01*
X5980002Y-4392100D02*
X5982415Y-4392519D01*
X7351280Y-5149741D02*
X7351340Y-5147292D01*
X2475660Y-1257911D02*
X2475360Y-1260342D01*
X8091748Y-5126217D02*
X8092849Y-5128405D01*
X2523820Y-9352228D02*
X2523760Y-9349779D01*
X505892Y-4773463D02*
X504791Y-4771275D01*
X8095491Y-6948305D02*
X8094723Y-6950631D01*
X7798599Y-2824045D02*
X7799135Y-2821655D01*
X6370031Y-8891460D02*
X6372481Y-8891400D01*
X800000Y-1303534D02*
X800001Y-2433979D01*
X7835415Y-7285215D02*
X7837805Y-7284679D01*
X3205008Y-799940D02*
X3202559Y-800000D01*
X8059865Y-9398185D02*
X8057475Y-9398721D01*
X3568849Y-787073D02*
X3567075Y-785385D01*
X3999060Y-6938711D02*
X3998880Y-6936268D01*
X4011746Y-7300109D02*
X4013435Y-7298335D01*
X3562280Y-5120015D02*
X3563787Y-5118084D01*
X4570257Y-7288511D02*
X4572444Y-7289612D01*
X8081251Y-2470953D02*
X8079396Y-2472553D01*
X3574637Y-508410D02*
X3576706Y-507099D01*
X4005919Y-6959474D02*
X4004712Y-6957343D01*
X6022340Y-9354671D02*
X6022040Y-9357102D01*
X769198Y-7287518D02*
X771437Y-7288511D01*
X2190671Y-4394477D02*
X2192956Y-4395358D01*
X8055062Y-5100380D02*
X8057475Y-5100799D01*
X8069075Y-9394889D02*
X8066836Y-9395882D01*
X4023066Y-6976621D02*
X4020997Y-6975310D01*
X3207451Y-799760D02*
X3205008Y-799940D01*
X7801438Y-2453076D02*
X7800557Y-2450791D01*
X2475360Y-5760182D02*
X2474941Y-5762595D01*
X6332400Y-9379505D02*
X6330990Y-9377503D01*
X6248343Y-5796868D02*
X6246155Y-5797969D01*
X5980002Y-8891940D02*
X5982415Y-8892359D01*
X3587875Y-5297691D02*
X3585549Y-5296923D01*
X2197383Y-4397452D02*
X2199514Y-4398659D01*
X799761Y-7328729D02*
X799942Y-7331171D01*
X5602567Y-4403280D02*
X5604514Y-4401723D01*
X549901Y-7283720D02*
X750100Y-7283720D01*
X4018995Y-7293540D02*
X4020997Y-7292130D01*
X1805694Y-8901563D02*
X1807717Y-8900105D01*
X524246Y-507099D02*
X526377Y-505892D01*
X4598824Y-9099069D02*
X4598836Y-9099570D01*
X526377Y-2477988D02*
X524246Y-2476781D01*
X5998334Y-9392581D02*
X5996203Y-9393788D01*
X2203585Y-4401380D02*
X2205516Y-4402887D01*
X773624Y-6977828D02*
X771436Y-6978929D01*
X2968541Y-4391810D02*
X2971020Y-4392122D01*
X8089230Y-7305897D02*
X8090541Y-7307966D01*
X3230283Y-5108250D02*
X3232285Y-5109660D01*
X8062225Y-7285869D02*
X8064551Y-7286637D01*
X790182Y-7303894D02*
X791592Y-7305897D01*
X2554564Y-4395358D02*
X2556849Y-4394477D01*
X8055062Y-2483340D02*
X8052631Y-2483640D01*
X3236071Y-512926D02*
X3237845Y-514615D01*
X6324075Y-4429335D02*
X6324729Y-4426975D01*
X2532170Y-9377503D02*
X2530859Y-9375434D01*
X799761Y-2828889D02*
X799942Y-2831331D01*
X535415Y-2786029D02*
X537775Y-2785375D01*
X3237845Y-5114455D02*
X3239533Y-5116229D01*
X8055062Y-2784420D02*
X8057475Y-2784839D01*
X3252400Y-5147292D02*
X3252460Y-5149741D01*
X6007965Y-4406175D02*
X6009653Y-4407949D01*
X3565386Y-516389D02*
X3567075Y-514615D01*
X500000Y-549901D02*
X500060Y-547452D01*
X7801438Y-2814684D02*
X7802431Y-2812445D01*
X8597026Y0D02*
X614Y0D01*
X2219962Y-8922204D02*
X2220843Y-8924489D01*
X6021084Y-8929175D02*
X6021621Y-8931565D01*
X4000315Y-2821655D02*
X4000969Y-2819295D01*
X5982415Y-9398721D02*
X5980002Y-9399140D01*
X3250311Y-5264425D02*
X3249543Y-5266751D01*
X3244050Y-5277663D02*
X3242640Y-5279665D01*
X7808967Y-2465636D02*
X7807460Y-2463705D01*
X6243916Y-1299122D02*
X6241631Y-1300003D01*
X2185985Y-4393055D02*
X2188345Y-4393709D01*
X3576706Y-507099D02*
X3578837Y-505892D01*
X8073394Y-5106939D02*
X8075463Y-5108250D01*
X6353384Y-8895198D02*
X6355669Y-8894317D01*
X795210Y-6955155D02*
X794109Y-6957343D01*
X7008702Y-5100380D02*
X7011115Y-5100799D01*
X500060Y-9352228D02*
X500000Y-9349779D01*
X2470008Y-1276543D02*
X2468801Y-1278674D01*
X3247669Y-5271275D02*
X3246568Y-5273463D01*
X2176308Y-8891460D02*
X2178751Y-8891640D01*
X2528551Y-4420125D02*
X2529652Y-4417937D01*
X8050188Y-2483820D02*
X8047739Y-2483880D01*
X518244Y-7295047D02*
X520175Y-7293540D01*
X526377Y-5105732D02*
X528565Y-5104631D01*
X5982415Y-4798881D02*
X5980002Y-4799300D01*
X512926Y-5116229D02*
X514615Y-5114455D01*
X7353429Y-5264425D02*
X7352775Y-5262065D01*
X4591722Y-2808126D02*
X4592930Y-2810257D01*
X3250964Y-537775D02*
X3251501Y-540165D01*
X6232142Y-1302380D02*
X6229711Y-1302680D01*
X8092849Y-7312285D02*
X8093841Y-7314524D01*
X6333907Y-4409804D02*
X6335506Y-4407949D01*
X8073394Y-7290819D02*
X8075463Y-7292130D01*
X545009Y-5100080D02*
X547452Y-5099900D01*
X2561535Y-8892895D02*
X2563925Y-8892359D01*
X785386Y-2469265D02*
X783612Y-2470953D01*
X518244Y-5111167D02*
X520175Y-5109660D01*
X769198Y-2787678D02*
X771437Y-2788671D01*
X7051280Y-5149741D02*
X7051280Y-5249939D01*
X7051040Y-545009D02*
X7051220Y-547452D01*
X6021084Y-9361905D02*
X6020431Y-9364265D01*
X7051280Y-5249939D02*
X7051220Y-5252388D01*
X1801880Y-8904772D02*
X1803747Y-8903120D01*
X2440485Y-1300771D02*
X2438125Y-1301425D01*
X4558656Y-2482921D02*
X4556243Y-2483340D01*
X6328472Y-8917777D02*
X6329679Y-8915646D01*
X502917Y-2450791D02*
X502149Y-2448465D01*
X2223220Y-4434138D02*
X2223520Y-4436569D01*
X2991760Y-8900137D02*
X2993785Y-8901600D01*
X4031909Y-2480963D02*
X4029624Y-2480082D01*
X4597862Y-2443715D02*
X4597326Y-2446105D01*
X501495Y-537775D02*
X502149Y-535415D01*
X7812255Y-6969105D02*
X7810566Y-6967331D01*
X2197383Y-9393788D02*
X2195195Y-9394889D01*
X8064551Y-5102757D02*
X8066836Y-5103638D01*
X6329679Y-9375434D02*
X6328472Y-9373303D01*
X6326378Y-4422364D02*
X6327371Y-4420125D01*
X7375526Y-792901D02*
X7373457Y-791590D01*
X516389Y-5112767D02*
X518244Y-5111167D01*
X2218969Y-8919965D02*
X2219962Y-8922204D01*
X7842649Y-2784120D02*
X7845091Y-2783940D01*
X8097580Y-6936268D02*
X8097400Y-6938711D01*
X3212295Y-500959D02*
X3214685Y-501495D01*
X3998808Y-4599730D02*
X3998820Y-4599229D01*
X4587495Y-2802124D02*
X4589002Y-2804054D01*
X7804739Y-2459634D02*
X7803532Y-2457503D01*
X3251920Y-542578D02*
X3252220Y-545009D01*
X3552520Y-5147292D02*
X3552700Y-5144849D01*
X7375526Y-507099D02*
X7377657Y-505892D01*
X7819817Y-6975310D02*
X7817815Y-6973900D01*
X4548920Y-6983720D02*
X4048721Y-6983720D01*
X2221611Y-8926815D02*
X2222265Y-8929175D01*
X540165Y-2784839D02*
X542578Y-2784420D01*
X3202559Y-5099840D02*
X3205008Y-5099900D01*
X7038353Y-5116229D02*
X7039953Y-5118084D01*
X3565386Y-783611D02*
X3563787Y-781756D01*
X7840218Y-2784420D02*
X7842649Y-2784120D01*
X4591722Y-7307966D02*
X4592930Y-7310097D01*
X6272571Y-5767345D02*
X6271803Y-5769671D01*
X7034891Y-787073D02*
X7033036Y-788673D01*
X1611678Y-4599840D02*
X1612254Y-4599826D01*
X5619959Y-8893626D02*
X5622359Y-8892949D01*
X7027034Y-792901D02*
X7024903Y-794108D01*
X2461285Y-5788145D02*
X2459511Y-5789833D01*
X533089Y-5102757D02*
X535415Y-5101989D01*
X7024903Y-794108D02*
X7022715Y-795209D01*
X6224819Y-5802760D02*
X4599434Y-5802760D01*
X2222265Y-4762065D02*
X2221611Y-4764425D01*
X7797880Y-6938711D02*
X7797700Y-6936268D01*
X7033036Y-5288513D02*
X7031105Y-5290020D01*
X8083025Y-2469265D02*
X8081251Y-2470953D01*
X3223895Y-5104631D02*
X3226083Y-5105732D01*
X8075463Y-2792290D02*
X8077465Y-2793700D01*
X2980685Y-4394593D02*
X2983009Y-4395509D01*
X2532170Y-4413737D02*
X2533580Y-4411735D01*
X6329679Y-4415806D02*
X6330990Y-4413737D01*
X799461Y-6941142D02*
X799042Y-6943555D01*
X2466080Y-1282745D02*
X2464573Y-1284676D01*
X2530859Y-4775594D02*
X2529652Y-4773463D01*
X800114Y-9099668D02*
X800615Y-9099680D01*
X3232285Y-5109660D02*
X3234216Y-5111167D01*
X2440485Y-5800611D02*
X2438125Y-5801264D01*
X500959Y-7323885D02*
X501495Y-7321495D01*
X8089230Y-9377503D02*
X8087820Y-9379505D01*
X4000969Y-6948305D02*
X4000315Y-6945945D01*
X5619959Y-4393786D02*
X5622359Y-4393109D01*
X8066836Y-7287518D02*
X8069075Y-7288511D01*
X3232285Y-509820D02*
X3234216Y-511327D01*
X2475912Y-5299950D02*
X2475900Y-5300451D01*
X1814185Y-8896361D02*
X1816456Y-8895334D01*
X7391445Y-5100799D02*
X7393858Y-5100380D01*
X2524300Y-4757262D02*
X2524000Y-4754831D01*
X5622359Y-4393109D02*
X5624789Y-4392553D01*
X8055062Y-7284260D02*
X8057475Y-7284679D01*
X2173859Y-8891400D02*
X2176308Y-8891460D01*
X505892Y-2457503D02*
X504791Y-2455315D01*
X537775Y-5101335D02*
X540165Y-5100799D01*
X2467490Y-5780583D02*
X2466080Y-5782585D01*
X4563407Y-6981571D02*
X4561046Y-6982224D01*
X3578837Y-505892D02*
X3581025Y-504791D01*
X3209882Y-5100380D02*
X3212295Y-5100799D01*
X7041460Y-779825D02*
X7039953Y-781756D01*
X8066836Y-9395882D02*
X8064551Y-9396763D01*
X6022340Y-8936409D02*
X6022520Y-8938852D01*
X7797026Y-5299840D02*
X7401181Y-5299840D01*
X7029103Y-5108250D02*
X7031105Y-5109660D01*
X5604514Y-4401723D02*
X5606537Y-4400265D01*
X6014170Y-4777663D02*
X6012760Y-4779665D01*
X6796422Y-8904821D02*
X6798205Y-8906571D01*
X762226Y-6982224D02*
X759836Y-6982761D01*
X7365895Y-785385D02*
X7364206Y-783611D01*
X4011746Y-6967331D02*
X4010147Y-6965476D01*
X507099Y-524246D02*
X508410Y-522177D01*
X508410Y-9377503D02*
X507099Y-9375434D01*
X3559559Y-775754D02*
X3558352Y-773623D01*
X6258331Y-5789833D02*
X6256476Y-5791433D01*
X7807460Y-6963545D02*
X7806050Y-6961543D01*
X7396289Y-799760D02*
X7393858Y-799460D01*
X512926Y-2800269D02*
X514615Y-2798495D01*
X8071263Y-7289612D02*
X8073394Y-7290819D01*
X4565732Y-6980803D02*
X4563407Y-6981571D01*
X6322580Y-4441461D02*
X6322640Y-4439012D01*
X5987165Y-4393709D02*
X5989491Y-4394477D01*
X7050740Y-5142418D02*
X7051040Y-5144849D01*
X4036595Y-2785375D02*
X4038985Y-2784839D01*
X520175Y-509820D02*
X522177Y-508410D01*
X6018781Y-8922204D02*
X6019663Y-8924489D01*
X7352239Y-759835D02*
X7351820Y-757422D01*
X518244Y-2795207D02*
X520175Y-2793700D01*
X2218969Y-9371115D02*
X2217868Y-9373303D01*
X6022580Y-9349779D02*
X6022520Y-9352228D01*
X3241133Y-518244D02*
X3242640Y-520175D01*
X8093841Y-9368876D02*
X8092849Y-9371115D01*
X2453723Y-1294510D02*
X2451654Y-1295821D01*
X7045388Y-5126217D02*
X7046489Y-5128405D01*
X3998820Y-7333621D02*
X3998880Y-7331171D01*
X6792605Y-8901600D02*
X6794553Y-8903163D01*
X2217868Y-4773463D02*
X2216661Y-4775594D01*
X542578Y-2483340D02*
X540165Y-2482921D01*
X796203Y-2814684D02*
X797085Y-2816969D01*
X6273761Y-5762595D02*
X6273224Y-5764985D01*
X7003828Y-799940D02*
X7001379Y-800000D01*
X6342755Y-4401380D02*
X6344757Y-4399970D01*
X2203585Y-9389860D02*
X2201583Y-9391270D01*
X4584206Y-2469265D02*
X4582432Y-2470953D01*
X7833055Y-7285869D02*
X7835415Y-7285215D01*
X3560870Y-5122017D02*
X3562280Y-5120015D01*
X504791Y-7312285D02*
X505892Y-7310097D01*
X2433322Y-5802220D02*
X2430891Y-5802520D01*
X8075463Y-5108250D02*
X8077465Y-5109660D01*
X8069075Y-7288511D02*
X8071263Y-7289612D01*
X7817815Y-7293540D02*
X7819817Y-7292130D01*
X8059865Y-2785375D02*
X8062225Y-2786029D01*
X504791Y-2455315D02*
X503798Y-2453076D01*
X3555377Y-5266751D02*
X3554609Y-5264425D01*
X2975914Y-8892955D02*
X2978318Y-8893634D01*
X6256476Y-5791433D02*
X6254545Y-5792940D01*
X7356071Y-771435D02*
X7355078Y-769196D01*
X7359690Y-522177D02*
X7361100Y-520175D01*
X7357172Y-773623D02*
X7356071Y-771435D01*
X3558352Y-5273463D02*
X3557251Y-5271275D01*
X799043Y-2824045D02*
X799462Y-2826458D01*
X4599431Y-1302920D02*
X4598930Y-1302932D01*
X6232142Y-5802220D02*
X6229711Y-5802520D01*
X6263393Y-1284676D02*
X6261793Y-1286531D01*
X5624789Y-8892393D02*
X5627244Y-8891960D01*
X2526677Y-4424649D02*
X2527558Y-4422364D01*
X6332400Y-4779665D02*
X6330990Y-4777663D01*
X6372481Y-8891400D02*
X6762372Y-8891400D01*
X3592625Y-500959D02*
X3595038Y-500540D01*
X7398731Y-500060D02*
X7401181Y-500000D01*
X540165Y-7284679D02*
X542578Y-7284260D01*
X750100Y-2783880D02*
X752550Y-2783940D01*
X7051280Y-750099D02*
X7051220Y-752548D01*
X7799135Y-6945945D02*
X7798599Y-6943555D01*
X4048721Y-6983720D02*
X4046271Y-6983660D01*
X3245361Y-775754D02*
X3244050Y-777823D01*
X4003611Y-7312285D02*
X4004712Y-7310097D01*
X7384369Y-5102757D02*
X7386695Y-5101989D01*
X8090541Y-524246D02*
X8091748Y-526377D01*
X8057475Y-2482921D02*
X8055062Y-2483340D01*
X2197383Y-8897292D02*
X2199514Y-8898499D01*
X7027034Y-5292741D02*
X7024903Y-5293948D01*
X545009Y-4799600D02*
X542578Y-4799300D01*
X3245361Y-524246D02*
X3246568Y-526377D01*
X4015209Y-7296646D02*
X4017064Y-7295047D01*
X4023066Y-2476781D02*
X4020997Y-2475470D01*
X7840218Y-7284260D02*
X7842649Y-7283960D01*
X2566338Y-8891940D02*
X2568769Y-8891640D01*
X759837Y-7284679D02*
X762226Y-7285215D01*
X6340824Y-4402887D02*
X6342755Y-4401380D01*
X2548006Y-9392581D02*
X2545937Y-9391270D01*
X6266310Y-5780583D02*
X6264900Y-5782585D01*
X4599437Y-4599840D02*
X5410495Y-4599840D01*
X522177Y-7292130D02*
X524246Y-7290819D01*
X3581025Y-504791D02*
X3583264Y-503798D01*
X7389055Y-5101335D02*
X7391445Y-5100799D01*
X8083025Y-514615D02*
X8084713Y-516389D01*
X535415Y-4797691D02*
X533089Y-4796923D01*
X797853Y-7319135D02*
X798506Y-7321495D01*
X8093841Y-7314524D02*
X8094723Y-7316809D01*
X8071263Y-5105732D02*
X8073394Y-5106939D01*
X8094723Y-9366591D02*
X8093841Y-9368876D01*
X6781829Y-8895349D02*
X6784104Y-8896380D01*
X7351340Y-752548D02*
X7351280Y-750099D01*
X3587875Y-502149D02*
X3590235Y-501495D01*
X4013435Y-2798495D02*
X4015209Y-2796806D01*
X3226083Y-794108D02*
X3223895Y-795209D01*
X6774734Y-8892955D02*
X6777138Y-8893634D01*
X8089230Y-2461703D02*
X8087820Y-2463705D01*
X505892Y-9373303D02*
X504791Y-9371115D01*
X7797640Y-7333621D02*
X7797700Y-7331171D01*
X537775Y-4798345D02*
X535415Y-4797691D01*
X8083025Y-2798495D02*
X8084713Y-2800269D01*
X7379845Y-504791D02*
X7382084Y-503798D01*
X2550137Y-4397452D02*
X2552325Y-4396351D01*
X7393858Y-5299300D02*
X7391445Y-5298881D01*
X2525255Y-8929175D02*
X2525909Y-8926815D01*
X7018191Y-502917D02*
X7020476Y-503798D01*
X7351280Y-549901D02*
X7351340Y-547452D01*
X8086313Y-7301964D02*
X8087820Y-7303895D01*
X4046271Y-2483820D02*
X4043829Y-2483640D01*
X3602361Y-800000D02*
X3599911Y-799940D01*
X792902Y-2808126D02*
X794109Y-2810257D01*
X3574637Y-791590D02*
X3572635Y-790180D01*
X8097640Y-5149741D02*
X8097640Y-6933819D01*
X547452Y-4799780D02*
X545009Y-4799600D01*
X791592Y-2461703D02*
X790181Y-2463705D01*
X4025197Y-6977828D02*
X4023066Y-6976621D01*
X4038985Y-7284679D02*
X4041398Y-7284260D01*
X7797029Y-9099680D02*
X7797530Y-9099668D01*
X5610787Y-8897501D02*
X5613005Y-8896361D01*
X7817815Y-2793700D02*
X7819817Y-2792290D01*
X516389Y-2796806D02*
X518244Y-2795207D01*
X2999385Y-4406731D02*
X3186124Y-4599391D01*
X3595038Y-5100380D02*
X3597469Y-5100080D01*
X6267621Y-1278674D02*
X6266310Y-1280743D01*
X4594030Y-6955155D02*
X4592929Y-6957343D01*
X2983009Y-8895349D02*
X2985284Y-8896380D01*
X6767361Y-8891650D02*
X6769840Y-8891962D01*
X3562280Y-520175D02*
X3563787Y-518244D01*
X537775Y-6982224D02*
X535415Y-6981571D01*
X5987165Y-9397531D02*
X5984805Y-9398185D01*
X7833055Y-6981571D02*
X7830729Y-6980803D01*
X750100Y-2483880D02*
X549901Y-2483880D01*
X500240Y-9354671D02*
X500060Y-9352228D01*
X6269929Y-1274355D02*
X6268828Y-1276543D01*
X799043Y-7323885D02*
X799462Y-7326298D01*
X7355078Y-5269036D02*
X7354197Y-5266751D01*
X7367669Y-5112767D02*
X7369524Y-5111167D01*
X8071263Y-4793948D02*
X8069075Y-4795049D01*
X2548006Y-4398659D02*
X2550137Y-4397452D01*
X6762372Y-8891400D02*
X6764871Y-8891463D01*
X2221611Y-9364265D02*
X2220843Y-9366591D01*
X8050188Y-6983660D02*
X8047739Y-6983720D01*
X2525255Y-4762065D02*
X2524719Y-4759675D01*
X3246568Y-5273463D02*
X3245361Y-5275594D01*
X5996203Y-4397452D02*
X5998334Y-4398659D01*
X7357172Y-526377D02*
X7358379Y-524246D01*
X8095491Y-5135255D02*
X8096144Y-5137615D01*
X500240Y-4754831D02*
X500060Y-4752388D01*
X522177Y-5108250D02*
X524246Y-5106939D01*
X5975128Y-4799780D02*
X5972679Y-4799840D01*
X3570704Y-5111167D02*
X3572635Y-5109660D01*
X2552325Y-9394889D02*
X2550137Y-9393788D01*
X7389055Y-798504D02*
X7386695Y-797851D01*
X516389Y-7296646D02*
X518244Y-7295047D01*
X3232285Y-5290020D02*
X3230283Y-5291430D01*
X7353429Y-5135255D02*
X7354197Y-5132929D01*
X7015865Y-502149D02*
X7018191Y-502917D01*
X7362607Y-781756D02*
X7361100Y-779825D01*
X6004336Y-4788513D02*
X6002405Y-4790020D01*
X8066836Y-6979921D02*
X8064551Y-6980803D01*
X6351145Y-8896191D02*
X6353384Y-8895198D01*
X8092849Y-528565D02*
X8093841Y-530804D01*
X500060Y-7331171D02*
X500240Y-7328729D01*
X7049131Y-764585D02*
X7048363Y-766911D01*
X788674Y-2465636D02*
X787075Y-2467491D01*
X4556243Y-2483340D02*
X4553812Y-2483640D01*
X8052631Y-9399440D02*
X8050188Y-9399620D01*
X8097580Y-9352228D02*
X8097400Y-9354671D01*
X7798180Y-7326298D02*
X7798599Y-7323885D01*
X2524000Y-4436569D02*
X2524300Y-4434138D01*
X8064551Y-7286637D02*
X8066836Y-7287518D01*
X512926Y-9383291D02*
X511327Y-9381436D01*
X1828424Y-8891960D02*
X1830898Y-8891649D01*
X7377657Y-505892D02*
X7379845Y-504791D01*
X5613005Y-8896361D02*
X5615276Y-8895334D01*
X799761Y-2438871D02*
X799461Y-2441302D01*
X7048363Y-533089D02*
X7049131Y-535415D01*
X4551370Y-6983660D02*
X4548920Y-6983720D01*
X5987165Y-8893549D02*
X5989491Y-8894317D01*
X792902Y-7307966D02*
X794109Y-7310097D01*
X2983009Y-4395509D02*
X2985284Y-4396540D01*
X6365158Y-4392100D02*
X6367589Y-4391800D01*
X518244Y-6972393D02*
X516389Y-6970793D01*
X799761Y-6938711D02*
X799461Y-6941142D01*
X7797029Y-4599840D02*
X7797530Y-4599828D01*
X8086313Y-5118084D02*
X8087820Y-5120015D01*
X8084713Y-4783451D02*
X8083025Y-4785225D01*
X6017789Y-4771275D02*
X6016688Y-4773463D01*
X3563787Y-5281596D02*
X3562280Y-5279665D01*
X6984946Y-4599392D02*
X6985358Y-4599797D01*
X7800557Y-2816969D02*
X7801438Y-2814684D01*
X6798205Y-4406731D02*
X6984944Y-4599391D01*
X6004336Y-9388353D02*
X6002405Y-9389860D01*
X4597326Y-7321495D02*
X4597863Y-7323885D01*
X6019663Y-8924489D02*
X6020431Y-8926815D01*
X2542004Y-4788513D02*
X2540149Y-4786913D01*
X530804Y-2480082D02*
X528565Y-2479089D01*
X2183595Y-9398721D02*
X2181182Y-9399140D01*
X6324729Y-9364265D02*
X6324075Y-9361905D01*
X7036665Y-5285225D02*
X7034891Y-5286913D01*
X796203Y-7314524D02*
X797085Y-7316809D01*
X8094723Y-2450791D02*
X8093841Y-2453076D01*
X7373457Y-5108250D02*
X7375526Y-5106939D01*
X8093841Y-4769036D02*
X8092849Y-4771275D01*
X6351145Y-9394889D02*
X6348957Y-9393788D01*
X540165Y-4798881D02*
X537775Y-4798345D01*
X7034891Y-512926D02*
X7036665Y-514615D01*
X4029624Y-6979921D02*
X4027385Y-6978929D01*
X4002618Y-2453076D02*
X4001737Y-2450791D01*
X8090541Y-2808126D02*
X8091748Y-2810257D01*
X2571212Y-4799780D02*
X2568769Y-4799600D01*
X7797530Y-5299852D02*
X7797029Y-5299840D01*
X3250964Y-5262065D02*
X3250311Y-5264425D01*
X3998880Y-7331171D02*
X3999060Y-7328729D01*
X2554564Y-8895198D02*
X2556849Y-8894317D01*
X7396289Y-5100080D02*
X7398731Y-5099900D01*
X6274660Y-1255468D02*
X6274480Y-1257911D01*
X505892Y-5126217D02*
X507099Y-5124086D01*
X7362607Y-5281596D02*
X7361100Y-5279665D01*
X6777138Y-8893634D02*
X6779505Y-8894433D01*
X7802431Y-2455315D02*
X7801438Y-2453076D01*
X8096681Y-7323885D02*
X8097100Y-7326298D01*
X4598581Y-2828889D02*
X4598762Y-2831331D01*
X2195195Y-8896191D02*
X2197383Y-8897292D01*
X2190671Y-4796923D02*
X2188345Y-4797691D01*
X2199514Y-9392581D02*
X2197383Y-9393788D01*
X8091748Y-6957343D02*
X8090541Y-6959474D01*
X2223760Y-9349779D02*
X2223700Y-9352228D01*
X8075463Y-7292130D02*
X8077465Y-7293540D01*
X6323539Y-4759675D02*
X6323120Y-4757262D01*
X4572444Y-6977828D02*
X4570256Y-6978929D01*
X7046489Y-771435D02*
X7045388Y-773623D01*
X7051220Y-752548D02*
X7051040Y-754991D01*
X2997602Y-8904821D02*
X2999385Y-8906571D01*
X4592929Y-6957343D02*
X4591722Y-6959474D01*
X4004712Y-7310097D02*
X4005919Y-7307966D01*
X2455725Y-5792940D02*
X2453723Y-5794350D01*
X6006191Y-4404487D02*
X6007965Y-4406175D01*
X8073394Y-6976621D02*
X8071263Y-6977828D01*
X754992Y-2483640D02*
X752550Y-2483820D01*
X4015209Y-2470953D02*
X4013435Y-2469265D01*
X797084Y-6950631D02*
X796203Y-6952916D01*
X7031105Y-509820D02*
X7033036Y-511327D01*
X2203585Y-4790020D02*
X2201583Y-4791430D01*
X6021621Y-4759675D02*
X6021084Y-4762065D01*
X507099Y-4775594D02*
X505892Y-4773463D01*
X6012760Y-4779665D02*
X6011253Y-4781596D01*
X502917Y-2816969D02*
X503798Y-2814684D01*
X6355669Y-9396763D02*
X6353384Y-9395882D01*
X8084713Y-2800269D02*
X8086313Y-2802124D01*
X2573661Y-8891400D02*
X2963552Y-8891400D01*
X6348957Y-4793948D02*
X6346826Y-4792741D01*
X7386695Y-5101989D02*
X7389055Y-5101335D01*
X516389Y-2470953D02*
X514615Y-2469265D01*
X8077465Y-6973900D02*
X8075463Y-6975310D01*
X757424Y-2784420D02*
X759837Y-2784839D01*
X7815884Y-6972393D02*
X7814029Y-6970793D01*
X3558352Y-526377D02*
X3559559Y-524246D01*
X3562280Y-779825D02*
X3560870Y-777823D01*
X7354197Y-5266751D02*
X7353429Y-5264425D01*
X4576644Y-2475470D02*
X4574575Y-2476781D01*
X3230283Y-508410D02*
X3232285Y-509820D01*
X7371455Y-5290020D02*
X7369524Y-5288513D01*
X2435735Y-5801801D02*
X2433322Y-5802220D01*
X8075463Y-9391270D02*
X8073394Y-9392581D01*
X530804Y-503798D02*
X533089Y-502917D01*
X2980685Y-8894433D02*
X2983009Y-8895349D01*
X4553813Y-7283960D02*
X4556244Y-7284260D01*
X537775Y-7285215D02*
X540165Y-7284679D01*
X6016688Y-4417937D02*
X6017789Y-4420125D01*
X7355078Y-769196D02*
X7354197Y-766911D01*
X500540Y-7326298D02*
X500959Y-7323885D01*
X2475900Y-5752859D02*
X2475840Y-5755308D01*
X4001737Y-7316809D02*
X4002618Y-7314524D01*
X7833055Y-2786029D02*
X7835415Y-2785375D01*
X4574575Y-2790979D02*
X4576645Y-2792290D01*
X6250474Y-1295821D02*
X6248343Y-1297028D01*
X7361100Y-5120015D02*
X7362607Y-5118084D01*
X6322580Y-9349779D02*
X6322580Y-8941301D01*
X775755Y-2790979D02*
X777825Y-2792290D01*
X8050188Y-4799780D02*
X8047739Y-4799840D01*
X7807460Y-2804055D02*
X7808967Y-2802124D01*
X6362745Y-4392519D02*
X6365158Y-4392100D01*
X6274720Y-800614D02*
X6274720Y-1253019D01*
X7815884Y-2472553D02*
X7814029Y-2470953D01*
X511327Y-9381436D02*
X509820Y-9379505D01*
X7797640Y-4599226D02*
X7797640Y-2833781D01*
X3585549Y-502917D02*
X3587875Y-502149D01*
X3247669Y-5128405D02*
X3248661Y-5130644D01*
X2556849Y-4796923D02*
X2554564Y-4796042D01*
X2205516Y-9388353D02*
X2203585Y-9389860D01*
X508410Y-2461703D02*
X507099Y-2459634D01*
X2561535Y-4393055D02*
X2563925Y-4392519D01*
X8079396Y-5111167D02*
X8081251Y-5112767D01*
X2536687Y-8907789D02*
X2538375Y-8906015D01*
X3553419Y-5259675D02*
X3553000Y-5257262D01*
X7018191Y-5102757D02*
X7020476Y-5103638D01*
X3592625Y-799041D02*
X3590235Y-798504D01*
X7361100Y-520175D02*
X7362607Y-518244D01*
X4027385Y-2788671D02*
X4029624Y-2787678D01*
X8096681Y-540165D02*
X8097100Y-542578D01*
X794109Y-2810257D02*
X795211Y-2812445D01*
X5608630Y-4398910D02*
X5610787Y-4397661D01*
X500000Y-5149741D02*
X500060Y-5147292D01*
X6337195Y-4406175D02*
X6338969Y-4404487D01*
X2535087Y-8909644D02*
X2536687Y-8907789D01*
X3249543Y-533089D02*
X3250311Y-535415D01*
X503798Y-9368876D02*
X502917Y-9366591D01*
X4592930Y-7310097D02*
X4594031Y-7312285D01*
X3999360Y-7326298D02*
X3999779Y-7323885D01*
X6018781Y-4422364D02*
X6019663Y-4424649D01*
X540165Y-6982761D02*
X537775Y-6982224D01*
X1816456Y-4395494D02*
X1818776Y-4394581D01*
X788675Y-2802124D02*
X790182Y-2804054D01*
X766912Y-7286637D02*
X769198Y-7287518D01*
X6016688Y-9373303D02*
X6015481Y-9375434D01*
X533089Y-6980803D02*
X530804Y-6979921D01*
X7810566Y-2800269D02*
X7812255Y-2798495D01*
X8066836Y-2787678D02*
X8069075Y-2788671D01*
X3555377Y-5132929D02*
X3556258Y-5130644D01*
X2550137Y-4793948D02*
X2548006Y-4792741D01*
X6017789Y-9371115D02*
X6016688Y-9373303D01*
X6328472Y-4417937D02*
X6329679Y-4415806D01*
X7022715Y-5295049D02*
X7020476Y-5296042D01*
X4591722Y-6959474D02*
X4590412Y-6961543D01*
X8097580Y-2436428D02*
X8097400Y-2438871D01*
X7382084Y-5103638D02*
X7384369Y-5102757D01*
X8047739Y-7283720D02*
X8050188Y-7283780D01*
X2993785Y-8901600D02*
X2995733Y-8903163D01*
X4597326Y-6945945D02*
X4596673Y-6948305D01*
X6360355Y-4798345D02*
X6357995Y-4797691D01*
X512926Y-6967331D02*
X511327Y-6965476D01*
X8092849Y-4771275D02*
X8091748Y-4773463D01*
X3998808Y-9099570D02*
X3998820Y-9099069D01*
X8091748Y-9373303D02*
X8090541Y-9375434D01*
X4572444Y-7289612D02*
X4574575Y-7290819D01*
X5991776Y-4796042D02*
X5989491Y-4796923D01*
X2207371Y-4786913D02*
X2205516Y-4788513D01*
X8071263Y-6977828D02*
X8069075Y-6978929D01*
X6329679Y-4775594D02*
X6328472Y-4773463D01*
X500540Y-5142418D02*
X500959Y-5140005D01*
X512926Y-2467491D02*
X511327Y-2465636D01*
X6337195Y-9385065D02*
X6335506Y-9383291D01*
X1800098Y-8906517D02*
X1801880Y-8904772D01*
X8064551Y-9396763D02*
X8062225Y-9397531D01*
X7049784Y-5137615D02*
X7050321Y-5140005D01*
X3587875Y-5101989D02*
X3590235Y-5101335D01*
X5998334Y-4792741D02*
X5996203Y-4793948D01*
X4034235Y-7285869D02*
X4036595Y-7285215D01*
X7806050Y-2806057D02*
X7807460Y-2804055D01*
X3234216Y-5288513D02*
X3232285Y-5290020D01*
X3205008Y-5299780D02*
X3202559Y-5299840D01*
X777825Y-7292130D02*
X779827Y-7293540D01*
X3251501Y-5259675D02*
X3250964Y-5262065D01*
X537775Y-501495D02*
X540165Y-500959D01*
X4592930Y-2810257D02*
X4594031Y-2812445D01*
X6007965Y-9385065D02*
X6006191Y-9386753D01*
X7352775Y-5262065D02*
X7352239Y-5259675D01*
X3252400Y-547452D02*
X3252460Y-549901D01*
X3553000Y-757422D02*
X3552700Y-754991D01*
X6348957Y-8897292D02*
X6351145Y-8896191D01*
X7051040Y-5254831D02*
X7050740Y-5257262D01*
X8062225Y-9397531D02*
X8059865Y-9398185D01*
X3599911Y-5099900D02*
X3602361Y-5099840D01*
X3245361Y-5275594D02*
X3244050Y-5277663D01*
X503798Y-5130644D02*
X504791Y-5128405D01*
X7797880Y-2438871D02*
X7797700Y-2436428D01*
X1801880Y-4404932D02*
X1803747Y-4403280D01*
X6324729Y-4426975D02*
X6325497Y-4424649D01*
X5629718Y-8891649D02*
X5632204Y-8891462D01*
X6241631Y-1300003D02*
X6239305Y-1300771D01*
X3602361Y-500000D02*
X7001379Y-500000D01*
X512926Y-7300109D02*
X514615Y-7298335D01*
X7835415Y-2785375D02*
X7837805Y-2784839D01*
X503798Y-2814684D02*
X504791Y-2812445D01*
X7033036Y-5111167D02*
X7034891Y-5112767D01*
X530804Y-7287518D02*
X533089Y-7286637D01*
X7351820Y-542578D02*
X7352239Y-540165D01*
X530804Y-6979921D02*
X528565Y-6978929D01*
X7815884Y-7295047D02*
X7817815Y-7293540D01*
X7050740Y-542578D02*
X7051040Y-545009D01*
X6022520Y-4752388D02*
X6022340Y-4754831D01*
X4020997Y-2475470D02*
X4018995Y-2474060D01*
X7364206Y-5283451D02*
X7362607Y-5281596D01*
X2223700Y-9352228D02*
X2223520Y-9354671D01*
X752550Y-2483820D02*
X750100Y-2483880D01*
X542578Y-9399140D02*
X540165Y-9398721D01*
X6327371Y-4420125D02*
X6328472Y-4417937D01*
X1823539Y-4393109D02*
X1825969Y-4392553D01*
X4570257Y-2788671D02*
X4572444Y-2789772D01*
X754992Y-6983480D02*
X752550Y-6983660D01*
X8094723Y-2816969D02*
X8095491Y-2819295D01*
X4003611Y-6955155D02*
X4002618Y-6952916D01*
X8096144Y-7321495D02*
X8096681Y-7323885D01*
X6239305Y-5800611D02*
X6236945Y-5801264D01*
X1809810Y-8898750D02*
X1811967Y-8897501D01*
X3557251Y-771435D02*
X3556258Y-769196D01*
X5994015Y-9394889D02*
X5991776Y-9395882D01*
X522177Y-2792290D02*
X524246Y-2790979D01*
X4001737Y-6950631D02*
X4000969Y-6948305D01*
X0Y-9899069D02*
X12Y-9899570D01*
X4580578Y-6972393D02*
X4578647Y-6973900D01*
X4029624Y-2480082D02*
X4027385Y-2479089D01*
X8091748Y-2457503D02*
X8090541Y-2459634D01*
X7808967Y-2802124D02*
X7810566Y-2800269D01*
X7039953Y-5281596D02*
X7038353Y-5283451D01*
X3998820Y-6933819D02*
X3998820Y-5300454D01*
X4597863Y-2824045D02*
X4598282Y-2826458D01*
X3246568Y-526377D02*
X3247669Y-528565D01*
X3567075Y-514615D02*
X3568849Y-512926D01*
X797085Y-2816969D02*
X797853Y-2819295D01*
X6348957Y-9393788D02*
X6346826Y-9392581D01*
X6777138Y-4393794D02*
X6779505Y-4394593D01*
X7803532Y-7310097D02*
X7804739Y-7307966D01*
X7799789Y-6948305D02*
X7799135Y-6945945D01*
X6367589Y-9399440D02*
X6365158Y-9399140D01*
X6325497Y-8924489D02*
X6326378Y-8922204D01*
X3237845Y-785385D02*
X3236071Y-787073D01*
X6985426Y-9099666D02*
X6986003Y-9099680D01*
X6338969Y-9386753D02*
X6337195Y-9385065D01*
X4596673Y-2448465D02*
X4595904Y-2450791D01*
X8096681Y-5140005D02*
X8097100Y-5142418D01*
X8057475Y-500959D02*
X8059865Y-501495D01*
X8084713Y-9383291D02*
X8083025Y-9385065D01*
X4585895Y-7300109D02*
X4587495Y-7301964D01*
X4598761Y-6936268D02*
X4598581Y-6938711D01*
X8059865Y-7285215D02*
X8062225Y-7285869D01*
X2223760Y-4441461D02*
X2223760Y-4749939D01*
X526377Y-505892D02*
X528565Y-504791D01*
X783612Y-2796806D02*
X785386Y-2798495D01*
X2430891Y-1302680D02*
X2428448Y-1302860D01*
X514615Y-2798495D02*
X516389Y-2796806D01*
X7046489Y-5271275D02*
X7045388Y-5273463D01*
X7810566Y-6967331D02*
X7808967Y-6965476D01*
X2449523Y-5796868D02*
X2447335Y-5797969D01*
X2475900Y-1253019D02*
X2475840Y-1255468D01*
X2475840Y-1255468D02*
X2475660Y-1257911D01*
X791592Y-7305897D02*
X792902Y-7307966D01*
X7812255Y-2469265D02*
X7810566Y-2467491D01*
X6353384Y-9395882D02*
X6351145Y-9394889D01*
X3590235Y-5101335D02*
X3592625Y-5100799D01*
X3562280Y-5279665D02*
X3560870Y-5277663D01*
X511327Y-7301964D02*
X512926Y-7300109D01*
X2548006Y-8898499D02*
X2550137Y-8897292D01*
X2213940Y-4779665D02*
X2212433Y-4781596D01*
X7051220Y-5147292D02*
X7051280Y-5149741D01*
X8057475Y-5100799D02*
X8059865Y-5101335D01*
X6779505Y-8894433D02*
X6781829Y-8895349D01*
X8094723Y-533089D02*
X8095491Y-535415D01*
X502917Y-5132929D02*
X503798Y-5130644D01*
X771437Y-2788671D02*
X773624Y-2789772D01*
X8064551Y-6980803D02*
X8062225Y-6981571D01*
X2523820Y-8938852D02*
X2524000Y-8936409D01*
X6327371Y-8919965D02*
X6328472Y-8917777D01*
X3219371Y-5296923D02*
X3217045Y-5297691D01*
X6273761Y-1262755D02*
X6273224Y-1265145D01*
X6330990Y-4413737D02*
X6332400Y-4411735D01*
X3567075Y-5114455D02*
X3568849Y-5112767D01*
X799042Y-6943555D02*
X798506Y-6945945D01*
X4000315Y-6945945D02*
X3999779Y-6943555D01*
X508410Y-522177D02*
X509820Y-520175D01*
X2536687Y-4783451D02*
X2535087Y-4781596D01*
X5600700Y-4404932D02*
X5602567Y-4403280D01*
X1825969Y-4392553D02*
X1828424Y-4392120D01*
X5977571Y-4391800D02*
X5980002Y-4392100D01*
X4598820Y-5803374D02*
X4598821Y-6933819D01*
X3241133Y-781756D02*
X3239533Y-783611D01*
X8081251Y-4786913D02*
X8079396Y-4788513D01*
X4587495Y-2465636D02*
X4585895Y-2467491D01*
X6270921Y-1272116D02*
X6269929Y-1274355D01*
X8062225Y-2786029D02*
X8064551Y-2786797D01*
X2552325Y-4795049D02*
X2550137Y-4793948D01*
X6326378Y-9368876D02*
X6325497Y-9366591D01*
X7806050Y-7305897D02*
X7807460Y-7303895D01*
X759836Y-2482921D02*
X757423Y-2483340D01*
X4584206Y-7298335D02*
X4585895Y-7300109D01*
X7382084Y-503798D02*
X7384369Y-502917D01*
X3219371Y-502917D02*
X3221656Y-503798D01*
X509820Y-2463705D02*
X508410Y-2461703D01*
X6342755Y-9389860D02*
X6340824Y-9388353D01*
X528565Y-6978929D02*
X526377Y-6977828D01*
X8052631Y-6983480D02*
X8050188Y-6983660D01*
X8047739Y-2483880D02*
X7847541Y-2483880D01*
X508410Y-6961543D02*
X507099Y-6959474D01*
X4036595Y-7285215D02*
X4038985Y-7284679D01*
X775755Y-6976621D02*
X773624Y-6977828D01*
X6322640Y-9352228D02*
X6322580Y-9349779D01*
X1811967Y-8897501D02*
X1814185Y-8896361D01*
X5982415Y-8892359D02*
X5984805Y-8892895D01*
X7045388Y-773623D02*
X7044181Y-775754D01*
X2221611Y-4764425D02*
X2220843Y-4766751D01*
X2183595Y-4392519D02*
X2185985Y-4393055D01*
X6021621Y-8931565D02*
X6022040Y-8933978D01*
X3581025Y-795209D02*
X3578837Y-794108D01*
X7358379Y-524246D02*
X7359690Y-522177D01*
X8084713Y-7300109D02*
X8086313Y-7301964D01*
X3234216Y-788673D02*
X3232285Y-790180D01*
X2530859Y-9375434D02*
X2529652Y-9373303D01*
X3249543Y-5132929D02*
X3250311Y-5135255D01*
X4595023Y-6952916D02*
X4594030Y-6955155D01*
X8071263Y-9393788D02*
X8069075Y-9394889D01*
X7826205Y-7288511D02*
X7828444Y-7287518D01*
X8087820Y-6963545D02*
X8086313Y-6965476D01*
X4580578Y-2795207D02*
X4582433Y-2796806D01*
X7048363Y-5132929D02*
X7049131Y-5135255D01*
X3244050Y-5122017D02*
X3245361Y-5124086D01*
X535415Y-2481731D02*
X533089Y-2480963D01*
X7050321Y-540165D02*
X7050740Y-542578D01*
X779827Y-6973900D02*
X777824Y-6975310D01*
X6370031Y-9399620D02*
X6367589Y-9399440D01*
X3553419Y-540165D02*
X3553955Y-537775D01*
X7046489Y-5128405D02*
X7047481Y-5130644D01*
X7046489Y-528565D02*
X7047481Y-530804D01*
X2524719Y-9359515D02*
X2524300Y-9357102D01*
X2212433Y-9381436D02*
X2210833Y-9383291D01*
X7835415Y-6982224D02*
X7833055Y-6981571D01*
X8079396Y-4788513D02*
X8077465Y-4790020D01*
X3999060Y-2438871D02*
X3998880Y-2436428D01*
X500959Y-540165D02*
X501495Y-537775D01*
X2535087Y-4409804D02*
X2536687Y-4407949D01*
X5977571Y-9399440D02*
X5975128Y-9399620D01*
X4011746Y-2467491D02*
X4010147Y-2465636D01*
X7391445Y-799041D02*
X7389055Y-798504D01*
X507099Y-7307966D02*
X508410Y-7305897D01*
X7049784Y-5262065D02*
X7049131Y-5264425D01*
X2530859Y-8915646D02*
X2532170Y-8913577D01*
X4020997Y-2792290D02*
X4023066Y-2790979D01*
X775755Y-2476781D02*
X773624Y-2477988D01*
X2201583Y-9391270D02*
X2199514Y-9392581D01*
X614Y-9899680D02*
X8597026Y-9899680D01*
X6362745Y-8892359D02*
X6365158Y-8891940D01*
X7799789Y-2819295D02*
X7800557Y-2816969D01*
X2533580Y-8911575D02*
X2535087Y-8909644D01*
X3251920Y-757422D02*
X3251501Y-759835D01*
X3237845Y-5285225D02*
X3236071Y-5286913D01*
X779827Y-2793700D02*
X781758Y-2795207D01*
X4036595Y-6982224D02*
X4034235Y-6981571D01*
X2438125Y-5801264D02*
X2435735Y-5801801D01*
X3570704Y-5288513D02*
X3568849Y-5286913D01*
X785386Y-7298335D02*
X787075Y-7300109D01*
X2523760Y-8941301D02*
X2523820Y-8938852D01*
X2966051Y-4391623D02*
X2968541Y-4391810D01*
X2538375Y-8906015D02*
X2540149Y-8904327D01*
X533089Y-2786797D02*
X535415Y-2786029D01*
X8047739Y-2783880D02*
X8050188Y-2783940D01*
X2985284Y-8896380D02*
X2987504Y-8897524D01*
X2987504Y-8897524D02*
X2989665Y-8898777D01*
X773624Y-7289612D02*
X775755Y-7290819D01*
X7826205Y-6978929D02*
X7824017Y-6977828D01*
X787075Y-6967331D02*
X785386Y-6969104D01*
X2542004Y-9388353D02*
X2540149Y-9386753D01*
X4025197Y-2789772D02*
X4027385Y-2788671D01*
X3576706Y-5106939D02*
X3578837Y-5105732D01*
X4568018Y-2787678D02*
X4570257Y-2788671D01*
X6362745Y-4798881D02*
X6360355Y-4798345D01*
X7804739Y-6959474D02*
X7803532Y-6957343D01*
X6322580Y-8941301D02*
X6322640Y-8938852D01*
X8069075Y-4795049D02*
X8066836Y-4796042D01*
X6767361Y-4391810D02*
X6769840Y-4392122D01*
X2526677Y-8924489D02*
X2527558Y-8922204D01*
X528565Y-2788671D02*
X530804Y-2787678D01*
X6274720Y-5300454D02*
X6274720Y-5752859D01*
X6022580Y-4441461D02*
X6022580Y-4749939D01*
X4043829Y-7283960D02*
X4046271Y-7283780D01*
X5627244Y-8891960D02*
X5629718Y-8891649D01*
X4007230Y-2461703D02*
X4005919Y-2459634D01*
X3998820Y-5300451D02*
X3998808Y-5299950D01*
X4548921Y-2783880D02*
X4551370Y-2783940D01*
X5987165Y-4797691D02*
X5984805Y-4798345D01*
X542578Y-500540D02*
X545009Y-500240D01*
X2223520Y-8936409D02*
X2223700Y-8938852D01*
X502149Y-6948305D02*
X501495Y-6945945D01*
X8077465Y-4790020D02*
X8075463Y-4791430D01*
X3242640Y-5279665D02*
X3241133Y-5281596D01*
X3555377Y-766911D02*
X3554609Y-764585D01*
X5411555Y-9099232D02*
X5598918Y-8906517D01*
X500060Y-5147292D02*
X500240Y-5144849D01*
X8087820Y-2463705D02*
X8086313Y-2465636D01*
X3552520Y-752548D02*
X3552460Y-750099D01*
X4563407Y-2481731D02*
X4561046Y-2482385D01*
X2540149Y-8904327D02*
X2542004Y-8902727D01*
X2973479Y-8892397D02*
X2975914Y-8892955D01*
X2433322Y-1302380D02*
X2430891Y-1302680D01*
X2571212Y-4391620D02*
X2573661Y-4391560D01*
X7389055Y-501495D02*
X7391445Y-500959D01*
X6360355Y-8892895D02*
X6362745Y-8892359D01*
X7001379Y-800000D02*
X6275334Y-800000D01*
X2222265Y-8929175D02*
X2222801Y-8931565D01*
X8047739Y-4799840D02*
X6372481Y-4799840D01*
X4002618Y-7314524D02*
X4003611Y-7312285D01*
X6274720Y-5752859D02*
X6274660Y-5755308D01*
X6004336Y-4402887D02*
X6006191Y-4404487D01*
X3567075Y-785385D02*
X3565386Y-783611D01*
X2559175Y-4797691D02*
X2556849Y-4796923D01*
X3251920Y-5142418D02*
X3252220Y-5144849D01*
X1828424Y-4392120D02*
X1830898Y-4391809D01*
X7373457Y-5291430D02*
X7371455Y-5290020D01*
X6351145Y-4795049D02*
X6348957Y-4793948D01*
X787075Y-2467491D02*
X785386Y-2469265D01*
X1821139Y-4393786D02*
X1823539Y-4393109D01*
X6019663Y-4766751D02*
X6018781Y-4769036D01*
X3999060Y-7328729D02*
X3999360Y-7326298D01*
X8089230Y-5122017D02*
X8090541Y-5124086D01*
X535415Y-502149D02*
X537775Y-501495D01*
X4031909Y-2786797D02*
X4034235Y-2786029D01*
X8050188Y-2783940D02*
X8052631Y-2784120D01*
X8077465Y-509820D02*
X8079396Y-511327D01*
X7352775Y-762225D02*
X7352239Y-759835D01*
X514615Y-2469265D02*
X512926Y-2467491D01*
X2223700Y-4439012D02*
X2223760Y-4441461D01*
X4598581Y-6938711D02*
X4598281Y-6941142D01*
X503798Y-6952916D02*
X502917Y-6950631D01*
X7049784Y-537775D02*
X7050321Y-540165D01*
X8059865Y-5101335D02*
X8062225Y-5101989D01*
X3247669Y-528565D02*
X3248661Y-530804D01*
X2195195Y-9394889D02*
X2192956Y-9395882D01*
X2524000Y-9354671D02*
X2523820Y-9352228D01*
X3252460Y-5249939D02*
X3252400Y-5252388D01*
X6323120Y-4757262D02*
X6322820Y-4754831D01*
X799042Y-2443715D02*
X798506Y-2446105D01*
X8097640Y-6933819D02*
X8097580Y-6936268D01*
X7382084Y-5296042D02*
X7379845Y-5295049D01*
X2199514Y-8898499D02*
X2201583Y-8899810D01*
X3567075Y-5285225D02*
X3565386Y-5283451D01*
X7038353Y-5283451D02*
X7036665Y-5285225D01*
X6794553Y-4403323D02*
X6796422Y-4404981D01*
X7842649Y-2483640D02*
X7840218Y-2483340D01*
X2223700Y-4752388D02*
X2223520Y-4754831D01*
X3999360Y-2826458D02*
X3999779Y-2824045D01*
X6355669Y-8894317D02*
X6357995Y-8893549D01*
X764587Y-7285869D02*
X766912Y-7286637D01*
X540165Y-2482921D02*
X537775Y-2482385D01*
X6344757Y-4399970D02*
X6346826Y-4398659D01*
X3572635Y-509820D02*
X3574637Y-508410D01*
X3214685Y-5298345D02*
X3212295Y-5298881D01*
X6000403Y-9391270D02*
X5998334Y-9392581D01*
X6273224Y-5764985D02*
X6272571Y-5767345D01*
X2475840Y-5755308D02*
X2475660Y-5757751D01*
X2527558Y-4769036D02*
X2526677Y-4766751D01*
X4598822Y-2833781D02*
X4598824Y-4599226D01*
X4007230Y-7305897D02*
X4008640Y-7303895D01*
X3207451Y-500240D02*
X3209882Y-500540D01*
X2207371Y-9386753D02*
X2205516Y-9388353D01*
X3221656Y-503798D02*
X3223895Y-504791D01*
X4598934Y-9099668D02*
X4599435Y-9099680D01*
X787075Y-2800269D02*
X788675Y-2802124D01*
X4563407Y-2786029D02*
X4565733Y-2786797D01*
X7047481Y-530804D02*
X7048363Y-533089D01*
X3557251Y-528565D02*
X3558352Y-526377D01*
X7837805Y-2784839D02*
X7840218Y-2784420D01*
X8084713Y-2467491D02*
X8083025Y-2469265D01*
X7351340Y-5147292D02*
X7351520Y-5144849D01*
X2181182Y-8891940D02*
X2183595Y-8892359D01*
X6234555Y-1301961D02*
X6232142Y-1302380D01*
X6360355Y-9398185D02*
X6357995Y-9397531D01*
X764586Y-2481731D02*
X762226Y-2482385D01*
X3251920Y-5257262D02*
X3251501Y-5259675D01*
X4008640Y-2804055D02*
X4010147Y-2802124D01*
X6986006Y-4599840D02*
X7797026Y-4599840D01*
X800002Y-2833781D02*
X800004Y-4599226D01*
X2563925Y-4798881D02*
X2561535Y-4798345D01*
X4031909Y-7286637D02*
X4034235Y-7285869D01*
X6258331Y-1289993D02*
X6256476Y-1291593D01*
X4597862Y-6943555D02*
X4597326Y-6945945D01*
X797853Y-2448465D02*
X797084Y-2450791D01*
X6246155Y-1298129D02*
X6243916Y-1299122D01*
X2183595Y-4798881D02*
X2181182Y-4799300D01*
X7039953Y-5118084D02*
X7041460Y-5120015D01*
X2445096Y-5798961D02*
X2442811Y-5799843D01*
X3592625Y-5100799D02*
X3595038Y-5100380D01*
X3251501Y-759835D02*
X3250964Y-762225D01*
X6250474Y-5795661D02*
X6248343Y-5796868D01*
X8055062Y-9399140D02*
X8052631Y-9399440D01*
X8083025Y-7298335D02*
X8084713Y-7300109D01*
X7806050Y-6961543D02*
X7804739Y-6959474D01*
X6009653Y-9383291D02*
X6007965Y-9385065D01*
X2457656Y-1291593D02*
X2455725Y-1293100D01*
X2213940Y-9379505D02*
X2212433Y-9381436D01*
X3998820Y-9099066D02*
X3998820Y-7333621D01*
X2216661Y-4775594D02*
X2215350Y-4777663D01*
X4020997Y-6975310D02*
X4018995Y-6973900D01*
X3226083Y-505892D02*
X3228214Y-507099D01*
X7797628Y-9099570D02*
X7797640Y-9099069D01*
X524246Y-4792741D02*
X522177Y-4791430D01*
X5984805Y-9398185D02*
X5982415Y-9398721D01*
X8097400Y-7328729D02*
X8097580Y-7331171D01*
X2428448Y-1302860D02*
X2425999Y-1302920D01*
X6022040Y-4757262D02*
X6021621Y-4759675D01*
X7801438Y-7314524D02*
X7802431Y-7312285D01*
X796203Y-6952916D02*
X795210Y-6955155D01*
X5617596Y-8894421D02*
X5619959Y-8893626D01*
X3202559Y-800000D02*
X2476514Y-800000D01*
X3221656Y-5296042D02*
X3219371Y-5296923D01*
X549901Y-6983720D02*
X547452Y-6983660D01*
X6337195Y-4785225D02*
X6335506Y-4783451D01*
X514615Y-7298335D02*
X516389Y-7296646D01*
X512926Y-516389D02*
X514615Y-514615D01*
X7398731Y-799940D02*
X7396289Y-799760D01*
X2471109Y-1274355D02*
X2470008Y-1276543D01*
X3560870Y-5277663D02*
X3559559Y-5275594D01*
X7808967Y-7301964D02*
X7810566Y-7300109D01*
X3241133Y-5118084D02*
X3242640Y-5120015D01*
X2525909Y-9364265D02*
X2525255Y-9361905D01*
X2550137Y-9393788D02*
X2548006Y-9392581D01*
X3597469Y-799760D02*
X3595038Y-799460D01*
X6006191Y-9386753D02*
X6004336Y-9388353D01*
X6324075Y-8929175D02*
X6324729Y-8926815D01*
X7393858Y-5100380D02*
X7396289Y-5100080D01*
X777824Y-6975310D02*
X775755Y-6976621D01*
X2545937Y-4399970D02*
X2548006Y-4398659D01*
X2219962Y-4769036D02*
X2218969Y-4771275D01*
X6261793Y-5786371D02*
X6260105Y-5788145D01*
X8047739Y-5099840D02*
X8050188Y-5099900D01*
X3246568Y-5126217D02*
X3247669Y-5128405D01*
X6015481Y-4415806D02*
X6016688Y-4417937D01*
X8096144Y-4762065D02*
X8095491Y-4764425D01*
X2457656Y-5791433D02*
X2455725Y-5792940D01*
X8097580Y-7331171D02*
X8097640Y-7333621D01*
X4598824Y-4599229D02*
X4598836Y-4599730D01*
X8091748Y-7310097D02*
X8092849Y-7312285D01*
X7015865Y-797851D02*
X7013505Y-798504D01*
X8059865Y-501495D02*
X8062225Y-502149D01*
X6021084Y-4429335D02*
X6021621Y-4431725D01*
X4587495Y-6965476D02*
X4585895Y-6967331D01*
X6355669Y-4796923D02*
X6353384Y-4796042D01*
X7351820Y-757422D02*
X7351520Y-754991D01*
X8083025Y-4785225D02*
X8081251Y-4786913D01*
X3578837Y-794108D02*
X3576706Y-792901D01*
X7357172Y-5273463D02*
X7356071Y-5271275D01*
X3221656Y-796201D02*
X3219371Y-797083D01*
X795210Y-2455315D02*
X794109Y-2457503D01*
X500060Y-6936268D02*
X500000Y-6933819D01*
X3202559Y-500000D02*
X3205008Y-500060D01*
X3230283Y-5291430D02*
X3228214Y-5292741D01*
X8096681Y-6943555D02*
X8096144Y-6945945D01*
X6016688Y-8917777D02*
X6017789Y-8919965D01*
X6367589Y-4799600D02*
X6365158Y-4799300D01*
X528565Y-5104631D02*
X530804Y-5103638D01*
X797085Y-7316809D02*
X797853Y-7319135D01*
X3207451Y-5299600D02*
X3205008Y-5299780D01*
X2468801Y-1278674D02*
X2467490Y-1280743D01*
X7045388Y-5273463D02*
X7044181Y-5275594D01*
X6017789Y-4420125D02*
X6018781Y-4422364D01*
X500000Y-2833781D02*
X500060Y-2831331D01*
X7361100Y-779825D02*
X7359690Y-777823D01*
X2173859Y-9399680D02*
X549901Y-9399680D01*
X7814029Y-2796806D02*
X7815884Y-2795207D01*
X2978318Y-4393794D02*
X2980685Y-4394593D01*
X8087820Y-520175D02*
X8089230Y-522177D01*
X522177Y-4791430D02*
X520175Y-4790020D01*
X3999779Y-6943555D02*
X3999360Y-6941142D01*
X8052631Y-5100080D02*
X8055062Y-5100380D01*
X4556244Y-2784420D02*
X4558657Y-2784839D01*
X777825Y-2792290D02*
X779827Y-2793700D01*
X4031909Y-6980803D02*
X4029624Y-6979921D01*
X3186126Y-9099232D02*
X3186538Y-9099637D01*
X2459511Y-1289993D02*
X2457656Y-1291593D01*
X502917Y-6950631D02*
X502149Y-6948305D01*
X6365158Y-4799300D02*
X6362745Y-4798881D01*
X4010147Y-2802124D02*
X4011746Y-2800269D01*
X1833384Y-8891462D02*
X1835878Y-8891400D01*
X2425999Y-5802760D02*
X800614Y-5802760D01*
X545009Y-2483640D02*
X542578Y-2483340D01*
X7401181Y-800000D02*
X7398731Y-799940D01*
X7051220Y-547452D02*
X7051280Y-549901D01*
X6325497Y-4766751D02*
X6324729Y-4764425D01*
X3554609Y-5135255D02*
X3555377Y-5132929D01*
X2190671Y-9396763D02*
X2188345Y-9397531D01*
X3242640Y-520175D02*
X3244050Y-522177D01*
X2573661Y-9399680D02*
X2571212Y-9399620D01*
X6002405Y-9389860D02*
X6000403Y-9391270D01*
X2178751Y-4799600D02*
X2176308Y-4799780D01*
X4580578Y-7295047D02*
X4582433Y-7296646D01*
X6243916Y-5798961D02*
X6241631Y-5799843D01*
X800002Y-7333621D02*
X800004Y-9099066D01*
X4563407Y-7285869D02*
X4565733Y-7286637D01*
X522177Y-9391270D02*
X520175Y-9389860D01*
X7047481Y-5130644D02*
X7048363Y-5132929D01*
X3553000Y-5142418D02*
X3553419Y-5140005D01*
X4599437Y-9099680D02*
X5410495Y-9099680D01*
X6348957Y-4397452D02*
X6351145Y-4396351D01*
X4596673Y-6948305D02*
X4595904Y-6950631D01*
X2991760Y-4400297D02*
X2993785Y-4401760D01*
X4598282Y-2826458D02*
X4598581Y-2828889D01*
X2428448Y-5802700D02*
X2425999Y-5802760D01*
X8073394Y-4792741D02*
X8071263Y-4793948D01*
X7352775Y-5137615D02*
X7353429Y-5135255D01*
X3574637Y-5108250D02*
X3576706Y-5106939D01*
X511327Y-2802124D02*
X512926Y-2800269D01*
X8050188Y-5099900D02*
X8052631Y-5100080D01*
X8090541Y-9375434D02*
X8089230Y-9377503D01*
X7020476Y-5296042D02*
X7018191Y-5296923D01*
X547452Y-500060D02*
X549901Y-500000D01*
X2566338Y-4799300D02*
X2563925Y-4798881D01*
X7024903Y-505892D02*
X7027034Y-507099D01*
X500240Y-2438871D02*
X500060Y-2436428D01*
X500000Y-9349779D02*
X500000Y-7333621D01*
X7379845Y-5295049D02*
X7377657Y-5293948D01*
X3239533Y-5116229D02*
X3241133Y-5118084D01*
X6271803Y-1269831D02*
X6270921Y-1272116D01*
X7051220Y-5252388D02*
X7051040Y-5254831D01*
X500959Y-5140005D02*
X501495Y-5137615D01*
X8097100Y-2826458D02*
X8097400Y-2828889D01*
X503798Y-7314524D02*
X504791Y-7312285D01*
X6260105Y-1288305D02*
X6258331Y-1289993D01*
X509820Y-520175D02*
X511327Y-518244D01*
X791592Y-2806057D02*
X792902Y-2808126D01*
X2554564Y-9395882D02*
X2552325Y-9394889D01*
X4038985Y-6982761D02*
X4036595Y-6982224D01*
X2545937Y-8899810D02*
X2548006Y-8898499D01*
X7810566Y-2467491D02*
X7808967Y-2465636D01*
X4598822Y-7333621D02*
X4598824Y-9099066D01*
X518244Y-4788513D02*
X516389Y-4786913D01*
X4038985Y-2482921D02*
X4036595Y-2482385D01*
X8090541Y-7307966D02*
X8091748Y-7310097D01*
X4580578Y-2472553D02*
X4578647Y-2474060D01*
X3223895Y-5295049D02*
X3221656Y-5296042D01*
X3247669Y-771435D02*
X3246568Y-773623D01*
X7798599Y-6943555D02*
X7798180Y-6941142D01*
X8064551Y-2786797D02*
X8066836Y-2787678D01*
X4003611Y-2812445D02*
X4004712Y-2810257D01*
X2213940Y-8911575D02*
X2215350Y-8913577D01*
X7826205Y-2479089D02*
X7824017Y-2477988D01*
X7371455Y-5109660D02*
X7373457Y-5108250D01*
X507099Y-9375434D02*
X505892Y-9373303D01*
X3572635Y-5109660D02*
X3574637Y-5108250D01*
X4578647Y-2474060D02*
X4576644Y-2475470D01*
X6764871Y-8891463D02*
X6767361Y-8891650D01*
X1612322Y-4599797D02*
X1612734Y-4599394D01*
X6362745Y-9398721D02*
X6360355Y-9398185D01*
X5411142Y-4599797D02*
X5411554Y-4599394D01*
X3998206Y-5299840D02*
X3602361Y-5299840D01*
X7049131Y-5135255D02*
X7049784Y-5137615D01*
X502149Y-9364265D02*
X501495Y-9361905D01*
X4018995Y-2793700D02*
X4020997Y-2792290D01*
X4582433Y-2796806D02*
X4584206Y-2798495D01*
X6324075Y-9361905D02*
X6323539Y-9359515D01*
X2545937Y-9391270D02*
X2543935Y-9389860D01*
X7355078Y-5130644D02*
X7356071Y-5128405D01*
X7804739Y-2808126D02*
X7806050Y-2806057D01*
X6275331Y-5299840D02*
X6274830Y-5299852D01*
X6267621Y-5778514D02*
X6266310Y-5780583D01*
X5622359Y-8892949D02*
X5624789Y-8892393D01*
X2525909Y-4426975D02*
X2526677Y-4424649D01*
X6021084Y-4762065D02*
X6020431Y-4764425D01*
X3556258Y-769196D02*
X3555377Y-766911D01*
X2524000Y-8936409D02*
X2524300Y-8933978D01*
X533089Y-7286637D02*
X535415Y-7285869D01*
X2524300Y-4434138D02*
X2524719Y-4431725D01*
X3585549Y-797083D02*
X3583264Y-796201D01*
X6002405Y-8901220D02*
X6004336Y-8902727D01*
X6000403Y-8899810D02*
X6002405Y-8901220D01*
X762226Y-7285215D02*
X764587Y-7285869D01*
X2218969Y-4771275D02*
X2217868Y-4773463D01*
X2523820Y-4752388D02*
X2523760Y-4749939D01*
X3251501Y-5140005D02*
X3251920Y-5142418D01*
X6014170Y-4413737D02*
X6015481Y-4415806D01*
X530804Y-5103638D02*
X533089Y-5102757D01*
X4551370Y-2783940D02*
X4553813Y-2784120D01*
X6248343Y-1297028D02*
X6246155Y-1298129D01*
X8090541Y-4775594D02*
X8089230Y-4777663D01*
X6322820Y-8936409D02*
X6323120Y-8933978D01*
X2462973Y-1286531D02*
X2461285Y-1288305D01*
X8097400Y-545009D02*
X8097580Y-547452D01*
X6022520Y-8938852D02*
X6022580Y-8941301D01*
X6022040Y-8933978D02*
X6022340Y-8936409D01*
X4004712Y-6957343D02*
X4003611Y-6955155D01*
X8077465Y-7293540D02*
X8079396Y-7295047D01*
X511327Y-518244D02*
X512926Y-516389D01*
X5972679Y-9399680D02*
X2573661Y-9399680D01*
X800611Y-1302920D02*
X800110Y-1302932D01*
X7044181Y-5275594D02*
X7042870Y-5277663D01*
X524246Y-6976621D02*
X522177Y-6975310D01*
X7797640Y-9099066D02*
X7797640Y-7333621D01*
X7365895Y-5114455D02*
X7367669Y-5112767D01*
X3998820Y-2433979D02*
X3998820Y-800614D01*
X7357172Y-5126217D02*
X7358379Y-5124086D01*
X5989491Y-9396763D02*
X5987165Y-9397531D01*
X7797530Y-800012D02*
X7797029Y-800000D01*
X5634698Y-4391560D02*
X5972679Y-4391560D01*
X6022520Y-9352228D02*
X6022340Y-9354671D01*
X526377Y-9393788D02*
X524246Y-9392581D01*
X8097580Y-5147292D02*
X8097640Y-5149741D01*
X2538375Y-9385065D02*
X2536687Y-9383291D01*
X504791Y-5128405D02*
X505892Y-5126217D01*
X5600700Y-8904772D02*
X5602567Y-8903120D01*
X2475912Y-800110D02*
X2475900Y-800611D01*
X7027034Y-5106939D02*
X7029103Y-5108250D01*
X2559175Y-9397531D02*
X2556849Y-9396763D01*
X4574575Y-2476781D02*
X4572444Y-2477988D01*
X3249543Y-5266751D02*
X3248661Y-5269036D01*
X501495Y-2446105D02*
X500959Y-2443715D01*
X5634698Y-8891400D02*
X5972679Y-8891400D01*
X8097100Y-9357102D02*
X8096681Y-9359515D01*
X8057475Y-7284679D02*
X8059865Y-7285215D01*
X547452Y-6983660D02*
X545009Y-6983480D01*
X3244050Y-777823D02*
X3242640Y-779825D01*
X7006271Y-799760D02*
X7003828Y-799940D01*
X6346826Y-4398659D02*
X6348957Y-4397452D01*
X3223895Y-504791D02*
X3226083Y-505892D01*
X8057475Y-9398721D02*
X8055062Y-9399140D01*
X6229711Y-1302680D02*
X6227268Y-1302860D01*
X7821886Y-2790979D02*
X7824017Y-2789772D01*
X2209145Y-4785225D02*
X2207371Y-4786913D01*
X4561046Y-2785375D02*
X4563407Y-2786029D01*
X792902Y-2459634D02*
X791592Y-2461703D01*
X8075463Y-2475470D02*
X8073394Y-2476781D01*
X549901Y-2483880D02*
X547452Y-2483820D01*
X2563925Y-9398721D02*
X2561535Y-9398185D01*
X2223520Y-9354671D02*
X2223220Y-9357102D01*
X511327Y-6965476D02*
X509820Y-6963545D01*
X3217045Y-797851D02*
X3214685Y-798504D01*
X5606537Y-4400265D02*
X5608630Y-4398910D01*
X2968541Y-8891650D02*
X2971020Y-8891962D01*
X2205516Y-4788513D02*
X2203585Y-4790020D01*
X2221611Y-4426975D02*
X2222265Y-4429335D01*
X7386695Y-502149D02*
X7389055Y-501495D01*
X3597469Y-5100080D02*
X3599911Y-5099900D01*
X7797700Y-2831331D02*
X7797880Y-2828889D01*
X7799789Y-2448465D02*
X7799135Y-2446105D01*
X781758Y-7295047D02*
X783612Y-7296646D01*
X2217868Y-8917777D02*
X2218969Y-8919965D01*
X2474941Y-5762595D02*
X2474405Y-5764985D01*
X6788485Y-4398937D02*
X6790580Y-4400297D01*
X7351820Y-5257262D02*
X7351520Y-5254831D01*
X6022040Y-4434138D02*
X6022340Y-4436569D01*
X4553813Y-2784120D02*
X4556244Y-2784420D01*
X7369524Y-788673D02*
X7367669Y-787073D01*
X8077465Y-5109660D02*
X8079396Y-5111167D01*
X508410Y-4777663D02*
X507099Y-4775594D01*
X6011253Y-4409804D02*
X6012760Y-4411735D01*
X2181182Y-4799300D02*
X2178751Y-4799600D01*
X508410Y-2806057D02*
X509820Y-2804055D01*
X7798180Y-6941142D02*
X7797880Y-6938711D01*
X6020431Y-8926815D02*
X6021084Y-8929175D01*
X8062225Y-5101989D02*
X8064551Y-5102757D01*
X7819817Y-2792290D02*
X7821886Y-2790979D01*
X2223220Y-4757262D02*
X2222801Y-4759675D01*
X514615Y-5114455D02*
X516389Y-5112767D01*
X6357995Y-4393709D02*
X6360355Y-4393055D01*
X769197Y-6979921D02*
X766912Y-6980803D01*
X2529652Y-4773463D02*
X2528551Y-4771275D01*
X3214685Y-5101335D02*
X3217045Y-5101989D01*
X8073394Y-9392581D02*
X8071263Y-9393788D01*
X3560870Y-777823D02*
X3559559Y-775754D01*
X6327371Y-9371115D02*
X6326378Y-9368876D01*
X8097640Y-549901D02*
X8097640Y-2433979D01*
X8079396Y-511327D02*
X8081251Y-512926D01*
X800012Y-5802870D02*
X800000Y-5803371D01*
X4025197Y-7289612D02*
X4027385Y-7288511D01*
X2533580Y-9379505D02*
X2532170Y-9377503D01*
X2192956Y-8895198D02*
X2195195Y-8896191D01*
X6325497Y-9366591D02*
X6324729Y-9364265D01*
X759836Y-6982761D02*
X757423Y-6983180D01*
X2176308Y-9399620D02*
X2173859Y-9399680D01*
X8097640Y-2833781D02*
X8097640Y-4749939D01*
X790181Y-6963545D02*
X788674Y-6965476D01*
X3252460Y-5149741D02*
X3252460Y-5249939D01*
X7396289Y-5299600D02*
X7393858Y-5299300D01*
X7401181Y-500000D02*
X8047739Y-500000D01*
X502149Y-535415D02*
X502917Y-533089D01*
X8097640Y-4749939D02*
X8097580Y-4752388D01*
X5991776Y-4395358D02*
X5994015Y-4396351D01*
X3998880Y-6936268D02*
X3998820Y-6933819D01*
X7367669Y-512926D02*
X7369524Y-511327D01*
X1816456Y-8895334D02*
X1818776Y-8894421D01*
X8097400Y-2828889D02*
X8097580Y-2831331D01*
X5996203Y-4793948D02*
X5994015Y-4795049D01*
X7359690Y-777823D02*
X7358379Y-775754D01*
X4599431Y-5802760D02*
X4598930Y-5802772D01*
X2563925Y-8892359D02*
X2566338Y-8891940D01*
X8083025Y-6969105D02*
X8081251Y-6970793D01*
X3230283Y-791590D02*
X3228214Y-792901D01*
X6333907Y-9381436D02*
X6332400Y-9379505D01*
D11*
D10*
X1241160Y-2695080D02*
X1271160Y-2725080D01*
X1271160Y-2695080D02*
X1241160Y-2725080D01*
X1241160Y-7194920D02*
X1271160Y-7224920D01*
X1271160Y-7194920D02*
X1241160Y-7224920D01*
X1262560Y-1649680D02*
X1292560Y-1679680D01*
X1292560Y-1649680D02*
X1262560Y-1679680D01*
X1262560Y-6149520D02*
X1292560Y-6179520D01*
X1292560Y-6149520D02*
X1262560Y-6179520D01*
X1291960Y-2491880D02*
X1321960Y-2521880D01*
X1321960Y-2491880D02*
X1291960Y-2521880D01*
X1291960Y-6991720D02*
X1321960Y-7021720D01*
X1321960Y-6991720D02*
X1291960Y-7021720D01*
X1368160Y-2034680D02*
X1398160Y-2064680D01*
X1398160Y-2034680D02*
X1368160Y-2064680D01*
X1368160Y-6534520D02*
X1398160Y-6564520D01*
X1398160Y-6534520D02*
X1368160Y-6564520D01*
X1393560Y-1958480D02*
X1423560Y-1988480D01*
X1423560Y-1958480D02*
X1393560Y-1988480D01*
X1393560Y-6458320D02*
X1423560Y-6488320D01*
X1423560Y-6458320D02*
X1393560Y-6488320D01*
X1539257Y-2503663D02*
X1569257Y-2533663D01*
X1569257Y-2503663D02*
X1539257Y-2533663D01*
X1539257Y-7003503D02*
X1569257Y-7033503D01*
X1569257Y-7003503D02*
X1539257Y-7033503D01*
X1624863Y-2504416D02*
X1654863Y-2534416D01*
X1654863Y-2504416D02*
X1624863Y-2534416D01*
X1624863Y-7004256D02*
X1654863Y-7034256D01*
X1654863Y-7004256D02*
X1624863Y-7034256D01*
X1733920Y-2507120D02*
X1763920Y-2537120D01*
X1763920Y-2507120D02*
X1733920Y-2537120D01*
X1733920Y-7006960D02*
X1763920Y-7036960D01*
X1763920Y-7006960D02*
X1733920Y-7036960D01*
X1835520Y-2502040D02*
X1865520Y-2532040D01*
X1865520Y-2502040D02*
X1835520Y-2532040D01*
X1835520Y-7001880D02*
X1865520Y-7031880D01*
X1865520Y-7001880D02*
X1835520Y-7031880D01*
X1980300Y-2494420D02*
X2010300Y-2524420D01*
X2010300Y-2494420D02*
X1980300Y-2524420D01*
X1980300Y-6994260D02*
X2010300Y-7024260D01*
X2010300Y-6994260D02*
X1980300Y-7024260D01*
X2079360Y-2187080D02*
X2109360Y-2217080D01*
X2109360Y-2187080D02*
X2079360Y-2217080D01*
X2079360Y-6686920D02*
X2109360Y-6716920D01*
X2109360Y-6686920D02*
X2079360Y-6716920D01*
X2109840Y-3477400D02*
X2139840Y-3507400D01*
X2139840Y-3477400D02*
X2109840Y-3507400D01*
X2109840Y-7977240D02*
X2139840Y-8007240D01*
X2139840Y-7977240D02*
X2109840Y-8007240D01*
X2180860Y-1898380D02*
X2210860Y-1928380D01*
X2210860Y-1898380D02*
X2180860Y-1928380D01*
X2180860Y-6398220D02*
X2210860Y-6428220D01*
X2210860Y-6398220D02*
X2180860Y-6428220D01*
X2180960Y-2237880D02*
X2210960Y-2267880D01*
X2210960Y-2237880D02*
X2180960Y-2267880D01*
X2180960Y-6737720D02*
X2210960Y-6767720D01*
X2210960Y-6737720D02*
X2180960Y-6767720D01*
X2184087Y-2488754D02*
X2214087Y-2518754D01*
X2214087Y-2488754D02*
X2184087Y-2518754D01*
X2184087Y-6988593D02*
X2214087Y-7018593D01*
X2214087Y-6988593D02*
X2184087Y-7018593D01*
X2227489Y-3486198D02*
X2257489Y-3516198D01*
X2257489Y-3486198D02*
X2227489Y-3516198D01*
X2227489Y-7986038D02*
X2257489Y-8016038D01*
X2257489Y-7986038D02*
X2227489Y-8016038D01*
X2228160Y-1809680D02*
X2258160Y-1839680D01*
X2258160Y-1809680D02*
X2228160Y-1839680D01*
X2228160Y-6309520D02*
X2258160Y-6339520D01*
X2258160Y-6309520D02*
X2228160Y-6339520D01*
X2302880Y-3512960D02*
X2332880Y-3542960D01*
X2332880Y-3512960D02*
X2302880Y-3542960D01*
X2302880Y-8012800D02*
X2332880Y-8042800D01*
X2332880Y-8012800D02*
X2302880Y-8042800D01*
X2358760Y-2771280D02*
X2388760Y-2801280D01*
X2388760Y-2771280D02*
X2358760Y-2801280D01*
X2358760Y-7271120D02*
X2388760Y-7301120D01*
X2388760Y-7271120D02*
X2358760Y-7301120D01*
X2384160Y-3533280D02*
X2414160Y-3563280D01*
X2414160Y-3533280D02*
X2384160Y-3563280D01*
X2384160Y-8033120D02*
X2414160Y-8063120D01*
X2414160Y-8033120D02*
X2384160Y-8063120D01*
X2460360Y-1653680D02*
X2490360Y-1683680D01*
X2490360Y-1653680D02*
X2460360Y-1683680D01*
X2460360Y-2157780D02*
X2490360Y-2187780D01*
X2490360Y-2157780D02*
X2460360Y-2187780D01*
X2460360Y-2263280D02*
X2490360Y-2293280D01*
X2490360Y-2263280D02*
X2460360Y-2293280D01*
X2460360Y-6153520D02*
X2490360Y-6183520D01*
X2490360Y-6153520D02*
X2460360Y-6183520D01*
X2460360Y-6657620D02*
X2490360Y-6687620D01*
X2490360Y-6657620D02*
X2460360Y-6687620D01*
X2460360Y-6763120D02*
X2490360Y-6793120D01*
X2490360Y-6763120D02*
X2460360Y-6793120D01*
X2480680Y-3538360D02*
X2510680Y-3568360D01*
X2510680Y-3538360D02*
X2480680Y-3568360D01*
X2480680Y-8038200D02*
X2510680Y-8068200D01*
X2510680Y-8038200D02*
X2480680Y-8068200D01*
X2556880Y-3512960D02*
X2586880Y-3542960D01*
X2586880Y-3512960D02*
X2556880Y-3542960D01*
X2556880Y-8012800D02*
X2586880Y-8042800D01*
X2586880Y-8012800D02*
X2556880Y-8042800D01*
X2633080Y-3487560D02*
X2663080Y-3517560D01*
X2663080Y-3487560D02*
X2633080Y-3517560D01*
X2633080Y-7987400D02*
X2663080Y-8017400D01*
X2663080Y-7987400D02*
X2633080Y-8017400D01*
X2663560Y-1898480D02*
X2693560Y-1928480D01*
X2693560Y-1898480D02*
X2663560Y-1928480D01*
X2663560Y-6398320D02*
X2693560Y-6428320D01*
X2693560Y-6398320D02*
X2663560Y-6428320D01*
X2749920Y-3761880D02*
X2779920Y-3791880D01*
X2779920Y-3761880D02*
X2749920Y-3791880D01*
X2749920Y-8261720D02*
X2779920Y-8291720D01*
X2779920Y-8261720D02*
X2749920Y-8291720D01*
X2912480Y-2801760D02*
X2942480Y-2831760D01*
X2942480Y-2801760D02*
X2912480Y-2831760D01*
X2912480Y-7301600D02*
X2942480Y-7331600D01*
X2942480Y-7301600D02*
X2912480Y-7331600D01*
X3069960Y-2376278D02*
X3099960Y-2406278D01*
X3099960Y-2376278D02*
X3069960Y-2406278D01*
X3069960Y-6876117D02*
X3099960Y-6906117D01*
X3099960Y-6876117D02*
X3069960Y-6906117D01*
X3095360Y-2288680D02*
X3125360Y-2318680D01*
X3125360Y-2288680D02*
X3095360Y-2318680D01*
X3095360Y-6788520D02*
X3125360Y-6818520D01*
X3125360Y-6788520D02*
X3095360Y-6818520D01*
X3290186Y-1509653D02*
X3320186Y-1539653D01*
X3320186Y-1509653D02*
X3290186Y-1539653D01*
X3290186Y-6009493D02*
X3320186Y-6039493D01*
X3320186Y-6009493D02*
X3290186Y-6039493D01*
X3427227Y-1341380D02*
X3457227Y-1371380D01*
X3457227Y-1341380D02*
X3427227Y-1371380D01*
X3427227Y-5841220D02*
X3457227Y-5871220D01*
X3457227Y-5841220D02*
X3427227Y-5871220D01*
X3430640Y-3970160D02*
X3460640Y-4000160D01*
X3460640Y-3970160D02*
X3430640Y-4000160D01*
X3430640Y-8470000D02*
X3460640Y-8500000D01*
X3460640Y-8470000D02*
X3430640Y-8500000D01*
X3450960Y-2745880D02*
X3480960Y-2775880D01*
X3480960Y-2745880D02*
X3450960Y-2775880D01*
X3450960Y-7245720D02*
X3480960Y-7275720D01*
X3480960Y-7245720D02*
X3450960Y-7275720D01*
X3457826Y-3633093D02*
X3487826Y-3663093D01*
X3487826Y-3633093D02*
X3457826Y-3663093D01*
X3457826Y-8132933D02*
X3487826Y-8162933D01*
X3487826Y-8132933D02*
X3457826Y-8162933D01*
X3458160Y-3718280D02*
X3488160Y-3748280D01*
X3488160Y-3718280D02*
X3458160Y-3748280D01*
X3458160Y-8218120D02*
X3488160Y-8248120D01*
X3488160Y-8218120D02*
X3458160Y-8248120D01*
X3577960Y-1907680D02*
X3607960Y-1937680D01*
X3607960Y-1907680D02*
X3577960Y-1937680D01*
X3577960Y-6407520D02*
X3607960Y-6437520D01*
X3607960Y-6407520D02*
X3577960Y-6437520D01*
X3628907Y-3787923D02*
X3658907Y-3817923D01*
X3658907Y-3787923D02*
X3628907Y-3817923D01*
X3628907Y-8287763D02*
X3658907Y-8317763D01*
X3658907Y-8287763D02*
X3628907Y-8317763D01*
X3694800Y-1089800D02*
X3724800Y-1119800D01*
X3724800Y-1089800D02*
X3694800Y-1119800D01*
X3694800Y-5589640D02*
X3724800Y-5619640D01*
X3724800Y-5589640D02*
X3694800Y-5619640D01*
X3750295Y-4356933D02*
X3780295Y-4386933D01*
X3780295Y-4356933D02*
X3750295Y-4386933D01*
X3750295Y-8856773D02*
X3780295Y-8886773D01*
X3780295Y-8856773D02*
X3750295Y-8886773D01*
X5039980Y-2695080D02*
X5069980Y-2725080D01*
X5069980Y-2695080D02*
X5039980Y-2725080D01*
X5039980Y-7194920D02*
X5069980Y-7224920D01*
X5069980Y-7194920D02*
X5039980Y-7224920D01*
X5061380Y-1649680D02*
X5091380Y-1679680D01*
X5091380Y-1649680D02*
X5061380Y-1679680D01*
X5061380Y-6149520D02*
X5091380Y-6179520D01*
X5091380Y-6149520D02*
X5061380Y-6179520D01*
X5090780Y-2491880D02*
X5120780Y-2521880D01*
X5120780Y-2491880D02*
X5090780Y-2521880D01*
X5090780Y-6991720D02*
X5120780Y-7021720D01*
X5120780Y-6991720D02*
X5090780Y-7021720D01*
X5166980Y-2034680D02*
X5196980Y-2064680D01*
X5196980Y-2034680D02*
X5166980Y-2064680D01*
X5166980Y-6534520D02*
X5196980Y-6564520D01*
X5196980Y-6534520D02*
X5166980Y-6564520D01*
X5192380Y-1958480D02*
X5222380Y-1988480D01*
X5222380Y-1958480D02*
X5192380Y-1988480D01*
X5192380Y-6458320D02*
X5222380Y-6488320D01*
X5222380Y-6458320D02*
X5192380Y-6488320D01*
X5338077Y-2503663D02*
X5368077Y-2533663D01*
X5368077Y-2503663D02*
X5338077Y-2533663D01*
X5338077Y-7003503D02*
X5368077Y-7033503D01*
X5368077Y-7003503D02*
X5338077Y-7033503D01*
X5423684Y-2504416D02*
X5453684Y-2534416D01*
X5453684Y-2504416D02*
X5423684Y-2534416D01*
X5423684Y-7004256D02*
X5453684Y-7034256D01*
X5453684Y-7004256D02*
X5423684Y-7034256D01*
X5532740Y-2507120D02*
X5562740Y-2537120D01*
X5562740Y-2507120D02*
X5532740Y-2537120D01*
X5532740Y-7006960D02*
X5562740Y-7036960D01*
X5562740Y-7006960D02*
X5532740Y-7036960D01*
X5634340Y-2502040D02*
X5664340Y-2532040D01*
X5664340Y-2502040D02*
X5634340Y-2532040D01*
X5634340Y-7001880D02*
X5664340Y-7031880D01*
X5664340Y-7001880D02*
X5634340Y-7031880D01*
X5779120Y-2494420D02*
X5809120Y-2524420D01*
X5809120Y-2494420D02*
X5779120Y-2524420D01*
X5779120Y-6994260D02*
X5809120Y-7024260D01*
X5809120Y-6994260D02*
X5779120Y-7024260D01*
X5878180Y-2187080D02*
X5908180Y-2217080D01*
X5908180Y-2187080D02*
X5878180Y-2217080D01*
X5878180Y-6686920D02*
X5908180Y-6716920D01*
X5908180Y-6686920D02*
X5878180Y-6716920D01*
X5908660Y-3477400D02*
X5938660Y-3507400D01*
X5938660Y-3477400D02*
X5908660Y-3507400D01*
X5908660Y-7977240D02*
X5938660Y-8007240D01*
X5938660Y-7977240D02*
X5908660Y-8007240D01*
X5979680Y-1898380D02*
X6009680Y-1928380D01*
X6009680Y-1898380D02*
X5979680Y-1928380D01*
X5979680Y-6398220D02*
X6009680Y-6428220D01*
X6009680Y-6398220D02*
X5979680Y-6428220D01*
X5979780Y-2237880D02*
X6009780Y-2267880D01*
X6009780Y-2237880D02*
X5979780Y-2267880D01*
X5979780Y-6737720D02*
X6009780Y-6767720D01*
X6009780Y-6737720D02*
X5979780Y-6767720D01*
X5982906Y-2488754D02*
X6012906Y-2518754D01*
X6012906Y-2488754D02*
X5982906Y-2518754D01*
X5982906Y-6988593D02*
X6012906Y-7018593D01*
X6012906Y-6988593D02*
X5982906Y-7018593D01*
X6026309Y-3486198D02*
X6056309Y-3516198D01*
X6056309Y-3486198D02*
X6026309Y-3516198D01*
X6026309Y-7986038D02*
X6056309Y-8016038D01*
X6056309Y-7986038D02*
X6026309Y-8016038D01*
X6026980Y-1809680D02*
X6056980Y-1839680D01*
X6056980Y-1809680D02*
X6026980Y-1839680D01*
X6026980Y-6309520D02*
X6056980Y-6339520D01*
X6056980Y-6309520D02*
X6026980Y-6339520D01*
X6101700Y-3512960D02*
X6131700Y-3542960D01*
X6131700Y-3512960D02*
X6101700Y-3542960D01*
X6101700Y-8012800D02*
X6131700Y-8042800D01*
X6131700Y-8012800D02*
X6101700Y-8042800D01*
X6157580Y-2771280D02*
X6187580Y-2801280D01*
X6187580Y-2771280D02*
X6157580Y-2801280D01*
X6157580Y-7271120D02*
X6187580Y-7301120D01*
X6187580Y-7271120D02*
X6157580Y-7301120D01*
X6182980Y-3533280D02*
X6212980Y-3563280D01*
X6212980Y-3533280D02*
X6182980Y-3563280D01*
X6182980Y-8033120D02*
X6212980Y-8063120D01*
X6212980Y-8033120D02*
X6182980Y-8063120D01*
X6259180Y-1653680D02*
X6289180Y-1683680D01*
X6289180Y-1653680D02*
X6259180Y-1683680D01*
X6259180Y-2157780D02*
X6289180Y-2187780D01*
X6289180Y-2157780D02*
X6259180Y-2187780D01*
X6259180Y-2263280D02*
X6289180Y-2293280D01*
X6289180Y-2263280D02*
X6259180Y-2293280D01*
X6259180Y-6153520D02*
X6289180Y-6183520D01*
X6289180Y-6153520D02*
X6259180Y-6183520D01*
X6259180Y-6657620D02*
X6289180Y-6687620D01*
X6289180Y-6657620D02*
X6259180Y-6687620D01*
X6259180Y-6763120D02*
X6289180Y-6793120D01*
X6289180Y-6763120D02*
X6259180Y-6793120D01*
X6279500Y-3538360D02*
X6309500Y-3568360D01*
X6309500Y-3538360D02*
X6279500Y-3568360D01*
X6279500Y-8038200D02*
X6309500Y-8068200D01*
X6309500Y-8038200D02*
X6279500Y-8068200D01*
X6355700Y-3512960D02*
X6385700Y-3542960D01*
X6385700Y-3512960D02*
X6355700Y-3542960D01*
X6355700Y-8012800D02*
X6385700Y-8042800D01*
X6385700Y-8012800D02*
X6355700Y-8042800D01*
X6431900Y-3487560D02*
X6461900Y-3517560D01*
X6461900Y-3487560D02*
X6431900Y-3517560D01*
X6431900Y-7987400D02*
X6461900Y-8017400D01*
X6461900Y-7987400D02*
X6431900Y-8017400D01*
X6462380Y-1898480D02*
X6492380Y-1928480D01*
X6492380Y-1898480D02*
X6462380Y-1928480D01*
X6462380Y-6398320D02*
X6492380Y-6428320D01*
X6492380Y-6398320D02*
X6462380Y-6428320D01*
X6548740Y-3761880D02*
X6578740Y-3791880D01*
X6578740Y-3761880D02*
X6548740Y-3791880D01*
X6548740Y-8261720D02*
X6578740Y-8291720D01*
X6578740Y-8261720D02*
X6548740Y-8291720D01*
X6711300Y-2801760D02*
X6741300Y-2831760D01*
X6741300Y-2801760D02*
X6711300Y-2831760D01*
X6711300Y-7301600D02*
X6741300Y-7331600D01*
X6741300Y-7301600D02*
X6711300Y-7331600D01*
X6868780Y-2376278D02*
X6898780Y-2406278D01*
X6898780Y-2376278D02*
X6868780Y-2406278D01*
X6868780Y-6876117D02*
X6898780Y-6906117D01*
X6898780Y-6876117D02*
X6868780Y-6906117D01*
X6894180Y-2288680D02*
X6924180Y-2318680D01*
X6924180Y-2288680D02*
X6894180Y-2318680D01*
X6894180Y-6788520D02*
X6924180Y-6818520D01*
X6924180Y-6788520D02*
X6894180Y-6818520D01*
X7089006Y-1509653D02*
X7119006Y-1539653D01*
X7119006Y-1509653D02*
X7089006Y-1539653D01*
X7089006Y-6009493D02*
X7119006Y-6039493D01*
X7119006Y-6009493D02*
X7089006Y-6039493D01*
X7226047Y-1341380D02*
X7256047Y-1371380D01*
X7256047Y-1341380D02*
X7226047Y-1371380D01*
X7226047Y-5841220D02*
X7256047Y-5871220D01*
X7256047Y-5841220D02*
X7226047Y-5871220D01*
X7229460Y-3970160D02*
X7259460Y-4000160D01*
X7259460Y-3970160D02*
X7229460Y-4000160D01*
X7229460Y-8470000D02*
X7259460Y-8500000D01*
X7259460Y-8470000D02*
X7229460Y-8500000D01*
X7249780Y-2745880D02*
X7279780Y-2775880D01*
X7279780Y-2745880D02*
X7249780Y-2775880D01*
X7249780Y-7245720D02*
X7279780Y-7275720D01*
X7279780Y-7245720D02*
X7249780Y-7275720D01*
X7256646Y-3633093D02*
X7286646Y-3663093D01*
X7286646Y-3633093D02*
X7256646Y-3663093D01*
X7256646Y-8132933D02*
X7286646Y-8162933D01*
X7286646Y-8132933D02*
X7256646Y-8162933D01*
X7256980Y-3718280D02*
X7286980Y-3748280D01*
X7286980Y-3718280D02*
X7256980Y-3748280D01*
X7256980Y-8218120D02*
X7286980Y-8248120D01*
X7286980Y-8218120D02*
X7256980Y-8248120D01*
X7376780Y-1907680D02*
X7406780Y-1937680D01*
X7406780Y-1907680D02*
X7376780Y-1937680D01*
X7376780Y-6407520D02*
X7406780Y-6437520D01*
X7406780Y-6407520D02*
X7376780Y-6437520D01*
X7427727Y-3787923D02*
X7457727Y-3817923D01*
X7457727Y-3787923D02*
X7427727Y-3817923D01*
X7427727Y-8287763D02*
X7457727Y-8317763D01*
X7457727Y-8287763D02*
X7427727Y-8317763D01*
X7493620Y-1089800D02*
X7523620Y-1119800D01*
X7523620Y-1089800D02*
X7493620Y-1119800D01*
X7493620Y-5589640D02*
X7523620Y-5619640D01*
X7523620Y-5589640D02*
X7493620Y-5619640D01*
X7549115Y-4356933D02*
X7579115Y-4386933D01*
X7579115Y-4356933D02*
X7549115Y-4386933D01*
X7549115Y-8856773D02*
X7579115Y-8886773D01*
X7579115Y-8856773D02*
X7549115Y-8886773D01*
X3871960Y-3338280D02*
G75*
G02*
X3821960Y-3338280I-25000J0D01*
G01*
X3821960Y-3338280D02*
G75*
G02*
X3871960Y-3338280I25000J0D01*
G01*
X3881960Y-3313280D02*
X3811960Y-3313280D01*
X3811960Y-3363280D02*
G75*
G02*
X3811960Y-3313280I0J25000D01*
G01*
X3811960Y-3363280D02*
X3881960Y-3363280D01*
X3881960Y-3363280D02*
G75*
G03*
X3881960Y-3313280I0J25000D01*
G01*
X3871960Y-3998280D02*
G75*
G02*
X3821960Y-3998280I-25000J0D01*
G01*
X3821960Y-3998280D02*
G75*
G02*
X3871960Y-3998280I25000J0D01*
G01*
X3881960Y-3973280D02*
X3811960Y-3973280D01*
X3811960Y-4023280D02*
G75*
G02*
X3811960Y-3973280I0J25000D01*
G01*
X3811960Y-4023280D02*
X3881960Y-4023280D01*
X3881960Y-4023280D02*
G75*
G03*
X3881960Y-3973280I0J25000D01*
G01*
X3871960Y-7838120D02*
G75*
G02*
X3821960Y-7838120I-25000J0D01*
G01*
X3821960Y-7838120D02*
G75*
G02*
X3871960Y-7838120I25000J0D01*
G01*
X3881960Y-7813120D02*
X3811960Y-7813120D01*
X3811960Y-7863120D02*
G75*
G02*
X3811960Y-7813120I0J25000D01*
G01*
X3811960Y-7863120D02*
X3881960Y-7863120D01*
X3881960Y-7863120D02*
G75*
G03*
X3881960Y-7813120I0J25000D01*
G01*
X3871960Y-8498120D02*
G75*
G02*
X3821960Y-8498120I-25000J0D01*
G01*
X3821960Y-8498120D02*
G75*
G02*
X3871960Y-8498120I25000J0D01*
G01*
X3881960Y-8473120D02*
X3811960Y-8473120D01*
X3811960Y-8523120D02*
G75*
G02*
X3811960Y-8473120I0J25000D01*
G01*
X3811960Y-8523120D02*
X3881960Y-8523120D01*
X3881960Y-8523120D02*
G75*
G03*
X3881960Y-8473120I0J25000D01*
G01*
X7670780Y-3338280D02*
G75*
G02*
X7620780Y-3338280I-25000J0D01*
G01*
X7620780Y-3338280D02*
G75*
G02*
X7670780Y-3338280I25000J0D01*
G01*
X7680780Y-3313280D02*
X7610780Y-3313280D01*
X7610780Y-3363280D02*
G75*
G02*
X7610780Y-3313280I0J25000D01*
G01*
X7610780Y-3363280D02*
X7680780Y-3363280D01*
X7680780Y-3363280D02*
G75*
G03*
X7680780Y-3313280I0J25000D01*
G01*
X7670780Y-3998280D02*
G75*
G02*
X7620780Y-3998280I-25000J0D01*
G01*
X7620780Y-3998280D02*
G75*
G02*
X7670780Y-3998280I25000J0D01*
G01*
X7680780Y-3973280D02*
X7610780Y-3973280D01*
X7610780Y-4023280D02*
G75*
G02*
X7610780Y-3973280I0J25000D01*
G01*
X7610780Y-4023280D02*
X7680780Y-4023280D01*
X7680780Y-4023280D02*
G75*
G03*
X7680780Y-3973280I0J25000D01*
G01*
X7670780Y-7838120D02*
G75*
G02*
X7620780Y-7838120I-25000J0D01*
G01*
X7620780Y-7838120D02*
G75*
G02*
X7670780Y-7838120I25000J0D01*
G01*
X7680780Y-7813120D02*
X7610780Y-7813120D01*
X7610780Y-7863120D02*
G75*
G02*
X7610780Y-7813120I0J25000D01*
G01*
X7610780Y-7863120D02*
X7680780Y-7863120D01*
X7680780Y-7863120D02*
G75*
G03*
X7680780Y-7813120I0J25000D01*
G01*
X7670780Y-8498120D02*
G75*
G02*
X7620780Y-8498120I-25000J0D01*
G01*
X7620780Y-8498120D02*
G75*
G02*
X7670780Y-8498120I25000J0D01*
G01*
X7680780Y-8473120D02*
X7610780Y-8473120D01*
X7610780Y-8523120D02*
G75*
G02*
X7610780Y-8473120I0J25000D01*
G01*
X7610780Y-8523120D02*
X7680780Y-8523120D01*
X7680780Y-8523120D02*
G75*
G03*
X7680780Y-8473120I0J25000D01*
G01*
X1052960Y-2590180D02*
X1052960Y-2655180D01*
X1020460Y-2622680D02*
X1085460Y-2622680D01*
X1052960Y-2717180D02*
X1052960Y-2782180D01*
X1020460Y-2749680D02*
X1085460Y-2749680D01*
X1052960Y-7090020D02*
X1052960Y-7155020D01*
X1020460Y-7122520D02*
X1085460Y-7122520D01*
X1052960Y-7217020D02*
X1052960Y-7282020D01*
X1020460Y-7249520D02*
X1085460Y-7249520D01*
X3669160Y-3007780D02*
X3669160Y-3072780D01*
X3636660Y-3040280D02*
X3701660Y-3040280D01*
X3669160Y-7507620D02*
X3669160Y-7572620D01*
X3636660Y-7540120D02*
X3701660Y-7540120D01*
X3796160Y-3007780D02*
X3796160Y-3072780D01*
X3763660Y-3040280D02*
X3828660Y-3040280D01*
X3796160Y-7507620D02*
X3796160Y-7572620D01*
X3763660Y-7540120D02*
X3828660Y-7540120D01*
X4851780Y-2590180D02*
X4851780Y-2655180D01*
X4819280Y-2622680D02*
X4884280Y-2622680D01*
X4851780Y-2717180D02*
X4851780Y-2782180D01*
X4819280Y-2749680D02*
X4884280Y-2749680D01*
X4851780Y-7090020D02*
X4851780Y-7155020D01*
X4819280Y-7122520D02*
X4884280Y-7122520D01*
X4851780Y-7217020D02*
X4851780Y-7282020D01*
X4819280Y-7249520D02*
X4884280Y-7249520D01*
X7467980Y-3007780D02*
X7467980Y-3072780D01*
X7435480Y-3040280D02*
X7500480Y-3040280D01*
X7467980Y-7507620D02*
X7467980Y-7572620D01*
X7435480Y-7540120D02*
X7500480Y-7540120D01*
X7594980Y-3007780D02*
X7594980Y-3072780D01*
X7562480Y-3040280D02*
X7627480Y-3040280D01*
X7594980Y-7507620D02*
X7594980Y-7572620D01*
X7562480Y-7540120D02*
X7627480Y-7540120D01*
D11*
X255777Y-10216164D02*
X255777Y-10016164D01*
X255777Y-10016164D02*
X303396Y-10016164D01*
X303396Y-10016164D02*
X331967Y-10025688D01*
X331967Y-10025688D02*
X351015Y-10044735D01*
X351015Y-10044735D02*
X360539Y-10063783D01*
X360539Y-10063783D02*
X370062Y-10101878D01*
X370062Y-10101878D02*
X370062Y-10130450D01*
X370062Y-10130450D02*
X360539Y-10168545D01*
X360539Y-10168545D02*
X351015Y-10187592D01*
X351015Y-10187592D02*
X331967Y-10206640D01*
X331967Y-10206640D02*
X303396Y-10216164D01*
X303396Y-10216164D02*
X255777Y-10216164D01*
X455777Y-10216164D02*
X455777Y-10082830D01*
X455777Y-10120926D02*
X465301Y-10101878D01*
X465301Y-10101878D02*
X474824Y-10092354D01*
X474824Y-10092354D02*
X493872Y-10082830D01*
X493872Y-10082830D02*
X512920Y-10082830D01*
X579586Y-10216164D02*
X579586Y-10082830D01*
X579586Y-10016164D02*
X570063Y-10025688D01*
X570063Y-10025688D02*
X579586Y-10035211D01*
X579586Y-10035211D02*
X589110Y-10025688D01*
X589110Y-10025688D02*
X579586Y-10016164D01*
X579586Y-10016164D02*
X579586Y-10035211D01*
X703396Y-10216164D02*
X684348Y-10206640D01*
X684348Y-10206640D02*
X674824Y-10187592D01*
X674824Y-10187592D02*
X674824Y-10016164D01*
X808158Y-10216164D02*
X789110Y-10206640D01*
X789110Y-10206640D02*
X779586Y-10187592D01*
X779586Y-10187592D02*
X779586Y-10016164D01*
X1036729Y-10216164D02*
X1036729Y-10016164D01*
X1036729Y-10016164D02*
X1103396Y-10159021D01*
X1103396Y-10159021D02*
X1170063Y-10016164D01*
X1170063Y-10016164D02*
X1170063Y-10216164D01*
X1351015Y-10216164D02*
X1351015Y-10111402D01*
X1351015Y-10111402D02*
X1341491Y-10092354D01*
X1341491Y-10092354D02*
X1322444Y-10082830D01*
X1322444Y-10082830D02*
X1284348Y-10082830D01*
X1284348Y-10082830D02*
X1265301Y-10092354D01*
X1351015Y-10206640D02*
X1331967Y-10216164D01*
X1331967Y-10216164D02*
X1284348Y-10216164D01*
X1284348Y-10216164D02*
X1265301Y-10206640D01*
X1265301Y-10206640D02*
X1255777Y-10187592D01*
X1255777Y-10187592D02*
X1255777Y-10168545D01*
X1255777Y-10168545D02*
X1265301Y-10149497D01*
X1265301Y-10149497D02*
X1284348Y-10139973D01*
X1284348Y-10139973D02*
X1331967Y-10139973D01*
X1331967Y-10139973D02*
X1351015Y-10130450D01*
X1446253Y-10082830D02*
X1446253Y-10282830D01*
X1446253Y-10092354D02*
X1465301Y-10082830D01*
X1465301Y-10082830D02*
X1503396Y-10082830D01*
X1503396Y-10082830D02*
X1522443Y-10092354D01*
X1522443Y-10092354D02*
X1531967Y-10101878D01*
X1531967Y-10101878D02*
X1541491Y-10120926D01*
X1541491Y-10120926D02*
X1541491Y-10178069D01*
X1541491Y-10178069D02*
X1531967Y-10197116D01*
X1531967Y-10197116D02*
X1522443Y-10206640D01*
X1522443Y-10206640D02*
X1503396Y-10216164D01*
X1503396Y-10216164D02*
X1465301Y-10216164D01*
X1465301Y-10216164D02*
X1446253Y-10206640D01*
X1627205Y-10197116D02*
X1636729Y-10206640D01*
X1636729Y-10206640D02*
X1627205Y-10216164D01*
X1627205Y-10216164D02*
X1617682Y-10206640D01*
X1617682Y-10206640D02*
X1627205Y-10197116D01*
X1627205Y-10197116D02*
X1627205Y-10216164D01*
X1627205Y-10092354D02*
X1636729Y-10101878D01*
X1636729Y-10101878D02*
X1627205Y-10111402D01*
X1627205Y-10111402D02*
X1617682Y-10101878D01*
X1617682Y-10101878D02*
X1627205Y-10092354D01*
X1627205Y-10092354D02*
X1627205Y-10111402D01*
D10*
X-35000Y-10529680D02*
X-5000Y-10559680D01*
X-5000Y-10529680D02*
X-35000Y-10559680D01*
D11*
X293872Y-10436164D02*
X312920Y-10436164D01*
X312920Y-10436164D02*
X331967Y-10445688D01*
X331967Y-10445688D02*
X341491Y-10455211D01*
X341491Y-10455211D02*
X351015Y-10474259D01*
X351015Y-10474259D02*
X360539Y-10512354D01*
X360539Y-10512354D02*
X360539Y-10559973D01*
X360539Y-10559973D02*
X351015Y-10598069D01*
X351015Y-10598069D02*
X341491Y-10617116D01*
X341491Y-10617116D02*
X331967Y-10626640D01*
X331967Y-10626640D02*
X312920Y-10636164D01*
X312920Y-10636164D02*
X293872Y-10636164D01*
X293872Y-10636164D02*
X274824Y-10626640D01*
X274824Y-10626640D02*
X265301Y-10617116D01*
X265301Y-10617116D02*
X255777Y-10598069D01*
X255777Y-10598069D02*
X246253Y-10559973D01*
X246253Y-10559973D02*
X246253Y-10512354D01*
X246253Y-10512354D02*
X255777Y-10474259D01*
X255777Y-10474259D02*
X265301Y-10455211D01*
X265301Y-10455211D02*
X274824Y-10445688D01*
X274824Y-10445688D02*
X293872Y-10436164D01*
X446253Y-10617116D02*
X455777Y-10626640D01*
X455777Y-10626640D02*
X446253Y-10636164D01*
X446253Y-10636164D02*
X436729Y-10626640D01*
X436729Y-10626640D02*
X446253Y-10617116D01*
X446253Y-10617116D02*
X446253Y-10636164D01*
X522443Y-10436164D02*
X646253Y-10436164D01*
X646253Y-10436164D02*
X579586Y-10512354D01*
X579586Y-10512354D02*
X608158Y-10512354D01*
X608158Y-10512354D02*
X627205Y-10521878D01*
X627205Y-10521878D02*
X636729Y-10531402D01*
X636729Y-10531402D02*
X646253Y-10550450D01*
X646253Y-10550450D02*
X646253Y-10598069D01*
X646253Y-10598069D02*
X636729Y-10617116D01*
X636729Y-10617116D02*
X627205Y-10626640D01*
X627205Y-10626640D02*
X608158Y-10636164D01*
X608158Y-10636164D02*
X551015Y-10636164D01*
X551015Y-10636164D02*
X531967Y-10626640D01*
X531967Y-10626640D02*
X522443Y-10617116D01*
X770062Y-10436164D02*
X789110Y-10436164D01*
X789110Y-10436164D02*
X808158Y-10445688D01*
X808158Y-10445688D02*
X817682Y-10455211D01*
X817682Y-10455211D02*
X827205Y-10474259D01*
X827205Y-10474259D02*
X836729Y-10512354D01*
X836729Y-10512354D02*
X836729Y-10559973D01*
X836729Y-10559973D02*
X827205Y-10598069D01*
X827205Y-10598069D02*
X817682Y-10617116D01*
X817682Y-10617116D02*
X808158Y-10626640D01*
X808158Y-10626640D02*
X789110Y-10636164D01*
X789110Y-10636164D02*
X770062Y-10636164D01*
X770062Y-10636164D02*
X751015Y-10626640D01*
X751015Y-10626640D02*
X741491Y-10617116D01*
X741491Y-10617116D02*
X731967Y-10598069D01*
X731967Y-10598069D02*
X722443Y-10559973D01*
X722443Y-10559973D02*
X722443Y-10512354D01*
X722443Y-10512354D02*
X731967Y-10474259D01*
X731967Y-10474259D02*
X741491Y-10455211D01*
X741491Y-10455211D02*
X751015Y-10445688D01*
X751015Y-10445688D02*
X770062Y-10436164D01*
X960539Y-10436164D02*
X979586Y-10436164D01*
X979586Y-10436164D02*
X998634Y-10445688D01*
X998634Y-10445688D02*
X1008158Y-10455211D01*
X1008158Y-10455211D02*
X1017682Y-10474259D01*
X1017682Y-10474259D02*
X1027205Y-10512354D01*
X1027205Y-10512354D02*
X1027205Y-10559973D01*
X1027205Y-10559973D02*
X1017682Y-10598069D01*
X1017682Y-10598069D02*
X1008158Y-10617116D01*
X1008158Y-10617116D02*
X998634Y-10626640D01*
X998634Y-10626640D02*
X979586Y-10636164D01*
X979586Y-10636164D02*
X960539Y-10636164D01*
X960539Y-10636164D02*
X941491Y-10626640D01*
X941491Y-10626640D02*
X931967Y-10617116D01*
X931967Y-10617116D02*
X922443Y-10598069D01*
X922443Y-10598069D02*
X912920Y-10559973D01*
X912920Y-10559973D02*
X912920Y-10512354D01*
X912920Y-10512354D02*
X922443Y-10474259D01*
X922443Y-10474259D02*
X931967Y-10455211D01*
X931967Y-10455211D02*
X941491Y-10445688D01*
X941491Y-10445688D02*
X960539Y-10436164D01*
X1112920Y-10636164D02*
X1112920Y-10502830D01*
X1112920Y-10521878D02*
X1122444Y-10512354D01*
X1122444Y-10512354D02*
X1141491Y-10502830D01*
X1141491Y-10502830D02*
X1170063Y-10502830D01*
X1170063Y-10502830D02*
X1189110Y-10512354D01*
X1189110Y-10512354D02*
X1198634Y-10531402D01*
X1198634Y-10531402D02*
X1198634Y-10636164D01*
X1198634Y-10531402D02*
X1208158Y-10512354D01*
X1208158Y-10512354D02*
X1227205Y-10502830D01*
X1227205Y-10502830D02*
X1255777Y-10502830D01*
X1255777Y-10502830D02*
X1274825Y-10512354D01*
X1274825Y-10512354D02*
X1284348Y-10531402D01*
X1284348Y-10531402D02*
X1284348Y-10636164D01*
X1379586Y-10636164D02*
X1379586Y-10502830D01*
X1379586Y-10521878D02*
X1389110Y-10512354D01*
X1389110Y-10512354D02*
X1408158Y-10502830D01*
X1408158Y-10502830D02*
X1436729Y-10502830D01*
X1436729Y-10502830D02*
X1455777Y-10512354D01*
X1455777Y-10512354D02*
X1465301Y-10531402D01*
X1465301Y-10531402D02*
X1465301Y-10636164D01*
X1465301Y-10531402D02*
X1474824Y-10512354D01*
X1474824Y-10512354D02*
X1493872Y-10502830D01*
X1493872Y-10502830D02*
X1522443Y-10502830D01*
X1522443Y-10502830D02*
X1541491Y-10512354D01*
X1541491Y-10512354D02*
X1551015Y-10531402D01*
X1551015Y-10531402D02*
X1551015Y-10636164D01*
X1941491Y-10426640D02*
X1770063Y-10683783D01*
X2198634Y-10436164D02*
X2217682Y-10436164D01*
X2217682Y-10436164D02*
X2236729Y-10445688D01*
X2236729Y-10445688D02*
X2246253Y-10455211D01*
X2246253Y-10455211D02*
X2255777Y-10474259D01*
X2255777Y-10474259D02*
X2265301Y-10512354D01*
X2265301Y-10512354D02*
X2265301Y-10559973D01*
X2265301Y-10559973D02*
X2255777Y-10598069D01*
X2255777Y-10598069D02*
X2246253Y-10617116D01*
X2246253Y-10617116D02*
X2236729Y-10626640D01*
X2236729Y-10626640D02*
X2217682Y-10636164D01*
X2217682Y-10636164D02*
X2198634Y-10636164D01*
X2198634Y-10636164D02*
X2179587Y-10626640D01*
X2179587Y-10626640D02*
X2170063Y-10617116D01*
X2170063Y-10617116D02*
X2160539Y-10598069D01*
X2160539Y-10598069D02*
X2151015Y-10559973D01*
X2151015Y-10559973D02*
X2151015Y-10512354D01*
X2151015Y-10512354D02*
X2160539Y-10474259D01*
X2160539Y-10474259D02*
X2170063Y-10455211D01*
X2170063Y-10455211D02*
X2179587Y-10445688D01*
X2179587Y-10445688D02*
X2198634Y-10436164D01*
X2351015Y-10617116D02*
X2360539Y-10626640D01*
X2360539Y-10626640D02*
X2351015Y-10636164D01*
X2351015Y-10636164D02*
X2341491Y-10626640D01*
X2341491Y-10626640D02*
X2351015Y-10617116D01*
X2351015Y-10617116D02*
X2351015Y-10636164D01*
X2484348Y-10436164D02*
X2503396Y-10436164D01*
X2503396Y-10436164D02*
X2522444Y-10445688D01*
X2522444Y-10445688D02*
X2531968Y-10455211D01*
X2531968Y-10455211D02*
X2541491Y-10474259D01*
X2541491Y-10474259D02*
X2551015Y-10512354D01*
X2551015Y-10512354D02*
X2551015Y-10559973D01*
X2551015Y-10559973D02*
X2541491Y-10598069D01*
X2541491Y-10598069D02*
X2531968Y-10617116D01*
X2531968Y-10617116D02*
X2522444Y-10626640D01*
X2522444Y-10626640D02*
X2503396Y-10636164D01*
X2503396Y-10636164D02*
X2484348Y-10636164D01*
X2484348Y-10636164D02*
X2465301Y-10626640D01*
X2465301Y-10626640D02*
X2455777Y-10617116D01*
X2455777Y-10617116D02*
X2446253Y-10598069D01*
X2446253Y-10598069D02*
X2436729Y-10559973D01*
X2436729Y-10559973D02*
X2436729Y-10512354D01*
X2436729Y-10512354D02*
X2446253Y-10474259D01*
X2446253Y-10474259D02*
X2455777Y-10455211D01*
X2455777Y-10455211D02*
X2465301Y-10445688D01*
X2465301Y-10445688D02*
X2484348Y-10436164D01*
X2741491Y-10636164D02*
X2627206Y-10636164D01*
X2684348Y-10636164D02*
X2684348Y-10436164D01*
X2684348Y-10436164D02*
X2665301Y-10464735D01*
X2665301Y-10464735D02*
X2646253Y-10483783D01*
X2646253Y-10483783D02*
X2627206Y-10493307D01*
X2931967Y-10636164D02*
X2817682Y-10636164D01*
X2874825Y-10636164D02*
X2874825Y-10436164D01*
X2874825Y-10436164D02*
X2855777Y-10464735D01*
X2855777Y-10464735D02*
X2836729Y-10483783D01*
X2836729Y-10483783D02*
X2817682Y-10493307D01*
X3046253Y-10521878D02*
X3027206Y-10512354D01*
X3027206Y-10512354D02*
X3017682Y-10502830D01*
X3017682Y-10502830D02*
X3008158Y-10483783D01*
X3008158Y-10483783D02*
X3008158Y-10474259D01*
X3008158Y-10474259D02*
X3017682Y-10455211D01*
X3017682Y-10455211D02*
X3027206Y-10445688D01*
X3027206Y-10445688D02*
X3046253Y-10436164D01*
X3046253Y-10436164D02*
X3084348Y-10436164D01*
X3084348Y-10436164D02*
X3103396Y-10445688D01*
X3103396Y-10445688D02*
X3112920Y-10455211D01*
X3112920Y-10455211D02*
X3122444Y-10474259D01*
X3122444Y-10474259D02*
X3122444Y-10483783D01*
X3122444Y-10483783D02*
X3112920Y-10502830D01*
X3112920Y-10502830D02*
X3103396Y-10512354D01*
X3103396Y-10512354D02*
X3084348Y-10521878D01*
X3084348Y-10521878D02*
X3046253Y-10521878D01*
X3046253Y-10521878D02*
X3027206Y-10531402D01*
X3027206Y-10531402D02*
X3017682Y-10540926D01*
X3017682Y-10540926D02*
X3008158Y-10559973D01*
X3008158Y-10559973D02*
X3008158Y-10598069D01*
X3008158Y-10598069D02*
X3017682Y-10617116D01*
X3017682Y-10617116D02*
X3027206Y-10626640D01*
X3027206Y-10626640D02*
X3046253Y-10636164D01*
X3046253Y-10636164D02*
X3084348Y-10636164D01*
X3084348Y-10636164D02*
X3103396Y-10626640D01*
X3103396Y-10626640D02*
X3112920Y-10617116D01*
X3112920Y-10617116D02*
X3122444Y-10598069D01*
X3122444Y-10598069D02*
X3122444Y-10559973D01*
X3122444Y-10559973D02*
X3112920Y-10540926D01*
X3112920Y-10540926D02*
X3103396Y-10531402D01*
X3103396Y-10531402D02*
X3084348Y-10521878D01*
X3198634Y-10436164D02*
X3198634Y-10474259D01*
X3274825Y-10436164D02*
X3274825Y-10474259D01*
X3570063Y-10712354D02*
X3560539Y-10702830D01*
X3560539Y-10702830D02*
X3541491Y-10674259D01*
X3541491Y-10674259D02*
X3531968Y-10655211D01*
X3531968Y-10655211D02*
X3522444Y-10626640D01*
X3522444Y-10626640D02*
X3512920Y-10579021D01*
X3512920Y-10579021D02*
X3512920Y-10540926D01*
X3512920Y-10540926D02*
X3522444Y-10493307D01*
X3522444Y-10493307D02*
X3531968Y-10464735D01*
X3531968Y-10464735D02*
X3541491Y-10445688D01*
X3541491Y-10445688D02*
X3560539Y-10417116D01*
X3560539Y-10417116D02*
X3570063Y-10407592D01*
X3751015Y-10636164D02*
X3636729Y-10636164D01*
X3693872Y-10636164D02*
X3693872Y-10436164D01*
X3693872Y-10436164D02*
X3674825Y-10464735D01*
X3674825Y-10464735D02*
X3655777Y-10483783D01*
X3655777Y-10483783D02*
X3636729Y-10493307D01*
X3922444Y-10436164D02*
X3884348Y-10436164D01*
X3884348Y-10436164D02*
X3865301Y-10445688D01*
X3865301Y-10445688D02*
X3855777Y-10455211D01*
X3855777Y-10455211D02*
X3836729Y-10483783D01*
X3836729Y-10483783D02*
X3827206Y-10521878D01*
X3827206Y-10521878D02*
X3827206Y-10598069D01*
X3827206Y-10598069D02*
X3836729Y-10617116D01*
X3836729Y-10617116D02*
X3846253Y-10626640D01*
X3846253Y-10626640D02*
X3865301Y-10636164D01*
X3865301Y-10636164D02*
X3903396Y-10636164D01*
X3903396Y-10636164D02*
X3922444Y-10626640D01*
X3922444Y-10626640D02*
X3931968Y-10617116D01*
X3931968Y-10617116D02*
X3941491Y-10598069D01*
X3941491Y-10598069D02*
X3941491Y-10550450D01*
X3941491Y-10550450D02*
X3931968Y-10531402D01*
X3931968Y-10531402D02*
X3922444Y-10521878D01*
X3922444Y-10521878D02*
X3903396Y-10512354D01*
X3903396Y-10512354D02*
X3865301Y-10512354D01*
X3865301Y-10512354D02*
X3846253Y-10521878D01*
X3846253Y-10521878D02*
X3836729Y-10531402D01*
X3836729Y-10531402D02*
X3827206Y-10550450D01*
X4112920Y-10502830D02*
X4112920Y-10636164D01*
X4065301Y-10426640D02*
X4017682Y-10569497D01*
X4017682Y-10569497D02*
X4141491Y-10569497D01*
X4370063Y-10636164D02*
X4370063Y-10436164D01*
X4455777Y-10636164D02*
X4455777Y-10531402D01*
X4455777Y-10531402D02*
X4446253Y-10512354D01*
X4446253Y-10512354D02*
X4427206Y-10502830D01*
X4427206Y-10502830D02*
X4398634Y-10502830D01*
X4398634Y-10502830D02*
X4379587Y-10512354D01*
X4379587Y-10512354D02*
X4370063Y-10521878D01*
X4579587Y-10636164D02*
X4560539Y-10626640D01*
X4560539Y-10626640D02*
X4551015Y-10617116D01*
X4551015Y-10617116D02*
X4541492Y-10598069D01*
X4541492Y-10598069D02*
X4541492Y-10540926D01*
X4541492Y-10540926D02*
X4551015Y-10521878D01*
X4551015Y-10521878D02*
X4560539Y-10512354D01*
X4560539Y-10512354D02*
X4579587Y-10502830D01*
X4579587Y-10502830D02*
X4608158Y-10502830D01*
X4608158Y-10502830D02*
X4627206Y-10512354D01*
X4627206Y-10512354D02*
X4636730Y-10521878D01*
X4636730Y-10521878D02*
X4646253Y-10540926D01*
X4646253Y-10540926D02*
X4646253Y-10598069D01*
X4646253Y-10598069D02*
X4636730Y-10617116D01*
X4636730Y-10617116D02*
X4627206Y-10626640D01*
X4627206Y-10626640D02*
X4608158Y-10636164D01*
X4608158Y-10636164D02*
X4579587Y-10636164D01*
X4760539Y-10636164D02*
X4741492Y-10626640D01*
X4741492Y-10626640D02*
X4731968Y-10607592D01*
X4731968Y-10607592D02*
X4731968Y-10436164D01*
X4912920Y-10626640D02*
X4893873Y-10636164D01*
X4893873Y-10636164D02*
X4855777Y-10636164D01*
X4855777Y-10636164D02*
X4836730Y-10626640D01*
X4836730Y-10626640D02*
X4827206Y-10607592D01*
X4827206Y-10607592D02*
X4827206Y-10531402D01*
X4827206Y-10531402D02*
X4836730Y-10512354D01*
X4836730Y-10512354D02*
X4855777Y-10502830D01*
X4855777Y-10502830D02*
X4893873Y-10502830D01*
X4893873Y-10502830D02*
X4912920Y-10512354D01*
X4912920Y-10512354D02*
X4922444Y-10531402D01*
X4922444Y-10531402D02*
X4922444Y-10550450D01*
X4922444Y-10550450D02*
X4827206Y-10569497D01*
X4998634Y-10626640D02*
X5017682Y-10636164D01*
X5017682Y-10636164D02*
X5055777Y-10636164D01*
X5055777Y-10636164D02*
X5074825Y-10626640D01*
X5074825Y-10626640D02*
X5084349Y-10607592D01*
X5084349Y-10607592D02*
X5084349Y-10598069D01*
X5084349Y-10598069D02*
X5074825Y-10579021D01*
X5074825Y-10579021D02*
X5055777Y-10569497D01*
X5055777Y-10569497D02*
X5027206Y-10569497D01*
X5027206Y-10569497D02*
X5008158Y-10559973D01*
X5008158Y-10559973D02*
X4998634Y-10540926D01*
X4998634Y-10540926D02*
X4998634Y-10531402D01*
X4998634Y-10531402D02*
X5008158Y-10512354D01*
X5008158Y-10512354D02*
X5027206Y-10502830D01*
X5027206Y-10502830D02*
X5055777Y-10502830D01*
X5055777Y-10502830D02*
X5074825Y-10512354D01*
X5151015Y-10712354D02*
X5160539Y-10702830D01*
X5160539Y-10702830D02*
X5179587Y-10674259D01*
X5179587Y-10674259D02*
X5189111Y-10655211D01*
X5189111Y-10655211D02*
X5198634Y-10626640D01*
X5198634Y-10626640D02*
X5208158Y-10579021D01*
X5208158Y-10579021D02*
X5208158Y-10540926D01*
X5208158Y-10540926D02*
X5198634Y-10493307D01*
X5198634Y-10493307D02*
X5189111Y-10464735D01*
X5189111Y-10464735D02*
X5179587Y-10445688D01*
X5179587Y-10445688D02*
X5160539Y-10417116D01*
X5160539Y-10417116D02*
X5151015Y-10407592D01*
D10*
X-5000Y-10808680D02*
G75*
G02*
X-55000Y-10808680I-25000J0D01*
G01*
X-55000Y-10808680D02*
G75*
G02*
X-5000Y-10808680I25000J0D01*
G01*
D11*
X293872Y-10700164D02*
X312920Y-10700164D01*
X312920Y-10700164D02*
X331967Y-10709688D01*
X331967Y-10709688D02*
X341491Y-10719211D01*
X341491Y-10719211D02*
X351015Y-10738259D01*
X351015Y-10738259D02*
X360539Y-10776354D01*
X360539Y-10776354D02*
X360539Y-10823973D01*
X360539Y-10823973D02*
X351015Y-10862069D01*
X351015Y-10862069D02*
X341491Y-10881116D01*
X341491Y-10881116D02*
X331967Y-10890640D01*
X331967Y-10890640D02*
X312920Y-10900164D01*
X312920Y-10900164D02*
X293872Y-10900164D01*
X293872Y-10900164D02*
X274824Y-10890640D01*
X274824Y-10890640D02*
X265301Y-10881116D01*
X265301Y-10881116D02*
X255777Y-10862069D01*
X255777Y-10862069D02*
X246253Y-10823973D01*
X246253Y-10823973D02*
X246253Y-10776354D01*
X246253Y-10776354D02*
X255777Y-10738259D01*
X255777Y-10738259D02*
X265301Y-10719211D01*
X265301Y-10719211D02*
X274824Y-10709688D01*
X274824Y-10709688D02*
X293872Y-10700164D01*
X446253Y-10881116D02*
X455777Y-10890640D01*
X455777Y-10890640D02*
X446253Y-10900164D01*
X446253Y-10900164D02*
X436729Y-10890640D01*
X436729Y-10890640D02*
X446253Y-10881116D01*
X446253Y-10881116D02*
X446253Y-10900164D01*
X636729Y-10700164D02*
X541491Y-10700164D01*
X541491Y-10700164D02*
X531967Y-10795402D01*
X531967Y-10795402D02*
X541491Y-10785878D01*
X541491Y-10785878D02*
X560539Y-10776354D01*
X560539Y-10776354D02*
X608158Y-10776354D01*
X608158Y-10776354D02*
X627205Y-10785878D01*
X627205Y-10785878D02*
X636729Y-10795402D01*
X636729Y-10795402D02*
X646253Y-10814450D01*
X646253Y-10814450D02*
X646253Y-10862069D01*
X646253Y-10862069D02*
X636729Y-10881116D01*
X636729Y-10881116D02*
X627205Y-10890640D01*
X627205Y-10890640D02*
X608158Y-10900164D01*
X608158Y-10900164D02*
X560539Y-10900164D01*
X560539Y-10900164D02*
X541491Y-10890640D01*
X541491Y-10890640D02*
X531967Y-10881116D01*
X770062Y-10700164D02*
X789110Y-10700164D01*
X789110Y-10700164D02*
X808158Y-10709688D01*
X808158Y-10709688D02*
X817682Y-10719211D01*
X817682Y-10719211D02*
X827205Y-10738259D01*
X827205Y-10738259D02*
X836729Y-10776354D01*
X836729Y-10776354D02*
X836729Y-10823973D01*
X836729Y-10823973D02*
X827205Y-10862069D01*
X827205Y-10862069D02*
X817682Y-10881116D01*
X817682Y-10881116D02*
X808158Y-10890640D01*
X808158Y-10890640D02*
X789110Y-10900164D01*
X789110Y-10900164D02*
X770062Y-10900164D01*
X770062Y-10900164D02*
X751015Y-10890640D01*
X751015Y-10890640D02*
X741491Y-10881116D01*
X741491Y-10881116D02*
X731967Y-10862069D01*
X731967Y-10862069D02*
X722443Y-10823973D01*
X722443Y-10823973D02*
X722443Y-10776354D01*
X722443Y-10776354D02*
X731967Y-10738259D01*
X731967Y-10738259D02*
X741491Y-10719211D01*
X741491Y-10719211D02*
X751015Y-10709688D01*
X751015Y-10709688D02*
X770062Y-10700164D01*
X960539Y-10700164D02*
X979586Y-10700164D01*
X979586Y-10700164D02*
X998634Y-10709688D01*
X998634Y-10709688D02*
X1008158Y-10719211D01*
X1008158Y-10719211D02*
X1017682Y-10738259D01*
X1017682Y-10738259D02*
X1027205Y-10776354D01*
X1027205Y-10776354D02*
X1027205Y-10823973D01*
X1027205Y-10823973D02*
X1017682Y-10862069D01*
X1017682Y-10862069D02*
X1008158Y-10881116D01*
X1008158Y-10881116D02*
X998634Y-10890640D01*
X998634Y-10890640D02*
X979586Y-10900164D01*
X979586Y-10900164D02*
X960539Y-10900164D01*
X960539Y-10900164D02*
X941491Y-10890640D01*
X941491Y-10890640D02*
X931967Y-10881116D01*
X931967Y-10881116D02*
X922443Y-10862069D01*
X922443Y-10862069D02*
X912920Y-10823973D01*
X912920Y-10823973D02*
X912920Y-10776354D01*
X912920Y-10776354D02*
X922443Y-10738259D01*
X922443Y-10738259D02*
X931967Y-10719211D01*
X931967Y-10719211D02*
X941491Y-10709688D01*
X941491Y-10709688D02*
X960539Y-10700164D01*
X1112920Y-10900164D02*
X1112920Y-10766830D01*
X1112920Y-10785878D02*
X1122444Y-10776354D01*
X1122444Y-10776354D02*
X1141491Y-10766830D01*
X1141491Y-10766830D02*
X1170063Y-10766830D01*
X1170063Y-10766830D02*
X1189110Y-10776354D01*
X1189110Y-10776354D02*
X1198634Y-10795402D01*
X1198634Y-10795402D02*
X1198634Y-10900164D01*
X1198634Y-10795402D02*
X1208158Y-10776354D01*
X1208158Y-10776354D02*
X1227205Y-10766830D01*
X1227205Y-10766830D02*
X1255777Y-10766830D01*
X1255777Y-10766830D02*
X1274825Y-10776354D01*
X1274825Y-10776354D02*
X1284348Y-10795402D01*
X1284348Y-10795402D02*
X1284348Y-10900164D01*
X1379586Y-10900164D02*
X1379586Y-10766830D01*
X1379586Y-10785878D02*
X1389110Y-10776354D01*
X1389110Y-10776354D02*
X1408158Y-10766830D01*
X1408158Y-10766830D02*
X1436729Y-10766830D01*
X1436729Y-10766830D02*
X1455777Y-10776354D01*
X1455777Y-10776354D02*
X1465301Y-10795402D01*
X1465301Y-10795402D02*
X1465301Y-10900164D01*
X1465301Y-10795402D02*
X1474824Y-10776354D01*
X1474824Y-10776354D02*
X1493872Y-10766830D01*
X1493872Y-10766830D02*
X1522443Y-10766830D01*
X1522443Y-10766830D02*
X1541491Y-10776354D01*
X1541491Y-10776354D02*
X1551015Y-10795402D01*
X1551015Y-10795402D02*
X1551015Y-10900164D01*
X1941491Y-10690640D02*
X1770063Y-10947783D01*
X2198634Y-10700164D02*
X2217682Y-10700164D01*
X2217682Y-10700164D02*
X2236729Y-10709688D01*
X2236729Y-10709688D02*
X2246253Y-10719211D01*
X2246253Y-10719211D02*
X2255777Y-10738259D01*
X2255777Y-10738259D02*
X2265301Y-10776354D01*
X2265301Y-10776354D02*
X2265301Y-10823973D01*
X2265301Y-10823973D02*
X2255777Y-10862069D01*
X2255777Y-10862069D02*
X2246253Y-10881116D01*
X2246253Y-10881116D02*
X2236729Y-10890640D01*
X2236729Y-10890640D02*
X2217682Y-10900164D01*
X2217682Y-10900164D02*
X2198634Y-10900164D01*
X2198634Y-10900164D02*
X2179587Y-10890640D01*
X2179587Y-10890640D02*
X2170063Y-10881116D01*
X2170063Y-10881116D02*
X2160539Y-10862069D01*
X2160539Y-10862069D02*
X2151015Y-10823973D01*
X2151015Y-10823973D02*
X2151015Y-10776354D01*
X2151015Y-10776354D02*
X2160539Y-10738259D01*
X2160539Y-10738259D02*
X2170063Y-10719211D01*
X2170063Y-10719211D02*
X2179587Y-10709688D01*
X2179587Y-10709688D02*
X2198634Y-10700164D01*
X2351015Y-10881116D02*
X2360539Y-10890640D01*
X2360539Y-10890640D02*
X2351015Y-10900164D01*
X2351015Y-10900164D02*
X2341491Y-10890640D01*
X2341491Y-10890640D02*
X2351015Y-10881116D01*
X2351015Y-10881116D02*
X2351015Y-10900164D01*
X2484348Y-10700164D02*
X2503396Y-10700164D01*
X2503396Y-10700164D02*
X2522444Y-10709688D01*
X2522444Y-10709688D02*
X2531968Y-10719211D01*
X2531968Y-10719211D02*
X2541491Y-10738259D01*
X2541491Y-10738259D02*
X2551015Y-10776354D01*
X2551015Y-10776354D02*
X2551015Y-10823973D01*
X2551015Y-10823973D02*
X2541491Y-10862069D01*
X2541491Y-10862069D02*
X2531968Y-10881116D01*
X2531968Y-10881116D02*
X2522444Y-10890640D01*
X2522444Y-10890640D02*
X2503396Y-10900164D01*
X2503396Y-10900164D02*
X2484348Y-10900164D01*
X2484348Y-10900164D02*
X2465301Y-10890640D01*
X2465301Y-10890640D02*
X2455777Y-10881116D01*
X2455777Y-10881116D02*
X2446253Y-10862069D01*
X2446253Y-10862069D02*
X2436729Y-10823973D01*
X2436729Y-10823973D02*
X2436729Y-10776354D01*
X2436729Y-10776354D02*
X2446253Y-10738259D01*
X2446253Y-10738259D02*
X2455777Y-10719211D01*
X2455777Y-10719211D02*
X2465301Y-10709688D01*
X2465301Y-10709688D02*
X2484348Y-10700164D01*
X2741491Y-10900164D02*
X2627206Y-10900164D01*
X2684348Y-10900164D02*
X2684348Y-10700164D01*
X2684348Y-10700164D02*
X2665301Y-10728735D01*
X2665301Y-10728735D02*
X2646253Y-10747783D01*
X2646253Y-10747783D02*
X2627206Y-10757307D01*
X2836729Y-10900164D02*
X2874825Y-10900164D01*
X2874825Y-10900164D02*
X2893872Y-10890640D01*
X2893872Y-10890640D02*
X2903396Y-10881116D01*
X2903396Y-10881116D02*
X2922444Y-10852545D01*
X2922444Y-10852545D02*
X2931967Y-10814450D01*
X2931967Y-10814450D02*
X2931967Y-10738259D01*
X2931967Y-10738259D02*
X2922444Y-10719211D01*
X2922444Y-10719211D02*
X2912920Y-10709688D01*
X2912920Y-10709688D02*
X2893872Y-10700164D01*
X2893872Y-10700164D02*
X2855777Y-10700164D01*
X2855777Y-10700164D02*
X2836729Y-10709688D01*
X2836729Y-10709688D02*
X2827206Y-10719211D01*
X2827206Y-10719211D02*
X2817682Y-10738259D01*
X2817682Y-10738259D02*
X2817682Y-10785878D01*
X2817682Y-10785878D02*
X2827206Y-10804926D01*
X2827206Y-10804926D02*
X2836729Y-10814450D01*
X2836729Y-10814450D02*
X2855777Y-10823973D01*
X2855777Y-10823973D02*
X2893872Y-10823973D01*
X2893872Y-10823973D02*
X2912920Y-10814450D01*
X2912920Y-10814450D02*
X2922444Y-10804926D01*
X2922444Y-10804926D02*
X2931967Y-10785878D01*
X2998634Y-10700164D02*
X3131967Y-10700164D01*
X3131967Y-10700164D02*
X3046253Y-10900164D01*
X3198634Y-10700164D02*
X3198634Y-10738259D01*
X3274825Y-10700164D02*
X3274825Y-10738259D01*
X3570063Y-10976354D02*
X3560539Y-10966830D01*
X3560539Y-10966830D02*
X3541491Y-10938259D01*
X3541491Y-10938259D02*
X3531968Y-10919211D01*
X3531968Y-10919211D02*
X3522444Y-10890640D01*
X3522444Y-10890640D02*
X3512920Y-10843021D01*
X3512920Y-10843021D02*
X3512920Y-10804926D01*
X3512920Y-10804926D02*
X3522444Y-10757307D01*
X3522444Y-10757307D02*
X3531968Y-10728735D01*
X3531968Y-10728735D02*
X3541491Y-10709688D01*
X3541491Y-10709688D02*
X3560539Y-10681116D01*
X3560539Y-10681116D02*
X3570063Y-10671592D01*
X3684348Y-10700164D02*
X3703396Y-10700164D01*
X3703396Y-10700164D02*
X3722444Y-10709688D01*
X3722444Y-10709688D02*
X3731968Y-10719211D01*
X3731968Y-10719211D02*
X3741491Y-10738259D01*
X3741491Y-10738259D02*
X3751015Y-10776354D01*
X3751015Y-10776354D02*
X3751015Y-10823973D01*
X3751015Y-10823973D02*
X3741491Y-10862069D01*
X3741491Y-10862069D02*
X3731968Y-10881116D01*
X3731968Y-10881116D02*
X3722444Y-10890640D01*
X3722444Y-10890640D02*
X3703396Y-10900164D01*
X3703396Y-10900164D02*
X3684348Y-10900164D01*
X3684348Y-10900164D02*
X3665301Y-10890640D01*
X3665301Y-10890640D02*
X3655777Y-10881116D01*
X3655777Y-10881116D02*
X3646253Y-10862069D01*
X3646253Y-10862069D02*
X3636729Y-10823973D01*
X3636729Y-10823973D02*
X3636729Y-10776354D01*
X3636729Y-10776354D02*
X3646253Y-10738259D01*
X3646253Y-10738259D02*
X3655777Y-10719211D01*
X3655777Y-10719211D02*
X3665301Y-10709688D01*
X3665301Y-10709688D02*
X3684348Y-10700164D01*
X3989110Y-10900164D02*
X3989110Y-10700164D01*
X4074825Y-10900164D02*
X4074825Y-10795402D01*
X4074825Y-10795402D02*
X4065301Y-10776354D01*
X4065301Y-10776354D02*
X4046253Y-10766830D01*
X4046253Y-10766830D02*
X4017682Y-10766830D01*
X4017682Y-10766830D02*
X3998634Y-10776354D01*
X3998634Y-10776354D02*
X3989110Y-10785878D01*
X4198634Y-10900164D02*
X4179587Y-10890640D01*
X4179587Y-10890640D02*
X4170063Y-10881116D01*
X4170063Y-10881116D02*
X4160539Y-10862069D01*
X4160539Y-10862069D02*
X4160539Y-10804926D01*
X4160539Y-10804926D02*
X4170063Y-10785878D01*
X4170063Y-10785878D02*
X4179587Y-10776354D01*
X4179587Y-10776354D02*
X4198634Y-10766830D01*
X4198634Y-10766830D02*
X4227206Y-10766830D01*
X4227206Y-10766830D02*
X4246253Y-10776354D01*
X4246253Y-10776354D02*
X4255777Y-10785878D01*
X4255777Y-10785878D02*
X4265301Y-10804926D01*
X4265301Y-10804926D02*
X4265301Y-10862069D01*
X4265301Y-10862069D02*
X4255777Y-10881116D01*
X4255777Y-10881116D02*
X4246253Y-10890640D01*
X4246253Y-10890640D02*
X4227206Y-10900164D01*
X4227206Y-10900164D02*
X4198634Y-10900164D01*
X4379587Y-10900164D02*
X4360539Y-10890640D01*
X4360539Y-10890640D02*
X4351015Y-10871592D01*
X4351015Y-10871592D02*
X4351015Y-10700164D01*
X4531968Y-10890640D02*
X4512920Y-10900164D01*
X4512920Y-10900164D02*
X4474825Y-10900164D01*
X4474825Y-10900164D02*
X4455777Y-10890640D01*
X4455777Y-10890640D02*
X4446253Y-10871592D01*
X4446253Y-10871592D02*
X4446253Y-10795402D01*
X4446253Y-10795402D02*
X4455777Y-10776354D01*
X4455777Y-10776354D02*
X4474825Y-10766830D01*
X4474825Y-10766830D02*
X4512920Y-10766830D01*
X4512920Y-10766830D02*
X4531968Y-10776354D01*
X4531968Y-10776354D02*
X4541492Y-10795402D01*
X4541492Y-10795402D02*
X4541492Y-10814450D01*
X4541492Y-10814450D02*
X4446253Y-10833497D01*
X4617682Y-10890640D02*
X4636730Y-10900164D01*
X4636730Y-10900164D02*
X4674825Y-10900164D01*
X4674825Y-10900164D02*
X4693873Y-10890640D01*
X4693873Y-10890640D02*
X4703396Y-10871592D01*
X4703396Y-10871592D02*
X4703396Y-10862069D01*
X4703396Y-10862069D02*
X4693873Y-10843021D01*
X4693873Y-10843021D02*
X4674825Y-10833497D01*
X4674825Y-10833497D02*
X4646253Y-10833497D01*
X4646253Y-10833497D02*
X4627206Y-10823973D01*
X4627206Y-10823973D02*
X4617682Y-10804926D01*
X4617682Y-10804926D02*
X4617682Y-10795402D01*
X4617682Y-10795402D02*
X4627206Y-10776354D01*
X4627206Y-10776354D02*
X4646253Y-10766830D01*
X4646253Y-10766830D02*
X4674825Y-10766830D01*
X4674825Y-10766830D02*
X4693873Y-10776354D01*
X4941492Y-10823973D02*
X5093873Y-10823973D01*
X5017682Y-10900164D02*
X5017682Y-10747783D01*
X5370063Y-10785878D02*
X5351015Y-10776354D01*
X5351015Y-10776354D02*
X5341492Y-10766830D01*
X5341492Y-10766830D02*
X5331968Y-10747783D01*
X5331968Y-10747783D02*
X5331968Y-10738259D01*
X5331968Y-10738259D02*
X5341492Y-10719211D01*
X5341492Y-10719211D02*
X5351015Y-10709688D01*
X5351015Y-10709688D02*
X5370063Y-10700164D01*
X5370063Y-10700164D02*
X5408158Y-10700164D01*
X5408158Y-10700164D02*
X5427206Y-10709688D01*
X5427206Y-10709688D02*
X5436730Y-10719211D01*
X5436730Y-10719211D02*
X5446254Y-10738259D01*
X5446254Y-10738259D02*
X5446254Y-10747783D01*
X5446254Y-10747783D02*
X5436730Y-10766830D01*
X5436730Y-10766830D02*
X5427206Y-10776354D01*
X5427206Y-10776354D02*
X5408158Y-10785878D01*
X5408158Y-10785878D02*
X5370063Y-10785878D01*
X5370063Y-10785878D02*
X5351015Y-10795402D01*
X5351015Y-10795402D02*
X5341492Y-10804926D01*
X5341492Y-10804926D02*
X5331968Y-10823973D01*
X5331968Y-10823973D02*
X5331968Y-10862069D01*
X5331968Y-10862069D02*
X5341492Y-10881116D01*
X5341492Y-10881116D02*
X5351015Y-10890640D01*
X5351015Y-10890640D02*
X5370063Y-10900164D01*
X5370063Y-10900164D02*
X5408158Y-10900164D01*
X5408158Y-10900164D02*
X5427206Y-10890640D01*
X5427206Y-10890640D02*
X5436730Y-10881116D01*
X5436730Y-10881116D02*
X5446254Y-10862069D01*
X5446254Y-10862069D02*
X5446254Y-10823973D01*
X5446254Y-10823973D02*
X5436730Y-10804926D01*
X5436730Y-10804926D02*
X5427206Y-10795402D01*
X5427206Y-10795402D02*
X5408158Y-10785878D01*
X5674825Y-10890640D02*
X5693873Y-10900164D01*
X5693873Y-10900164D02*
X5731968Y-10900164D01*
X5731968Y-10900164D02*
X5751015Y-10890640D01*
X5751015Y-10890640D02*
X5760539Y-10871592D01*
X5760539Y-10871592D02*
X5760539Y-10862069D01*
X5760539Y-10862069D02*
X5751015Y-10843021D01*
X5751015Y-10843021D02*
X5731968Y-10833497D01*
X5731968Y-10833497D02*
X5703396Y-10833497D01*
X5703396Y-10833497D02*
X5684349Y-10823973D01*
X5684349Y-10823973D02*
X5674825Y-10804926D01*
X5674825Y-10804926D02*
X5674825Y-10795402D01*
X5674825Y-10795402D02*
X5684349Y-10776354D01*
X5684349Y-10776354D02*
X5703396Y-10766830D01*
X5703396Y-10766830D02*
X5731968Y-10766830D01*
X5731968Y-10766830D02*
X5751015Y-10776354D01*
X5874825Y-10900164D02*
X5855777Y-10890640D01*
X5855777Y-10890640D02*
X5846254Y-10871592D01*
X5846254Y-10871592D02*
X5846254Y-10700164D01*
X5979587Y-10900164D02*
X5960539Y-10890640D01*
X5960539Y-10890640D02*
X5951015Y-10881116D01*
X5951015Y-10881116D02*
X5941492Y-10862069D01*
X5941492Y-10862069D02*
X5941492Y-10804926D01*
X5941492Y-10804926D02*
X5951015Y-10785878D01*
X5951015Y-10785878D02*
X5960539Y-10776354D01*
X5960539Y-10776354D02*
X5979587Y-10766830D01*
X5979587Y-10766830D02*
X6008158Y-10766830D01*
X6008158Y-10766830D02*
X6027206Y-10776354D01*
X6027206Y-10776354D02*
X6036730Y-10785878D01*
X6036730Y-10785878D02*
X6046254Y-10804926D01*
X6046254Y-10804926D02*
X6046254Y-10862069D01*
X6046254Y-10862069D02*
X6036730Y-10881116D01*
X6036730Y-10881116D02*
X6027206Y-10890640D01*
X6027206Y-10890640D02*
X6008158Y-10900164D01*
X6008158Y-10900164D02*
X5979587Y-10900164D01*
X6103396Y-10766830D02*
X6179587Y-10766830D01*
X6131968Y-10700164D02*
X6131968Y-10871592D01*
X6131968Y-10871592D02*
X6141492Y-10890640D01*
X6141492Y-10890640D02*
X6160539Y-10900164D01*
X6160539Y-10900164D02*
X6179587Y-10900164D01*
X6236730Y-10890640D02*
X6255777Y-10900164D01*
X6255777Y-10900164D02*
X6293873Y-10900164D01*
X6293873Y-10900164D02*
X6312920Y-10890640D01*
X6312920Y-10890640D02*
X6322444Y-10871592D01*
X6322444Y-10871592D02*
X6322444Y-10862069D01*
X6322444Y-10862069D02*
X6312920Y-10843021D01*
X6312920Y-10843021D02*
X6293873Y-10833497D01*
X6293873Y-10833497D02*
X6265301Y-10833497D01*
X6265301Y-10833497D02*
X6246254Y-10823973D01*
X6246254Y-10823973D02*
X6236730Y-10804926D01*
X6236730Y-10804926D02*
X6236730Y-10795402D01*
X6236730Y-10795402D02*
X6246254Y-10776354D01*
X6246254Y-10776354D02*
X6265301Y-10766830D01*
X6265301Y-10766830D02*
X6293873Y-10766830D01*
X6293873Y-10766830D02*
X6312920Y-10776354D01*
X6389111Y-10976354D02*
X6398635Y-10966830D01*
X6398635Y-10966830D02*
X6417682Y-10938259D01*
X6417682Y-10938259D02*
X6427206Y-10919211D01*
X6427206Y-10919211D02*
X6436730Y-10890640D01*
X6436730Y-10890640D02*
X6446254Y-10843021D01*
X6446254Y-10843021D02*
X6446254Y-10804926D01*
X6446254Y-10804926D02*
X6436730Y-10757307D01*
X6436730Y-10757307D02*
X6427206Y-10728735D01*
X6427206Y-10728735D02*
X6417682Y-10709688D01*
X6417682Y-10709688D02*
X6398635Y-10681116D01*
X6398635Y-10681116D02*
X6389111Y-10671592D01*
D10*
X-37500Y-11040180D02*
X-37500Y-11105180D01*
X-70000Y-11072680D02*
X-5000Y-11072680D01*
D11*
X293872Y-10964164D02*
X312920Y-10964164D01*
X312920Y-10964164D02*
X331967Y-10973688D01*
X331967Y-10973688D02*
X341491Y-10983211D01*
X341491Y-10983211D02*
X351015Y-11002259D01*
X351015Y-11002259D02*
X360539Y-11040354D01*
X360539Y-11040354D02*
X360539Y-11087973D01*
X360539Y-11087973D02*
X351015Y-11126069D01*
X351015Y-11126069D02*
X341491Y-11145116D01*
X341491Y-11145116D02*
X331967Y-11154640D01*
X331967Y-11154640D02*
X312920Y-11164164D01*
X312920Y-11164164D02*
X293872Y-11164164D01*
X293872Y-11164164D02*
X274824Y-11154640D01*
X274824Y-11154640D02*
X265301Y-11145116D01*
X265301Y-11145116D02*
X255777Y-11126069D01*
X255777Y-11126069D02*
X246253Y-11087973D01*
X246253Y-11087973D02*
X246253Y-11040354D01*
X246253Y-11040354D02*
X255777Y-11002259D01*
X255777Y-11002259D02*
X265301Y-10983211D01*
X265301Y-10983211D02*
X274824Y-10973688D01*
X274824Y-10973688D02*
X293872Y-10964164D01*
X446253Y-11145116D02*
X455777Y-11154640D01*
X455777Y-11154640D02*
X446253Y-11164164D01*
X446253Y-11164164D02*
X436729Y-11154640D01*
X436729Y-11154640D02*
X446253Y-11145116D01*
X446253Y-11145116D02*
X446253Y-11164164D01*
X627205Y-10964164D02*
X589110Y-10964164D01*
X589110Y-10964164D02*
X570063Y-10973688D01*
X570063Y-10973688D02*
X560539Y-10983211D01*
X560539Y-10983211D02*
X541491Y-11011783D01*
X541491Y-11011783D02*
X531967Y-11049878D01*
X531967Y-11049878D02*
X531967Y-11126069D01*
X531967Y-11126069D02*
X541491Y-11145116D01*
X541491Y-11145116D02*
X551015Y-11154640D01*
X551015Y-11154640D02*
X570063Y-11164164D01*
X570063Y-11164164D02*
X608158Y-11164164D01*
X608158Y-11164164D02*
X627205Y-11154640D01*
X627205Y-11154640D02*
X636729Y-11145116D01*
X636729Y-11145116D02*
X646253Y-11126069D01*
X646253Y-11126069D02*
X646253Y-11078450D01*
X646253Y-11078450D02*
X636729Y-11059402D01*
X636729Y-11059402D02*
X627205Y-11049878D01*
X627205Y-11049878D02*
X608158Y-11040354D01*
X608158Y-11040354D02*
X570063Y-11040354D01*
X570063Y-11040354D02*
X551015Y-11049878D01*
X551015Y-11049878D02*
X541491Y-11059402D01*
X541491Y-11059402D02*
X531967Y-11078450D01*
X827205Y-10964164D02*
X731967Y-10964164D01*
X731967Y-10964164D02*
X722443Y-11059402D01*
X722443Y-11059402D02*
X731967Y-11049878D01*
X731967Y-11049878D02*
X751015Y-11040354D01*
X751015Y-11040354D02*
X798634Y-11040354D01*
X798634Y-11040354D02*
X817682Y-11049878D01*
X817682Y-11049878D02*
X827205Y-11059402D01*
X827205Y-11059402D02*
X836729Y-11078450D01*
X836729Y-11078450D02*
X836729Y-11126069D01*
X836729Y-11126069D02*
X827205Y-11145116D01*
X827205Y-11145116D02*
X817682Y-11154640D01*
X817682Y-11154640D02*
X798634Y-11164164D01*
X798634Y-11164164D02*
X751015Y-11164164D01*
X751015Y-11164164D02*
X731967Y-11154640D01*
X731967Y-11154640D02*
X722443Y-11145116D01*
X960539Y-10964164D02*
X979586Y-10964164D01*
X979586Y-10964164D02*
X998634Y-10973688D01*
X998634Y-10973688D02*
X1008158Y-10983211D01*
X1008158Y-10983211D02*
X1017682Y-11002259D01*
X1017682Y-11002259D02*
X1027205Y-11040354D01*
X1027205Y-11040354D02*
X1027205Y-11087973D01*
X1027205Y-11087973D02*
X1017682Y-11126069D01*
X1017682Y-11126069D02*
X1008158Y-11145116D01*
X1008158Y-11145116D02*
X998634Y-11154640D01*
X998634Y-11154640D02*
X979586Y-11164164D01*
X979586Y-11164164D02*
X960539Y-11164164D01*
X960539Y-11164164D02*
X941491Y-11154640D01*
X941491Y-11154640D02*
X931967Y-11145116D01*
X931967Y-11145116D02*
X922443Y-11126069D01*
X922443Y-11126069D02*
X912920Y-11087973D01*
X912920Y-11087973D02*
X912920Y-11040354D01*
X912920Y-11040354D02*
X922443Y-11002259D01*
X922443Y-11002259D02*
X931967Y-10983211D01*
X931967Y-10983211D02*
X941491Y-10973688D01*
X941491Y-10973688D02*
X960539Y-10964164D01*
X1112920Y-11164164D02*
X1112920Y-11030830D01*
X1112920Y-11049878D02*
X1122444Y-11040354D01*
X1122444Y-11040354D02*
X1141491Y-11030830D01*
X1141491Y-11030830D02*
X1170063Y-11030830D01*
X1170063Y-11030830D02*
X1189110Y-11040354D01*
X1189110Y-11040354D02*
X1198634Y-11059402D01*
X1198634Y-11059402D02*
X1198634Y-11164164D01*
X1198634Y-11059402D02*
X1208158Y-11040354D01*
X1208158Y-11040354D02*
X1227205Y-11030830D01*
X1227205Y-11030830D02*
X1255777Y-11030830D01*
X1255777Y-11030830D02*
X1274825Y-11040354D01*
X1274825Y-11040354D02*
X1284348Y-11059402D01*
X1284348Y-11059402D02*
X1284348Y-11164164D01*
X1379586Y-11164164D02*
X1379586Y-11030830D01*
X1379586Y-11049878D02*
X1389110Y-11040354D01*
X1389110Y-11040354D02*
X1408158Y-11030830D01*
X1408158Y-11030830D02*
X1436729Y-11030830D01*
X1436729Y-11030830D02*
X1455777Y-11040354D01*
X1455777Y-11040354D02*
X1465301Y-11059402D01*
X1465301Y-11059402D02*
X1465301Y-11164164D01*
X1465301Y-11059402D02*
X1474824Y-11040354D01*
X1474824Y-11040354D02*
X1493872Y-11030830D01*
X1493872Y-11030830D02*
X1522443Y-11030830D01*
X1522443Y-11030830D02*
X1541491Y-11040354D01*
X1541491Y-11040354D02*
X1551015Y-11059402D01*
X1551015Y-11059402D02*
X1551015Y-11164164D01*
X1941491Y-10954640D02*
X1770063Y-11211783D01*
X2198634Y-10964164D02*
X2217682Y-10964164D01*
X2217682Y-10964164D02*
X2236729Y-10973688D01*
X2236729Y-10973688D02*
X2246253Y-10983211D01*
X2246253Y-10983211D02*
X2255777Y-11002259D01*
X2255777Y-11002259D02*
X2265301Y-11040354D01*
X2265301Y-11040354D02*
X2265301Y-11087973D01*
X2265301Y-11087973D02*
X2255777Y-11126069D01*
X2255777Y-11126069D02*
X2246253Y-11145116D01*
X2246253Y-11145116D02*
X2236729Y-11154640D01*
X2236729Y-11154640D02*
X2217682Y-11164164D01*
X2217682Y-11164164D02*
X2198634Y-11164164D01*
X2198634Y-11164164D02*
X2179587Y-11154640D01*
X2179587Y-11154640D02*
X2170063Y-11145116D01*
X2170063Y-11145116D02*
X2160539Y-11126069D01*
X2160539Y-11126069D02*
X2151015Y-11087973D01*
X2151015Y-11087973D02*
X2151015Y-11040354D01*
X2151015Y-11040354D02*
X2160539Y-11002259D01*
X2160539Y-11002259D02*
X2170063Y-10983211D01*
X2170063Y-10983211D02*
X2179587Y-10973688D01*
X2179587Y-10973688D02*
X2198634Y-10964164D01*
X2351015Y-11145116D02*
X2360539Y-11154640D01*
X2360539Y-11154640D02*
X2351015Y-11164164D01*
X2351015Y-11164164D02*
X2341491Y-11154640D01*
X2341491Y-11154640D02*
X2351015Y-11145116D01*
X2351015Y-11145116D02*
X2351015Y-11164164D01*
X2484348Y-10964164D02*
X2503396Y-10964164D01*
X2503396Y-10964164D02*
X2522444Y-10973688D01*
X2522444Y-10973688D02*
X2531968Y-10983211D01*
X2531968Y-10983211D02*
X2541491Y-11002259D01*
X2541491Y-11002259D02*
X2551015Y-11040354D01*
X2551015Y-11040354D02*
X2551015Y-11087973D01*
X2551015Y-11087973D02*
X2541491Y-11126069D01*
X2541491Y-11126069D02*
X2531968Y-11145116D01*
X2531968Y-11145116D02*
X2522444Y-11154640D01*
X2522444Y-11154640D02*
X2503396Y-11164164D01*
X2503396Y-11164164D02*
X2484348Y-11164164D01*
X2484348Y-11164164D02*
X2465301Y-11154640D01*
X2465301Y-11154640D02*
X2455777Y-11145116D01*
X2455777Y-11145116D02*
X2446253Y-11126069D01*
X2446253Y-11126069D02*
X2436729Y-11087973D01*
X2436729Y-11087973D02*
X2436729Y-11040354D01*
X2436729Y-11040354D02*
X2446253Y-11002259D01*
X2446253Y-11002259D02*
X2455777Y-10983211D01*
X2455777Y-10983211D02*
X2465301Y-10973688D01*
X2465301Y-10973688D02*
X2484348Y-10964164D01*
X2627206Y-10983211D02*
X2636729Y-10973688D01*
X2636729Y-10973688D02*
X2655777Y-10964164D01*
X2655777Y-10964164D02*
X2703396Y-10964164D01*
X2703396Y-10964164D02*
X2722444Y-10973688D01*
X2722444Y-10973688D02*
X2731968Y-10983211D01*
X2731968Y-10983211D02*
X2741491Y-11002259D01*
X2741491Y-11002259D02*
X2741491Y-11021307D01*
X2741491Y-11021307D02*
X2731968Y-11049878D01*
X2731968Y-11049878D02*
X2617682Y-11164164D01*
X2617682Y-11164164D02*
X2741491Y-11164164D01*
X2922444Y-10964164D02*
X2827206Y-10964164D01*
X2827206Y-10964164D02*
X2817682Y-11059402D01*
X2817682Y-11059402D02*
X2827206Y-11049878D01*
X2827206Y-11049878D02*
X2846253Y-11040354D01*
X2846253Y-11040354D02*
X2893872Y-11040354D01*
X2893872Y-11040354D02*
X2912920Y-11049878D01*
X2912920Y-11049878D02*
X2922444Y-11059402D01*
X2922444Y-11059402D02*
X2931967Y-11078450D01*
X2931967Y-11078450D02*
X2931967Y-11126069D01*
X2931967Y-11126069D02*
X2922444Y-11145116D01*
X2922444Y-11145116D02*
X2912920Y-11154640D01*
X2912920Y-11154640D02*
X2893872Y-11164164D01*
X2893872Y-11164164D02*
X2846253Y-11164164D01*
X2846253Y-11164164D02*
X2827206Y-11154640D01*
X2827206Y-11154640D02*
X2817682Y-11145116D01*
X3103396Y-10964164D02*
X3065301Y-10964164D01*
X3065301Y-10964164D02*
X3046253Y-10973688D01*
X3046253Y-10973688D02*
X3036729Y-10983211D01*
X3036729Y-10983211D02*
X3017682Y-11011783D01*
X3017682Y-11011783D02*
X3008158Y-11049878D01*
X3008158Y-11049878D02*
X3008158Y-11126069D01*
X3008158Y-11126069D02*
X3017682Y-11145116D01*
X3017682Y-11145116D02*
X3027206Y-11154640D01*
X3027206Y-11154640D02*
X3046253Y-11164164D01*
X3046253Y-11164164D02*
X3084348Y-11164164D01*
X3084348Y-11164164D02*
X3103396Y-11154640D01*
X3103396Y-11154640D02*
X3112920Y-11145116D01*
X3112920Y-11145116D02*
X3122444Y-11126069D01*
X3122444Y-11126069D02*
X3122444Y-11078450D01*
X3122444Y-11078450D02*
X3112920Y-11059402D01*
X3112920Y-11059402D02*
X3103396Y-11049878D01*
X3103396Y-11049878D02*
X3084348Y-11040354D01*
X3084348Y-11040354D02*
X3046253Y-11040354D01*
X3046253Y-11040354D02*
X3027206Y-11049878D01*
X3027206Y-11049878D02*
X3017682Y-11059402D01*
X3017682Y-11059402D02*
X3008158Y-11078450D01*
X3198634Y-10964164D02*
X3198634Y-11002259D01*
X3274825Y-10964164D02*
X3274825Y-11002259D01*
X3570063Y-11240354D02*
X3560539Y-11230830D01*
X3560539Y-11230830D02*
X3541491Y-11202259D01*
X3541491Y-11202259D02*
X3531968Y-11183211D01*
X3531968Y-11183211D02*
X3522444Y-11154640D01*
X3522444Y-11154640D02*
X3512920Y-11107021D01*
X3512920Y-11107021D02*
X3512920Y-11068926D01*
X3512920Y-11068926D02*
X3522444Y-11021307D01*
X3522444Y-11021307D02*
X3531968Y-10992735D01*
X3531968Y-10992735D02*
X3541491Y-10973688D01*
X3541491Y-10973688D02*
X3560539Y-10945116D01*
X3560539Y-10945116D02*
X3570063Y-10935592D01*
X3751015Y-11164164D02*
X3636729Y-11164164D01*
X3693872Y-11164164D02*
X3693872Y-10964164D01*
X3693872Y-10964164D02*
X3674825Y-10992735D01*
X3674825Y-10992735D02*
X3655777Y-11011783D01*
X3655777Y-11011783D02*
X3636729Y-11021307D01*
X3922444Y-10964164D02*
X3884348Y-10964164D01*
X3884348Y-10964164D02*
X3865301Y-10973688D01*
X3865301Y-10973688D02*
X3855777Y-10983211D01*
X3855777Y-10983211D02*
X3836729Y-11011783D01*
X3836729Y-11011783D02*
X3827206Y-11049878D01*
X3827206Y-11049878D02*
X3827206Y-11126069D01*
X3827206Y-11126069D02*
X3836729Y-11145116D01*
X3836729Y-11145116D02*
X3846253Y-11154640D01*
X3846253Y-11154640D02*
X3865301Y-11164164D01*
X3865301Y-11164164D02*
X3903396Y-11164164D01*
X3903396Y-11164164D02*
X3922444Y-11154640D01*
X3922444Y-11154640D02*
X3931968Y-11145116D01*
X3931968Y-11145116D02*
X3941491Y-11126069D01*
X3941491Y-11126069D02*
X3941491Y-11078450D01*
X3941491Y-11078450D02*
X3931968Y-11059402D01*
X3931968Y-11059402D02*
X3922444Y-11049878D01*
X3922444Y-11049878D02*
X3903396Y-11040354D01*
X3903396Y-11040354D02*
X3865301Y-11040354D01*
X3865301Y-11040354D02*
X3846253Y-11049878D01*
X3846253Y-11049878D02*
X3836729Y-11059402D01*
X3836729Y-11059402D02*
X3827206Y-11078450D01*
X4179587Y-11164164D02*
X4179587Y-10964164D01*
X4265301Y-11164164D02*
X4265301Y-11059402D01*
X4265301Y-11059402D02*
X4255777Y-11040354D01*
X4255777Y-11040354D02*
X4236730Y-11030830D01*
X4236730Y-11030830D02*
X4208158Y-11030830D01*
X4208158Y-11030830D02*
X4189110Y-11040354D01*
X4189110Y-11040354D02*
X4179587Y-11049878D01*
X4389111Y-11164164D02*
X4370063Y-11154640D01*
X4370063Y-11154640D02*
X4360539Y-11145116D01*
X4360539Y-11145116D02*
X4351015Y-11126069D01*
X4351015Y-11126069D02*
X4351015Y-11068926D01*
X4351015Y-11068926D02*
X4360539Y-11049878D01*
X4360539Y-11049878D02*
X4370063Y-11040354D01*
X4370063Y-11040354D02*
X4389111Y-11030830D01*
X4389111Y-11030830D02*
X4417682Y-11030830D01*
X4417682Y-11030830D02*
X4436730Y-11040354D01*
X4436730Y-11040354D02*
X4446253Y-11049878D01*
X4446253Y-11049878D02*
X4455777Y-11068926D01*
X4455777Y-11068926D02*
X4455777Y-11126069D01*
X4455777Y-11126069D02*
X4446253Y-11145116D01*
X4446253Y-11145116D02*
X4436730Y-11154640D01*
X4436730Y-11154640D02*
X4417682Y-11164164D01*
X4417682Y-11164164D02*
X4389111Y-11164164D01*
X4570063Y-11164164D02*
X4551015Y-11154640D01*
X4551015Y-11154640D02*
X4541492Y-11135592D01*
X4541492Y-11135592D02*
X4541492Y-10964164D01*
X4722444Y-11154640D02*
X4703396Y-11164164D01*
X4703396Y-11164164D02*
X4665301Y-11164164D01*
X4665301Y-11164164D02*
X4646253Y-11154640D01*
X4646253Y-11154640D02*
X4636730Y-11135592D01*
X4636730Y-11135592D02*
X4636730Y-11059402D01*
X4636730Y-11059402D02*
X4646253Y-11040354D01*
X4646253Y-11040354D02*
X4665301Y-11030830D01*
X4665301Y-11030830D02*
X4703396Y-11030830D01*
X4703396Y-11030830D02*
X4722444Y-11040354D01*
X4722444Y-11040354D02*
X4731968Y-11059402D01*
X4731968Y-11059402D02*
X4731968Y-11078450D01*
X4731968Y-11078450D02*
X4636730Y-11097497D01*
X4808158Y-11154640D02*
X4827206Y-11164164D01*
X4827206Y-11164164D02*
X4865301Y-11164164D01*
X4865301Y-11164164D02*
X4884349Y-11154640D01*
X4884349Y-11154640D02*
X4893873Y-11135592D01*
X4893873Y-11135592D02*
X4893873Y-11126069D01*
X4893873Y-11126069D02*
X4884349Y-11107021D01*
X4884349Y-11107021D02*
X4865301Y-11097497D01*
X4865301Y-11097497D02*
X4836730Y-11097497D01*
X4836730Y-11097497D02*
X4817682Y-11087973D01*
X4817682Y-11087973D02*
X4808158Y-11068926D01*
X4808158Y-11068926D02*
X4808158Y-11059402D01*
X4808158Y-11059402D02*
X4817682Y-11040354D01*
X4817682Y-11040354D02*
X4836730Y-11030830D01*
X4836730Y-11030830D02*
X4865301Y-11030830D01*
X4865301Y-11030830D02*
X4884349Y-11040354D01*
X4960539Y-11240354D02*
X4970063Y-11230830D01*
X4970063Y-11230830D02*
X4989111Y-11202259D01*
X4989111Y-11202259D02*
X4998634Y-11183211D01*
X4998634Y-11183211D02*
X5008158Y-11154640D01*
X5008158Y-11154640D02*
X5017682Y-11107021D01*
X5017682Y-11107021D02*
X5017682Y-11068926D01*
X5017682Y-11068926D02*
X5008158Y-11021307D01*
X5008158Y-11021307D02*
X4998634Y-10992735D01*
X4998634Y-10992735D02*
X4989111Y-10973688D01*
X4989111Y-10973688D02*
X4970063Y-10945116D01*
X4970063Y-10945116D02*
X4960539Y-10935592D01*
M02*
