M48
; DRILL file {KiCad 9.0.3} date 2025-09-14T18:43:41+0200
; FORMAT={-:-/ absolute / metric / decimal}
; #@! TF.CreationDate,2025-09-14T18:43:41+02:00
; #@! TF.GenerationSoftware,Kicad,Pcbnew,9.0.3
; #@! TF.FileFunction,NonPlated,1,2,NPTH
FMAT,2
METRIC
; #@! TA.AperFunction,NonPlated,NPTH,ComponentDrill
T1C0.500
; #@! TA.AperFunction,NonPlated,NPTH,ComponentDrill
T2C0.900
%
G90
G05
T1
X0.5Y-8.0
X0.5Y-90.997
X1.5Y-8.0
X1.5Y-90.997
X2.5Y-8.0
X2.5Y-90.997
X3.5Y-8.0
X3.5Y-90.997
X4.5Y-8.0
X4.5Y-90.997
X7.5Y-25.339
X7.5Y-70.337
X7.5Y-26.339
X7.5Y-71.337
X7.5Y-27.339
X7.5Y-72.337
X8.0Y-0.5
X8.0Y-1.5
X8.0Y-2.5
X8.0Y-3.5
X8.0Y-4.5
X8.0Y-48.498
X8.0Y-49.498
X8.0Y-50.498
X8.0Y-94.497
X8.0Y-95.497
X8.0Y-96.497
X8.0Y-97.497
X8.0Y-98.497
X22.738Y-44.416
X22.738Y-89.414
X23.738Y-44.416
X23.738Y-89.414
X24.738Y-44.416
X24.738Y-89.414
X33.025Y-7.5
X33.025Y-52.498
X34.025Y-7.5
X34.025Y-52.498
X35.025Y-7.5
X35.025Y-52.498
X40.488Y-25.339
X40.488Y-26.339
X40.488Y-27.339
X40.488Y-70.337
X40.488Y-71.337
X40.488Y-72.337
X42.988Y-48.498
X42.988Y-49.498
X42.988Y-50.498
X45.488Y-25.339
X45.488Y-70.337
X45.488Y-26.339
X45.488Y-71.337
X45.488Y-27.339
X45.488Y-72.337
X60.726Y-44.416
X60.726Y-89.414
X61.726Y-44.416
X61.726Y-89.414
X62.726Y-44.416
X62.726Y-89.414
X71.013Y-7.5
X71.013Y-52.498
X72.013Y-7.5
X72.013Y-52.498
X73.013Y-7.5
X73.013Y-52.498
X77.976Y-0.5
X77.976Y-1.5
X77.976Y-2.5
X77.976Y-3.5
X77.976Y-4.5
X77.976Y-48.498
X77.976Y-49.498
X77.976Y-50.498
X77.976Y-94.497
X77.976Y-95.497
X77.976Y-96.497
X77.976Y-97.497
X77.976Y-98.497
X78.476Y-25.339
X78.476Y-26.339
X78.476Y-27.339
X78.476Y-70.337
X78.476Y-71.337
X78.476Y-72.337
X81.476Y-8.0
X81.476Y-90.997
X82.476Y-8.0
X82.476Y-90.997
X83.476Y-8.0
X83.476Y-90.997
X84.476Y-8.0
X84.476Y-90.997
X85.476Y-8.0
X85.476Y-90.997
T2
X37.911Y-22.553
X37.911Y-25.553
X37.911Y-67.551
X37.911Y-70.551
X75.899Y-22.553
X75.899Y-25.553
X75.899Y-67.551
X75.899Y-70.551
M30
