G04 #@! TF.GenerationSoftware,KiCad,Pcbnew,9.0.3*
G04 #@! TF.CreationDate,2025-09-14T18:43:41+02:00*
G04 #@! TF.ProjectId,panel,70616e65-6c2e-46b6-9963-61645f706362,rev?*
G04 #@! TF.SameCoordinates,Original*
G04 #@! TF.FileFunction,Soldermask,Top*
G04 #@! TF.FilePolarity,Negative*
%FSLAX46Y46*%
G04 Gerber Fmt 4.6, Leading zero omitted, Abs format (unit mm)*
G04 Created by KiCad (PCBNEW 9.0.3) date 2025-09-14 18:43:41*
%MOMM*%
%LPD*%
G01*
G04 APERTURE LIST*
G04 Aperture macros list*
%AMRoundRect*
0 Rectangle with rounded corners*
0 $1 Rounding radius*
0 $2 $3 $4 $5 $6 $7 $8 $9 X,Y pos of 4 corners*
0 Add a 4 corners polygon primitive as box body*
4,1,4,$2,$3,$4,$5,$6,$7,$8,$9,$2,$3,0*
0 Add four circle primitives for the rounded corners*
1,1,$1+$1,$2,$3*
1,1,$1+$1,$4,$5*
1,1,$1+$1,$6,$7*
1,1,$1+$1,$8,$9*
0 Add four rect primitives between the rounded corners*
20,1,$1+$1,$2,$3,$4,$5,0*
20,1,$1+$1,$4,$5,$6,$7,0*
20,1,$1+$1,$6,$7,$8,$9,0*
20,1,$1+$1,$8,$9,$2,$3,0*%
%AMOutline5P*
0 Free polygon, 5 corners , with rotation*
0 The origin of the aperture is its center*
0 number of corners: always 5*
0 $1 to $10 corner X, Y*
0 $11 Rotation angle, in degrees counterclockwise*
0 create outline with 5 corners*
4,1,5,$1,$2,$3,$4,$5,$6,$7,$8,$9,$10,$1,$2,$11*%
%AMOutline6P*
0 Free polygon, 6 corners , with rotation*
0 The origin of the aperture is its center*
0 number of corners: always 6*
0 $1 to $12 corner X, Y*
0 $13 Rotation angle, in degrees counterclockwise*
0 create outline with 6 corners*
4,1,6,$1,$2,$3,$4,$5,$6,$7,$8,$9,$10,$11,$12,$1,$2,$13*%
%AMOutline7P*
0 Free polygon, 7 corners , with rotation*
0 The origin of the aperture is its center*
0 number of corners: always 7*
0 $1 to $14 corner X, Y*
0 $15 Rotation angle, in degrees counterclockwise*
0 create outline with 7 corners*
4,1,7,$1,$2,$3,$4,$5,$6,$7,$8,$9,$10,$11,$12,$13,$14,$1,$2,$15*%
%AMOutline8P*
0 Free polygon, 8 corners , with rotation*
0 The origin of the aperture is its center*
0 number of corners: always 8*
0 $1 to $16 corner X, Y*
0 $17 Rotation angle, in degrees counterclockwise*
0 create outline with 8 corners*
4,1,8,$1,$2,$3,$4,$5,$6,$7,$8,$9,$10,$11,$12,$13,$14,$15,$16,$1,$2,$17*%
G04 Aperture macros list end*
%ADD10RoundRect,0.200000X-0.275000X0.200000X-0.275000X-0.200000X0.275000X-0.200000X0.275000X0.200000X0*%
%ADD11RoundRect,0.225000X-0.250000X0.225000X-0.250000X-0.225000X0.250000X-0.225000X0.250000X0.225000X0*%
%ADD12R,1.000000X1.000000*%
%ADD13O,1.000000X1.000000*%
%ADD14RoundRect,0.250000X-0.250000X0.250000X-0.250000X-0.250000X0.250000X-0.250000X0.250000X0.250000X0*%
%ADD15RoundRect,0.225000X-0.225000X-0.250000X0.225000X-0.250000X0.225000X0.250000X-0.225000X0.250000X0*%
%ADD16RoundRect,0.225000X0.250000X-0.225000X0.250000X0.225000X-0.250000X0.225000X-0.250000X-0.225000X0*%
%ADD17RoundRect,0.250000X0.250000X0.250000X-0.250000X0.250000X-0.250000X-0.250000X0.250000X-0.250000X0*%
%ADD18RoundRect,0.225000X0.225000X0.250000X-0.225000X0.250000X-0.225000X-0.250000X0.225000X-0.250000X0*%
%ADD19RoundRect,0.375000X0.375000X-0.625000X0.375000X0.625000X-0.375000X0.625000X-0.375000X-0.625000X0*%
%ADD20RoundRect,0.500000X1.400000X-0.500000X1.400000X0.500000X-1.400000X0.500000X-1.400000X-0.500000X0*%
%ADD21RoundRect,0.102000X-0.150000X-0.550000X0.150000X-0.550000X0.150000X0.550000X-0.150000X0.550000X0*%
%ADD22RoundRect,0.102000X-1.150000X-1.550000X1.150000X-1.550000X1.150000X1.550000X-1.150000X1.550000X0*%
%ADD23RoundRect,0.200000X0.200000X0.275000X-0.200000X0.275000X-0.200000X-0.275000X0.200000X-0.275000X0*%
%ADD24RoundRect,0.150000X-0.150000X0.512500X-0.150000X-0.512500X0.150000X-0.512500X0.150000X0.512500X0*%
%ADD25RoundRect,0.150000X0.587500X0.150000X-0.587500X0.150000X-0.587500X-0.150000X0.587500X-0.150000X0*%
%ADD26RoundRect,0.150000X0.150000X-0.587500X0.150000X0.587500X-0.150000X0.587500X-0.150000X-0.587500X0*%
%ADD27RoundRect,0.200000X0.275000X-0.200000X0.275000X0.200000X-0.275000X0.200000X-0.275000X-0.200000X0*%
%ADD28R,0.800000X1.000000*%
%ADD29R,1.500000X0.700000*%
%ADD30RoundRect,0.218750X0.218750X0.256250X-0.218750X0.256250X-0.218750X-0.256250X0.218750X-0.256250X0*%
%ADD31RoundRect,0.218750X-0.256250X0.218750X-0.256250X-0.218750X0.256250X-0.218750X0.256250X0.218750X0*%
%ADD32R,2.900000X1.800000*%
%ADD33RoundRect,0.100000X0.575000X-0.100000X0.575000X0.100000X-0.575000X0.100000X-0.575000X-0.100000X0*%
%ADD34O,1.600000X0.900000*%
%ADD35RoundRect,0.250000X0.450000X-0.550000X0.450000X0.550000X-0.450000X0.550000X-0.450000X-0.550000X0*%
%ADD36RoundRect,0.250000X0.700000X-0.700000X0.700000X0.700000X-0.700000X0.700000X-0.700000X-0.700000X0*%
%ADD37R,0.800000X0.400000*%
%ADD38R,1.450000X1.450000*%
%ADD39R,0.400000X0.800000*%
%ADD40R,0.700000X0.700000*%
%ADD41Outline5P,-0.725000X0.725000X0.725000X0.725000X0.725000X-0.217500X0.217500X-0.725000X-0.725000X-0.725000X180.000000*%
%ADD42R,1.700000X0.900000*%
G04 APERTURE END LIST*
D10*
G04 #@! TO.C,R2*
X73155800Y-42785800D03*
X73155800Y-44435800D03*
G04 #@! TD*
D11*
G04 #@! TO.C,C14*
X22924800Y-29424600D03*
X22924800Y-30974600D03*
G04 #@! TD*
D10*
G04 #@! TO.C,R11*
X70311000Y-74373000D03*
X70311000Y-76023000D03*
G04 #@! TD*
D12*
G04 #@! TO.C,J4*
X10529600Y-72495200D03*
D13*
X10529600Y-71225200D03*
G04 #@! TD*
D14*
G04 #@! TO.C,D5*
X10783600Y-84545200D03*
X10783600Y-87045200D03*
G04 #@! TD*
D15*
G04 #@! TO.C,C1*
X32868600Y-19480800D03*
X34418600Y-19480800D03*
G04 #@! TD*
D12*
G04 #@! TO.C,BAT1*
X37961600Y-75401200D03*
D13*
X36691600Y-75401200D03*
G04 #@! TD*
D16*
G04 #@! TO.C,C16*
X67263000Y-75973000D03*
X67263000Y-74423000D03*
G04 #@! TD*
D17*
G04 #@! TO.C,D1*
X32861600Y-22274800D03*
X30361600Y-22274800D03*
G04 #@! TD*
D16*
G04 #@! TO.C,C5*
X34532600Y-56110200D03*
X34532600Y-54560200D03*
G04 #@! TD*
D11*
G04 #@! TO.C,C6*
X47755800Y-20483800D03*
X47755800Y-22033800D03*
G04 #@! TD*
D14*
G04 #@! TO.C,D4*
X13374400Y-33674200D03*
X13374400Y-36174200D03*
G04 #@! TD*
D10*
G04 #@! TO.C,R4*
X28563600Y-22211800D03*
X28563600Y-23861800D03*
G04 #@! TD*
D18*
G04 #@! TO.C,C2*
X65802800Y-17956800D03*
X64252800Y-17956800D03*
G04 #@! TD*
D16*
G04 #@! TO.C,C11*
X18352800Y-30974600D03*
X18352800Y-29424600D03*
G04 #@! TD*
D11*
G04 #@! TO.C,C8*
X51769000Y-74423000D03*
X51769000Y-75973000D03*
G04 #@! TD*
D16*
G04 #@! TO.C,C12*
X19876800Y-75973000D03*
X19876800Y-74423000D03*
G04 #@! TD*
D10*
G04 #@! TO.C,R8*
X64215000Y-29374600D03*
X64215000Y-31024600D03*
G04 #@! TD*
D19*
G04 #@! TO.C,U3*
X26771600Y-15874800D03*
X29071600Y-15874800D03*
D20*
X29071600Y-9574800D03*
D19*
X31371600Y-15874800D03*
G04 #@! TD*
D11*
G04 #@! TO.C,C14*
X60913000Y-74423000D03*
X60913000Y-75973000D03*
G04 #@! TD*
D16*
G04 #@! TO.C,C10*
X16828800Y-30974600D03*
X16828800Y-29424600D03*
G04 #@! TD*
D21*
G04 #@! TO.C,J2*
X18242800Y-33501600D03*
X18742800Y-33501600D03*
X19242800Y-33501600D03*
X19742800Y-33501600D03*
X20242800Y-33501600D03*
X20742800Y-33501600D03*
X21242800Y-33501600D03*
X21742800Y-33501600D03*
X22242800Y-33501600D03*
X22742800Y-33501600D03*
X23242800Y-33501600D03*
X23742800Y-33501600D03*
X24242800Y-33501600D03*
X24742800Y-33501600D03*
X25242800Y-33501600D03*
X25742800Y-33501600D03*
X26242800Y-33501600D03*
X26742800Y-33501600D03*
X27242800Y-33501600D03*
X27742800Y-33501600D03*
X28242800Y-33501600D03*
X28742800Y-33501600D03*
X29242800Y-33501600D03*
X29742800Y-33501600D03*
D22*
X16572800Y-35201600D03*
X31412800Y-35201600D03*
G04 #@! TD*
D14*
G04 #@! TO.C,D3*
X51032400Y-39546800D03*
X51032400Y-42046800D03*
G04 #@! TD*
D23*
G04 #@! TO.C,R5*
X64582800Y-70067200D03*
X62932800Y-70067200D03*
G04 #@! TD*
D24*
G04 #@! TO.C,U2*
X68644800Y-84423700D03*
X67694800Y-84423700D03*
X66744800Y-84423700D03*
X66744800Y-86698700D03*
X67694800Y-86698700D03*
X68644800Y-86698700D03*
G04 #@! TD*
D25*
G04 #@! TO.C,Q2*
X17133600Y-87461200D03*
X17133600Y-85561200D03*
X15258600Y-86511200D03*
G04 #@! TD*
D26*
G04 #@! TO.C,Q1*
X67379800Y-20164300D03*
X69279800Y-20164300D03*
X68329800Y-18289300D03*
G04 #@! TD*
D25*
G04 #@! TO.C,Q2*
X55121800Y-87461200D03*
X55121800Y-85561200D03*
X53246800Y-86511200D03*
G04 #@! TD*
D16*
G04 #@! TO.C,C4*
X76203800Y-89384200D03*
X76203800Y-87834200D03*
G04 #@! TD*
G04 #@! TO.C,C16*
X29274800Y-30974600D03*
X29274800Y-29424600D03*
G04 #@! TD*
G04 #@! TO.C,C17*
X30798800Y-30974600D03*
X30798800Y-29424600D03*
G04 #@! TD*
D17*
G04 #@! TO.C,D1*
X70849800Y-22274800D03*
X68349800Y-22274800D03*
G04 #@! TD*
D21*
G04 #@! TO.C,J2*
X18242800Y-78500000D03*
X18742800Y-78500000D03*
X19242800Y-78500000D03*
X19742800Y-78500000D03*
X20242800Y-78500000D03*
X20742800Y-78500000D03*
X21242800Y-78500000D03*
X21742800Y-78500000D03*
X22242800Y-78500000D03*
X22742800Y-78500000D03*
X23242800Y-78500000D03*
X23742800Y-78500000D03*
X24242800Y-78500000D03*
X24742800Y-78500000D03*
X25242800Y-78500000D03*
X25742800Y-78500000D03*
X26242800Y-78500000D03*
X26742800Y-78500000D03*
X27242800Y-78500000D03*
X27742800Y-78500000D03*
X28242800Y-78500000D03*
X28742800Y-78500000D03*
X29242800Y-78500000D03*
X29742800Y-78500000D03*
D22*
X16572800Y-80200000D03*
X31412800Y-80200000D03*
G04 #@! TD*
D27*
G04 #@! TO.C,R3*
X71631800Y-89434200D03*
X71631800Y-87784200D03*
G04 #@! TD*
D10*
G04 #@! TO.C,R10*
X71835000Y-29374600D03*
X71835000Y-31024600D03*
G04 #@! TD*
D27*
G04 #@! TO.C,R12*
X34532600Y-17765800D03*
X34532600Y-16115800D03*
G04 #@! TD*
D16*
G04 #@! TO.C,C7*
X47755800Y-15683800D03*
X47755800Y-14133800D03*
G04 #@! TD*
D26*
G04 #@! TO.C,Q1*
X67379800Y-65162700D03*
X69279800Y-65162700D03*
X68329800Y-63287700D03*
G04 #@! TD*
D27*
G04 #@! TO.C,R7*
X9767600Y-64034200D03*
X9767600Y-62384200D03*
G04 #@! TD*
D26*
G04 #@! TO.C,Q1*
X29391600Y-65162700D03*
X31291600Y-65162700D03*
X30341600Y-63287700D03*
G04 #@! TD*
D17*
G04 #@! TO.C,D1*
X70849800Y-67273200D03*
X68349800Y-67273200D03*
G04 #@! TD*
D11*
G04 #@! TO.C,C14*
X22924800Y-74423000D03*
X22924800Y-75973000D03*
G04 #@! TD*
D27*
G04 #@! TO.C,R1*
X70234800Y-85878200D03*
X70234800Y-84228200D03*
G04 #@! TD*
D23*
G04 #@! TO.C,R13*
X34214600Y-69051200D03*
X32564600Y-69051200D03*
G04 #@! TD*
D12*
G04 #@! TO.C,BAT1*
X75949800Y-30402800D03*
D13*
X74679800Y-30402800D03*
G04 #@! TD*
D28*
G04 #@! TO.C,SW3*
X36800600Y-72701200D03*
X39010600Y-72701200D03*
X36800600Y-65401200D03*
X39010600Y-65401200D03*
D29*
X36150600Y-71301200D03*
X36150600Y-68301200D03*
X36150600Y-66801200D03*
G04 #@! TD*
D23*
G04 #@! TO.C,R5*
X26594600Y-70067200D03*
X24944600Y-70067200D03*
G04 #@! TD*
D18*
G04 #@! TO.C,C18*
X51274000Y-82959100D03*
X49724000Y-82959100D03*
G04 #@! TD*
G04 #@! TO.C,C18*
X51274000Y-37960700D03*
X49724000Y-37960700D03*
G04 #@! TD*
D11*
G04 #@! TO.C,C6*
X9767600Y-20483800D03*
X9767600Y-22033800D03*
G04 #@! TD*
D30*
G04 #@! TO.C,D6*
X34088600Y-25576800D03*
X32513600Y-25576800D03*
G04 #@! TD*
D11*
G04 #@! TO.C,C8*
X51769000Y-29424600D03*
X51769000Y-30974600D03*
G04 #@! TD*
D10*
G04 #@! TO.C,R8*
X26226800Y-29374600D03*
X26226800Y-31024600D03*
G04 #@! TD*
D18*
G04 #@! TO.C,C18*
X13285800Y-82959100D03*
X11735800Y-82959100D03*
G04 #@! TD*
D11*
G04 #@! TO.C,C15*
X24702800Y-29424600D03*
X24702800Y-30974600D03*
G04 #@! TD*
D10*
G04 #@! TO.C,R11*
X32322800Y-29374600D03*
X32322800Y-31024600D03*
G04 #@! TD*
D23*
G04 #@! TO.C,R5*
X26594600Y-25068800D03*
X24944600Y-25068800D03*
G04 #@! TD*
D10*
G04 #@! TO.C,R2*
X35167600Y-42785800D03*
X35167600Y-44435800D03*
G04 #@! TD*
D31*
G04 #@! TO.C,D2*
X36691600Y-87694700D03*
X36691600Y-89269700D03*
G04 #@! TD*
D27*
G04 #@! TO.C,R12*
X34532600Y-62764200D03*
X34532600Y-61114200D03*
G04 #@! TD*
D15*
G04 #@! TO.C,C1*
X70856800Y-64479200D03*
X72406800Y-64479200D03*
G04 #@! TD*
D11*
G04 #@! TO.C,C8*
X13780800Y-74423000D03*
X13780800Y-75973000D03*
G04 #@! TD*
D27*
G04 #@! TO.C,R6*
X34532600Y-59462200D03*
X34532600Y-57812200D03*
G04 #@! TD*
G04 #@! TO.C,R12*
X72520800Y-17765800D03*
X72520800Y-16115800D03*
G04 #@! TD*
G04 #@! TO.C,R6*
X72520800Y-59462200D03*
X72520800Y-57812200D03*
G04 #@! TD*
D16*
G04 #@! TO.C,C16*
X67263000Y-30974600D03*
X67263000Y-29424600D03*
G04 #@! TD*
D31*
G04 #@! TO.C,D2*
X74679800Y-87694700D03*
X74679800Y-89269700D03*
G04 #@! TD*
D16*
G04 #@! TO.C,C7*
X9767600Y-60682200D03*
X9767600Y-59132200D03*
G04 #@! TD*
G04 #@! TO.C,C9*
X53293000Y-30974600D03*
X53293000Y-29424600D03*
G04 #@! TD*
D30*
G04 #@! TO.C,D6*
X72076800Y-70575200D03*
X70501800Y-70575200D03*
G04 #@! TD*
D16*
G04 #@! TO.C,C4*
X38215600Y-89384200D03*
X38215600Y-87834200D03*
G04 #@! TD*
D10*
G04 #@! TO.C,R9*
X27750800Y-74373000D03*
X27750800Y-76023000D03*
G04 #@! TD*
D23*
G04 #@! TO.C,R13*
X72202800Y-69051200D03*
X70552800Y-69051200D03*
G04 #@! TD*
D16*
G04 #@! TO.C,C9*
X15304800Y-30974600D03*
X15304800Y-29424600D03*
G04 #@! TD*
D28*
G04 #@! TO.C,SW3*
X74788800Y-27702800D03*
X76998800Y-27702800D03*
X74788800Y-20402800D03*
X76998800Y-20402800D03*
D29*
X74138800Y-26302800D03*
X74138800Y-23302800D03*
X74138800Y-21802800D03*
G04 #@! TD*
D11*
G04 #@! TO.C,C8*
X13780800Y-29424600D03*
X13780800Y-30974600D03*
G04 #@! TD*
D16*
G04 #@! TO.C,C11*
X56341000Y-75973000D03*
X56341000Y-74423000D03*
G04 #@! TD*
D18*
G04 #@! TO.C,C2*
X65802800Y-62955200D03*
X64252800Y-62955200D03*
G04 #@! TD*
D23*
G04 #@! TO.C,R5*
X64582800Y-25068800D03*
X62932800Y-25068800D03*
G04 #@! TD*
D32*
G04 #@! TO.C,L1*
X48568600Y-77560600D03*
X48568600Y-80760600D03*
G04 #@! TD*
D11*
G04 #@! TO.C,C13*
X21400800Y-74423000D03*
X21400800Y-75973000D03*
G04 #@! TD*
D12*
G04 #@! TO.C,BAT1*
X37961600Y-30402800D03*
D13*
X36691600Y-30402800D03*
G04 #@! TD*
D12*
G04 #@! TO.C,J4*
X48517800Y-27496800D03*
D13*
X48517800Y-26226800D03*
G04 #@! TD*
D16*
G04 #@! TO.C,C4*
X38215600Y-44385800D03*
X38215600Y-42835800D03*
G04 #@! TD*
D10*
G04 #@! TO.C,R4*
X66551800Y-67210200D03*
X66551800Y-68860200D03*
G04 #@! TD*
D16*
G04 #@! TO.C,C12*
X57865000Y-75973000D03*
X57865000Y-74423000D03*
G04 #@! TD*
D28*
G04 #@! TO.C,SW3*
X74788800Y-72701200D03*
X76998800Y-72701200D03*
X74788800Y-65401200D03*
X76998800Y-65401200D03*
D29*
X74138800Y-71301200D03*
X74138800Y-68301200D03*
X74138800Y-66801200D03*
G04 #@! TD*
D11*
G04 #@! TO.C,C13*
X59389000Y-74423000D03*
X59389000Y-75973000D03*
G04 #@! TD*
D16*
G04 #@! TO.C,C11*
X56341000Y-30974600D03*
X56341000Y-29424600D03*
G04 #@! TD*
D33*
G04 #@! TO.C,J1*
X73782800Y-82981200D03*
X73782800Y-82331200D03*
X73782800Y-81681200D03*
X73782800Y-81031200D03*
X73782800Y-80381200D03*
D34*
X76457800Y-84981200D03*
D35*
X74007800Y-84881200D03*
D36*
X76457800Y-82881200D03*
X76457800Y-80481200D03*
D35*
X74007800Y-78481200D03*
D34*
X76457800Y-78381200D03*
G04 #@! TD*
D27*
G04 #@! TO.C,R1*
X32246600Y-85878200D03*
X32246600Y-84228200D03*
G04 #@! TD*
D14*
G04 #@! TO.C,D3*
X13044200Y-39546800D03*
X13044200Y-42046800D03*
G04 #@! TD*
D10*
G04 #@! TO.C,R4*
X66551800Y-22211800D03*
X66551800Y-23861800D03*
G04 #@! TD*
D12*
G04 #@! TO.C,J4*
X48517800Y-72495200D03*
D13*
X48517800Y-71225200D03*
G04 #@! TD*
D18*
G04 #@! TO.C,C2*
X27814600Y-62955200D03*
X26264600Y-62955200D03*
G04 #@! TD*
D37*
G04 #@! TO.C,U1*
X49539800Y-60045200D03*
X49539800Y-60845200D03*
X49539800Y-61645200D03*
X49539800Y-62445200D03*
X49539800Y-63245200D03*
X49539800Y-64045200D03*
X49539800Y-64845200D03*
X49539800Y-65645200D03*
X49539800Y-66445200D03*
D38*
X55439800Y-66020200D03*
D37*
X49539800Y-67245200D03*
X49539800Y-67995200D03*
D39*
X50639800Y-68945200D03*
X51439800Y-68945200D03*
X52239800Y-68945200D03*
X53039800Y-68945200D03*
X53839800Y-68945200D03*
X54639800Y-68945200D03*
X55439800Y-68945200D03*
X56239800Y-68945200D03*
X57039800Y-68945200D03*
X57839800Y-68945200D03*
X58639800Y-68945200D03*
X59439800Y-68945200D03*
X60239800Y-68945200D03*
D37*
X61339800Y-68045200D03*
X61339800Y-67245200D03*
X61339800Y-66445200D03*
X61339800Y-65645200D03*
X61339800Y-64845200D03*
X61339800Y-64045200D03*
X61339800Y-63245200D03*
X61339800Y-62445200D03*
X61339800Y-61645200D03*
X61339800Y-60845200D03*
X61339800Y-60095200D03*
D39*
X60239800Y-59145200D03*
X60239800Y-59145200D03*
X59439800Y-59145200D03*
X58639800Y-59145200D03*
X57839800Y-59145200D03*
X57039800Y-59145200D03*
X56239800Y-59145200D03*
X55439800Y-59145200D03*
X54639800Y-59145200D03*
X53839800Y-59145200D03*
X53039800Y-59145200D03*
X52239800Y-59145200D03*
X51439800Y-59145200D03*
X50639800Y-59145200D03*
D38*
X55439800Y-64045200D03*
D40*
X61389800Y-59095200D03*
X61389800Y-68995200D03*
X49489800Y-68995200D03*
X49489800Y-59095200D03*
D41*
X53489800Y-62070200D03*
D38*
X55439800Y-62070200D03*
X57414800Y-62070200D03*
X53464800Y-64045200D03*
X57414800Y-64045200D03*
X53464800Y-66020200D03*
X57414800Y-66020200D03*
G04 #@! TD*
D42*
G04 #@! TO.C,SW4*
X75060800Y-14732800D03*
X75060800Y-18132800D03*
G04 #@! TD*
D10*
G04 #@! TO.C,R11*
X32322800Y-74373000D03*
X32322800Y-76023000D03*
G04 #@! TD*
D27*
G04 #@! TO.C,R6*
X34532600Y-14463800D03*
X34532600Y-12813800D03*
G04 #@! TD*
D11*
G04 #@! TO.C,C3*
X65027800Y-39279800D03*
X65027800Y-40829800D03*
G04 #@! TD*
D14*
G04 #@! TO.C,D4*
X13374400Y-78672600D03*
X13374400Y-81172600D03*
G04 #@! TD*
D32*
G04 #@! TO.C,L1*
X10580400Y-77560600D03*
X10580400Y-80760600D03*
G04 #@! TD*
D27*
G04 #@! TO.C,R7*
X47755800Y-64034200D03*
X47755800Y-62384200D03*
G04 #@! TD*
D10*
G04 #@! TO.C,R10*
X33846800Y-74373000D03*
X33846800Y-76023000D03*
G04 #@! TD*
D27*
G04 #@! TO.C,R7*
X47755800Y-19035800D03*
X47755800Y-17385800D03*
G04 #@! TD*
G04 #@! TO.C,R6*
X72520800Y-14463800D03*
X72520800Y-12813800D03*
G04 #@! TD*
D16*
G04 #@! TO.C,C12*
X19876800Y-30974600D03*
X19876800Y-29424600D03*
G04 #@! TD*
D24*
G04 #@! TO.C,U2*
X30656600Y-84423700D03*
X29706600Y-84423700D03*
X28756600Y-84423700D03*
X28756600Y-86698700D03*
X29706600Y-86698700D03*
X30656600Y-86698700D03*
G04 #@! TD*
D11*
G04 #@! TO.C,C6*
X47755800Y-65482200D03*
X47755800Y-67032200D03*
G04 #@! TD*
D14*
G04 #@! TO.C,D3*
X51032400Y-84545200D03*
X51032400Y-87045200D03*
G04 #@! TD*
D16*
G04 #@! TO.C,C4*
X76203800Y-44385800D03*
X76203800Y-42835800D03*
G04 #@! TD*
D25*
G04 #@! TO.C,Q2*
X55121800Y-42462800D03*
X55121800Y-40562800D03*
X53246800Y-41512800D03*
G04 #@! TD*
D21*
G04 #@! TO.C,J2*
X56231000Y-78500000D03*
X56731000Y-78500000D03*
X57231000Y-78500000D03*
X57731000Y-78500000D03*
X58231000Y-78500000D03*
X58731000Y-78500000D03*
X59231000Y-78500000D03*
X59731000Y-78500000D03*
X60231000Y-78500000D03*
X60731000Y-78500000D03*
X61231000Y-78500000D03*
X61731000Y-78500000D03*
X62231000Y-78500000D03*
X62731000Y-78500000D03*
X63231000Y-78500000D03*
X63731000Y-78500000D03*
X64231000Y-78500000D03*
X64731000Y-78500000D03*
X65231000Y-78500000D03*
X65731000Y-78500000D03*
X66231000Y-78500000D03*
X66731000Y-78500000D03*
X67231000Y-78500000D03*
X67731000Y-78500000D03*
D22*
X54561000Y-80200000D03*
X69401000Y-80200000D03*
G04 #@! TD*
D10*
G04 #@! TO.C,R2*
X35167600Y-87784200D03*
X35167600Y-89434200D03*
G04 #@! TD*
D11*
G04 #@! TO.C,C3*
X27039600Y-84278200D03*
X27039600Y-85828200D03*
G04 #@! TD*
D16*
G04 #@! TO.C,C17*
X68787000Y-75973000D03*
X68787000Y-74423000D03*
G04 #@! TD*
D32*
G04 #@! TO.C,L1*
X48568600Y-32562200D03*
X48568600Y-35762200D03*
G04 #@! TD*
D11*
G04 #@! TO.C,C6*
X9767600Y-65482200D03*
X9767600Y-67032200D03*
G04 #@! TD*
D18*
G04 #@! TO.C,C18*
X13285800Y-37960700D03*
X11735800Y-37960700D03*
G04 #@! TD*
D23*
G04 #@! TO.C,R13*
X34214600Y-24052800D03*
X32564600Y-24052800D03*
G04 #@! TD*
D25*
G04 #@! TO.C,Q2*
X17133600Y-42462800D03*
X17133600Y-40562800D03*
X15258600Y-41512800D03*
G04 #@! TD*
D15*
G04 #@! TO.C,C1*
X32868600Y-64479200D03*
X34418600Y-64479200D03*
G04 #@! TD*
D37*
G04 #@! TO.C,U1*
X11551600Y-15046800D03*
X11551600Y-15846800D03*
X11551600Y-16646800D03*
X11551600Y-17446800D03*
X11551600Y-18246800D03*
X11551600Y-19046800D03*
X11551600Y-19846800D03*
X11551600Y-20646800D03*
X11551600Y-21446800D03*
D38*
X17451600Y-21021800D03*
D37*
X11551600Y-22246800D03*
X11551600Y-22996800D03*
D39*
X12651600Y-23946800D03*
X13451600Y-23946800D03*
X14251600Y-23946800D03*
X15051600Y-23946800D03*
X15851600Y-23946800D03*
X16651600Y-23946800D03*
X17451600Y-23946800D03*
X18251600Y-23946800D03*
X19051600Y-23946800D03*
X19851600Y-23946800D03*
X20651600Y-23946800D03*
X21451600Y-23946800D03*
X22251600Y-23946800D03*
D37*
X23351600Y-23046800D03*
X23351600Y-22246800D03*
X23351600Y-21446800D03*
X23351600Y-20646800D03*
X23351600Y-19846800D03*
X23351600Y-19046800D03*
X23351600Y-18246800D03*
X23351600Y-17446800D03*
X23351600Y-16646800D03*
X23351600Y-15846800D03*
X23351600Y-15096800D03*
D39*
X22251600Y-14146800D03*
X22251600Y-14146800D03*
X21451600Y-14146800D03*
X20651600Y-14146800D03*
X19851600Y-14146800D03*
X19051600Y-14146800D03*
X18251600Y-14146800D03*
X17451600Y-14146800D03*
X16651600Y-14146800D03*
X15851600Y-14146800D03*
X15051600Y-14146800D03*
X14251600Y-14146800D03*
X13451600Y-14146800D03*
X12651600Y-14146800D03*
D38*
X17451600Y-19046800D03*
D40*
X23401600Y-14096800D03*
X23401600Y-23996800D03*
X11501600Y-23996800D03*
X11501600Y-14096800D03*
D41*
X15501600Y-17071800D03*
D38*
X17451600Y-17071800D03*
X19426600Y-17071800D03*
X15476600Y-19046800D03*
X19426600Y-19046800D03*
X15476600Y-21021800D03*
X19426600Y-21021800D03*
G04 #@! TD*
D14*
G04 #@! TO.C,D5*
X10783600Y-39546800D03*
X10783600Y-42046800D03*
G04 #@! TD*
D15*
G04 #@! TO.C,C20*
X47742800Y-75325000D03*
X49292800Y-75325000D03*
G04 #@! TD*
D19*
G04 #@! TO.C,U3*
X64759800Y-15874800D03*
X67059800Y-15874800D03*
D20*
X67059800Y-9574800D03*
D19*
X69359800Y-15874800D03*
G04 #@! TD*
D16*
G04 #@! TO.C,C17*
X68787000Y-30974600D03*
X68787000Y-29424600D03*
G04 #@! TD*
D10*
G04 #@! TO.C,R11*
X70311000Y-29374600D03*
X70311000Y-31024600D03*
G04 #@! TD*
D17*
G04 #@! TO.C,D1*
X32861600Y-67273200D03*
X30361600Y-67273200D03*
G04 #@! TD*
D14*
G04 #@! TO.C,D5*
X48771800Y-84545200D03*
X48771800Y-87045200D03*
G04 #@! TD*
D11*
G04 #@! TO.C,C3*
X65027800Y-84278200D03*
X65027800Y-85828200D03*
G04 #@! TD*
D19*
G04 #@! TO.C,U3*
X64759800Y-60873200D03*
X67059800Y-60873200D03*
D20*
X67059800Y-54573200D03*
D19*
X69359800Y-60873200D03*
G04 #@! TD*
D11*
G04 #@! TO.C,C3*
X27039600Y-39279800D03*
X27039600Y-40829800D03*
G04 #@! TD*
D10*
G04 #@! TO.C,R2*
X73155800Y-87784200D03*
X73155800Y-89434200D03*
G04 #@! TD*
D42*
G04 #@! TO.C,SW1*
X75060800Y-54221200D03*
X75060800Y-57621200D03*
G04 #@! TD*
D10*
G04 #@! TO.C,R9*
X27750800Y-29374600D03*
X27750800Y-31024600D03*
G04 #@! TD*
D42*
G04 #@! TO.C,SW4*
X37072600Y-14732800D03*
X37072600Y-18132800D03*
G04 #@! TD*
G04 #@! TO.C,SW1*
X75060800Y-9222800D03*
X75060800Y-12622800D03*
G04 #@! TD*
D16*
G04 #@! TO.C,C5*
X34532600Y-11111800D03*
X34532600Y-9561800D03*
G04 #@! TD*
D14*
G04 #@! TO.C,D5*
X48771800Y-39546800D03*
X48771800Y-42046800D03*
G04 #@! TD*
D16*
G04 #@! TO.C,C7*
X9767600Y-15683800D03*
X9767600Y-14133800D03*
G04 #@! TD*
D12*
G04 #@! TO.C,BAT1*
X75949800Y-75401200D03*
D13*
X74679800Y-75401200D03*
G04 #@! TD*
D11*
G04 #@! TO.C,C15*
X62691000Y-74423000D03*
X62691000Y-75973000D03*
G04 #@! TD*
D24*
G04 #@! TO.C,U2*
X68644800Y-39425300D03*
X67694800Y-39425300D03*
X66744800Y-39425300D03*
X66744800Y-41700300D03*
X67694800Y-41700300D03*
X68644800Y-41700300D03*
G04 #@! TD*
D27*
G04 #@! TO.C,R1*
X32246600Y-40879800D03*
X32246600Y-39229800D03*
G04 #@! TD*
D30*
G04 #@! TO.C,D6*
X72076800Y-25576800D03*
X70501800Y-25576800D03*
G04 #@! TD*
D18*
G04 #@! TO.C,C2*
X27814600Y-17956800D03*
X26264600Y-17956800D03*
G04 #@! TD*
D42*
G04 #@! TO.C,SW4*
X75060800Y-59731200D03*
X75060800Y-63131200D03*
G04 #@! TD*
D27*
G04 #@! TO.C,R3*
X71631800Y-44435800D03*
X71631800Y-42785800D03*
G04 #@! TD*
D21*
G04 #@! TO.C,J2*
X56231000Y-33501600D03*
X56731000Y-33501600D03*
X57231000Y-33501600D03*
X57731000Y-33501600D03*
X58231000Y-33501600D03*
X58731000Y-33501600D03*
X59231000Y-33501600D03*
X59731000Y-33501600D03*
X60231000Y-33501600D03*
X60731000Y-33501600D03*
X61231000Y-33501600D03*
X61731000Y-33501600D03*
X62231000Y-33501600D03*
X62731000Y-33501600D03*
X63231000Y-33501600D03*
X63731000Y-33501600D03*
X64231000Y-33501600D03*
X64731000Y-33501600D03*
X65231000Y-33501600D03*
X65731000Y-33501600D03*
X66231000Y-33501600D03*
X66731000Y-33501600D03*
X67231000Y-33501600D03*
X67731000Y-33501600D03*
D22*
X54561000Y-35201600D03*
X69401000Y-35201600D03*
G04 #@! TD*
D42*
G04 #@! TO.C,SW1*
X37072600Y-9222800D03*
X37072600Y-12622800D03*
G04 #@! TD*
D28*
G04 #@! TO.C,SW3*
X36800600Y-27702800D03*
X39010600Y-27702800D03*
X36800600Y-20402800D03*
X39010600Y-20402800D03*
D29*
X36150600Y-26302800D03*
X36150600Y-23302800D03*
X36150600Y-21802800D03*
G04 #@! TD*
D15*
G04 #@! TO.C,C20*
X9754600Y-30326600D03*
X11304600Y-30326600D03*
G04 #@! TD*
D31*
G04 #@! TO.C,D2*
X74679800Y-42696300D03*
X74679800Y-44271300D03*
G04 #@! TD*
D19*
G04 #@! TO.C,U3*
X26771600Y-60873200D03*
X29071600Y-60873200D03*
D20*
X29071600Y-54573200D03*
D19*
X31371600Y-60873200D03*
G04 #@! TD*
D11*
G04 #@! TO.C,C15*
X24702800Y-74423000D03*
X24702800Y-75973000D03*
G04 #@! TD*
G04 #@! TO.C,C13*
X21400800Y-29424600D03*
X21400800Y-30974600D03*
G04 #@! TD*
D16*
G04 #@! TO.C,C10*
X16828800Y-75973000D03*
X16828800Y-74423000D03*
G04 #@! TD*
G04 #@! TO.C,C7*
X47755800Y-60682200D03*
X47755800Y-59132200D03*
G04 #@! TD*
G04 #@! TO.C,C5*
X72520800Y-11111800D03*
X72520800Y-9561800D03*
G04 #@! TD*
D10*
G04 #@! TO.C,R8*
X64215000Y-74373000D03*
X64215000Y-76023000D03*
G04 #@! TD*
D11*
G04 #@! TO.C,C13*
X59389000Y-29424600D03*
X59389000Y-30974600D03*
G04 #@! TD*
D10*
G04 #@! TO.C,R8*
X26226800Y-74373000D03*
X26226800Y-76023000D03*
G04 #@! TD*
D27*
G04 #@! TO.C,R3*
X33643600Y-44435800D03*
X33643600Y-42785800D03*
G04 #@! TD*
D12*
G04 #@! TO.C,J4*
X10529600Y-27496800D03*
D13*
X10529600Y-26226800D03*
G04 #@! TD*
D42*
G04 #@! TO.C,SW4*
X37072600Y-59731200D03*
X37072600Y-63131200D03*
G04 #@! TD*
D27*
G04 #@! TO.C,R1*
X70234800Y-40879800D03*
X70234800Y-39229800D03*
G04 #@! TD*
D15*
G04 #@! TO.C,C20*
X9754600Y-75325000D03*
X11304600Y-75325000D03*
G04 #@! TD*
D11*
G04 #@! TO.C,C15*
X62691000Y-29424600D03*
X62691000Y-30974600D03*
G04 #@! TD*
D32*
G04 #@! TO.C,L1*
X10580400Y-32562200D03*
X10580400Y-35762200D03*
G04 #@! TD*
D16*
G04 #@! TO.C,C17*
X30798800Y-75973000D03*
X30798800Y-74423000D03*
G04 #@! TD*
D10*
G04 #@! TO.C,R4*
X28563600Y-67210200D03*
X28563600Y-68860200D03*
G04 #@! TD*
D16*
G04 #@! TO.C,C10*
X54817000Y-30974600D03*
X54817000Y-29424600D03*
G04 #@! TD*
D10*
G04 #@! TO.C,R9*
X65739000Y-74373000D03*
X65739000Y-76023000D03*
G04 #@! TD*
D14*
G04 #@! TO.C,D4*
X51362600Y-78672600D03*
X51362600Y-81172600D03*
G04 #@! TD*
D27*
G04 #@! TO.C,R7*
X9767600Y-19035800D03*
X9767600Y-17385800D03*
G04 #@! TD*
D15*
G04 #@! TO.C,C20*
X47742800Y-30326600D03*
X49292800Y-30326600D03*
G04 #@! TD*
D33*
G04 #@! TO.C,J1*
X35794600Y-37982800D03*
X35794600Y-37332800D03*
X35794600Y-36682800D03*
X35794600Y-36032800D03*
X35794600Y-35382800D03*
D34*
X38469600Y-39982800D03*
D35*
X36019600Y-39882800D03*
D36*
X38469600Y-37882800D03*
X38469600Y-35482800D03*
D35*
X36019600Y-33482800D03*
D34*
X38469600Y-33382800D03*
G04 #@! TD*
D27*
G04 #@! TO.C,R3*
X33643600Y-89434200D03*
X33643600Y-87784200D03*
G04 #@! TD*
D10*
G04 #@! TO.C,R10*
X71835000Y-74373000D03*
X71835000Y-76023000D03*
G04 #@! TD*
D16*
G04 #@! TO.C,C9*
X15304800Y-75973000D03*
X15304800Y-74423000D03*
G04 #@! TD*
G04 #@! TO.C,C16*
X29274800Y-75973000D03*
X29274800Y-74423000D03*
G04 #@! TD*
D30*
G04 #@! TO.C,D6*
X34088600Y-70575200D03*
X32513600Y-70575200D03*
G04 #@! TD*
D14*
G04 #@! TO.C,D3*
X13044200Y-84545200D03*
X13044200Y-87045200D03*
G04 #@! TD*
D15*
G04 #@! TO.C,C1*
X70856800Y-19480800D03*
X72406800Y-19480800D03*
G04 #@! TD*
D16*
G04 #@! TO.C,C10*
X54817000Y-75973000D03*
X54817000Y-74423000D03*
G04 #@! TD*
G04 #@! TO.C,C11*
X18352800Y-75973000D03*
X18352800Y-74423000D03*
G04 #@! TD*
D37*
G04 #@! TO.C,U1*
X49539800Y-15046800D03*
X49539800Y-15846800D03*
X49539800Y-16646800D03*
X49539800Y-17446800D03*
X49539800Y-18246800D03*
X49539800Y-19046800D03*
X49539800Y-19846800D03*
X49539800Y-20646800D03*
X49539800Y-21446800D03*
D38*
X55439800Y-21021800D03*
D37*
X49539800Y-22246800D03*
X49539800Y-22996800D03*
D39*
X50639800Y-23946800D03*
X51439800Y-23946800D03*
X52239800Y-23946800D03*
X53039800Y-23946800D03*
X53839800Y-23946800D03*
X54639800Y-23946800D03*
X55439800Y-23946800D03*
X56239800Y-23946800D03*
X57039800Y-23946800D03*
X57839800Y-23946800D03*
X58639800Y-23946800D03*
X59439800Y-23946800D03*
X60239800Y-23946800D03*
D37*
X61339800Y-23046800D03*
X61339800Y-22246800D03*
X61339800Y-21446800D03*
X61339800Y-20646800D03*
X61339800Y-19846800D03*
X61339800Y-19046800D03*
X61339800Y-18246800D03*
X61339800Y-17446800D03*
X61339800Y-16646800D03*
X61339800Y-15846800D03*
X61339800Y-15096800D03*
D39*
X60239800Y-14146800D03*
X60239800Y-14146800D03*
X59439800Y-14146800D03*
X58639800Y-14146800D03*
X57839800Y-14146800D03*
X57039800Y-14146800D03*
X56239800Y-14146800D03*
X55439800Y-14146800D03*
X54639800Y-14146800D03*
X53839800Y-14146800D03*
X53039800Y-14146800D03*
X52239800Y-14146800D03*
X51439800Y-14146800D03*
X50639800Y-14146800D03*
D38*
X55439800Y-19046800D03*
D40*
X61389800Y-14096800D03*
X61389800Y-23996800D03*
X49489800Y-23996800D03*
X49489800Y-14096800D03*
D41*
X53489800Y-17071800D03*
D38*
X55439800Y-17071800D03*
X57414800Y-17071800D03*
X53464800Y-19046800D03*
X57414800Y-19046800D03*
X53464800Y-21021800D03*
X57414800Y-21021800D03*
G04 #@! TD*
D10*
G04 #@! TO.C,R10*
X33846800Y-29374600D03*
X33846800Y-31024600D03*
G04 #@! TD*
D16*
G04 #@! TO.C,C5*
X72520800Y-56110200D03*
X72520800Y-54560200D03*
G04 #@! TD*
G04 #@! TO.C,C9*
X53293000Y-75973000D03*
X53293000Y-74423000D03*
G04 #@! TD*
D31*
G04 #@! TO.C,D2*
X36691600Y-42696300D03*
X36691600Y-44271300D03*
G04 #@! TD*
D42*
G04 #@! TO.C,SW1*
X37072600Y-54221200D03*
X37072600Y-57621200D03*
G04 #@! TD*
D33*
G04 #@! TO.C,J1*
X73782800Y-37982800D03*
X73782800Y-37332800D03*
X73782800Y-36682800D03*
X73782800Y-36032800D03*
X73782800Y-35382800D03*
D34*
X76457800Y-39982800D03*
D35*
X74007800Y-39882800D03*
D36*
X76457800Y-37882800D03*
X76457800Y-35482800D03*
D35*
X74007800Y-33482800D03*
D34*
X76457800Y-33382800D03*
G04 #@! TD*
D23*
G04 #@! TO.C,R13*
X72202800Y-24052800D03*
X70552800Y-24052800D03*
G04 #@! TD*
D14*
G04 #@! TO.C,D4*
X51362600Y-33674200D03*
X51362600Y-36174200D03*
G04 #@! TD*
D10*
G04 #@! TO.C,R9*
X65739000Y-29374600D03*
X65739000Y-31024600D03*
G04 #@! TD*
D11*
G04 #@! TO.C,C14*
X60913000Y-29424600D03*
X60913000Y-30974600D03*
G04 #@! TD*
D27*
G04 #@! TO.C,R12*
X72520800Y-62764200D03*
X72520800Y-61114200D03*
G04 #@! TD*
D24*
G04 #@! TO.C,U2*
X30656600Y-39425300D03*
X29706600Y-39425300D03*
X28756600Y-39425300D03*
X28756600Y-41700300D03*
X29706600Y-41700300D03*
X30656600Y-41700300D03*
G04 #@! TD*
D16*
G04 #@! TO.C,C12*
X57865000Y-30974600D03*
X57865000Y-29424600D03*
G04 #@! TD*
D37*
G04 #@! TO.C,U1*
X11551600Y-60045200D03*
X11551600Y-60845200D03*
X11551600Y-61645200D03*
X11551600Y-62445200D03*
X11551600Y-63245200D03*
X11551600Y-64045200D03*
X11551600Y-64845200D03*
X11551600Y-65645200D03*
X11551600Y-66445200D03*
D38*
X17451600Y-66020200D03*
D37*
X11551600Y-67245200D03*
X11551600Y-67995200D03*
D39*
X12651600Y-68945200D03*
X13451600Y-68945200D03*
X14251600Y-68945200D03*
X15051600Y-68945200D03*
X15851600Y-68945200D03*
X16651600Y-68945200D03*
X17451600Y-68945200D03*
X18251600Y-68945200D03*
X19051600Y-68945200D03*
X19851600Y-68945200D03*
X20651600Y-68945200D03*
X21451600Y-68945200D03*
X22251600Y-68945200D03*
D37*
X23351600Y-68045200D03*
X23351600Y-67245200D03*
X23351600Y-66445200D03*
X23351600Y-65645200D03*
X23351600Y-64845200D03*
X23351600Y-64045200D03*
X23351600Y-63245200D03*
X23351600Y-62445200D03*
X23351600Y-61645200D03*
X23351600Y-60845200D03*
X23351600Y-60095200D03*
D39*
X22251600Y-59145200D03*
X22251600Y-59145200D03*
X21451600Y-59145200D03*
X20651600Y-59145200D03*
X19851600Y-59145200D03*
X19051600Y-59145200D03*
X18251600Y-59145200D03*
X17451600Y-59145200D03*
X16651600Y-59145200D03*
X15851600Y-59145200D03*
X15051600Y-59145200D03*
X14251600Y-59145200D03*
X13451600Y-59145200D03*
X12651600Y-59145200D03*
D38*
X17451600Y-64045200D03*
D40*
X23401600Y-59095200D03*
X23401600Y-68995200D03*
X11501600Y-68995200D03*
X11501600Y-59095200D03*
D41*
X15501600Y-62070200D03*
D38*
X17451600Y-62070200D03*
X19426600Y-62070200D03*
X15476600Y-64045200D03*
X19426600Y-64045200D03*
X15476600Y-66020200D03*
X19426600Y-66020200D03*
G04 #@! TD*
D26*
G04 #@! TO.C,Q1*
X29391600Y-20164300D03*
X31291600Y-20164300D03*
X30341600Y-18289300D03*
G04 #@! TD*
D33*
G04 #@! TO.C,J1*
X35794600Y-82981200D03*
X35794600Y-82331200D03*
X35794600Y-81681200D03*
X35794600Y-81031200D03*
X35794600Y-80381200D03*
D34*
X38469600Y-84981200D03*
D35*
X36019600Y-84881200D03*
D36*
X38469600Y-82881200D03*
X38469600Y-80481200D03*
D35*
X36019600Y-78481200D03*
D34*
X38469600Y-78381200D03*
G04 #@! TD*
M02*
