G04 #@! TF.GenerationSoftware,KiCad,Pcbnew,9.0.3*
G04 #@! TF.CreationDate,2025-09-14T18:43:41+02:00*
G04 #@! TF.ProjectId,panel,70616e65-6c2e-46b6-9963-61645f706362,rev?*
G04 #@! TF.SameCoordinates,Original*
G04 #@! TF.FileFunction,Legend,Bot*
G04 #@! TF.FilePolarity,Positive*
%FSLAX46Y46*%
G04 Gerber Fmt 4.6, Leading zero omitted, Abs format (unit mm)*
G04 Created by KiCad (PCBNEW 9.0.3) date 2025-09-14 18:43:41*
%MOMM*%
%LPD*%
G01*
G04 APERTURE LIST*
%ADD10C,0.300000*%
%ADD11C,0.150000*%
%ADD12C,0.120000*%
G04 APERTURE END LIST*
D10*
X35831798Y-54611710D02*
X35903226Y-54825996D01*
X35903226Y-54825996D02*
X35974655Y-54897425D01*
X35974655Y-54897425D02*
X36117512Y-54968853D01*
X36117512Y-54968853D02*
X36331798Y-54968853D01*
X36331798Y-54968853D02*
X36474655Y-54897425D01*
X36474655Y-54897425D02*
X36546084Y-54825996D01*
X36546084Y-54825996D02*
X36617512Y-54683139D01*
X36617512Y-54683139D02*
X36617512Y-54111710D01*
X36617512Y-54111710D02*
X35117512Y-54111710D01*
X35117512Y-54111710D02*
X35117512Y-54611710D01*
X35117512Y-54611710D02*
X35188941Y-54754568D01*
X35188941Y-54754568D02*
X35260369Y-54825996D01*
X35260369Y-54825996D02*
X35403226Y-54897425D01*
X35403226Y-54897425D02*
X35546084Y-54897425D01*
X35546084Y-54897425D02*
X35688941Y-54825996D01*
X35688941Y-54825996D02*
X35760369Y-54754568D01*
X35760369Y-54754568D02*
X35831798Y-54611710D01*
X35831798Y-54611710D02*
X35831798Y-54111710D01*
X35617512Y-55468853D02*
X36617512Y-55825996D01*
X35617512Y-56183139D02*
X36617512Y-55825996D01*
X36617512Y-55825996D02*
X36974655Y-55683139D01*
X36974655Y-55683139D02*
X37046084Y-55611710D01*
X37046084Y-55611710D02*
X37117512Y-55468853D01*
X36474655Y-56754567D02*
X36546084Y-56825996D01*
X36546084Y-56825996D02*
X36617512Y-56754567D01*
X36617512Y-56754567D02*
X36546084Y-56683139D01*
X36546084Y-56683139D02*
X36474655Y-56754567D01*
X36474655Y-56754567D02*
X36617512Y-56754567D01*
X35688941Y-56754567D02*
X35760369Y-56825996D01*
X35760369Y-56825996D02*
X35831798Y-56754567D01*
X35831798Y-56754567D02*
X35760369Y-56683139D01*
X35760369Y-56683139D02*
X35688941Y-56754567D01*
X35688941Y-56754567D02*
X35831798Y-56754567D01*
X36617512Y-58611710D02*
X35117512Y-58611710D01*
X36617512Y-59468853D02*
X35760369Y-58825996D01*
X35117512Y-59468853D02*
X35974655Y-58611710D01*
X36546084Y-60683139D02*
X36617512Y-60540282D01*
X36617512Y-60540282D02*
X36617512Y-60254568D01*
X36617512Y-60254568D02*
X36546084Y-60111710D01*
X36546084Y-60111710D02*
X36403226Y-60040282D01*
X36403226Y-60040282D02*
X35831798Y-60040282D01*
X35831798Y-60040282D02*
X35688941Y-60111710D01*
X35688941Y-60111710D02*
X35617512Y-60254568D01*
X35617512Y-60254568D02*
X35617512Y-60540282D01*
X35617512Y-60540282D02*
X35688941Y-60683139D01*
X35688941Y-60683139D02*
X35831798Y-60754568D01*
X35831798Y-60754568D02*
X35974655Y-60754568D01*
X35974655Y-60754568D02*
X36117512Y-60040282D01*
X35617512Y-61397424D02*
X36617512Y-61397424D01*
X35760369Y-61397424D02*
X35688941Y-61468853D01*
X35688941Y-61468853D02*
X35617512Y-61611710D01*
X35617512Y-61611710D02*
X35617512Y-61825996D01*
X35617512Y-61825996D02*
X35688941Y-61968853D01*
X35688941Y-61968853D02*
X35831798Y-62040282D01*
X35831798Y-62040282D02*
X36617512Y-62040282D01*
X36617512Y-63397425D02*
X35117512Y-63397425D01*
X36546084Y-63397425D02*
X36617512Y-63254567D01*
X36617512Y-63254567D02*
X36617512Y-62968853D01*
X36617512Y-62968853D02*
X36546084Y-62825996D01*
X36546084Y-62825996D02*
X36474655Y-62754567D01*
X36474655Y-62754567D02*
X36331798Y-62683139D01*
X36331798Y-62683139D02*
X35903226Y-62683139D01*
X35903226Y-62683139D02*
X35760369Y-62754567D01*
X35760369Y-62754567D02*
X35688941Y-62825996D01*
X35688941Y-62825996D02*
X35617512Y-62968853D01*
X35617512Y-62968853D02*
X35617512Y-63254567D01*
X35617512Y-63254567D02*
X35688941Y-63397425D01*
X36546084Y-64683139D02*
X36617512Y-64540282D01*
X36617512Y-64540282D02*
X36617512Y-64254568D01*
X36617512Y-64254568D02*
X36546084Y-64111710D01*
X36546084Y-64111710D02*
X36403226Y-64040282D01*
X36403226Y-64040282D02*
X35831798Y-64040282D01*
X35831798Y-64040282D02*
X35688941Y-64111710D01*
X35688941Y-64111710D02*
X35617512Y-64254568D01*
X35617512Y-64254568D02*
X35617512Y-64540282D01*
X35617512Y-64540282D02*
X35688941Y-64683139D01*
X35688941Y-64683139D02*
X35831798Y-64754568D01*
X35831798Y-64754568D02*
X35974655Y-64754568D01*
X35974655Y-64754568D02*
X36117512Y-64040282D01*
X36617512Y-66540281D02*
X35117512Y-66540281D01*
X36617512Y-67397424D02*
X35760369Y-66754567D01*
X35117512Y-67397424D02*
X35974655Y-66540281D01*
X35617512Y-68683139D02*
X36617512Y-68683139D01*
X35617512Y-68040281D02*
X36403226Y-68040281D01*
X36403226Y-68040281D02*
X36546084Y-68111710D01*
X36546084Y-68111710D02*
X36617512Y-68254567D01*
X36617512Y-68254567D02*
X36617512Y-68468853D01*
X36617512Y-68468853D02*
X36546084Y-68611710D01*
X36546084Y-68611710D02*
X36474655Y-68683139D01*
X36617512Y-69397424D02*
X35617512Y-69397424D01*
X35903226Y-69397424D02*
X35760369Y-69468853D01*
X35760369Y-69468853D02*
X35688941Y-69540282D01*
X35688941Y-69540282D02*
X35617512Y-69683139D01*
X35617512Y-69683139D02*
X35617512Y-69825996D01*
X35617512Y-70968853D02*
X36617512Y-70968853D01*
X35617512Y-70325995D02*
X36403226Y-70325995D01*
X36403226Y-70325995D02*
X36546084Y-70397424D01*
X36546084Y-70397424D02*
X36617512Y-70540281D01*
X36617512Y-70540281D02*
X36617512Y-70754567D01*
X36617512Y-70754567D02*
X36546084Y-70897424D01*
X36546084Y-70897424D02*
X36474655Y-70968853D01*
X36546084Y-72325996D02*
X36617512Y-72183138D01*
X36617512Y-72183138D02*
X36617512Y-71897424D01*
X36617512Y-71897424D02*
X36546084Y-71754567D01*
X36546084Y-71754567D02*
X36474655Y-71683138D01*
X36474655Y-71683138D02*
X36331798Y-71611710D01*
X36331798Y-71611710D02*
X35903226Y-71611710D01*
X35903226Y-71611710D02*
X35760369Y-71683138D01*
X35760369Y-71683138D02*
X35688941Y-71754567D01*
X35688941Y-71754567D02*
X35617512Y-71897424D01*
X35617512Y-71897424D02*
X35617512Y-72183138D01*
X35617512Y-72183138D02*
X35688941Y-72325996D01*
X35617512Y-72825995D02*
X35617512Y-73611710D01*
X35617512Y-73611710D02*
X36617512Y-72825995D01*
X36617512Y-72825995D02*
X36617512Y-73611710D01*
X39032428Y-58397424D02*
X38318142Y-57897424D01*
X39032428Y-57540281D02*
X37532428Y-57540281D01*
X37532428Y-57540281D02*
X37532428Y-58111710D01*
X37532428Y-58111710D02*
X37603857Y-58254567D01*
X37603857Y-58254567D02*
X37675285Y-58325996D01*
X37675285Y-58325996D02*
X37818142Y-58397424D01*
X37818142Y-58397424D02*
X38032428Y-58397424D01*
X38032428Y-58397424D02*
X38175285Y-58325996D01*
X38175285Y-58325996D02*
X38246714Y-58254567D01*
X38246714Y-58254567D02*
X38318142Y-58111710D01*
X38318142Y-58111710D02*
X38318142Y-57540281D01*
X38961000Y-59611710D02*
X39032428Y-59468853D01*
X39032428Y-59468853D02*
X39032428Y-59183139D01*
X39032428Y-59183139D02*
X38961000Y-59040281D01*
X38961000Y-59040281D02*
X38818142Y-58968853D01*
X38818142Y-58968853D02*
X38246714Y-58968853D01*
X38246714Y-58968853D02*
X38103857Y-59040281D01*
X38103857Y-59040281D02*
X38032428Y-59183139D01*
X38032428Y-59183139D02*
X38032428Y-59468853D01*
X38032428Y-59468853D02*
X38103857Y-59611710D01*
X38103857Y-59611710D02*
X38246714Y-59683139D01*
X38246714Y-59683139D02*
X38389571Y-59683139D01*
X38389571Y-59683139D02*
X38532428Y-58968853D01*
X38032428Y-60183138D02*
X39032428Y-60540281D01*
X39032428Y-60540281D02*
X38032428Y-60897424D01*
X38889571Y-61468852D02*
X38961000Y-61540281D01*
X38961000Y-61540281D02*
X39032428Y-61468852D01*
X39032428Y-61468852D02*
X38961000Y-61397424D01*
X38961000Y-61397424D02*
X38889571Y-61468852D01*
X38889571Y-61468852D02*
X39032428Y-61468852D01*
X38103857Y-61468852D02*
X38175285Y-61540281D01*
X38175285Y-61540281D02*
X38246714Y-61468852D01*
X38246714Y-61468852D02*
X38175285Y-61397424D01*
X38175285Y-61397424D02*
X38103857Y-61468852D01*
X38103857Y-61468852D02*
X38246714Y-61468852D01*
X39032428Y-64111710D02*
X39032428Y-63254567D01*
X39032428Y-63683138D02*
X37532428Y-63683138D01*
X37532428Y-63683138D02*
X37746714Y-63540281D01*
X37746714Y-63540281D02*
X37889571Y-63397424D01*
X37889571Y-63397424D02*
X37961000Y-63254567D01*
X38889571Y-64754566D02*
X38961000Y-64825995D01*
X38961000Y-64825995D02*
X39032428Y-64754566D01*
X39032428Y-64754566D02*
X38961000Y-64683138D01*
X38961000Y-64683138D02*
X38889571Y-64754566D01*
X38889571Y-64754566D02*
X39032428Y-64754566D01*
X37532428Y-65754567D02*
X37532428Y-65897424D01*
X37532428Y-65897424D02*
X37603857Y-66040281D01*
X37603857Y-66040281D02*
X37675285Y-66111710D01*
X37675285Y-66111710D02*
X37818142Y-66183138D01*
X37818142Y-66183138D02*
X38103857Y-66254567D01*
X38103857Y-66254567D02*
X38461000Y-66254567D01*
X38461000Y-66254567D02*
X38746714Y-66183138D01*
X38746714Y-66183138D02*
X38889571Y-66111710D01*
X38889571Y-66111710D02*
X38961000Y-66040281D01*
X38961000Y-66040281D02*
X39032428Y-65897424D01*
X39032428Y-65897424D02*
X39032428Y-65754567D01*
X39032428Y-65754567D02*
X38961000Y-65611710D01*
X38961000Y-65611710D02*
X38889571Y-65540281D01*
X38889571Y-65540281D02*
X38746714Y-65468852D01*
X38746714Y-65468852D02*
X38461000Y-65397424D01*
X38461000Y-65397424D02*
X38103857Y-65397424D01*
X38103857Y-65397424D02*
X37818142Y-65468852D01*
X37818142Y-65468852D02*
X37675285Y-65540281D01*
X37675285Y-65540281D02*
X37603857Y-65611710D01*
X37603857Y-65611710D02*
X37532428Y-65754567D01*
X73819998Y-54611710D02*
X73891426Y-54825996D01*
X73891426Y-54825996D02*
X73962855Y-54897425D01*
X73962855Y-54897425D02*
X74105712Y-54968853D01*
X74105712Y-54968853D02*
X74319998Y-54968853D01*
X74319998Y-54968853D02*
X74462855Y-54897425D01*
X74462855Y-54897425D02*
X74534284Y-54825996D01*
X74534284Y-54825996D02*
X74605712Y-54683139D01*
X74605712Y-54683139D02*
X74605712Y-54111710D01*
X74605712Y-54111710D02*
X73105712Y-54111710D01*
X73105712Y-54111710D02*
X73105712Y-54611710D01*
X73105712Y-54611710D02*
X73177141Y-54754568D01*
X73177141Y-54754568D02*
X73248569Y-54825996D01*
X73248569Y-54825996D02*
X73391426Y-54897425D01*
X73391426Y-54897425D02*
X73534284Y-54897425D01*
X73534284Y-54897425D02*
X73677141Y-54825996D01*
X73677141Y-54825996D02*
X73748569Y-54754568D01*
X73748569Y-54754568D02*
X73819998Y-54611710D01*
X73819998Y-54611710D02*
X73819998Y-54111710D01*
X73605712Y-55468853D02*
X74605712Y-55825996D01*
X73605712Y-56183139D02*
X74605712Y-55825996D01*
X74605712Y-55825996D02*
X74962855Y-55683139D01*
X74962855Y-55683139D02*
X75034284Y-55611710D01*
X75034284Y-55611710D02*
X75105712Y-55468853D01*
X74462855Y-56754567D02*
X74534284Y-56825996D01*
X74534284Y-56825996D02*
X74605712Y-56754567D01*
X74605712Y-56754567D02*
X74534284Y-56683139D01*
X74534284Y-56683139D02*
X74462855Y-56754567D01*
X74462855Y-56754567D02*
X74605712Y-56754567D01*
X73677141Y-56754567D02*
X73748569Y-56825996D01*
X73748569Y-56825996D02*
X73819998Y-56754567D01*
X73819998Y-56754567D02*
X73748569Y-56683139D01*
X73748569Y-56683139D02*
X73677141Y-56754567D01*
X73677141Y-56754567D02*
X73819998Y-56754567D01*
X74605712Y-58611710D02*
X73105712Y-58611710D01*
X74605712Y-59468853D02*
X73748569Y-58825996D01*
X73105712Y-59468853D02*
X73962855Y-58611710D01*
X74534284Y-60683139D02*
X74605712Y-60540282D01*
X74605712Y-60540282D02*
X74605712Y-60254568D01*
X74605712Y-60254568D02*
X74534284Y-60111710D01*
X74534284Y-60111710D02*
X74391426Y-60040282D01*
X74391426Y-60040282D02*
X73819998Y-60040282D01*
X73819998Y-60040282D02*
X73677141Y-60111710D01*
X73677141Y-60111710D02*
X73605712Y-60254568D01*
X73605712Y-60254568D02*
X73605712Y-60540282D01*
X73605712Y-60540282D02*
X73677141Y-60683139D01*
X73677141Y-60683139D02*
X73819998Y-60754568D01*
X73819998Y-60754568D02*
X73962855Y-60754568D01*
X73962855Y-60754568D02*
X74105712Y-60040282D01*
X73605712Y-61397424D02*
X74605712Y-61397424D01*
X73748569Y-61397424D02*
X73677141Y-61468853D01*
X73677141Y-61468853D02*
X73605712Y-61611710D01*
X73605712Y-61611710D02*
X73605712Y-61825996D01*
X73605712Y-61825996D02*
X73677141Y-61968853D01*
X73677141Y-61968853D02*
X73819998Y-62040282D01*
X73819998Y-62040282D02*
X74605712Y-62040282D01*
X74605712Y-63397425D02*
X73105712Y-63397425D01*
X74534284Y-63397425D02*
X74605712Y-63254567D01*
X74605712Y-63254567D02*
X74605712Y-62968853D01*
X74605712Y-62968853D02*
X74534284Y-62825996D01*
X74534284Y-62825996D02*
X74462855Y-62754567D01*
X74462855Y-62754567D02*
X74319998Y-62683139D01*
X74319998Y-62683139D02*
X73891426Y-62683139D01*
X73891426Y-62683139D02*
X73748569Y-62754567D01*
X73748569Y-62754567D02*
X73677141Y-62825996D01*
X73677141Y-62825996D02*
X73605712Y-62968853D01*
X73605712Y-62968853D02*
X73605712Y-63254567D01*
X73605712Y-63254567D02*
X73677141Y-63397425D01*
X74534284Y-64683139D02*
X74605712Y-64540282D01*
X74605712Y-64540282D02*
X74605712Y-64254568D01*
X74605712Y-64254568D02*
X74534284Y-64111710D01*
X74534284Y-64111710D02*
X74391426Y-64040282D01*
X74391426Y-64040282D02*
X73819998Y-64040282D01*
X73819998Y-64040282D02*
X73677141Y-64111710D01*
X73677141Y-64111710D02*
X73605712Y-64254568D01*
X73605712Y-64254568D02*
X73605712Y-64540282D01*
X73605712Y-64540282D02*
X73677141Y-64683139D01*
X73677141Y-64683139D02*
X73819998Y-64754568D01*
X73819998Y-64754568D02*
X73962855Y-64754568D01*
X73962855Y-64754568D02*
X74105712Y-64040282D01*
X74605712Y-66540281D02*
X73105712Y-66540281D01*
X74605712Y-67397424D02*
X73748569Y-66754567D01*
X73105712Y-67397424D02*
X73962855Y-66540281D01*
X73605712Y-68683139D02*
X74605712Y-68683139D01*
X73605712Y-68040281D02*
X74391426Y-68040281D01*
X74391426Y-68040281D02*
X74534284Y-68111710D01*
X74534284Y-68111710D02*
X74605712Y-68254567D01*
X74605712Y-68254567D02*
X74605712Y-68468853D01*
X74605712Y-68468853D02*
X74534284Y-68611710D01*
X74534284Y-68611710D02*
X74462855Y-68683139D01*
X74605712Y-69397424D02*
X73605712Y-69397424D01*
X73891426Y-69397424D02*
X73748569Y-69468853D01*
X73748569Y-69468853D02*
X73677141Y-69540282D01*
X73677141Y-69540282D02*
X73605712Y-69683139D01*
X73605712Y-69683139D02*
X73605712Y-69825996D01*
X73605712Y-70968853D02*
X74605712Y-70968853D01*
X73605712Y-70325995D02*
X74391426Y-70325995D01*
X74391426Y-70325995D02*
X74534284Y-70397424D01*
X74534284Y-70397424D02*
X74605712Y-70540281D01*
X74605712Y-70540281D02*
X74605712Y-70754567D01*
X74605712Y-70754567D02*
X74534284Y-70897424D01*
X74534284Y-70897424D02*
X74462855Y-70968853D01*
X74534284Y-72325996D02*
X74605712Y-72183138D01*
X74605712Y-72183138D02*
X74605712Y-71897424D01*
X74605712Y-71897424D02*
X74534284Y-71754567D01*
X74534284Y-71754567D02*
X74462855Y-71683138D01*
X74462855Y-71683138D02*
X74319998Y-71611710D01*
X74319998Y-71611710D02*
X73891426Y-71611710D01*
X73891426Y-71611710D02*
X73748569Y-71683138D01*
X73748569Y-71683138D02*
X73677141Y-71754567D01*
X73677141Y-71754567D02*
X73605712Y-71897424D01*
X73605712Y-71897424D02*
X73605712Y-72183138D01*
X73605712Y-72183138D02*
X73677141Y-72325996D01*
X73605712Y-72825995D02*
X73605712Y-73611710D01*
X73605712Y-73611710D02*
X74605712Y-72825995D01*
X74605712Y-72825995D02*
X74605712Y-73611710D01*
X77020628Y-58397424D02*
X76306342Y-57897424D01*
X77020628Y-57540281D02*
X75520628Y-57540281D01*
X75520628Y-57540281D02*
X75520628Y-58111710D01*
X75520628Y-58111710D02*
X75592057Y-58254567D01*
X75592057Y-58254567D02*
X75663485Y-58325996D01*
X75663485Y-58325996D02*
X75806342Y-58397424D01*
X75806342Y-58397424D02*
X76020628Y-58397424D01*
X76020628Y-58397424D02*
X76163485Y-58325996D01*
X76163485Y-58325996D02*
X76234914Y-58254567D01*
X76234914Y-58254567D02*
X76306342Y-58111710D01*
X76306342Y-58111710D02*
X76306342Y-57540281D01*
X76949200Y-59611710D02*
X77020628Y-59468853D01*
X77020628Y-59468853D02*
X77020628Y-59183139D01*
X77020628Y-59183139D02*
X76949200Y-59040281D01*
X76949200Y-59040281D02*
X76806342Y-58968853D01*
X76806342Y-58968853D02*
X76234914Y-58968853D01*
X76234914Y-58968853D02*
X76092057Y-59040281D01*
X76092057Y-59040281D02*
X76020628Y-59183139D01*
X76020628Y-59183139D02*
X76020628Y-59468853D01*
X76020628Y-59468853D02*
X76092057Y-59611710D01*
X76092057Y-59611710D02*
X76234914Y-59683139D01*
X76234914Y-59683139D02*
X76377771Y-59683139D01*
X76377771Y-59683139D02*
X76520628Y-58968853D01*
X76020628Y-60183138D02*
X77020628Y-60540281D01*
X77020628Y-60540281D02*
X76020628Y-60897424D01*
X76877771Y-61468852D02*
X76949200Y-61540281D01*
X76949200Y-61540281D02*
X77020628Y-61468852D01*
X77020628Y-61468852D02*
X76949200Y-61397424D01*
X76949200Y-61397424D02*
X76877771Y-61468852D01*
X76877771Y-61468852D02*
X77020628Y-61468852D01*
X76092057Y-61468852D02*
X76163485Y-61540281D01*
X76163485Y-61540281D02*
X76234914Y-61468852D01*
X76234914Y-61468852D02*
X76163485Y-61397424D01*
X76163485Y-61397424D02*
X76092057Y-61468852D01*
X76092057Y-61468852D02*
X76234914Y-61468852D01*
X77020628Y-64111710D02*
X77020628Y-63254567D01*
X77020628Y-63683138D02*
X75520628Y-63683138D01*
X75520628Y-63683138D02*
X75734914Y-63540281D01*
X75734914Y-63540281D02*
X75877771Y-63397424D01*
X75877771Y-63397424D02*
X75949200Y-63254567D01*
X76877771Y-64754566D02*
X76949200Y-64825995D01*
X76949200Y-64825995D02*
X77020628Y-64754566D01*
X77020628Y-64754566D02*
X76949200Y-64683138D01*
X76949200Y-64683138D02*
X76877771Y-64754566D01*
X76877771Y-64754566D02*
X77020628Y-64754566D01*
X75520628Y-65754567D02*
X75520628Y-65897424D01*
X75520628Y-65897424D02*
X75592057Y-66040281D01*
X75592057Y-66040281D02*
X75663485Y-66111710D01*
X75663485Y-66111710D02*
X75806342Y-66183138D01*
X75806342Y-66183138D02*
X76092057Y-66254567D01*
X76092057Y-66254567D02*
X76449200Y-66254567D01*
X76449200Y-66254567D02*
X76734914Y-66183138D01*
X76734914Y-66183138D02*
X76877771Y-66111710D01*
X76877771Y-66111710D02*
X76949200Y-66040281D01*
X76949200Y-66040281D02*
X77020628Y-65897424D01*
X77020628Y-65897424D02*
X77020628Y-65754567D01*
X77020628Y-65754567D02*
X76949200Y-65611710D01*
X76949200Y-65611710D02*
X76877771Y-65540281D01*
X76877771Y-65540281D02*
X76734914Y-65468852D01*
X76734914Y-65468852D02*
X76449200Y-65397424D01*
X76449200Y-65397424D02*
X76092057Y-65397424D01*
X76092057Y-65397424D02*
X75806342Y-65468852D01*
X75806342Y-65468852D02*
X75663485Y-65540281D01*
X75663485Y-65540281D02*
X75592057Y-65611710D01*
X75592057Y-65611710D02*
X75520628Y-65754567D01*
X35831798Y-9613310D02*
X35903226Y-9827596D01*
X35903226Y-9827596D02*
X35974655Y-9899025D01*
X35974655Y-9899025D02*
X36117512Y-9970453D01*
X36117512Y-9970453D02*
X36331798Y-9970453D01*
X36331798Y-9970453D02*
X36474655Y-9899025D01*
X36474655Y-9899025D02*
X36546084Y-9827596D01*
X36546084Y-9827596D02*
X36617512Y-9684739D01*
X36617512Y-9684739D02*
X36617512Y-9113310D01*
X36617512Y-9113310D02*
X35117512Y-9113310D01*
X35117512Y-9113310D02*
X35117512Y-9613310D01*
X35117512Y-9613310D02*
X35188941Y-9756168D01*
X35188941Y-9756168D02*
X35260369Y-9827596D01*
X35260369Y-9827596D02*
X35403226Y-9899025D01*
X35403226Y-9899025D02*
X35546084Y-9899025D01*
X35546084Y-9899025D02*
X35688941Y-9827596D01*
X35688941Y-9827596D02*
X35760369Y-9756168D01*
X35760369Y-9756168D02*
X35831798Y-9613310D01*
X35831798Y-9613310D02*
X35831798Y-9113310D01*
X35617512Y-10470453D02*
X36617512Y-10827596D01*
X35617512Y-11184739D02*
X36617512Y-10827596D01*
X36617512Y-10827596D02*
X36974655Y-10684739D01*
X36974655Y-10684739D02*
X37046084Y-10613310D01*
X37046084Y-10613310D02*
X37117512Y-10470453D01*
X36474655Y-11756167D02*
X36546084Y-11827596D01*
X36546084Y-11827596D02*
X36617512Y-11756167D01*
X36617512Y-11756167D02*
X36546084Y-11684739D01*
X36546084Y-11684739D02*
X36474655Y-11756167D01*
X36474655Y-11756167D02*
X36617512Y-11756167D01*
X35688941Y-11756167D02*
X35760369Y-11827596D01*
X35760369Y-11827596D02*
X35831798Y-11756167D01*
X35831798Y-11756167D02*
X35760369Y-11684739D01*
X35760369Y-11684739D02*
X35688941Y-11756167D01*
X35688941Y-11756167D02*
X35831798Y-11756167D01*
X36617512Y-13613310D02*
X35117512Y-13613310D01*
X36617512Y-14470453D02*
X35760369Y-13827596D01*
X35117512Y-14470453D02*
X35974655Y-13613310D01*
X36546084Y-15684739D02*
X36617512Y-15541882D01*
X36617512Y-15541882D02*
X36617512Y-15256168D01*
X36617512Y-15256168D02*
X36546084Y-15113310D01*
X36546084Y-15113310D02*
X36403226Y-15041882D01*
X36403226Y-15041882D02*
X35831798Y-15041882D01*
X35831798Y-15041882D02*
X35688941Y-15113310D01*
X35688941Y-15113310D02*
X35617512Y-15256168D01*
X35617512Y-15256168D02*
X35617512Y-15541882D01*
X35617512Y-15541882D02*
X35688941Y-15684739D01*
X35688941Y-15684739D02*
X35831798Y-15756168D01*
X35831798Y-15756168D02*
X35974655Y-15756168D01*
X35974655Y-15756168D02*
X36117512Y-15041882D01*
X35617512Y-16399024D02*
X36617512Y-16399024D01*
X35760369Y-16399024D02*
X35688941Y-16470453D01*
X35688941Y-16470453D02*
X35617512Y-16613310D01*
X35617512Y-16613310D02*
X35617512Y-16827596D01*
X35617512Y-16827596D02*
X35688941Y-16970453D01*
X35688941Y-16970453D02*
X35831798Y-17041882D01*
X35831798Y-17041882D02*
X36617512Y-17041882D01*
X36617512Y-18399025D02*
X35117512Y-18399025D01*
X36546084Y-18399025D02*
X36617512Y-18256167D01*
X36617512Y-18256167D02*
X36617512Y-17970453D01*
X36617512Y-17970453D02*
X36546084Y-17827596D01*
X36546084Y-17827596D02*
X36474655Y-17756167D01*
X36474655Y-17756167D02*
X36331798Y-17684739D01*
X36331798Y-17684739D02*
X35903226Y-17684739D01*
X35903226Y-17684739D02*
X35760369Y-17756167D01*
X35760369Y-17756167D02*
X35688941Y-17827596D01*
X35688941Y-17827596D02*
X35617512Y-17970453D01*
X35617512Y-17970453D02*
X35617512Y-18256167D01*
X35617512Y-18256167D02*
X35688941Y-18399025D01*
X36546084Y-19684739D02*
X36617512Y-19541882D01*
X36617512Y-19541882D02*
X36617512Y-19256168D01*
X36617512Y-19256168D02*
X36546084Y-19113310D01*
X36546084Y-19113310D02*
X36403226Y-19041882D01*
X36403226Y-19041882D02*
X35831798Y-19041882D01*
X35831798Y-19041882D02*
X35688941Y-19113310D01*
X35688941Y-19113310D02*
X35617512Y-19256168D01*
X35617512Y-19256168D02*
X35617512Y-19541882D01*
X35617512Y-19541882D02*
X35688941Y-19684739D01*
X35688941Y-19684739D02*
X35831798Y-19756168D01*
X35831798Y-19756168D02*
X35974655Y-19756168D01*
X35974655Y-19756168D02*
X36117512Y-19041882D01*
X36617512Y-21541881D02*
X35117512Y-21541881D01*
X36617512Y-22399024D02*
X35760369Y-21756167D01*
X35117512Y-22399024D02*
X35974655Y-21541881D01*
X35617512Y-23684739D02*
X36617512Y-23684739D01*
X35617512Y-23041881D02*
X36403226Y-23041881D01*
X36403226Y-23041881D02*
X36546084Y-23113310D01*
X36546084Y-23113310D02*
X36617512Y-23256167D01*
X36617512Y-23256167D02*
X36617512Y-23470453D01*
X36617512Y-23470453D02*
X36546084Y-23613310D01*
X36546084Y-23613310D02*
X36474655Y-23684739D01*
X36617512Y-24399024D02*
X35617512Y-24399024D01*
X35903226Y-24399024D02*
X35760369Y-24470453D01*
X35760369Y-24470453D02*
X35688941Y-24541882D01*
X35688941Y-24541882D02*
X35617512Y-24684739D01*
X35617512Y-24684739D02*
X35617512Y-24827596D01*
X35617512Y-25970453D02*
X36617512Y-25970453D01*
X35617512Y-25327595D02*
X36403226Y-25327595D01*
X36403226Y-25327595D02*
X36546084Y-25399024D01*
X36546084Y-25399024D02*
X36617512Y-25541881D01*
X36617512Y-25541881D02*
X36617512Y-25756167D01*
X36617512Y-25756167D02*
X36546084Y-25899024D01*
X36546084Y-25899024D02*
X36474655Y-25970453D01*
X36546084Y-27327596D02*
X36617512Y-27184738D01*
X36617512Y-27184738D02*
X36617512Y-26899024D01*
X36617512Y-26899024D02*
X36546084Y-26756167D01*
X36546084Y-26756167D02*
X36474655Y-26684738D01*
X36474655Y-26684738D02*
X36331798Y-26613310D01*
X36331798Y-26613310D02*
X35903226Y-26613310D01*
X35903226Y-26613310D02*
X35760369Y-26684738D01*
X35760369Y-26684738D02*
X35688941Y-26756167D01*
X35688941Y-26756167D02*
X35617512Y-26899024D01*
X35617512Y-26899024D02*
X35617512Y-27184738D01*
X35617512Y-27184738D02*
X35688941Y-27327596D01*
X35617512Y-27827595D02*
X35617512Y-28613310D01*
X35617512Y-28613310D02*
X36617512Y-27827595D01*
X36617512Y-27827595D02*
X36617512Y-28613310D01*
X39032428Y-13399024D02*
X38318142Y-12899024D01*
X39032428Y-12541881D02*
X37532428Y-12541881D01*
X37532428Y-12541881D02*
X37532428Y-13113310D01*
X37532428Y-13113310D02*
X37603857Y-13256167D01*
X37603857Y-13256167D02*
X37675285Y-13327596D01*
X37675285Y-13327596D02*
X37818142Y-13399024D01*
X37818142Y-13399024D02*
X38032428Y-13399024D01*
X38032428Y-13399024D02*
X38175285Y-13327596D01*
X38175285Y-13327596D02*
X38246714Y-13256167D01*
X38246714Y-13256167D02*
X38318142Y-13113310D01*
X38318142Y-13113310D02*
X38318142Y-12541881D01*
X38961000Y-14613310D02*
X39032428Y-14470453D01*
X39032428Y-14470453D02*
X39032428Y-14184739D01*
X39032428Y-14184739D02*
X38961000Y-14041881D01*
X38961000Y-14041881D02*
X38818142Y-13970453D01*
X38818142Y-13970453D02*
X38246714Y-13970453D01*
X38246714Y-13970453D02*
X38103857Y-14041881D01*
X38103857Y-14041881D02*
X38032428Y-14184739D01*
X38032428Y-14184739D02*
X38032428Y-14470453D01*
X38032428Y-14470453D02*
X38103857Y-14613310D01*
X38103857Y-14613310D02*
X38246714Y-14684739D01*
X38246714Y-14684739D02*
X38389571Y-14684739D01*
X38389571Y-14684739D02*
X38532428Y-13970453D01*
X38032428Y-15184738D02*
X39032428Y-15541881D01*
X39032428Y-15541881D02*
X38032428Y-15899024D01*
X38889571Y-16470452D02*
X38961000Y-16541881D01*
X38961000Y-16541881D02*
X39032428Y-16470452D01*
X39032428Y-16470452D02*
X38961000Y-16399024D01*
X38961000Y-16399024D02*
X38889571Y-16470452D01*
X38889571Y-16470452D02*
X39032428Y-16470452D01*
X38103857Y-16470452D02*
X38175285Y-16541881D01*
X38175285Y-16541881D02*
X38246714Y-16470452D01*
X38246714Y-16470452D02*
X38175285Y-16399024D01*
X38175285Y-16399024D02*
X38103857Y-16470452D01*
X38103857Y-16470452D02*
X38246714Y-16470452D01*
X39032428Y-19113310D02*
X39032428Y-18256167D01*
X39032428Y-18684738D02*
X37532428Y-18684738D01*
X37532428Y-18684738D02*
X37746714Y-18541881D01*
X37746714Y-18541881D02*
X37889571Y-18399024D01*
X37889571Y-18399024D02*
X37961000Y-18256167D01*
X38889571Y-19756166D02*
X38961000Y-19827595D01*
X38961000Y-19827595D02*
X39032428Y-19756166D01*
X39032428Y-19756166D02*
X38961000Y-19684738D01*
X38961000Y-19684738D02*
X38889571Y-19756166D01*
X38889571Y-19756166D02*
X39032428Y-19756166D01*
X37532428Y-20756167D02*
X37532428Y-20899024D01*
X37532428Y-20899024D02*
X37603857Y-21041881D01*
X37603857Y-21041881D02*
X37675285Y-21113310D01*
X37675285Y-21113310D02*
X37818142Y-21184738D01*
X37818142Y-21184738D02*
X38103857Y-21256167D01*
X38103857Y-21256167D02*
X38461000Y-21256167D01*
X38461000Y-21256167D02*
X38746714Y-21184738D01*
X38746714Y-21184738D02*
X38889571Y-21113310D01*
X38889571Y-21113310D02*
X38961000Y-21041881D01*
X38961000Y-21041881D02*
X39032428Y-20899024D01*
X39032428Y-20899024D02*
X39032428Y-20756167D01*
X39032428Y-20756167D02*
X38961000Y-20613310D01*
X38961000Y-20613310D02*
X38889571Y-20541881D01*
X38889571Y-20541881D02*
X38746714Y-20470452D01*
X38746714Y-20470452D02*
X38461000Y-20399024D01*
X38461000Y-20399024D02*
X38103857Y-20399024D01*
X38103857Y-20399024D02*
X37818142Y-20470452D01*
X37818142Y-20470452D02*
X37675285Y-20541881D01*
X37675285Y-20541881D02*
X37603857Y-20613310D01*
X37603857Y-20613310D02*
X37532428Y-20756167D01*
X73819998Y-9613310D02*
X73891426Y-9827596D01*
X73891426Y-9827596D02*
X73962855Y-9899025D01*
X73962855Y-9899025D02*
X74105712Y-9970453D01*
X74105712Y-9970453D02*
X74319998Y-9970453D01*
X74319998Y-9970453D02*
X74462855Y-9899025D01*
X74462855Y-9899025D02*
X74534284Y-9827596D01*
X74534284Y-9827596D02*
X74605712Y-9684739D01*
X74605712Y-9684739D02*
X74605712Y-9113310D01*
X74605712Y-9113310D02*
X73105712Y-9113310D01*
X73105712Y-9113310D02*
X73105712Y-9613310D01*
X73105712Y-9613310D02*
X73177141Y-9756168D01*
X73177141Y-9756168D02*
X73248569Y-9827596D01*
X73248569Y-9827596D02*
X73391426Y-9899025D01*
X73391426Y-9899025D02*
X73534284Y-9899025D01*
X73534284Y-9899025D02*
X73677141Y-9827596D01*
X73677141Y-9827596D02*
X73748569Y-9756168D01*
X73748569Y-9756168D02*
X73819998Y-9613310D01*
X73819998Y-9613310D02*
X73819998Y-9113310D01*
X73605712Y-10470453D02*
X74605712Y-10827596D01*
X73605712Y-11184739D02*
X74605712Y-10827596D01*
X74605712Y-10827596D02*
X74962855Y-10684739D01*
X74962855Y-10684739D02*
X75034284Y-10613310D01*
X75034284Y-10613310D02*
X75105712Y-10470453D01*
X74462855Y-11756167D02*
X74534284Y-11827596D01*
X74534284Y-11827596D02*
X74605712Y-11756167D01*
X74605712Y-11756167D02*
X74534284Y-11684739D01*
X74534284Y-11684739D02*
X74462855Y-11756167D01*
X74462855Y-11756167D02*
X74605712Y-11756167D01*
X73677141Y-11756167D02*
X73748569Y-11827596D01*
X73748569Y-11827596D02*
X73819998Y-11756167D01*
X73819998Y-11756167D02*
X73748569Y-11684739D01*
X73748569Y-11684739D02*
X73677141Y-11756167D01*
X73677141Y-11756167D02*
X73819998Y-11756167D01*
X74605712Y-13613310D02*
X73105712Y-13613310D01*
X74605712Y-14470453D02*
X73748569Y-13827596D01*
X73105712Y-14470453D02*
X73962855Y-13613310D01*
X74534284Y-15684739D02*
X74605712Y-15541882D01*
X74605712Y-15541882D02*
X74605712Y-15256168D01*
X74605712Y-15256168D02*
X74534284Y-15113310D01*
X74534284Y-15113310D02*
X74391426Y-15041882D01*
X74391426Y-15041882D02*
X73819998Y-15041882D01*
X73819998Y-15041882D02*
X73677141Y-15113310D01*
X73677141Y-15113310D02*
X73605712Y-15256168D01*
X73605712Y-15256168D02*
X73605712Y-15541882D01*
X73605712Y-15541882D02*
X73677141Y-15684739D01*
X73677141Y-15684739D02*
X73819998Y-15756168D01*
X73819998Y-15756168D02*
X73962855Y-15756168D01*
X73962855Y-15756168D02*
X74105712Y-15041882D01*
X73605712Y-16399024D02*
X74605712Y-16399024D01*
X73748569Y-16399024D02*
X73677141Y-16470453D01*
X73677141Y-16470453D02*
X73605712Y-16613310D01*
X73605712Y-16613310D02*
X73605712Y-16827596D01*
X73605712Y-16827596D02*
X73677141Y-16970453D01*
X73677141Y-16970453D02*
X73819998Y-17041882D01*
X73819998Y-17041882D02*
X74605712Y-17041882D01*
X74605712Y-18399025D02*
X73105712Y-18399025D01*
X74534284Y-18399025D02*
X74605712Y-18256167D01*
X74605712Y-18256167D02*
X74605712Y-17970453D01*
X74605712Y-17970453D02*
X74534284Y-17827596D01*
X74534284Y-17827596D02*
X74462855Y-17756167D01*
X74462855Y-17756167D02*
X74319998Y-17684739D01*
X74319998Y-17684739D02*
X73891426Y-17684739D01*
X73891426Y-17684739D02*
X73748569Y-17756167D01*
X73748569Y-17756167D02*
X73677141Y-17827596D01*
X73677141Y-17827596D02*
X73605712Y-17970453D01*
X73605712Y-17970453D02*
X73605712Y-18256167D01*
X73605712Y-18256167D02*
X73677141Y-18399025D01*
X74534284Y-19684739D02*
X74605712Y-19541882D01*
X74605712Y-19541882D02*
X74605712Y-19256168D01*
X74605712Y-19256168D02*
X74534284Y-19113310D01*
X74534284Y-19113310D02*
X74391426Y-19041882D01*
X74391426Y-19041882D02*
X73819998Y-19041882D01*
X73819998Y-19041882D02*
X73677141Y-19113310D01*
X73677141Y-19113310D02*
X73605712Y-19256168D01*
X73605712Y-19256168D02*
X73605712Y-19541882D01*
X73605712Y-19541882D02*
X73677141Y-19684739D01*
X73677141Y-19684739D02*
X73819998Y-19756168D01*
X73819998Y-19756168D02*
X73962855Y-19756168D01*
X73962855Y-19756168D02*
X74105712Y-19041882D01*
X74605712Y-21541881D02*
X73105712Y-21541881D01*
X74605712Y-22399024D02*
X73748569Y-21756167D01*
X73105712Y-22399024D02*
X73962855Y-21541881D01*
X73605712Y-23684739D02*
X74605712Y-23684739D01*
X73605712Y-23041881D02*
X74391426Y-23041881D01*
X74391426Y-23041881D02*
X74534284Y-23113310D01*
X74534284Y-23113310D02*
X74605712Y-23256167D01*
X74605712Y-23256167D02*
X74605712Y-23470453D01*
X74605712Y-23470453D02*
X74534284Y-23613310D01*
X74534284Y-23613310D02*
X74462855Y-23684739D01*
X74605712Y-24399024D02*
X73605712Y-24399024D01*
X73891426Y-24399024D02*
X73748569Y-24470453D01*
X73748569Y-24470453D02*
X73677141Y-24541882D01*
X73677141Y-24541882D02*
X73605712Y-24684739D01*
X73605712Y-24684739D02*
X73605712Y-24827596D01*
X73605712Y-25970453D02*
X74605712Y-25970453D01*
X73605712Y-25327595D02*
X74391426Y-25327595D01*
X74391426Y-25327595D02*
X74534284Y-25399024D01*
X74534284Y-25399024D02*
X74605712Y-25541881D01*
X74605712Y-25541881D02*
X74605712Y-25756167D01*
X74605712Y-25756167D02*
X74534284Y-25899024D01*
X74534284Y-25899024D02*
X74462855Y-25970453D01*
X74534284Y-27327596D02*
X74605712Y-27184738D01*
X74605712Y-27184738D02*
X74605712Y-26899024D01*
X74605712Y-26899024D02*
X74534284Y-26756167D01*
X74534284Y-26756167D02*
X74462855Y-26684738D01*
X74462855Y-26684738D02*
X74319998Y-26613310D01*
X74319998Y-26613310D02*
X73891426Y-26613310D01*
X73891426Y-26613310D02*
X73748569Y-26684738D01*
X73748569Y-26684738D02*
X73677141Y-26756167D01*
X73677141Y-26756167D02*
X73605712Y-26899024D01*
X73605712Y-26899024D02*
X73605712Y-27184738D01*
X73605712Y-27184738D02*
X73677141Y-27327596D01*
X73605712Y-27827595D02*
X73605712Y-28613310D01*
X73605712Y-28613310D02*
X74605712Y-27827595D01*
X74605712Y-27827595D02*
X74605712Y-28613310D01*
X77020628Y-13399024D02*
X76306342Y-12899024D01*
X77020628Y-12541881D02*
X75520628Y-12541881D01*
X75520628Y-12541881D02*
X75520628Y-13113310D01*
X75520628Y-13113310D02*
X75592057Y-13256167D01*
X75592057Y-13256167D02*
X75663485Y-13327596D01*
X75663485Y-13327596D02*
X75806342Y-13399024D01*
X75806342Y-13399024D02*
X76020628Y-13399024D01*
X76020628Y-13399024D02*
X76163485Y-13327596D01*
X76163485Y-13327596D02*
X76234914Y-13256167D01*
X76234914Y-13256167D02*
X76306342Y-13113310D01*
X76306342Y-13113310D02*
X76306342Y-12541881D01*
X76949200Y-14613310D02*
X77020628Y-14470453D01*
X77020628Y-14470453D02*
X77020628Y-14184739D01*
X77020628Y-14184739D02*
X76949200Y-14041881D01*
X76949200Y-14041881D02*
X76806342Y-13970453D01*
X76806342Y-13970453D02*
X76234914Y-13970453D01*
X76234914Y-13970453D02*
X76092057Y-14041881D01*
X76092057Y-14041881D02*
X76020628Y-14184739D01*
X76020628Y-14184739D02*
X76020628Y-14470453D01*
X76020628Y-14470453D02*
X76092057Y-14613310D01*
X76092057Y-14613310D02*
X76234914Y-14684739D01*
X76234914Y-14684739D02*
X76377771Y-14684739D01*
X76377771Y-14684739D02*
X76520628Y-13970453D01*
X76020628Y-15184738D02*
X77020628Y-15541881D01*
X77020628Y-15541881D02*
X76020628Y-15899024D01*
X76877771Y-16470452D02*
X76949200Y-16541881D01*
X76949200Y-16541881D02*
X77020628Y-16470452D01*
X77020628Y-16470452D02*
X76949200Y-16399024D01*
X76949200Y-16399024D02*
X76877771Y-16470452D01*
X76877771Y-16470452D02*
X77020628Y-16470452D01*
X76092057Y-16470452D02*
X76163485Y-16541881D01*
X76163485Y-16541881D02*
X76234914Y-16470452D01*
X76234914Y-16470452D02*
X76163485Y-16399024D01*
X76163485Y-16399024D02*
X76092057Y-16470452D01*
X76092057Y-16470452D02*
X76234914Y-16470452D01*
X77020628Y-19113310D02*
X77020628Y-18256167D01*
X77020628Y-18684738D02*
X75520628Y-18684738D01*
X75520628Y-18684738D02*
X75734914Y-18541881D01*
X75734914Y-18541881D02*
X75877771Y-18399024D01*
X75877771Y-18399024D02*
X75949200Y-18256167D01*
X76877771Y-19756166D02*
X76949200Y-19827595D01*
X76949200Y-19827595D02*
X77020628Y-19756166D01*
X77020628Y-19756166D02*
X76949200Y-19684738D01*
X76949200Y-19684738D02*
X76877771Y-19756166D01*
X76877771Y-19756166D02*
X77020628Y-19756166D01*
X75520628Y-20756167D02*
X75520628Y-20899024D01*
X75520628Y-20899024D02*
X75592057Y-21041881D01*
X75592057Y-21041881D02*
X75663485Y-21113310D01*
X75663485Y-21113310D02*
X75806342Y-21184738D01*
X75806342Y-21184738D02*
X76092057Y-21256167D01*
X76092057Y-21256167D02*
X76449200Y-21256167D01*
X76449200Y-21256167D02*
X76734914Y-21184738D01*
X76734914Y-21184738D02*
X76877771Y-21113310D01*
X76877771Y-21113310D02*
X76949200Y-21041881D01*
X76949200Y-21041881D02*
X77020628Y-20899024D01*
X77020628Y-20899024D02*
X77020628Y-20756167D01*
X77020628Y-20756167D02*
X76949200Y-20613310D01*
X76949200Y-20613310D02*
X76877771Y-20541881D01*
X76877771Y-20541881D02*
X76734914Y-20470452D01*
X76734914Y-20470452D02*
X76449200Y-20399024D01*
X76449200Y-20399024D02*
X76092057Y-20399024D01*
X76092057Y-20399024D02*
X75806342Y-20470452D01*
X75806342Y-20470452D02*
X75663485Y-20541881D01*
X75663485Y-20541881D02*
X75592057Y-20613310D01*
X75592057Y-20613310D02*
X75520628Y-20756167D01*
D11*
X63425000Y-24385467D02*
X63472619Y-24528324D01*
X63472619Y-24528324D02*
X63472619Y-24766419D01*
X63472619Y-24766419D02*
X63425000Y-24861657D01*
X63425000Y-24861657D02*
X63377380Y-24909276D01*
X63377380Y-24909276D02*
X63282142Y-24956895D01*
X63282142Y-24956895D02*
X63186904Y-24956895D01*
X63186904Y-24956895D02*
X63091666Y-24909276D01*
X63091666Y-24909276D02*
X63044047Y-24861657D01*
X63044047Y-24861657D02*
X62996428Y-24766419D01*
X62996428Y-24766419D02*
X62948809Y-24575943D01*
X62948809Y-24575943D02*
X62901190Y-24480705D01*
X62901190Y-24480705D02*
X62853571Y-24433086D01*
X62853571Y-24433086D02*
X62758333Y-24385467D01*
X62758333Y-24385467D02*
X62663095Y-24385467D01*
X62663095Y-24385467D02*
X62567857Y-24433086D01*
X62567857Y-24433086D02*
X62520238Y-24480705D01*
X62520238Y-24480705D02*
X62472619Y-24575943D01*
X62472619Y-24575943D02*
X62472619Y-24814038D01*
X62472619Y-24814038D02*
X62520238Y-24956895D01*
X62472619Y-25290229D02*
X63472619Y-25528324D01*
X63472619Y-25528324D02*
X62758333Y-25718800D01*
X62758333Y-25718800D02*
X63472619Y-25909276D01*
X63472619Y-25909276D02*
X62472619Y-26147372D01*
X62567857Y-26480705D02*
X62520238Y-26528324D01*
X62520238Y-26528324D02*
X62472619Y-26623562D01*
X62472619Y-26623562D02*
X62472619Y-26861657D01*
X62472619Y-26861657D02*
X62520238Y-26956895D01*
X62520238Y-26956895D02*
X62567857Y-27004514D01*
X62567857Y-27004514D02*
X62663095Y-27052133D01*
X62663095Y-27052133D02*
X62758333Y-27052133D01*
X62758333Y-27052133D02*
X62901190Y-27004514D01*
X62901190Y-27004514D02*
X63472619Y-26433086D01*
X63472619Y-26433086D02*
X63472619Y-27052133D01*
X25436800Y-69383867D02*
X25484419Y-69526724D01*
X25484419Y-69526724D02*
X25484419Y-69764819D01*
X25484419Y-69764819D02*
X25436800Y-69860057D01*
X25436800Y-69860057D02*
X25389180Y-69907676D01*
X25389180Y-69907676D02*
X25293942Y-69955295D01*
X25293942Y-69955295D02*
X25198704Y-69955295D01*
X25198704Y-69955295D02*
X25103466Y-69907676D01*
X25103466Y-69907676D02*
X25055847Y-69860057D01*
X25055847Y-69860057D02*
X25008228Y-69764819D01*
X25008228Y-69764819D02*
X24960609Y-69574343D01*
X24960609Y-69574343D02*
X24912990Y-69479105D01*
X24912990Y-69479105D02*
X24865371Y-69431486D01*
X24865371Y-69431486D02*
X24770133Y-69383867D01*
X24770133Y-69383867D02*
X24674895Y-69383867D01*
X24674895Y-69383867D02*
X24579657Y-69431486D01*
X24579657Y-69431486D02*
X24532038Y-69479105D01*
X24532038Y-69479105D02*
X24484419Y-69574343D01*
X24484419Y-69574343D02*
X24484419Y-69812438D01*
X24484419Y-69812438D02*
X24532038Y-69955295D01*
X24484419Y-70288629D02*
X25484419Y-70526724D01*
X25484419Y-70526724D02*
X24770133Y-70717200D01*
X24770133Y-70717200D02*
X25484419Y-70907676D01*
X25484419Y-70907676D02*
X24484419Y-71145772D01*
X24579657Y-71479105D02*
X24532038Y-71526724D01*
X24532038Y-71526724D02*
X24484419Y-71621962D01*
X24484419Y-71621962D02*
X24484419Y-71860057D01*
X24484419Y-71860057D02*
X24532038Y-71955295D01*
X24532038Y-71955295D02*
X24579657Y-72002914D01*
X24579657Y-72002914D02*
X24674895Y-72050533D01*
X24674895Y-72050533D02*
X24770133Y-72050533D01*
X24770133Y-72050533D02*
X24912990Y-72002914D01*
X24912990Y-72002914D02*
X25484419Y-71431486D01*
X25484419Y-71431486D02*
X25484419Y-72050533D01*
X25436800Y-24385467D02*
X25484419Y-24528324D01*
X25484419Y-24528324D02*
X25484419Y-24766419D01*
X25484419Y-24766419D02*
X25436800Y-24861657D01*
X25436800Y-24861657D02*
X25389180Y-24909276D01*
X25389180Y-24909276D02*
X25293942Y-24956895D01*
X25293942Y-24956895D02*
X25198704Y-24956895D01*
X25198704Y-24956895D02*
X25103466Y-24909276D01*
X25103466Y-24909276D02*
X25055847Y-24861657D01*
X25055847Y-24861657D02*
X25008228Y-24766419D01*
X25008228Y-24766419D02*
X24960609Y-24575943D01*
X24960609Y-24575943D02*
X24912990Y-24480705D01*
X24912990Y-24480705D02*
X24865371Y-24433086D01*
X24865371Y-24433086D02*
X24770133Y-24385467D01*
X24770133Y-24385467D02*
X24674895Y-24385467D01*
X24674895Y-24385467D02*
X24579657Y-24433086D01*
X24579657Y-24433086D02*
X24532038Y-24480705D01*
X24532038Y-24480705D02*
X24484419Y-24575943D01*
X24484419Y-24575943D02*
X24484419Y-24814038D01*
X24484419Y-24814038D02*
X24532038Y-24956895D01*
X24484419Y-25290229D02*
X25484419Y-25528324D01*
X25484419Y-25528324D02*
X24770133Y-25718800D01*
X24770133Y-25718800D02*
X25484419Y-25909276D01*
X25484419Y-25909276D02*
X24484419Y-26147372D01*
X24579657Y-26480705D02*
X24532038Y-26528324D01*
X24532038Y-26528324D02*
X24484419Y-26623562D01*
X24484419Y-26623562D02*
X24484419Y-26861657D01*
X24484419Y-26861657D02*
X24532038Y-26956895D01*
X24532038Y-26956895D02*
X24579657Y-27004514D01*
X24579657Y-27004514D02*
X24674895Y-27052133D01*
X24674895Y-27052133D02*
X24770133Y-27052133D01*
X24770133Y-27052133D02*
X24912990Y-27004514D01*
X24912990Y-27004514D02*
X25484419Y-26433086D01*
X25484419Y-26433086D02*
X25484419Y-27052133D01*
X63425000Y-69383867D02*
X63472619Y-69526724D01*
X63472619Y-69526724D02*
X63472619Y-69764819D01*
X63472619Y-69764819D02*
X63425000Y-69860057D01*
X63425000Y-69860057D02*
X63377380Y-69907676D01*
X63377380Y-69907676D02*
X63282142Y-69955295D01*
X63282142Y-69955295D02*
X63186904Y-69955295D01*
X63186904Y-69955295D02*
X63091666Y-69907676D01*
X63091666Y-69907676D02*
X63044047Y-69860057D01*
X63044047Y-69860057D02*
X62996428Y-69764819D01*
X62996428Y-69764819D02*
X62948809Y-69574343D01*
X62948809Y-69574343D02*
X62901190Y-69479105D01*
X62901190Y-69479105D02*
X62853571Y-69431486D01*
X62853571Y-69431486D02*
X62758333Y-69383867D01*
X62758333Y-69383867D02*
X62663095Y-69383867D01*
X62663095Y-69383867D02*
X62567857Y-69431486D01*
X62567857Y-69431486D02*
X62520238Y-69479105D01*
X62520238Y-69479105D02*
X62472619Y-69574343D01*
X62472619Y-69574343D02*
X62472619Y-69812438D01*
X62472619Y-69812438D02*
X62520238Y-69955295D01*
X62472619Y-70288629D02*
X63472619Y-70526724D01*
X63472619Y-70526724D02*
X62758333Y-70717200D01*
X62758333Y-70717200D02*
X63472619Y-70907676D01*
X63472619Y-70907676D02*
X62472619Y-71145772D01*
X62567857Y-71479105D02*
X62520238Y-71526724D01*
X62520238Y-71526724D02*
X62472619Y-71621962D01*
X62472619Y-71621962D02*
X62472619Y-71860057D01*
X62472619Y-71860057D02*
X62520238Y-71955295D01*
X62520238Y-71955295D02*
X62567857Y-72002914D01*
X62567857Y-72002914D02*
X62663095Y-72050533D01*
X62663095Y-72050533D02*
X62758333Y-72050533D01*
X62758333Y-72050533D02*
X62901190Y-72002914D01*
X62901190Y-72002914D02*
X63472619Y-71431486D01*
X63472619Y-71431486D02*
X63472619Y-72050533D01*
D12*
G04 #@! TO.C,SW2*
X60217800Y-25018800D02*
X60217800Y-26418800D01*
X60917800Y-27118800D02*
X61517800Y-27118800D01*
X61517800Y-24318800D02*
X60917800Y-24318800D01*
X62217800Y-26418800D02*
X62217800Y-25018800D01*
X60217800Y-25018800D02*
G75*
G02*
X60917800Y-24318800I700000J0D01*
G01*
X60917800Y-27118800D02*
G75*
G02*
X60217800Y-26418800I-1J699999D01*
G01*
X61517800Y-24318800D02*
G75*
G02*
X62217800Y-25018800I0J-700000D01*
G01*
X62217800Y-26418800D02*
G75*
G02*
X61517800Y-27118800I-699999J-1D01*
G01*
X22229600Y-70017200D02*
X22229600Y-71417200D01*
X22929600Y-72117200D02*
X23529600Y-72117200D01*
X23529600Y-69317200D02*
X22929600Y-69317200D01*
X24229600Y-71417200D02*
X24229600Y-70017200D01*
X22229600Y-70017200D02*
G75*
G02*
X22929600Y-69317200I700000J0D01*
G01*
X22929600Y-72117200D02*
G75*
G02*
X22229600Y-71417200I-1J699999D01*
G01*
X23529600Y-69317200D02*
G75*
G02*
X24229600Y-70017200I0J-700000D01*
G01*
X24229600Y-71417200D02*
G75*
G02*
X23529600Y-72117200I-699999J-1D01*
G01*
X22229600Y-25018800D02*
X22229600Y-26418800D01*
X22929600Y-27118800D02*
X23529600Y-27118800D01*
X23529600Y-24318800D02*
X22929600Y-24318800D01*
X24229600Y-26418800D02*
X24229600Y-25018800D01*
X22229600Y-25018800D02*
G75*
G02*
X22929600Y-24318800I700000J0D01*
G01*
X22929600Y-27118800D02*
G75*
G02*
X22229600Y-26418800I-1J699999D01*
G01*
X23529600Y-24318800D02*
G75*
G02*
X24229600Y-25018800I0J-700000D01*
G01*
X24229600Y-26418800D02*
G75*
G02*
X23529600Y-27118800I-699999J-1D01*
G01*
X60217800Y-70017200D02*
X60217800Y-71417200D01*
X60917800Y-72117200D02*
X61517800Y-72117200D01*
X61517800Y-69317200D02*
X60917800Y-69317200D01*
X62217800Y-71417200D02*
X62217800Y-70017200D01*
X60217800Y-70017200D02*
G75*
G02*
X60917800Y-69317200I700000J0D01*
G01*
X60917800Y-72117200D02*
G75*
G02*
X60217800Y-71417200I-1J699999D01*
G01*
X61517800Y-69317200D02*
G75*
G02*
X62217800Y-70017200I0J-700000D01*
G01*
X62217800Y-71417200D02*
G75*
G02*
X61517800Y-72117200I-699999J-1D01*
G01*
G04 #@! TD*
M02*
